<svg xmlns="http://www.w3.org/2000/svg" xmlns:xlink="http://www.w3.org/1999/xlink" width="110" height="110" viewBox="0 0 110 110">
  <defs>
    <filter id="Trazado_982547" x="0" y="0" width="110" height="110" filterUnits="userSpaceOnUse">
      <feOffset dy="3" input="SourceAlpha"/>
      <feGaussianBlur stdDeviation="3" result="blur"/>
      <feFlood flood-opacity="0.161"/>
      <feComposite operator="in" in2="blur"/>
      <feComposite in="SourceGraphic"/>
    </filter>
  </defs>
  <g id="Grupo_1201517" data-name="Grupo 1201517" transform="translate(-1112.804 -4438.746)">
    <g id="Grupo_1182825" data-name="Grupo 1182825" transform="translate(1121.804 4444.746)">
      <g id="Grupo_1179603" data-name="Grupo 1179603" transform="translate(0 0)">
        <g id="Grupo_1172349" data-name="Grupo 1172349" transform="translate(0 0)">
          <g id="Grupo_1164700" data-name="Grupo 1164700">
            <g id="Grupo_1160931" data-name="Grupo 1160931">
              <g id="Grupo_1160749" data-name="Grupo 1160749">
                <g id="Grupo_1158891" data-name="Grupo 1158891">
                  <g id="Grupo_1157406" data-name="Grupo 1157406">
                    <g id="Grupo_1155793" data-name="Grupo 1155793">
                      <g id="Grupo_1154704" data-name="Grupo 1154704">
                        <g id="Grupo_1150790" data-name="Grupo 1150790">
                          <g id="Grupo_1154214" data-name="Grupo 1154214">
                            <g id="Grupo_1152583" data-name="Grupo 1152583">
                              <g id="Grupo_1146973" data-name="Grupo 1146973">
                                <g id="Grupo_1146954" data-name="Grupo 1146954">
                                  <g transform="matrix(1, 0, 0, 1, -9, -6)" filter="url(#Trazado_982547)">
                                    <g id="Trazado_982547-2" data-name="Trazado 982547" transform="translate(9 6)" fill="#effbfe">
                                      <path d="M 46.00000381469727 90.49986267089844 C 39.99188232421875 90.49986267089844 34.16428375244141 89.32350158691406 28.67905807495117 87.00344848632812 C 23.38021659851074 84.76223754882812 18.62104415893555 81.55341339111328 14.53376388549805 77.46613311767578 C 10.44647026062012 73.37885284423828 7.237643718719482 68.61968994140625 4.996417045593262 63.32085037231445 C 2.676363706588745 57.83565139770508 1.500003814697266 52.00805282592773 1.500003814697266 45.99993133544922 C 1.500003814697266 39.99182510375977 2.676363706588745 34.16422653198242 4.996417045593262 28.67901039123535 C 7.237643718719482 23.38017082214355 10.44647026062012 18.62101173400879 14.53376388549805 14.53373146057129 C 18.62104415893555 10.44645118713379 23.38021659851074 7.237624645233154 28.67905807495117 4.996411323547363 C 34.16428375244141 2.676357984542847 39.99188232421875 1.499997973442078 46.00000381469727 1.499997973442078 C 52.00812530517578 1.499997973442078 57.83573532104492 2.676357984542847 63.32094955444336 4.996411323547363 C 68.61980438232422 7.237624645233154 73.37896728515625 10.44645118713379 77.46625518798828 14.53373146057129 C 81.55353546142578 18.62101173400879 84.76236724853516 23.38017082214355 87.00359344482422 28.67901039123535 C 89.32364654541016 34.16422653198242 90.5 39.99182510375977 90.5 45.99993133544922 C 90.5 52.00805282592773 89.32364654541016 57.83565139770508 87.00359344482422 63.32085037231445 C 84.76236724853516 68.61968994140625 81.55353546142578 73.37885284423828 77.46625518798828 77.46613311767578 C 73.37896728515625 81.55341339111328 68.61980438232422 84.76223754882812 63.32094955444336 87.00344848632812 C 57.83573532104492 89.32350158691406 52.00812530517578 90.49986267089844 46.00000381469727 90.49986267089844 Z" stroke="none"/>
                                      <path d="M 46.00000381469727 3 C 40.19371795654297 3 34.56270217895508 4.136505126953125 29.26338958740234 6.377914428710938 C 24.14333343505859 8.54351806640625 19.54443359375 11.64438629150391 15.59442138671875 15.59439086914062 C 11.64440155029297 19.54440307617188 8.543533325195312 24.14330291748047 6.3779296875 29.26334381103516 C 4.136505126953125 34.56266021728516 3.000007629394531 40.19366073608398 3.000007629394531 45.99993133544922 C 3.000007629394531 51.80620193481445 4.136505126953125 57.43720245361328 6.3779296875 62.73651885986328 C 8.543533325195312 67.85655975341797 11.64440155029297 72.45545959472656 15.59442138671875 76.40547180175781 C 19.54443359375 80.35547637939453 24.14333343505859 83.45634460449219 29.26338958740234 85.6219482421875 C 34.56270217895508 87.86335754394531 40.19371795654297 88.99986267089844 46.00000381469727 88.99986267089844 C 51.80628967285156 88.99986267089844 57.43730545043945 87.86335754394531 62.73663330078125 85.6219482421875 C 67.85667419433594 83.45634460449219 72.45558929443359 80.35547637939453 76.40560150146484 76.40547180175781 C 80.35560607910156 72.45545959472656 83.45648956298828 67.85655975341797 85.62208557128906 62.73651885986328 C 87.86350250244141 57.43720245361328 89 51.80620193481445 89 45.99993133544922 C 89 40.19366073608398 87.86350250244141 34.56266021728516 85.62208557128906 29.26334381103516 C 83.45648956298828 24.14330291748047 80.35560607910156 19.54440307617188 76.40560150146484 15.59439086914062 C 72.45558929443359 11.64438629150391 67.85667419433594 8.54351806640625 62.73663330078125 6.377914428710938 C 57.43730545043945 4.136505126953125 51.80628967285156 3 46.00000381469727 3 M 46.00000381469727 0 C 71.40510559082031 0 92 20.59487152099609 92 45.99993133544922 C 92 71.40499114990234 71.40510559082031 91.99986267089844 46.00000381469727 91.99986267089844 C 20.59491729736328 91.99986267089844 7.62939453125e-06 71.40499114990234 7.62939453125e-06 45.99993133544922 C 7.62939453125e-06 20.59487152099609 20.59491729736328 0 46.00000381469727 0 Z" stroke="none" fill="#397b86"/>
                                    </g>
                                  </g>
                                </g>
                              </g>
                            </g>
                          </g>
                        </g>
                      </g>
                    </g>
                  </g>
                </g>
              </g>
            </g>
          </g>
        </g>
      </g>
    </g>
    <g id="wiki" transform="translate(1133.55 4452.471)">
      <g id="Grupo_1201513" data-name="Grupo 1201513" transform="translate(8.192 13.369)">
        <g id="Grupo_1201512" data-name="Grupo 1201512" transform="translate(0)">
          <g id="Grupo_1201511" data-name="Grupo 1201511">
            <path id="Trazado_1069945" data-name="Trazado 1069945" d="M63.424,18.713V64.057a2.233,2.233,0,0,1-2.233,2.233H13.533A2.233,2.233,0,0,1,11.3,64.057V18.713a2.233,2.233,0,0,1,2.233-2.233H61.191A2.233,2.233,0,0,1,63.424,18.713Z" transform="translate(-11.3 -16.479)" fill="#5fcdff"/>
            <path id="Trazado_1069946" data-name="Trazado 1069946" d="M61.19,66.288H13.532A2.233,2.233,0,0,1,11.3,64.054V18.708a2.233,2.233,0,0,1,2.233-2.233H25.005l5.277,6.556a2.326,2.326,0,0,0,1.812.868H63.424V64.054A2.234,2.234,0,0,1,61.19,66.288Z" transform="translate(-11.299 -16.475)" fill="#ffe2e2"/>
            <path id="Trazado_1069947" data-name="Trazado 1069947" d="M16.883,66.291h-3.35A2.233,2.233,0,0,1,11.3,64.057V18.713a2.233,2.233,0,0,1,2.233-2.233h3.35a2.233,2.233,0,0,0-2.233,2.233V64.057A2.233,2.233,0,0,0,16.883,66.291Z" transform="translate(-11.3 -16.479)" fill="#ffefee"/>
            <path id="Trazado_1069948" data-name="Trazado 1069948" d="M221.933,49.72V89.874a2.233,2.233,0,0,1-2.233,2.233h3.35a2.233,2.233,0,0,0,2.233-2.233V49.72Z" transform="translate(-173.159 -42.296)" fill="#ffcfcf"/>
            <path id="Trazado_1069949" data-name="Trazado 1069949" d="M233.05,18.713V23.9H229.7V16.48h1.117A2.233,2.233,0,0,1,233.05,18.713Z" transform="translate(-180.926 -16.479)" fill="#30b6ff"/>
          </g>
        </g>
      </g>
      <g id="Grupo_1201515" data-name="Grupo 1201515" transform="translate(24.639 28.32)">
        <g id="Grupo_1201514" data-name="Grupo 1201514" transform="translate(0 0)">
          <path id="Trazado_1069950" data-name="Trazado 1069950" d="M99.816,108.665a2.855,2.855,0,0,1-2.339-1.218l-2.92-4.171-2.92,4.171a2.855,2.855,0,0,1-5.185-1.418L84.95,86.5a2.855,2.855,0,1,1,5.693-.438l.891,11.579.685-.978a2.855,2.855,0,0,1,4.678,0l.685.978.891-11.579a2.855,2.855,0,1,1,5.693.438l-1.5,19.531a2.855,2.855,0,0,1-2.847,2.636Z" transform="translate(-84.942 -83.423)" fill="#5fcdff"/>
        </g>
      </g>
      <g id="Grupo_1201516" data-name="Grupo 1201516" transform="translate(7.299 12.476)">
        <path id="Trazado_1069951" data-name="Trazado 1069951" d="M58.084,12.476H10.426A3.13,3.13,0,0,0,7.3,15.6V60.949a3.13,3.13,0,0,0,3.127,3.127H58.084a3.13,3.13,0,0,0,3.127-3.127V15.6A3.13,3.13,0,0,0,58.084,12.476Zm1.34,48.472a1.341,1.341,0,0,1-1.34,1.34H10.426a1.341,1.341,0,0,1-1.34-1.34V15.6a1.341,1.341,0,0,1,1.34-1.34H21.471l5.009,6.223a3.2,3.2,0,0,0,2.508,1.2H59.424Zm0-41.049H28.988a1.427,1.427,0,0,1-1.116-.534l-4.107-5.1H58.084a1.341,1.341,0,0,1,1.34,1.34Z" transform="translate(-7.299 -12.476)" fill="#5f266d"/>
        <path id="Trazado_1069952" data-name="Trazado 1069952" d="M37.471,30.483H31.147a.893.893,0,1,0,0,1.787h6.324a.893.893,0,1,0,0-1.787Z" transform="translate(-25.128 -26.462)" fill="#5f266d"/>
        <path id="Trazado_1069953" data-name="Trazado 1069953" d="M196.023,26.87a1.455,1.455,0,1,0,1.455,1.455A1.455,1.455,0,0,0,196.023,26.87Z" transform="translate(-152.746 -23.655)" fill="#5f266d"/>
        <path id="Trazado_1069954" data-name="Trazado 1069954" d="M219.875,26.87a1.455,1.455,0,1,0,1.455,1.455A1.455,1.455,0,0,0,219.875,26.87Z" transform="translate(-171.271 -23.655)" fill="#5f266d"/>
        <path id="Trazado_1069955" data-name="Trazado 1069955" d="M33.193,181.029a.893.893,0,0,0-.893.893v6.7a.893.893,0,1,0,1.787,0v-6.7A.893.893,0,0,0,33.193,181.029Z" transform="translate(-26.717 -143.387)" fill="#5f266d"/>
        <path id="Trazado_1069956" data-name="Trazado 1069956" d="M33.193,158.859a.893.893,0,0,0-.893.893v1.6a.893.893,0,0,0,1.787,0v-1.6A.893.893,0,0,0,33.193,158.859Z" transform="translate(-26.717 -126.168)" fill="#5f266d"/>
        <path id="Trazado_1069957" data-name="Trazado 1069957" d="M84.4,79.434a3.753,3.753,0,0,0-3.45,4.025l1.5,19.532a3.752,3.752,0,0,0,6.808,1.862l2.188-3.125,2.188,3.125a3.752,3.752,0,0,0,6.808-1.862l1.5-19.531a3.748,3.748,0,1,0-7.474-.575l-.719,9.351a3.748,3.748,0,0,0-4.609,0l-.719-9.351A3.744,3.744,0,0,0,84.4,79.434Zm2.243,3.587L87.537,94.6a.894.894,0,0,0,1.622.444l.685-.978a1.963,1.963,0,0,1,3.214,0c.6.864.9,1.534,1.652,1.327a.893.893,0,0,0,.655-.793l.891-11.579a1.962,1.962,0,1,1,3.912.3l-1.5,19.531a1.964,1.964,0,0,1-3.563.974l-2.92-4.171a.893.893,0,0,0-1.464,0l-2.92,4.171a1.964,1.964,0,0,1-3.563-.974l-1.5-19.531a1.962,1.962,0,0,1,3.912-.3Z" transform="translate(-64.496 -64.472)" fill="#5f266d"/>
      </g>
    </g>
  </g>
</svg>
