<svg xmlns="http://www.w3.org/2000/svg" xmlns:xlink="http://www.w3.org/1999/xlink" width="110" height="110" viewBox="0 0 110 110">
  <defs>
    <filter id="Trazado_982547" x="0" y="0" width="110" height="110" filterUnits="userSpaceOnUse">
      <feOffset dy="3" input="SourceAlpha"/>
      <feGaussianBlur stdDeviation="3" result="blur"/>
      <feFlood flood-opacity="0.161"/>
      <feComposite operator="in" in2="blur"/>
      <feComposite in="SourceGraphic"/>
    </filter>
  </defs>
  <g id="Grupo_1201540" data-name="Grupo 1201540" transform="translate(2369.39 -4401.271)">
    <g id="Grupo_1183567" data-name="Grupo 1183567" transform="translate(-2360.39 4407.271)">
      <g id="Grupo_1179602" data-name="Grupo 1179602" transform="translate(0 0)">
        <g id="Grupo_1171898" data-name="Grupo 1171898" transform="translate(0 0)">
          <g id="Grupo_1164700" data-name="Grupo 1164700" transform="translate(0 0)">
            <g id="Grupo_1160931" data-name="Grupo 1160931" transform="translate(0 0)">
              <g id="Grupo_1160749" data-name="Grupo 1160749">
                <g id="Grupo_1158891" data-name="Grupo 1158891">
                  <g id="Grupo_1157406" data-name="Grupo 1157406">
                    <g id="Grupo_1155793" data-name="Grupo 1155793">
                      <g id="Grupo_1154704" data-name="Grupo 1154704">
                        <g id="Grupo_1150790" data-name="Grupo 1150790">
                          <g id="Grupo_1154214" data-name="Grupo 1154214">
                            <g id="Grupo_1152583" data-name="Grupo 1152583">
                              <g id="Grupo_1146973" data-name="Grupo 1146973">
                                <g id="Grupo_1146954" data-name="Grupo 1146954">
                                  <g transform="matrix(1, 0, 0, 1, -9, -6)" filter="url(#Trazado_982547)">
                                    <g id="Trazado_982547-2" data-name="Trazado 982547" transform="translate(9 6)" fill="#effbfe">
                                      <path d="M 46.00000381469727 90.49986267089844 C 39.99188232421875 90.49986267089844 34.16428375244141 89.32350158691406 28.67905807495117 87.00344848632812 C 23.38021659851074 84.76223754882812 18.62104415893555 81.55341339111328 14.53376388549805 77.46613311767578 C 10.44647026062012 73.37885284423828 7.237643718719482 68.61968994140625 4.996417045593262 63.32085037231445 C 2.676363706588745 57.83565139770508 1.500003814697266 52.00805282592773 1.500003814697266 45.99993133544922 C 1.500003814697266 39.99182510375977 2.676363706588745 34.16422653198242 4.996417045593262 28.67901039123535 C 7.237643718719482 23.38017082214355 10.44647026062012 18.62101173400879 14.53376388549805 14.53373146057129 C 18.62104415893555 10.44645118713379 23.38021659851074 7.237624645233154 28.67905807495117 4.996411323547363 C 34.16428375244141 2.676357984542847 39.99188232421875 1.499997973442078 46.00000381469727 1.499997973442078 C 52.00812530517578 1.499997973442078 57.83573532104492 2.676357984542847 63.32094955444336 4.996411323547363 C 68.61980438232422 7.237624645233154 73.37896728515625 10.44645118713379 77.46625518798828 14.53373146057129 C 81.55353546142578 18.62101173400879 84.76236724853516 23.38017082214355 87.00359344482422 28.67901039123535 C 89.32364654541016 34.16422653198242 90.5 39.99182510375977 90.5 45.99993133544922 C 90.5 52.00805282592773 89.32364654541016 57.83565139770508 87.00359344482422 63.32085037231445 C 84.76236724853516 68.61968994140625 81.55353546142578 73.37885284423828 77.46625518798828 77.46613311767578 C 73.37896728515625 81.55341339111328 68.61980438232422 84.76223754882812 63.32094955444336 87.00344848632812 C 57.83573532104492 89.32350158691406 52.00812530517578 90.49986267089844 46.00000381469727 90.49986267089844 Z" stroke="none"/>
                                      <path d="M 46.00000381469727 3 C 40.19371795654297 3 34.56270217895508 4.136505126953125 29.26338958740234 6.377914428710938 C 24.14333343505859 8.54351806640625 19.54443359375 11.64438629150391 15.59442138671875 15.59439086914062 C 11.64440155029297 19.54440307617188 8.543533325195312 24.14330291748047 6.3779296875 29.26334381103516 C 4.136505126953125 34.56266021728516 3.000007629394531 40.19366073608398 3.000007629394531 45.99993133544922 C 3.000007629394531 51.80620193481445 4.136505126953125 57.43720245361328 6.3779296875 62.73651885986328 C 8.543533325195312 67.85655975341797 11.64440155029297 72.45545959472656 15.59442138671875 76.40547180175781 C 19.54443359375 80.35547637939453 24.14333343505859 83.45634460449219 29.26338958740234 85.6219482421875 C 34.56270217895508 87.86335754394531 40.19371795654297 88.99986267089844 46.00000381469727 88.99986267089844 C 51.80628967285156 88.99986267089844 57.43730545043945 87.86335754394531 62.73663330078125 85.6219482421875 C 67.85667419433594 83.45634460449219 72.45558929443359 80.35547637939453 76.40560150146484 76.40547180175781 C 80.35560607910156 72.45545959472656 83.45648956298828 67.85655975341797 85.62208557128906 62.73651885986328 C 87.86350250244141 57.43720245361328 89 51.80620193481445 89 45.99993133544922 C 89 40.19366073608398 87.86350250244141 34.56266021728516 85.62208557128906 29.26334381103516 C 83.45648956298828 24.14330291748047 80.35560607910156 19.54440307617188 76.40560150146484 15.59439086914062 C 72.45558929443359 11.64438629150391 67.85667419433594 8.54351806640625 62.73663330078125 6.377914428710938 C 57.43730545043945 4.136505126953125 51.80628967285156 3 46.00000381469727 3 M 46.00000381469727 0 C 71.40510559082031 0 92 20.59487152099609 92 45.99993133544922 C 92 71.40499114990234 71.40510559082031 91.99986267089844 46.00000381469727 91.99986267089844 C 20.59491729736328 91.99986267089844 7.62939453125e-06 71.40499114990234 7.62939453125e-06 45.99993133544922 C 7.62939453125e-06 20.59487152099609 20.59491729736328 0 46.00000381469727 0 Z" stroke="none" fill="#397b86"/>
                                    </g>
                                  </g>
                                </g>
                              </g>
                            </g>
                          </g>
                        </g>
                      </g>
                    </g>
                  </g>
                </g>
              </g>
            </g>
          </g>
        </g>
      </g>
    </g>
    <g id="facebook" transform="translate(-2376.786 4419.769)">
      <g id="Grupo_1201518" data-name="Grupo 1201518" transform="translate(81.897 48.863)">
        <path id="Trazado_1069958" data-name="Trazado 1069958" d="M414.048,378.4l5.342-.963a2.039,2.039,0,0,0,1.645-2.369v0a2.039,2.039,0,0,0-2.369-1.645l-5.342.963Z" transform="translate(-413.324 -373.387)" fill="#ffd064"/>
      </g>
      <g id="Grupo_1201519" data-name="Grupo 1201519" transform="translate(67.678 39.501)">
        <path id="Trazado_1069959" data-name="Trazado 1069959" d="M324.2,324.347l-1.279-2.215a9.555,9.555,0,0,1-1.28-4.778v-8.369a7.144,7.144,0,0,0-14.288,0v8.369a9.556,9.556,0,0,1-1.28,4.778l-1.279,2.215a.917.917,0,0,0,.794,1.375h3.763a2.19,2.19,0,0,1,1.764.919,4.181,4.181,0,0,0,6.762,0,2.19,2.19,0,0,1,1.764-.919h3.763A.917.917,0,0,0,324.2,324.347Z" transform="translate(-304.674 -301.842)" fill="#ffe07d"/>
      </g>
      <g id="Grupo_1201521" data-name="Grupo 1201521" transform="translate(75.852 39.501)">
        <g id="Grupo_1201520" data-name="Grupo 1201520">
          <path id="Trazado_1069960" data-name="Trazado 1069960" d="M378.489,324.347l-1.279-2.215a9.555,9.555,0,0,1-1.28-4.778v-8.369a7.142,7.142,0,0,0-8.8-6.949,7.145,7.145,0,0,1,5.491,6.949v8.369a9.556,9.556,0,0,0,1.28,4.778l1.279,2.215a.917.917,0,0,1-.794,1.375h3.306A.917.917,0,0,0,378.489,324.347Z" transform="translate(-367.133 -301.842)" fill="#ffd064"/>
        </g>
      </g>
      <g id="Grupo_1201522" data-name="Grupo 1201522" transform="translate(81.897 48.863)">
        <path id="Trazado_1069961" data-name="Trazado 1069961" d="M414.048,378.4l5.342-.963a2.039,2.039,0,0,0,1.645-2.369v0a2.039,2.039,0,0,0-2.369-1.645l-5.342.963Z" transform="translate(-413.324 -373.387)" fill="#ffd064"/>
      </g>
      <g id="Grupo_1201523" data-name="Grupo 1201523" transform="translate(65.369 48.863)">
        <path id="Trazado_1069962" data-name="Trazado 1069962" d="M294.052,378.4l-5.342-.963a2.039,2.039,0,0,1-1.645-2.369v0a2.039,2.039,0,0,1,2.369-1.645l5.342.963Z" transform="translate(-287.032 -373.387)" fill="#ffe07d"/>
      </g>
      <g id="Grupo_1201524" data-name="Grupo 1201524" transform="translate(42.661 0.982)">
        <path id="Trazado_1069963" data-name="Trazado 1069963" d="M126.282,13.694h1.52a.393.393,0,0,0,.393-.393V7.9a.393.393,0,0,0-.393-.393h-1.52a9.471,9.471,0,0,0-9.471,9.471v1.378a.262.262,0,0,1-.262.262H113.9a.393.393,0,0,0-.393.393v5.4a.393.393,0,0,0,.393.393h2.646a.262.262,0,0,1,.262.262V35.716a.393.393,0,0,0,.393.393h5.4a.393.393,0,0,0,.393-.393V25.067a.262.262,0,0,1,.262-.262h2.646a.393.393,0,0,0,.393-.393v-5.4a.393.393,0,0,0-.393-.393h-2.646a.262.262,0,0,1-.262-.262V16.978A3.284,3.284,0,0,1,126.282,13.694Z" transform="translate(-113.51 -7.507)" fill="#5766cb"/>
      </g>
      <g id="Grupo_1201528" data-name="Grupo 1201528" transform="translate(49.841 0.982)">
        <g id="Grupo_1201525" data-name="Grupo 1201525" transform="translate(0 17.298)">
          <path id="Trazado_1069964" data-name="Trazado 1069964" d="M168.768,139.951V150.6a.393.393,0,0,1-.393.393h1.916a.393.393,0,0,0,.393-.393V139.951a.262.262,0,0,1,.262-.262H169.03A.262.262,0,0,0,168.768,139.951Z" transform="translate(-168.375 -139.689)" fill="#3d4fc3"/>
        </g>
        <g id="Grupo_1201526" data-name="Grupo 1201526" transform="translate(3.301 11.111)">
          <path id="Trazado_1069965" data-name="Trazado 1069965" d="M195.518,92.412H193.6a.393.393,0,0,1,.393.393v5.4a.393.393,0,0,1-.393.393h1.916a.393.393,0,0,0,.393-.393V92.8a.393.393,0,0,0-.393-.393Z" transform="translate(-193.602 -92.412)" fill="#3d4fc3"/>
        </g>
        <g id="Grupo_1201527" data-name="Grupo 1201527" transform="translate(0.393)">
          <path id="Trazado_1069966" data-name="Trazado 1069966" d="M178.1,7.507h-1.52c-.106,0-.211,0-.316.008a.393.393,0,0,1,.314.385v5.4a.393.393,0,0,1-.393.393h-1.52a3.284,3.284,0,0,0-3.284,3.284v1.378a.262.262,0,0,0,.262.262h1.916a.262.262,0,0,1-.262-.262V16.978a3.284,3.284,0,0,1,3.284-3.284h1.52a.393.393,0,0,0,.393-.393V7.9a.393.393,0,0,0-.393-.393Z" transform="translate(-171.378 -7.507)" fill="#3d4fc3"/>
        </g>
      </g>
      <g id="Grupo_1201529" data-name="Grupo 1201529" transform="translate(61.13 10.565)">
        <path id="Trazado_1069967" data-name="Trazado 1069967" d="M274.12,104.729H259.143a4.509,4.509,0,0,1-4.509-4.509V85.244a4.509,4.509,0,0,1,4.509-4.509H274.12a4.509,4.509,0,0,1,4.509,4.509v14.977A4.508,4.508,0,0,1,274.12,104.729Z" transform="translate(-254.634 -80.735)" fill="#eaaadd"/>
      </g>
      <g id="Grupo_1201530" data-name="Grupo 1201530" transform="translate(61.395 10.83)">
        <path id="Trazado_1069968" data-name="Trazado 1069968" d="M277.4,82.76a4.5,4.5,0,0,1,.265,1.525V99.254a4.513,4.513,0,0,1-4.513,4.513H258.183a4.5,4.5,0,0,1-1.526-.265,4.514,4.514,0,0,0,4.248,2.987h14.969a4.513,4.513,0,0,0,4.513-4.513V87.008A4.514,4.514,0,0,0,277.4,82.76Z" transform="translate(-256.658 -82.76)" fill="#e490d0"/>
      </g>
      <g id="Grupo_1201531" data-name="Grupo 1201531" transform="translate(32.976 35.517)">
        <path id="Trazado_1069969" data-name="Trazado 1069969" d="M63.835,286.264a11.738,11.738,0,0,1-1.261-.069.194.194,0,0,1-.118-.33l0,0a11.769,11.769,0,0,0,2.016-13.591.393.393,0,0,0-.681-.036,11.765,11.765,0,0,1-8.461,5.351.132.132,0,0,1-.147-.125,6.4,6.4,0,0,0-12.07-2.621.263.263,0,0,1-.232.143H39.821a.262.262,0,0,0-.235.378,4.442,4.442,0,0,0,1.383,1.618.131.131,0,0,1-.02.225l-1.3.6a.262.262,0,0,0-.052.443,4.395,4.395,0,0,0,2.739.955.262.262,0,0,1,.251.2,6.416,6.416,0,0,0,3.445,4.18.4.4,0,0,1,.214.255,11.77,11.77,0,0,0,21.791,2.372.394.394,0,0,0-.477-.554A11.74,11.74,0,0,1,63.835,286.264Z" transform="translate(-39.501 -271.402)" fill="#b1e4f9"/>
      </g>
      <g id="Grupo_1201533" data-name="Grupo 1201533" transform="translate(46.221 49.751)">
        <g id="Grupo_1201532" data-name="Grupo 1201532">
          <path id="Trazado_1069970" data-name="Trazado 1069970" d="M152.03,380.8a11.755,11.755,0,0,1-9.84,5.314,11.888,11.888,0,0,1-1.478-.093,11.774,11.774,0,0,0,15.295-5.268.393.393,0,0,0-.468-.557A11.743,11.743,0,0,1,152.03,380.8Z" transform="translate(-140.712 -380.174)" fill="#90d8f9"/>
        </g>
      </g>
      <g id="Grupo_1201534" data-name="Grupo 1201534" transform="translate(64.387 38.518)">
        <path id="Trazado_1069971" data-name="Trazado 1069971" d="M292.646,322.821a5.183,5.183,0,0,1-4.175-2.125,1.2,1.2,0,0,0-.971-.515h-3.763a1.9,1.9,0,0,1-1.645-2.849l1.279-2.214a8.585,8.585,0,0,0,1.149-4.287v-.681l-2.5-.452a3.023,3.023,0,0,1,1.073-5.951l1.431.258v-1.543a8.126,8.126,0,0,1,16.252,0v1.543l1.431-.258a3.023,3.023,0,1,1,1.073,5.951l-2.5.452v.681a8.586,8.586,0,0,0,1.149,4.287l1.279,2.214a1.9,1.9,0,0,1-1.645,2.849h-3.763a1.2,1.2,0,0,0-.971.515A5.183,5.183,0,0,1,292.646,322.821Zm-8.8-4.6h3.65a3.187,3.187,0,0,1,2.558,1.322,3.2,3.2,0,0,0,5.174,0,3.187,3.187,0,0,1,2.558-1.322h3.65l-1.222-2.116a10.552,10.552,0,0,1-1.412-5.269v-1.5a.982.982,0,0,1,.808-.967l3.312-.6a1.059,1.059,0,1,0-.376-2.084l-2.588.467a.982.982,0,0,1-1.157-.967v-2.718a6.162,6.162,0,0,0-12.323,0v2.718a.982.982,0,0,1-1.157.967l-2.588-.467a1.059,1.059,0,1,0-.376,2.084l3.312.6a.982.982,0,0,1,.808.967v1.5a10.553,10.553,0,0,1-1.412,5.269Z" transform="translate(-279.528 -294.337)"/>
      </g>
      <g id="Grupo_1201535" data-name="Grupo 1201535" transform="translate(41.679 0)">
        <path id="Trazado_1069972" data-name="Trazado 1069972" d="M116.083,30.567h-5.4a1.377,1.377,0,0,1-1.375-1.375V24.718a.982.982,0,1,1,1.965,0V28.6h4.222V18.542a1.246,1.246,0,0,1,1.244-1.244h2.057V13.076h-2.057a1.246,1.246,0,0,1-1.244-1.244V10.453a4.271,4.271,0,0,1,4.266-4.266h.931V1.965h-.931a8.5,8.5,0,0,0-8.488,8.488v1.378a1.246,1.246,0,0,1-1.244,1.244H107.97V17.3h2.057a1.246,1.246,0,0,1,1.244,1.244v1.229a.982.982,0,1,1-1.965,0v-.509H107.38A1.377,1.377,0,0,1,106,17.887v-5.4a1.377,1.377,0,0,1,1.375-1.375h1.926v-.658A10.465,10.465,0,0,1,119.759,0h1.52a1.377,1.377,0,0,1,1.375,1.375v5.4a1.377,1.377,0,0,1-1.375,1.375h-1.52a2.3,2.3,0,0,0-2.3,2.3v.658h1.926a1.377,1.377,0,0,1,1.375,1.375v5.4a1.377,1.377,0,0,1-1.375,1.375h-1.926v9.929a1.377,1.377,0,0,1-1.375,1.376Z" transform="translate(-106.005 0)"/>
      </g>
      <g id="Grupo_1201536" data-name="Grupo 1201536" transform="translate(60.147 9.583)">
        <path id="Trazado_1069973" data-name="Trazado 1069973" d="M267.591,99.187H252.622a5.5,5.5,0,0,1-5.5-5.5V78.723a5.5,5.5,0,0,1,5.5-5.5h1.643a.982.982,0,0,1,0,1.965h-1.643a3.535,3.535,0,0,0-3.53,3.53V93.692a3.534,3.534,0,0,0,3.53,3.53h14.969a3.534,3.534,0,0,0,3.53-3.53V78.723a3.534,3.534,0,0,0-3.53-3.53h-8.368a.982.982,0,1,1,0-1.965h8.368a5.5,5.5,0,0,1,5.5,5.5V93.692A5.5,5.5,0,0,1,267.591,99.187Z" transform="translate(-247.127 -73.228)"/>
      </g>
      <g id="Grupo_1201537" data-name="Grupo 1201537" transform="translate(67.377 16.813)">
        <path id="Trazado_1069974" data-name="Trazado 1069974" d="M308.125,139.975a5.749,5.749,0,1,1,5.75-5.749A5.756,5.756,0,0,1,308.125,139.975Zm0-9.534a3.785,3.785,0,1,0,3.785,3.785A3.789,3.789,0,0,0,308.125,130.441Z" transform="translate(-302.375 -128.476)"/>
      </g>
      <g id="Grupo_1201538" data-name="Grupo 1201538" transform="translate(78.481 14.432)">
        <circle id="Elipse_13488" data-name="Elipse 13488" cx="1.388" cy="1.388" r="1.388"/>
      </g>
      <g id="Grupo_1201539" data-name="Grupo 1201539" transform="translate(31.994 34.535)">
        <path id="Trazado_1069975" data-name="Trazado 1069975" d="M51.085,286.991a12.769,12.769,0,0,1-12.236-9.161,7.367,7.367,0,0,1-3.583-4.192,5.416,5.416,0,0,1-2.8-1.143,1.244,1.244,0,0,1,.25-2.1l.152-.071a5.427,5.427,0,0,1-.684-1.045,1.244,1.244,0,0,1,1.114-1.8h2.639a7.386,7.386,0,0,1,13.6,2.472,10.645,10.645,0,0,0,5.549-3.047,10.813,10.813,0,0,0,1.359-1.718,1.369,1.369,0,0,1,1.219-.632,1.384,1.384,0,0,1,1.164.746,12.7,12.7,0,0,1,1.266,3.889.982.982,0,1,1-1.942.3,10.759,10.759,0,0,0-.654-2.381,12.745,12.745,0,0,1-8.564,4.931,1.114,1.114,0,0,1-1.249-1.048,5.421,5.421,0,0,0-10.218-2.217,1.242,1.242,0,0,1-1.1.67H34.744a3.3,3.3,0,0,0,.269.214,1.113,1.113,0,0,1-.159,1.908,3.5,3.5,0,0,0,.956.136h.005a1.243,1.243,0,0,1,1.2.938,5.409,5.409,0,0,0,2.917,3.539,1.378,1.378,0,0,1,.739.885,10.788,10.788,0,0,0,19.225,3.4,12.738,12.738,0,0,1-3.955.189,1.177,1.177,0,0,1-.72-1.987l0,0a10.8,10.8,0,0,0,2.633-4.54.982.982,0,1,1,1.889.54,12.739,12.739,0,0,1-2.026,4.093,10.746,10.746,0,0,0,3.006-.546,1.376,1.376,0,0,1,1.659,1.941A12.721,12.721,0,0,1,51.085,286.991Z" transform="translate(-31.994 -263.896)"/>
      </g>
    </g>
  </g>
</svg>
