<svg xmlns="http://www.w3.org/2000/svg" xmlns:xlink="http://www.w3.org/1999/xlink" width="110" height="110" viewBox="0 0 110 110">
  <defs>
    <filter id="Trazado_982547" x="0" y="0" width="110" height="110" filterUnits="userSpaceOnUse">
      <feOffset dy="3" input="SourceAlpha"/>
      <feGaussianBlur stdDeviation="3" result="blur"/>
      <feFlood flood-opacity="0.161"/>
      <feComposite operator="in" in2="blur"/>
      <feComposite in="SourceGraphic"/>
    </filter>
  </defs>
  <g id="Grupo_1201542" data-name="Grupo 1201542" transform="translate(2053.585 -4401.303)">
    <g id="Grupo_1183566" data-name="Grupo 1183566" transform="translate(-2044.586 4407.303)">
      <g id="Grupo_1179603" data-name="Grupo 1179603" transform="translate(0 0)">
        <g id="Grupo_1172349" data-name="Grupo 1172349" transform="translate(0 0)">
          <g id="Grupo_1164700" data-name="Grupo 1164700">
            <g id="Grupo_1160931" data-name="Grupo 1160931" transform="translate(0 0)">
              <g id="Grupo_1160749" data-name="Grupo 1160749">
                <g id="Grupo_1158891" data-name="Grupo 1158891">
                  <g id="Grupo_1157406" data-name="Grupo 1157406">
                    <g id="Grupo_1155793" data-name="Grupo 1155793">
                      <g id="Grupo_1154704" data-name="Grupo 1154704">
                        <g id="Grupo_1150790" data-name="Grupo 1150790">
                          <g id="Grupo_1154214" data-name="Grupo 1154214">
                            <g id="Grupo_1152583" data-name="Grupo 1152583">
                              <g id="Grupo_1146973" data-name="Grupo 1146973">
                                <g id="Grupo_1146954" data-name="Grupo 1146954">
                                  <g transform="matrix(1, 0, 0, 1, -9, -6)" filter="url(#Trazado_982547)">
                                    <g id="Trazado_982547-2" data-name="Trazado 982547" transform="translate(9 6)" fill="#effbfe">
                                      <path d="M 46.00000381469727 90.49986267089844 C 39.99188232421875 90.49986267089844 34.16428375244141 89.32350158691406 28.67905807495117 87.00344848632812 C 23.38021659851074 84.76223754882812 18.62104415893555 81.55341339111328 14.53376388549805 77.46613311767578 C 10.44647026062012 73.37885284423828 7.237643718719482 68.61968994140625 4.996417045593262 63.32085037231445 C 2.676363706588745 57.83565139770508 1.500003814697266 52.00805282592773 1.500003814697266 45.99993133544922 C 1.500003814697266 39.99182510375977 2.676363706588745 34.16422653198242 4.996417045593262 28.67901039123535 C 7.237643718719482 23.38017082214355 10.44647026062012 18.62101173400879 14.53376388549805 14.53373146057129 C 18.62104415893555 10.44645118713379 23.38021659851074 7.237624645233154 28.67905807495117 4.996411323547363 C 34.16428375244141 2.676357984542847 39.99188232421875 1.499997973442078 46.00000381469727 1.499997973442078 C 52.00812530517578 1.499997973442078 57.83573532104492 2.676357984542847 63.32094955444336 4.996411323547363 C 68.61980438232422 7.237624645233154 73.37896728515625 10.44645118713379 77.46625518798828 14.53373146057129 C 81.55353546142578 18.62101173400879 84.76236724853516 23.38017082214355 87.00359344482422 28.67901039123535 C 89.32364654541016 34.16422653198242 90.5 39.99182510375977 90.5 45.99993133544922 C 90.5 52.00805282592773 89.32364654541016 57.83565139770508 87.00359344482422 63.32085037231445 C 84.76236724853516 68.61968994140625 81.55353546142578 73.37885284423828 77.46625518798828 77.46613311767578 C 73.37896728515625 81.55341339111328 68.61980438232422 84.76223754882812 63.32094955444336 87.00344848632812 C 57.83573532104492 89.32350158691406 52.00812530517578 90.49986267089844 46.00000381469727 90.49986267089844 Z" stroke="none"/>
                                      <path d="M 46.00000381469727 3 C 40.19371795654297 3 34.56270217895508 4.136505126953125 29.26338958740234 6.377914428710938 C 24.14333343505859 8.54351806640625 19.54443359375 11.64438629150391 15.59442138671875 15.59439086914062 C 11.64440155029297 19.54440307617188 8.543533325195312 24.14330291748047 6.3779296875 29.26334381103516 C 4.136505126953125 34.56266021728516 3.000007629394531 40.19366073608398 3.000007629394531 45.99993133544922 C 3.000007629394531 51.80620193481445 4.136505126953125 57.43720245361328 6.3779296875 62.73651885986328 C 8.543533325195312 67.85655975341797 11.64440155029297 72.45545959472656 15.59442138671875 76.40547180175781 C 19.54443359375 80.35547637939453 24.14333343505859 83.45634460449219 29.26338958740234 85.6219482421875 C 34.56270217895508 87.86335754394531 40.19371795654297 88.99986267089844 46.00000381469727 88.99986267089844 C 51.80628967285156 88.99986267089844 57.43730545043945 87.86335754394531 62.73663330078125 85.6219482421875 C 67.85667419433594 83.45634460449219 72.45558929443359 80.35547637939453 76.40560150146484 76.40547180175781 C 80.35560607910156 72.45545959472656 83.45648956298828 67.85655975341797 85.62208557128906 62.73651885986328 C 87.86350250244141 57.43720245361328 89 51.80620193481445 89 45.99993133544922 C 89 40.19366073608398 87.86350250244141 34.56266021728516 85.62208557128906 29.26334381103516 C 83.45648956298828 24.14330291748047 80.35560607910156 19.54440307617188 76.40560150146484 15.59439086914062 C 72.45558929443359 11.64438629150391 67.85667419433594 8.54351806640625 62.73663330078125 6.377914428710938 C 57.43730545043945 4.136505126953125 51.80628967285156 3 46.00000381469727 3 M 46.00000381469727 0 C 71.40510559082031 0 92 20.59487152099609 92 45.99993133544922 C 92 71.40499114990234 71.40510559082031 91.99986267089844 46.00000381469727 91.99986267089844 C 20.59491729736328 91.99986267089844 7.62939453125e-06 71.40499114990234 7.62939453125e-06 45.99993133544922 C 7.62939453125e-06 20.59487152099609 20.59491729736328 0 46.00000381469727 0 Z" stroke="none" fill="#397b86"/>
                                    </g>
                                  </g>
                                </g>
                              </g>
                            </g>
                          </g>
                        </g>
                      </g>
                    </g>
                  </g>
                </g>
              </g>
            </g>
          </g>
        </g>
      </g>
    </g>
    <g id="educacion-virtual" transform="translate(-2034.136 4397.759)">
      <path id="Trazado_1069976" data-name="Trazado 1069976" d="M190.94,106.486a8.129,8.129,0,1,0,8.131,8.128A8.139,8.139,0,0,0,190.94,106.486Z" transform="translate(-155.389 -64.552)" fill="#837683"/>
      <path id="Trazado_1069977" data-name="Trazado 1069977" d="M38.341,186.649H22v13.866h5.889v-.636a4.537,4.537,0,0,1,4.664-4.387h2.3a4.537,4.537,0,0,1,4.664,4.387v.636h7.706v-4.988A9.7,9.7,0,0,1,38.341,186.649Z" transform="translate(-12.445 -135.81)" fill="#fe646f"/>
      <path id="Trazado_1069978" data-name="Trazado 1069978" d="M286.848,47.866H263v4.988a9.708,9.708,0,0,1,8.26,6.169,4.715,4.715,0,0,1,4.109-2.315h2.293a4.538,4.538,0,0,1,4.667,4.386v.633h5.889V49.236a1.372,1.372,0,0,0-1.37-1.37Z" transform="translate(-226.671 -12.445)" fill="#fe646f"/>
      <path id="Trazado_1069979" data-name="Trazado 1069979" d="M22,49.236V61.728h5.889V61.1a4.536,4.536,0,0,1,4.664-4.386h2.3a4.715,4.715,0,0,1,4.109,2.315,9.708,9.708,0,0,1,8.26-6.169V47.866H23.37A1.372,1.372,0,0,0,22,49.236Z" transform="translate(-12.445 -12.445)" fill="#dff6fd"/>
      <path id="Trazado_1069980" data-name="Trazado 1069980" d="M263,195.527v4.988h7.706v-.636a4.537,4.537,0,0,1,4.664-4.386h2.293a4.538,4.538,0,0,1,4.667,4.386v.636h5.889V186.65H271.877A9.7,9.7,0,0,1,263,195.527Z" transform="translate(-226.671 -135.811)" fill="#dff6fd"/>
      <path id="Trazado_1069981" data-name="Trazado 1069981" d="M22,329.455a1.373,1.373,0,0,0,1.37,1.373H72.621a1.373,1.373,0,0,0,1.37-1.373v-3.993H22Z" transform="translate(-12.445 -259.202)" fill="#8ebac5"/>
      <path id="Trazado_1069982" data-name="Trazado 1069982" d="M60.177,33.866H10.925A2.929,2.929,0,0,0,8,36.791V70.253a2.93,2.93,0,0,0,2.925,2.928H30l-2.117,5.5H21.607a.778.778,0,0,0-.778.778v2.979a.778.778,0,0,0,.778.778H49.495a.778.778,0,0,0,.778-.778V79.464a.778.778,0,0,0-.778-.778H43.218l-2.117-5.5H60.177A2.93,2.93,0,0,0,63.1,70.253V36.791a2.929,2.929,0,0,0-2.925-2.925Zm1.37,2.925V49.284H55.657v-.633a4.538,4.538,0,0,0-4.667-4.386H48.7a4.715,4.715,0,0,0-4.109,2.315,9.708,9.708,0,0,0-8.26-6.169V35.421H60.177a1.372,1.372,0,0,1,1.37,1.37ZM54.1,64.7H45.59v-.636A2.983,2.983,0,0,1,48.7,61.237h2.293A2.985,2.985,0,0,1,54.1,64.068Zm-3.111-5.023H48.7a4.537,4.537,0,0,0-4.664,4.387V64.7H36.329V59.717a9.7,9.7,0,0,0,8.877-8.877H61.547V64.7H55.657v-.636A4.538,4.538,0,0,0,50.991,59.682ZM25.512,64.7H17v-.636a2.983,2.983,0,0,1,3.108-2.831h2.3a2.983,2.983,0,0,1,3.108,2.831ZM22.4,59.682h-2.3a4.537,4.537,0,0,0-4.664,4.387V64.7H9.555V50.839H25.9a9.7,9.7,0,0,0,8.877,8.877V64.7H27.067v-.636A4.537,4.537,0,0,0,22.4,59.682Zm3.108-10.4H17v-.633a2.983,2.983,0,0,1,3.108-2.831h2.3a2.983,2.983,0,0,1,3.108,2.831Zm10.039-7.35a8.129,8.129,0,1,1-8.131,8.128A8.139,8.139,0,0,1,35.551,41.934ZM54.1,49.284H45.59v-.633A2.983,2.983,0,0,1,48.7,45.82h2.292A2.985,2.985,0,0,1,54.1,48.651ZM10.925,35.421H34.773V40.41a9.708,9.708,0,0,0-8.26,6.169A4.715,4.715,0,0,0,22.4,44.264h-2.3a4.536,4.536,0,0,0-4.664,4.386v.633H9.555V36.791a1.372,1.372,0,0,1,1.37-1.37ZM48.717,81.666H22.385V80.242H48.717Zm-7.166-2.979h-12l2.117-5.5h7.768l2.117,5.5Zm18.625-7.06H10.925a1.373,1.373,0,0,1-1.37-1.373V66.26H61.547v3.993A1.373,1.373,0,0,1,60.177,71.626ZM38.092,68.943a.778.778,0,0,1-.778.778H33.787a.778.778,0,1,1,0-1.555h3.527A.778.778,0,0,1,38.092,68.943ZM49.844,44.119c1.89,0,2.91-1.859,2.91-3.609a2.91,2.91,0,1,0-5.819,0C46.935,42.26,47.955,44.119,49.844,44.119Zm0-4.963A1.356,1.356,0,0,1,51.2,40.51c0,.853-.42,2.053-1.354,2.053-1.023,0-1.354-1.383-1.354-2.053A1.356,1.356,0,0,1,49.844,39.156Zm0,13.862a2.913,2.913,0,0,0-2.91,2.91c0,1.751,1.02,3.612,2.91,3.612s2.91-1.861,2.91-3.612A2.913,2.913,0,0,0,49.844,53.019Zm0,4.966c-1.023,0-1.354-1.386-1.354-2.057a1.354,1.354,0,0,1,2.708,0C51.2,56.782,50.779,57.985,49.844,57.985ZM21.257,44.119c1.89,0,2.91-1.859,2.91-3.609a2.91,2.91,0,0,0-5.819,0C18.348,42.26,19.368,44.119,21.257,44.119Zm0-4.963a1.356,1.356,0,0,1,1.354,1.354c0,.67-.331,2.053-1.354,2.053-.934,0-1.354-1.2-1.354-2.053A1.356,1.356,0,0,1,21.257,39.156Zm0,13.862a2.913,2.913,0,0,0-2.91,2.91c0,1.751,1.02,3.612,2.91,3.612s2.91-1.861,2.91-3.612A2.913,2.913,0,0,0,21.257,53.018Zm0,4.966c-.934,0-1.354-1.2-1.354-2.057a1.354,1.354,0,0,1,2.708,0C22.612,56.6,22.281,57.985,21.257,57.985Zm8.09-11.438v6.459a.778.778,0,0,0,.778.778H34.6c.089,0,.156,0,.206.008A.778.778,0,0,0,36.3,53.8l0-.007c.05,0,.117-.008.206-.008h4.472a.778.778,0,0,0,.778-.778V46.547a.778.778,0,0,0-.778-.778H36.505a1.783,1.783,0,0,0-.954.274,1.783,1.783,0,0,0-.954-.274H30.125a.778.778,0,0,0-.778.778Zm7.158.778H40.2v4.9H36.505q-.091,0-.177,0V47.419A.18.18,0,0,1,36.505,47.325Zm-5.6,0H34.6a.18.18,0,0,1,.177.095v4.813q-.085,0-.177,0H30.9Z"/>
      <path id="Trazado_1069983" data-name="Trazado 1069983" d="M92.118,141.466A2.983,2.983,0,0,0,89.01,144.3v.633h8.512V144.3a2.983,2.983,0,0,0-3.108-2.831Z" transform="translate(-72.01 -95.646)" fill="#6cf5c2"/>
      <path id="Trazado_1069984" data-name="Trazado 1069984" d="M218.03,159.923V155.11a.18.18,0,0,0-.177-.095h-3.694v4.9h3.694Q217.945,159.918,218.03,159.923Z" transform="translate(-183.256 -107.69)" fill="#d7dddd"/>
      <path id="Trazado_1069985" data-name="Trazado 1069985" d="M204.1,387.766l-2.117,5.505h12l-2.117-5.505Z" transform="translate(-172.436 -314.584)" fill="#6b96a5"/>
      <path id="Trazado_1069986" data-name="Trazado 1069986" d="M137.482,451.319h26.333v1.424H137.482Z" transform="translate(-115.098 -371.077)" fill="#7ca1b1"/>
      <path id="Trazado_1069987" data-name="Trazado 1069987" d="M266.87,159.918v-4.9h-3.694a.18.18,0,0,0-.176.095v4.813q.085,0,.176,0Z" transform="translate(-226.671 -107.69)" fill="#e6e8e8"/>
      <path id="Trazado_1069988" data-name="Trazado 1069988" d="M116.5,223.679c1.023,0,1.354-1.386,1.354-2.057a1.354,1.354,0,1,0-2.708,0C115.146,222.476,115.566,223.679,116.5,223.679Z" transform="translate(-95.243 -165.694)" fill="#f6dccd"/>
      <path id="Trazado_1069989" data-name="Trazado 1069989" d="M116.5,84.893c1.023,0,1.354-1.383,1.354-2.053a1.354,1.354,0,1,0-2.708,0C115.146,83.692,115.566,84.893,116.5,84.893Z" transform="translate(-95.243 -42.329)" fill="#f6dccd"/>
      <path id="Trazado_1069990" data-name="Trazado 1069990" d="M92.118,280.249a2.983,2.983,0,0,0-3.108,2.831v.636h8.512v-.636a2.983,2.983,0,0,0-3.108-2.831Z" transform="translate(-72.01 -219.012)" fill="#8ac9fe"/>
      <path id="Trazado_1069991" data-name="Trazado 1069991" d="M351.767,280.249h-2.292a2.983,2.983,0,0,0-3.108,2.831v.636h8.512v-.636A2.985,2.985,0,0,0,351.767,280.249Z" transform="translate(-300.776 -219.012)" fill="#6cf5c2"/>
      <path id="Trazado_1069992" data-name="Trazado 1069992" d="M351.767,141.466h-2.292a2.983,2.983,0,0,0-3.108,2.831v.633h8.512V144.3A2.985,2.985,0,0,0,351.767,141.466Z" transform="translate(-300.776 -95.646)" fill="#8ac9fe"/>
      <g id="Grupo_1201541" data-name="Grupo 1201541" transform="translate(48.49 39.156)">
        <path id="Trazado_1069993" data-name="Trazado 1069993" d="M373.827,223.679c.934,0,1.354-1.2,1.354-2.057a1.354,1.354,0,1,0-2.708,0C372.473,222.293,372.8,223.679,373.827,223.679Z" transform="translate(-372.473 -204.85)" fill="#f6dccd"/>
        <path id="Trazado_1069994" data-name="Trazado 1069994" d="M373.827,81.485a1.356,1.356,0,0,0-1.354,1.354c0,.67.331,2.053,1.354,2.053.934,0,1.354-1.2,1.354-2.053A1.356,1.356,0,0,0,373.827,81.485Z" transform="translate(-372.473 -81.485)" fill="#f6dccd"/>
      </g>
    </g>
  </g>
</svg>
