<svg xmlns="http://www.w3.org/2000/svg" xmlns:xlink="http://www.w3.org/1999/xlink" width="93.934" height="93.934" viewBox="0 0 93.934 93.934">
  <defs>
    <filter id="Trazado_982547" x="0" y="0" width="93.934" height="93.934" filterUnits="userSpaceOnUse">
      <feOffset dy="3" input="SourceAlpha"/>
      <feGaussianBlur stdDeviation="3" result="blur"/>
      <feFlood flood-opacity="0.161"/>
      <feComposite operator="in" in2="blur"/>
      <feComposite in="SourceGraphic"/>
    </filter>
  </defs>
  <g id="Grupo_1201608" data-name="Grupo 1201608" transform="translate(-819.001 -3817.863)">
    <g id="Grupo_1201112" data-name="Grupo 1201112" transform="translate(630.001 3471.803)">
      <g id="Grupo_1181939" data-name="Grupo 1181939" transform="translate(0 -388.939)">
        <g id="Grupo_1175133" data-name="Grupo 1175133" transform="translate(-0.033 -1251)">
          <g id="Grupo_1167337" data-name="Grupo 1167337" transform="translate(198.033 1992)">
            <g id="Grupo_1166720" data-name="Grupo 1166720">
              <g id="Grupo_1164305" data-name="Grupo 1164305">
                <g id="Grupo_1163948" data-name="Grupo 1163948">
                  <g id="Grupo_1158168" data-name="Grupo 1158168">
                    <g id="Grupo_1152576" data-name="Grupo 1152576">
                      <g id="Grupo_1148633" data-name="Grupo 1148633">
                        <g id="Grupo_1148525" data-name="Grupo 1148525">
                          <g transform="matrix(1, 0, 0, 1, -9, -6)" filter="url(#Trazado_982547)">
                            <g id="Trazado_982547-2" data-name="Trazado 982547" transform="translate(9 6)" fill="#fdfbec">
                              <path d="M 37.966796875 74.43359375 C 33.04315185546875 74.43359375 28.26757431030273 73.46962738037109 23.77274131774902 71.56847381591797 C 19.43047523498535 69.73184967041016 15.53040790557861 67.10224914550781 12.18087482452393 63.75271987915039 C 8.831341743469238 60.4031867980957 6.201741218566895 56.50312042236328 4.365118980407715 52.16086196899414 C 2.463963508605957 47.66601943969727 1.499996900558472 42.89044189453125 1.499996900558472 37.966796875 C 1.499996900558472 33.04315185546875 2.463963508605957 28.26757431030273 4.365118980407715 23.77274131774902 C 6.201741218566895 19.43047523498535 8.831341743469238 15.53040790557861 12.18087482452393 12.18087482452393 C 15.53040790557861 8.831341743469238 19.43047523498535 6.201741218566895 23.77274131774902 4.365118980407715 C 28.26757431030273 2.463963508605957 33.04315185546875 1.499996900558472 37.966796875 1.499996900558472 C 42.89044189453125 1.499996900558472 47.66601943969727 2.463963508605957 52.16086196899414 4.365118980407715 C 56.50312042236328 6.201741218566895 60.4031867980957 8.831341743469238 63.75271987915039 12.18087482452393 C 67.10224914550781 15.53040790557861 69.73184967041016 19.43047523498535 71.56847381591797 23.77274131774902 C 73.46962738037109 28.26757431030273 74.43359375 33.04315185546875 74.43359375 37.966796875 C 74.43359375 42.89044189453125 73.46962738037109 47.66601943969727 71.56847381591797 52.16086196899414 C 69.73184967041016 56.50313186645508 67.10224914550781 60.4031867980957 63.75271987915039 63.75271987915039 C 60.4031867980957 67.10224914550781 56.50313186645508 69.73184967041016 52.16086196899414 71.56847381591797 C 47.66601943969727 73.46962738037109 42.89044189453125 74.43359375 37.966796875 74.43359375 Z" stroke="none"/>
                              <path d="M 37.966796875 3 C 33.2449836730957 3 28.66600799560547 3.924095153808594 24.35705947875977 5.746635437011719 C 20.19359588623047 7.507637023925781 16.45379638671875 10.02928161621094 13.24153518676758 13.24153518676758 C 10.02927398681641 16.45379638671875 7.507621765136719 20.19359588623047 5.746635437011719 24.35705947875977 C 3.924095153808594 28.66600799560547 3 33.2449836730957 3 37.966796875 C 3 42.6886100769043 3.924095153808594 47.26758575439453 5.746635437011719 51.57653427124023 C 7.507621765136719 55.73999786376953 10.02927398681641 59.47979736328125 13.24153518676758 62.69205856323242 C 16.45379638671875 65.90431976318359 20.19359588623047 68.42597198486328 24.35705947875977 70.18695831298828 C 28.66600799560547 72.00949859619141 33.2449836730957 72.93359375 37.966796875 72.93359375 C 42.6886100769043 72.93359375 47.26758575439453 72.00949859619141 51.57653427124023 70.18695831298828 C 55.73999786376953 68.42597198486328 59.47979736328125 65.90431976318359 62.69205856323242 62.69205856323242 C 65.90431976318359 59.47979736328125 68.42597198486328 55.73999786376953 70.18695831298828 51.57653427124023 C 72.00949859619141 47.26758575439453 72.93359375 42.6886100769043 72.93359375 37.966796875 C 72.93359375 33.2449836730957 72.00949859619141 28.66600799560547 70.18695831298828 24.35705947875977 C 68.42597198486328 20.19359588623047 65.90431976318359 16.45379638671875 62.69205856323242 13.24153518676758 C 59.47979736328125 10.02928161621094 55.73999786376953 7.507637023925781 51.57653427124023 5.746635437011719 C 47.26758575439453 3.924095153808594 42.6886100769043 3 37.966796875 3 M 37.966796875 0 C 58.93528366088867 0 75.93359375 16.99832153320312 75.93359375 37.966796875 C 75.93359375 58.93528366088867 58.93528366088867 75.93359375 37.966796875 75.93359375 C 16.99831008911133 75.93359375 0 58.93528366088867 0 37.966796875 C 0 16.99832153320312 16.99831008911133 0 37.966796875 0 Z" stroke="none" fill="#84792b"/>
                            </g>
                          </g>
                        </g>
                      </g>
                    </g>
                  </g>
                </g>
              </g>
            </g>
          </g>
        </g>
      </g>
    </g>
    <g id="Text-Computer-Edit-File-Document" transform="translate(839.015 3833.363)">
      <path id="Trazado_1070106" data-name="Trazado 1070106" d="M45.833,8.629V26.545H10V8.629A1.634,1.634,0,0,1,11.629,7H44.2A1.634,1.634,0,0,1,45.833,8.629Z" transform="translate(-0.557 -0.928)" fill="#5aaae7"/>
      <path id="Trazado_1070107" data-name="Trazado 1070107" d="M46.462,57v2.443a.814.814,0,0,1-.814.814H9.814A.814.814,0,0,1,9,59.443V57Z" transform="translate(-0.371 -10.209)" fill="#acabb1"/>
      <path id="Trazado_1070108" data-name="Trazado 1070108" d="M46.462,55.886H9L13.886,51H41.576Z" transform="translate(-0.371 -9.095)" fill="#c6c5ca"/>
      <path id="Trazado_1070109" data-name="Trazado 1070109" d="M45.833,31v3.258A1.634,1.634,0,0,1,44.2,35.886H11.629A1.634,1.634,0,0,1,10,34.258V31Z" transform="translate(-0.557 -5.383)" fill="#c6c5ca"/>
      <path id="Trazado_1070110" data-name="Trazado 1070110" d="M38.288,43v3.258H22V43H38.288Z" transform="translate(-2.784 -7.61)" fill="#acabb1"/>
      <path id="Trazado_1070111" data-name="Trazado 1070111" d="M27,37h8.144v4.886H27Z" transform="translate(-3.712 -6.496)" fill="#c6c5ca"/>
      <path id="Trazado_1070112" data-name="Trazado 1070112" d="M27,37h8.144v1.629H27Z" transform="translate(-3.712 -6.496)" fill="#acabb1"/>
      <path id="Trazado_1070113" data-name="Trazado 1070113" d="M40.917,9.443V23.288a1.634,1.634,0,0,1-1.629,1.629H24.629A1.634,1.634,0,0,1,23,23.288V7H38.473Z" transform="translate(-2.97 -0.928)" fill="#3d9ae2"/>
      <path id="Trazado_1070114" data-name="Trazado 1070114" d="M42.072,7.072v.814H38.814A.814.814,0,0,1,38,7.072V3Z" transform="translate(-5.754 -0.186)" fill="#d1d3d4"/>
      <path id="Trazado_1070115" data-name="Trazado 1070115" d="M38.917,7.886v13.03a1.634,1.634,0,0,1-1.629,1.629H22.629A1.634,1.634,0,0,1,21,20.917V4.629A1.634,1.634,0,0,1,22.629,3H34.845V7.072a.814.814,0,0,0,.814.814Z" transform="translate(-2.599 -0.186)" fill="#e6e7e8"/>
      <path id="Trazado_1070116" data-name="Trazado 1070116" d="M46.666,46.958,41.78,42.072a.814.814,0,0,0-.576-.239H16.773V40.2a2.443,2.443,0,0,0-2.443-2.443H9.443a.814.814,0,0,1,0-1.629h4.886a2.443,2.443,0,0,0,2.443-2.443V32.06h5.7v3.258H19.216a.814.814,0,0,0-.814.814V39.39a.814.814,0,0,0,.814.814H35.5a.814.814,0,0,0,.814-.814V36.132a.814.814,0,0,0-.814-.814H32.246V32.06h11.4a2.443,2.443,0,0,0,2.443-2.443V8.443A2.443,2.443,0,0,0,43.647,6H38.761V7.629h4.886a.814.814,0,0,1,.814.814v17.1h-34.2V8.443a.814.814,0,0,1,.814-.814h4.886V6H11.072A2.443,2.443,0,0,0,8.629,8.443V29.617a2.443,2.443,0,0,0,2.443,2.443h4.072v1.629a.814.814,0,0,1-.814.814H9.443a2.443,2.443,0,1,0,0,4.886h4.886a.814.814,0,0,1,.814.814v1.629H13.515a.814.814,0,0,0-.576.238L8.053,46.958a.814.814,0,0,0-.239.576v2.443a1.629,1.629,0,0,0,1.629,1.629H45.276a1.629,1.629,0,0,0,1.629-1.629V47.534a.814.814,0,0,0-.238-.576ZM34.689,38.576H20.03V36.947H34.689Zm-4.072-3.258H24.1V32.06h6.515Zm-20.36-5.7V27.174h34.2v2.443a.814.814,0,0,1-.814.814H11.072A.814.814,0,0,1,10.258,29.617Zm3.595,13.845H40.867l3.258,3.258H10.595ZM9.443,49.977V48.348H45.276v1.629Z" transform="translate(0 -0.742)"/>
      <path id="Trazado_1070117" data-name="Trazado 1070117" d="M16,53h1.629v1.629H16Z" transform="translate(-1.671 -9.466)"/>
      <path id="Trazado_1070118" data-name="Trazado 1070118" d="M20,53h1.629v1.629H20Z" transform="translate(-2.413 -9.466)"/>
      <path id="Trazado_1070119" data-name="Trazado 1070119" d="M42,53h1.629v1.629H42Z" transform="translate(-6.496 -9.466)"/>
      <path id="Trazado_1070120" data-name="Trazado 1070120" d="M24,53H37.03v1.629H24Z" transform="translate(-3.155 -9.466)"/>
      <path id="Trazado_1070121" data-name="Trazado 1070121" d="M46,53h1.629v1.629H46Z" transform="translate(-7.239 -9.466)"/>
      <path id="Trazado_1070122" data-name="Trazado 1070122" d="M47,33h1.629v1.629H47Z" transform="translate(-7.424 -5.754)"/>
      <path id="Trazado_1070123" data-name="Trazado 1070123" d="M22.443,23.174H37.1a2.443,2.443,0,0,0,2.443-2.443V6.886a.814.814,0,0,0-.238-.576L35.235,2.239A.814.814,0,0,0,34.659,2H22.443A2.443,2.443,0,0,0,20,4.443V20.731a2.443,2.443,0,0,0,2.443,2.443ZM35.473,4.78l2.106,2.106H35.473ZM21.629,4.443a.814.814,0,0,1,.814-.814h11.4V6.886a1.629,1.629,0,0,0,1.629,1.629h2.443V20.731a.814.814,0,0,1-.814.814H22.443a.814.814,0,0,1-.814-.814Z" transform="translate(-2.413)"/>
      <path id="Trazado_1070124" data-name="Trazado 1070124" d="M25,12H36.4v1.629H25Z" transform="translate(-3.341 -1.856)"/>
      <path id="Trazado_1070125" data-name="Trazado 1070125" d="M25,16H36.4v1.629H25Z" transform="translate(-3.341 -2.599)"/>
      <path id="Trazado_1070126" data-name="Trazado 1070126" d="M25,20H36.4v1.629H25Z" transform="translate(-3.341 -3.341)"/>
      <path id="Trazado_1070127" data-name="Trazado 1070127" d="M25,8h6.515V9.629H25Z" transform="translate(-3.341 -1.114)"/>
    </g>
  </g>
</svg>
