<svg xmlns="http://www.w3.org/2000/svg" xmlns:xlink="http://www.w3.org/1999/xlink" width="93.934" height="93.934" viewBox="0 0 93.934 93.934">
  <defs>
    <filter id="Trazado_982547" x="0" y="0" width="93.934" height="93.934" filterUnits="userSpaceOnUse">
      <feOffset dy="3" input="SourceAlpha"/>
      <feGaussianBlur stdDeviation="3" result="blur"/>
      <feFlood flood-opacity="0.161"/>
      <feComposite operator="in" in2="blur"/>
      <feComposite in="SourceGraphic"/>
    </filter>
  </defs>
  <g id="Grupo_1201607" data-name="Grupo 1201607" transform="translate(-189.125 -3817.863)">
    <g id="Grupo_1201111" data-name="Grupo 1201111" transform="translate(0.125 3471.803)">
      <g id="Grupo_1181939" data-name="Grupo 1181939" transform="translate(0 -388.939)">
        <g id="Grupo_1175133" data-name="Grupo 1175133" transform="translate(-0.033 -1251)">
          <g id="Grupo_1167337" data-name="Grupo 1167337" transform="translate(198.033 1992)">
            <g id="Grupo_1166720" data-name="Grupo 1166720">
              <g id="Grupo_1164305" data-name="Grupo 1164305">
                <g id="Grupo_1163948" data-name="Grupo 1163948">
                  <g id="Grupo_1158168" data-name="Grupo 1158168">
                    <g id="Grupo_1152576" data-name="Grupo 1152576">
                      <g id="Grupo_1148633" data-name="Grupo 1148633">
                        <g id="Grupo_1148525" data-name="Grupo 1148525">
                          <g transform="matrix(1, 0, 0, 1, -9, -6)" filter="url(#Trazado_982547)">
                            <g id="Trazado_982547-2" data-name="Trazado 982547" transform="translate(9 6)" fill="#fdfbec">
                              <path d="M 37.966796875 74.43359375 C 33.04315185546875 74.43359375 28.26757431030273 73.46962738037109 23.77274131774902 71.56847381591797 C 19.43047523498535 69.73184967041016 15.53040790557861 67.10224914550781 12.18087482452393 63.75271987915039 C 8.831341743469238 60.4031867980957 6.201741218566895 56.50312042236328 4.365118980407715 52.16086196899414 C 2.463963508605957 47.66601943969727 1.499996900558472 42.89044189453125 1.499996900558472 37.966796875 C 1.499996900558472 33.04315185546875 2.463963508605957 28.26757431030273 4.365118980407715 23.77274131774902 C 6.201741218566895 19.43047523498535 8.831341743469238 15.53040790557861 12.18087482452393 12.18087482452393 C 15.53040790557861 8.831341743469238 19.43047523498535 6.201741218566895 23.77274131774902 4.365118980407715 C 28.26757431030273 2.463963508605957 33.04315185546875 1.499996900558472 37.966796875 1.499996900558472 C 42.89044189453125 1.499996900558472 47.66601943969727 2.463963508605957 52.16086196899414 4.365118980407715 C 56.50312042236328 6.201741218566895 60.4031867980957 8.831341743469238 63.75271987915039 12.18087482452393 C 67.10224914550781 15.53040790557861 69.73184967041016 19.43047523498535 71.56847381591797 23.77274131774902 C 73.46962738037109 28.26757431030273 74.43359375 33.04315185546875 74.43359375 37.966796875 C 74.43359375 42.89044189453125 73.46962738037109 47.66601943969727 71.56847381591797 52.16086196899414 C 69.73184967041016 56.50313186645508 67.10224914550781 60.4031867980957 63.75271987915039 63.75271987915039 C 60.4031867980957 67.10224914550781 56.50313186645508 69.73184967041016 52.16086196899414 71.56847381591797 C 47.66601943969727 73.46962738037109 42.89044189453125 74.43359375 37.966796875 74.43359375 Z" stroke="none"/>
                              <path d="M 37.966796875 3 C 33.2449836730957 3 28.66600799560547 3.924095153808594 24.35705947875977 5.746635437011719 C 20.19359588623047 7.507637023925781 16.45379638671875 10.02928161621094 13.24153518676758 13.24153518676758 C 10.02927398681641 16.45379638671875 7.507621765136719 20.19359588623047 5.746635437011719 24.35705947875977 C 3.924095153808594 28.66600799560547 3 33.2449836730957 3 37.966796875 C 3 42.6886100769043 3.924095153808594 47.26758575439453 5.746635437011719 51.57653427124023 C 7.507621765136719 55.73999786376953 10.02927398681641 59.47979736328125 13.24153518676758 62.69205856323242 C 16.45379638671875 65.90431976318359 20.19359588623047 68.42597198486328 24.35705947875977 70.18695831298828 C 28.66600799560547 72.00949859619141 33.2449836730957 72.93359375 37.966796875 72.93359375 C 42.6886100769043 72.93359375 47.26758575439453 72.00949859619141 51.57653427124023 70.18695831298828 C 55.73999786376953 68.42597198486328 59.47979736328125 65.90431976318359 62.69205856323242 62.69205856323242 C 65.90431976318359 59.47979736328125 68.42597198486328 55.73999786376953 70.18695831298828 51.57653427124023 C 72.00949859619141 47.26758575439453 72.93359375 42.6886100769043 72.93359375 37.966796875 C 72.93359375 33.2449836730957 72.00949859619141 28.66600799560547 70.18695831298828 24.35705947875977 C 68.42597198486328 20.19359588623047 65.90431976318359 16.45379638671875 62.69205856323242 13.24153518676758 C 59.47979736328125 10.02928161621094 55.73999786376953 7.507637023925781 51.57653427124023 5.746635437011719 C 47.26758575439453 3.924095153808594 42.6886100769043 3 37.966796875 3 M 37.966796875 0 C 58.93528366088867 0 75.93359375 16.99832153320312 75.93359375 37.966796875 C 75.93359375 58.93528366088867 58.93528366088867 75.93359375 37.966796875 75.93359375 C 16.99831008911133 75.93359375 0 58.93528366088867 0 37.966796875 C 0 16.99832153320312 16.99831008911133 0 37.966796875 0 Z" stroke="none" fill="#84792b"/>
                            </g>
                          </g>
                        </g>
                      </g>
                    </g>
                  </g>
                </g>
              </g>
            </g>
          </g>
        </g>
      </g>
    </g>
    <g id="video-educativo" transform="translate(211.448 3835.683)">
      <path id="Trazado_1070099" data-name="Trazado 1070099" d="M13.023,17.809V28.988L24.2,23.4Z" transform="translate(6.406 11.508)" fill="#fffad2"/>
      <path id="Trazado_1070100" data-name="Trazado 1070100" d="M19.331,11.511,11.219,8.954v6.483a24.512,24.512,0,0,0,16.751,0V8.954l-8.112,2.557a.883.883,0,0,1-.527,0Z" transform="translate(5.05 4.852)" fill="#2632a8"/>
      <path id="Trazado_1070101" data-name="Trazado 1070101" d="M8.127,39.775H39.657a2.631,2.631,0,0,0,2.627-2.627V16.127A2.631,2.631,0,0,0,39.657,13.5h-1.7v.955a2.19,2.19,0,1,1-1.752,0V13.5H33.283a26.28,26.28,0,0,1-9.392,1.746A26.28,26.28,0,0,1,14.5,13.5H8.127A2.631,2.631,0,0,0,5.5,16.127v21.02a2.631,2.631,0,0,0,2.627,2.627Zm8.8-20.144a.874.874,0,0,1,1.266-.783l14.013,7.007a.876.876,0,0,1,0,1.566L18.192,34.427a.872.872,0,0,1-.391.093.873.873,0,0,1-.876-.876Z" transform="translate(0.752 8.269)" fill="#ef1818"/>
      <path id="Trazado_1070102" data-name="Trazado 1070102" d="M39.373,8.683,23.018,3.524,6.663,8.683l16.355,5.157Z" transform="translate(1.626 0.771)" fill="#2632a8"/>
      <path id="Trazado_1070103" data-name="Trazado 1070103" d="M23.281,15.376c0,.482.876.482.876,0a.438.438,0,1,0-.876,0Z" transform="translate(14.116 9.35)" fill="#fffad2"/>
      <path id="Trazado_1070104" data-name="Trazado 1070104" d="M8.879,49.8H40.409a4.384,4.384,0,0,0,4.379-4.379V24.4a4.384,4.384,0,0,0-4.379-4.379h-1.7V12.011l5.463-1.724a.876.876,0,0,0,0-1.671L24.907,2.539a.874.874,0,0,0-.527,0L5.111,8.616a.876.876,0,0,0,0,1.671l9.4,2.966v6.765H8.879A4.384,4.384,0,0,0,4.5,24.4v21.02A4.384,4.384,0,0,0,8.879,49.8ZM8.289,9.453,24.644,4.295,41,9.451,24.644,14.61ZM38.273,24.726c0,.482-.876.482-.876,0a.438.438,0,1,1,.876,0ZM36.96,12.562v7.455H34.77V13.252Zm-3.941,1.244v6.483a24.512,24.512,0,0,1-16.751,0V13.806l8.112,2.557a.847.847,0,0,0,.263.04.894.894,0,0,0,.263-.04ZM6.252,24.4a2.631,2.631,0,0,1,2.627-2.627h6.372a26.281,26.281,0,0,0,9.392,1.746,26.281,26.281,0,0,0,9.392-1.746h2.925v.955a2.19,2.19,0,1,0,1.752,0v-.955h1.7A2.631,2.631,0,0,1,43.036,24.4v21.02a2.631,2.631,0,0,1-2.627,2.627H8.879a2.631,2.631,0,0,1-2.627-2.627Z" transform="translate(0)"/>
      <path id="Trazado_1070105" data-name="Trazado 1070105" d="M12.9,32.264a.885.885,0,0,0,.392-.093L27.3,25.165a.876.876,0,0,0,0-1.566L13.29,16.592a.874.874,0,0,0-1.266.783V31.388a.873.873,0,0,0,.874.876Zm.876-13.472,11.179,5.589L13.774,29.971Z" transform="translate(5.655 10.524)"/>
    </g>
  </g>
</svg>
