<svg xmlns="http://www.w3.org/2000/svg" xmlns:xlink="http://www.w3.org/1999/xlink" width="103" height="103" viewBox="0 0 103 103">
  <defs>
    <filter id="Trazado_978624" x="0" y="0" width="103" height="103" filterUnits="userSpaceOnUse">
      <feOffset dy="3" input="SourceAlpha"/>
      <feGaussianBlur stdDeviation="3" result="blur"/>
      <feFlood flood-opacity="0.161"/>
      <feComposite operator="in" in2="blur"/>
      <feComposite in="SourceGraphic"/>
    </filter>
  </defs>
  <g id="Grupo_1201561" data-name="Grupo 1201561" transform="translate(-158 -1114)">
    <g id="Grupo_1201095" data-name="Grupo 1201095" transform="translate(-13 -6692.104)">
      <g id="Grupo_1183567" data-name="Grupo 1183567" transform="translate(180 7812.104)">
        <g id="Grupo_1174730" data-name="Grupo 1174730">
          <g id="Grupo_1173798" data-name="Grupo 1173798">
            <g id="Grupo_1171925" data-name="Grupo 1171925">
              <g id="Grupo_1164524" data-name="Grupo 1164524">
                <g id="Grupo_1144123" data-name="Grupo 1144123">
                  <g transform="matrix(1, 0, 0, 1, -9, -6)" filter="url(#Trazado_978624)">
                    <g id="Trazado_978624-2" data-name="Trazado 978624" transform="translate(9 6)" fill="#edf3fc">
                      <path d="M 42.5 83.5 C 36.96437835693359 83.5 31.59512901306152 82.41617584228516 26.54141235351562 80.27863311767578 C 21.65934181213379 78.21369171142578 17.27447128295898 75.25723266601562 13.50862312316895 71.49137878417969 C 9.742764472961426 67.72553253173828 6.786305904388428 63.34066009521484 4.721364498138428 58.45858764648438 C 2.583823442459106 53.40486907958984 1.5 48.03562164306641 1.5 42.5 C 1.5 36.96437835693359 2.583823442459106 31.59512901306152 4.721364498138428 26.54141235351562 C 6.786305904388428 21.65934181213379 9.742764472961426 17.27447128295898 13.50862312316895 13.50862312316895 C 17.27447128295898 9.742764472961426 21.65934181213379 6.786305904388428 26.54141235351562 4.721364498138428 C 31.59512901306152 2.583823442459106 36.96437835693359 1.5 42.5 1.5 C 48.03562164306641 1.5 53.40486907958984 2.583823442459106 58.45858764648438 4.721364498138428 C 63.34066009521484 6.786305904388428 67.72553253173828 9.742764472961426 71.49137878417969 13.50862312316895 C 75.25723266601562 17.27447128295898 78.21369171142578 21.65934181213379 80.27863311767578 26.54141235351562 C 82.41617584228516 31.59512901306152 83.5 36.96437835693359 83.5 42.5 C 83.5 48.03562164306641 82.41617584228516 53.40486907958984 80.27863311767578 58.45858764648438 C 78.21369171142578 63.34066009521484 75.25723266601562 67.72553253173828 71.49137878417969 71.49137878417969 C 67.72553253173828 75.25723266601562 63.34066009521484 78.21369171142578 58.45858764648438 80.27863311767578 C 53.40486907958984 82.41617584228516 48.03562164306641 83.5 42.5 83.5 Z" stroke="none"/>
                      <path d="M 42.5 3 C 37.16621398925781 3 31.99356079101562 4.043960571289062 27.125732421875 6.102882385253906 C 22.42246627807617 8.092185974121094 18.19785308837891 10.94070434570312 14.56928253173828 14.56928253173828 C 10.94070434570312 18.19785308837891 8.092185974121094 22.42246627807617 6.102882385253906 27.125732421875 C 4.043960571289062 31.99356079101562 3 37.16621398925781 3 42.5 C 3 47.83378601074219 4.043960571289062 53.00643920898438 6.102882385253906 57.87425231933594 C 8.092185974121094 62.57753372192383 10.94070434570312 66.80213165283203 14.56928253173828 70.43071746826172 C 18.19786834716797 74.05929565429688 22.42246627807617 76.90781402587891 27.125732421875 78.89711761474609 C 31.99356079101562 80.95603942871094 37.16621398925781 82 42.5 82 C 47.83378601074219 82 53.00642395019531 80.95603942871094 57.87425231933594 78.89711761474609 C 62.57753372192383 76.90781402587891 66.80213165283203 74.05929565429688 70.43071746826172 70.43071746826172 C 74.05929565429688 66.80213165283203 76.90781402587891 62.57753372192383 78.89711761474609 57.87425231933594 C 80.95603942871094 53.00642395019531 82 47.83378601074219 82 42.5 C 82 37.16621398925781 80.95603942871094 31.99356079101562 78.89711761474609 27.125732421875 C 76.90781402587891 22.42246627807617 74.05929565429688 18.19786834716797 70.43071746826172 14.56928253173828 C 66.80213165283203 10.94070434570312 62.57753372192383 8.092185974121094 57.87425231933594 6.102882385253906 C 53.00643920898438 4.043960571289062 47.83378601074219 3 42.5 3 M 42.5 0 C 65.97209167480469 0 85 19.02789306640625 85 42.5 C 85 65.97209167480469 65.97209167480469 85 42.5 85 C 19.02789306640625 85 0 65.97209167480469 0 42.5 C 0 19.02789306640625 19.02789306640625 0 42.5 0 Z" stroke="none" fill="#5692e8"/>
                    </g>
                  </g>
                </g>
              </g>
            </g>
          </g>
        </g>
      </g>
    </g>
    <g id="bombilla_5_" data-name="bombilla (5)" transform="translate(181.955 1136.575)">
      <path id="Trazado_1070012" data-name="Trazado 1070012" d="M231.622,459.577l-3.342-1.671-3.342,1.671a3.342,3.342,0,0,0,6.684,0Z" transform="translate(-200.735 -408.637)" fill="#8795de"/>
      <path id="Trazado_1070013" data-name="Trazado 1070013" d="M224.938,459.577a3.327,3.327,0,0,0,.415,1.614h5.855a3.327,3.327,0,0,0,.415-1.614l-3.342-1.671Z" transform="translate(-200.735 -408.637)" fill="#6c7fd8"/>
      <path id="Trazado_1070014" data-name="Trazado 1070014" d="M217.819,404.137h-6.8a1.614,1.614,0,0,1-1.614-1.614v-5.071l5.013-1.671,5.013,1.671v5.071A1.614,1.614,0,0,1,217.819,404.137Z" transform="translate(-186.875 -353.196)" fill="#c8effe"/>
      <path id="Trazado_1070015" data-name="Trazado 1070015" d="M217.281,404.646v3.636a1.614,1.614,0,0,1-1.614,1.614h-6.261v.538a1.614,1.614,0,0,0,1.614,1.614h6.8a1.614,1.614,0,0,0,1.614-1.614v-5.071Z" transform="translate(-186.875 -361.107)" fill="#99e6fc"/>
      <path id="Trazado_1070016" data-name="Trazado 1070016" d="M115.826,26.718A19.218,19.218,0,1,0,86.093,42.806a6.5,6.5,0,0,1,2.759,3.856l.664,2.657a2.152,2.152,0,0,0,2.088,1.63h10.009a2.152,2.152,0,0,0,2.088-1.63l.664-2.657a6.409,6.409,0,0,1,2.71-3.824A19.2,19.2,0,0,0,115.826,26.718Z" transform="translate(-69.064 -6.693)" fill="#ffe177"/>
      <path id="Trazado_1070017" data-name="Trazado 1070017" d="M207.723,48.835a19.222,19.222,0,0,1-4.3,28.416,6.409,6.409,0,0,0-2.71,3.824l-.664,2.657a2.152,2.152,0,0,1-2.088,1.63h-9.833l.211.845a2.152,2.152,0,0,0,2.088,1.63h10.009a2.152,2.152,0,0,0,2.088-1.63l.664-2.657a6.409,6.409,0,0,1,2.71-3.824,19.221,19.221,0,0,0,1.829-30.891Z" transform="translate(-167.882 -43.58)" fill="#ffd15b"/>
      <path id="Trazado_1070018" data-name="Trazado 1070018" d="M89.914,0A20.065,20.065,0,0,0,79.735,2.762a.807.807,0,0,0,.819,1.391A18.42,18.42,0,0,1,99.94,35.469a7.191,7.191,0,0,0-3.053,4.3l-.664,2.657a1.343,1.343,0,0,1-1.3,1.019h-.855V32.772a.27.27,0,0,1,.216-.264l3.283-.657A1.888,1.888,0,0,0,99.077,30V26.814a.807.807,0,1,0-1.614,0V30a.27.27,0,0,1-.216.264l-3.283.657a1.888,1.888,0,0,0-1.514,1.846V43.449H90.721V21.522l6.42-1.284a.269.269,0,0,1,.322.264v2.546a.807.807,0,0,0,1.614,0V20.5a1.883,1.883,0,0,0-2.252-1.846l-6.91,1.382L83,18.655A1.883,1.883,0,0,0,80.752,20.5v9.5a1.888,1.888,0,0,0,1.514,1.846l3.283.657a.27.27,0,0,1,.216.264V43.449H84.91a1.343,1.343,0,0,1-1.3-1.019l-.664-2.657a7.292,7.292,0,0,0-3.1-4.335A18.437,18.437,0,0,1,77.566,6.347a.807.807,0,1,0-1.081-1.2,20.05,20.05,0,0,0,2.473,31.64,5.683,5.683,0,0,1,2.418,3.377l.664,2.657a2.955,2.955,0,0,0,2.055,2.127v1.842H83.23a.807.807,0,1,0,0,1.614h.864v.921a2.425,2.425,0,0,0,1.731,2.321,4.15,4.15,0,0,0,8.178,0,2.425,2.425,0,0,0,1.731-2.321v-.921H96.6a.807.807,0,1,0,0-1.614h-.864V44.949a2.955,2.955,0,0,0,2.055-2.127l.664-2.657a5.582,5.582,0,0,1,2.367-3.343A20.027,20.027,0,0,0,89.914,0ZM85.865,30.925l-3.283-.657A.27.27,0,0,1,82.366,30V20.5a.269.269,0,0,1,.322-.264l6.42,1.284V43.449H87.379V32.772A1.888,1.888,0,0,0,85.865,30.925Zm4.049,22.55a2.54,2.54,0,0,1-2.4-1.728h4.807A2.54,2.54,0,0,1,89.914,53.476Zm1.711-5.071h2.5v.921a.808.808,0,0,1-.807.807h-6.8a.808.808,0,0,1-.807-.807v-.921H87.86a.807.807,0,1,0,0-1.614H85.708V45.063h8.413v1.728h-2.5a.807.807,0,0,0,0,1.614Z" transform="translate(-62.369)"/>
      <path id="Trazado_1070019" data-name="Trazado 1070019" d="M202.554,209.716l1.671.334a.807.807,0,1,0,.317-1.583l-1.671-.334a.807.807,0,0,0-.317,1.583Z" transform="translate(-180.181 -185.725)"/>
      <path id="Trazado_1070020" data-name="Trazado 1070020" d="M204.541,245.744l-1.671-.334a.807.807,0,1,0-.316,1.583l1.671.334a.807.807,0,1,0,.316-1.583Z" transform="translate(-180.181 -218.99)"/>
      <path id="Trazado_1070021" data-name="Trazado 1070021" d="M282.831,208.767a.807.807,0,0,0-.95-.633l-1.671.334a.807.807,0,1,0,.317,1.583l1.671-.334A.807.807,0,0,0,282.831,208.767Z" transform="translate(-249.481 -185.725)"/>
      <path id="Trazado_1070022" data-name="Trazado 1070022" d="M281.881,245.408l-1.671.334a.807.807,0,1,0,.317,1.583l1.671-.334a.807.807,0,1,0-.317-1.583Z" transform="translate(-249.481 -218.989)"/>
      <path id="Trazado_1070023" data-name="Trazado 1070023" d="M470.087,178.609h-3.342a.807.807,0,0,0,0,1.614h3.342a.807.807,0,0,0,0-1.614Z" transform="translate(-415.804 -159.391)"/>
      <path id="Trazado_1070024" data-name="Trazado 1070024" d="M451.213,80.941a.8.8,0,0,0,.4-.108l2.894-1.671a.807.807,0,1,0-.807-1.4l-2.894,1.671a.807.807,0,0,0,.4,1.506Z" transform="translate(-401.943 -69.3)"/>
      <path id="Trazado_1070025" data-name="Trazado 1070025" d="M454.511,265.809l-2.894-1.671a.807.807,0,0,0-.807,1.4l2.894,1.671a.807.807,0,1,0,.807-1.4Z" transform="translate(-401.944 -235.621)"/>
      <path id="Trazado_1070026" data-name="Trazado 1070026" d="M4.956,179.416a.807.807,0,0,0-.807-.807H.807a.807.807,0,0,0,0,1.614H4.149A.807.807,0,0,0,4.956,179.416Z" transform="translate(0 -159.391)"/>
      <path id="Trazado_1070027" data-name="Trazado 1070027" d="M23.8,79.434,20.9,77.763a.807.807,0,1,0-.807,1.4l2.894,1.671a.807.807,0,0,0,.807-1.4Z" transform="translate(-17.572 -69.299)"/>
      <path id="Trazado_1070028" data-name="Trazado 1070028" d="M22.99,264.138,20.1,265.809a.807.807,0,1,0,.807,1.4l2.894-1.671a.807.807,0,1,0-.807-1.4Z" transform="translate(-17.573 -235.621)"/>
    </g>
  </g>
</svg>
