<svg xmlns="http://www.w3.org/2000/svg" xmlns:xlink="http://www.w3.org/1999/xlink" width="108" height="108" viewBox="0 0 108 108">
  <defs>
    <filter id="Trazado_904820" x="0" y="0" width="108" height="108" filterUnits="userSpaceOnUse">
      <feOffset dy="3" input="SourceAlpha"/>
      <feGaussianBlur stdDeviation="3" result="blur"/>
      <feFlood flood-opacity="0.161"/>
      <feComposite operator="in" in2="blur"/>
      <feComposite in="SourceGraphic"/>
    </filter>
  </defs>
  <g id="Grupo_1201475" data-name="Grupo 1201475" transform="translate(-620 -3187)">
    <g id="Grupo_1183267" data-name="Grupo 1183267" transform="translate(629 3193)">
      <g id="Grupo_1173585" data-name="Grupo 1173585" transform="translate(0 0)">
        <g id="Grupo_1173428" data-name="Grupo 1173428">
          <g id="Grupo_1171958" data-name="Grupo 1171958">
            <g id="Grupo_1167341" data-name="Grupo 1167341">
              <g id="Grupo_1166792" data-name="Grupo 1166792">
                <g transform="matrix(1, 0, 0, 1, -9, -6)" filter="url(#Trazado_904820)">
                  <g id="Trazado_904820-2" data-name="Trazado 904820" transform="translate(9 6)" fill="#fdfbec">
                    <path d="M 44.99999618530273 88.50009918212891 C 39.12687301635742 88.50009918212891 33.43022155761719 87.35017395019531 28.06829643249512 85.08226013183594 C 22.88852119445801 82.89139556884766 18.23629570007324 79.75468444824219 14.24084663391113 75.75922393798828 C 10.24540901184082 71.76377105712891 7.108683586120605 67.11154937744141 4.917821407318115 61.93177032470703 C 2.649921178817749 56.56983184814453 1.499996185302734 50.8731689453125 1.499996185302734 45.00004577636719 C 1.499996185302734 39.12692260742188 2.649921178817749 33.43025970458984 4.917821407318115 28.06832122802734 C 7.108683586120605 22.88854598999023 10.24540901184082 18.23632049560547 14.24084663391113 14.24087047576904 C 18.23629570007324 10.2454080581665 22.88852119445801 7.108695983886719 28.06829643249512 4.91783332824707 C 33.43022155761719 2.649920701980591 39.12687301635742 1.499995827674866 44.99999618530273 1.499995827674866 C 50.87311935424805 1.499995827674866 56.56977081298828 2.649920701980591 61.93169784545898 4.91783332824707 C 67.11147308349609 7.108695983886719 71.76369476318359 10.2454080581665 75.75914764404297 14.24087047576904 C 79.75458526611328 18.23632049560547 82.89131164550781 22.88854598999023 85.08216857910156 28.06832122802734 C 87.35007476806641 33.43025970458984 88.5 39.12692260742188 88.5 45.00004577636719 C 88.5 50.8731689453125 87.35007476806641 56.56983184814453 85.08216857910156 61.93177032470703 C 82.89131164550781 67.11154937744141 79.75458526611328 71.76377105712891 75.75914764404297 75.75922393798828 C 71.76369476318359 79.75468444824219 67.11147308349609 82.89139556884766 61.93169784545898 85.08226013183594 C 56.56977081298828 87.35017395019531 50.87311935424805 88.50009918212891 44.99999618530273 88.50009918212891 Z" stroke="none"/>
                    <path d="M 44.99999618530273 3 C 39.32870864868164 3 33.82865142822266 4.110061645507812 28.65262603759766 6.299346923828125 C 23.65165710449219 8.414573669433594 19.15968322753906 11.44334411621094 15.301513671875 15.30152893066406 C 11.44333648681641 19.15970611572266 8.414566040039062 23.65167236328125 6.299339294433594 28.65264511108398 C 4.110054016113281 33.82868957519531 2.999992370605469 39.3287467956543 2.999992370605469 45.00004577636719 C 2.999992370605469 50.67134475708008 4.110054016113281 56.17140197753906 6.299339294433594 61.34744644165039 C 8.414566040039062 66.34841918945312 11.44333648681641 70.84039306640625 15.301513671875 74.69856262207031 C 19.15968322753906 78.55674743652344 23.65165710449219 81.58551788330078 28.65262603759766 83.70074462890625 C 33.82865142822266 85.89002990722656 39.32870864868164 87.00009155273438 44.99999618530273 87.00009155273438 C 50.67128372192383 87.00009155273438 56.17134094238281 85.89002990722656 61.34736633300781 83.70074462890625 C 66.34834289550781 81.58551788330078 70.84030914306641 78.55674743652344 74.69847869873047 74.69856262207031 C 78.55665588378906 70.84039306640625 81.58542633056641 66.34841918945312 83.70065307617188 61.34744644165039 C 85.88993835449219 56.17140197753906 87 50.67134475708008 87 45.00004577636719 C 87 39.3287467956543 85.88993835449219 33.82868957519531 83.70065307617188 28.65264511108398 C 81.58542633056641 23.65167236328125 78.55665588378906 19.15970611572266 74.69847869873047 15.30152893066406 C 70.84030914306641 11.44334411621094 66.34834289550781 8.414573669433594 61.34736633300781 6.299346923828125 C 56.17134094238281 4.110061645507812 50.67128372192383 3 44.99999618530273 3 M 44.99999618530273 0 C 69.85281372070312 0 90 20.14720153808594 90 45.00004577636719 C 90 69.85289001464844 69.85281372070312 90.00009155273438 44.99999618530273 90.00009155273438 C 20.14717864990234 90.00009155273438 -7.62939453125e-06 69.85289001464844 -7.62939453125e-06 45.00004577636719 C -7.62939453125e-06 20.14720153808594 20.14717864990234 0 44.99999618530273 0 Z" stroke="none" fill="#83793c"/>
                  </g>
                </g>
              </g>
            </g>
          </g>
        </g>
      </g>
    </g>
    <g id="reclutamiento_1_" data-name="reclutamiento (1)" transform="translate(634.976 3207.917)">
      <path id="XMLID_581_" d="M29.591,384.5l10.662-10.662-5.509-5.507L31,368.314l-8.8,8.8c-1.883,1.883-3.589,4.834.424,8.848a6.5,6.5,0,0,0,6.965-1.458Z" transform="translate(-17.477 -319.391)" fill="#f9996e"/>
      <path id="XMLID_580_" d="M13.089,355.018l10.66-10.66-3.686-3.686L9.4,351.332a6.506,6.506,0,0,0,2.229,10.653,6.5,6.5,0,0,1,1.458-6.966Z" transform="translate(-6.482 -295.418)" fill="#f38054"/>
      <path id="XMLID_577_" d="M112.112,288.061l5.656-5.656-14-14-5.656,5.656c-2.369,2.369-4.224,4.442,2.071,10.738,2.056,2.055,1.48,1.487,3.4,3.4a6.132,6.132,0,0,0,8.534-.134Z" transform="translate(-83.135 -232.748)" fill="#f38054"/>
      <path id="XMLID_576_" d="M88.292,261.516l5.656-5.656-4.489-4.489L83.8,257.027a6.136,6.136,0,0,0-.7,7.84c.471.672.449.577,5.034,5.16a5.008,5.008,0,0,1-.545-.671A6.136,6.136,0,0,1,88.292,261.516Z" transform="translate(-71.093 -217.981)" fill="#f06d3e"/>
      <path id="XMLID_573_" d="M227.467,33.724A26,26,0,0,0,202.8,7.754c-24.917,5.634-24.3,48.4,6.2,50.865A26.013,26.013,0,0,0,227.467,33.724Z" transform="translate(-160.441 -6.724)" fill="#eceaf5"/>
      <path id="XMLID_566_" d="M140.251,7.534q-.664-.034-1.336-.034a26,26,0,1,0,7.532,50.9c-15.781-13.172-18.893-38.611-6.2-50.865Z" transform="translate(-97.893 -6.504)" fill="#dbd8f1"/>
      <path id="XMLID_559_" d="M244.989,236.753a11.384,11.384,0,0,0-15.1,0,11.025,11.025,0,0,0-3.451,8.071h22A11.026,11.026,0,0,0,244.989,236.753Z" transform="translate(-196.339 -202.821)" fill="#05dbb7"/>
      <path id="XMLID_558_" d="M261.66,111.029a12.4,12.4,0,0,0-2.943-8.185l-4.291-1.247h-7.811c-10.992,1.47-12.525,22.046,4.335,22.046C257.082,122.4,261.66,117.624,261.66,111.029Z" transform="translate(-206.636 -88.101)" fill="#ffdfcf"/>
      <path id="XMLID_557_" d="M213.755,111.029a13.85,13.85,0,0,1,3.47-9.433h-6.357l-3.5,1.249a12.393,12.393,0,0,0-2.944,8.184c0,7.706,6.252,12.931,13.926,12.931a16.218,16.218,0,0,0,3.214-.318,13.471,13.471,0,0,1-7.805-12.613Z" transform="translate(-177.246 -88.101)" fill="#ffcebf"/>
      <path id="XMLID_556_" d="M276.363,83.489a7,7,0,0,0,8.508-1.4,13.768,13.768,0,0,0-7.769-4.426c-8.857,0-10.758,4.426-6.342,6.137a6.9,6.9,0,0,0,.655-.314A5.167,5.167,0,0,1,276.363,83.489Z" transform="translate(-232.79 -67.349)" fill="#69576e"/>
      <path id="XMLID_555_" d="M240.781,75.549c-5.093-1.043-10.779.43-14.194,4.427a6.991,6.991,0,0,0,7.852,1.71A13.2,13.2,0,0,1,240.781,75.549Z" transform="translate(-196.469 -65.233)" fill="#594c5e"/>
      <path id="Trazado_1069911" data-name="Trazado 1069911" d="M41.022,0A27.036,27.036,0,0,0,28.066,3.306a1,1,0,0,0,.957,1.747,25.039,25.039,0,1,1-3.724,2.5A1,1,0,0,0,24.045,6,27.072,27.072,0,0,0,15.251,35.1l-3.246,3.245a7.15,7.15,0,0,0-1.271,8.35L2.216,55.21a7.5,7.5,0,0,0,10.6,10.6l1.255-1.255a1,1,0,1,0-1.409-1.409L11.41,64.4a5.5,5.5,0,0,1-7.785-7.786l8.289-8.289c.173.18,7.589,7.6,7.785,7.785l-3.736,3.736a1,1,0,1,0,1.409,1.409l3.967-3.967a7.149,7.149,0,0,0,8.342-1.276l3.247-3.247A27.005,27.005,0,1,0,41.022,0ZM28.272,54.608a5.154,5.154,0,0,1-7.267,0L13.416,47.02a5.155,5.155,0,0,1,0-7.269l2.58-2.58A27.146,27.146,0,0,0,30.854,52.026Z"/>
      <path id="Trazado_1069912" data-name="Trazado 1069912" d="M240.061,153.964a1,1,0,0,0-1,1v1.6a1,1,0,1,0,1.992,0v-1.6A1,1,0,0,0,240.061,153.964Z" transform="translate(-207.29 -133.513)"/>
      <path id="Trazado_1069913" data-name="Trazado 1069913" d="M365.454,153.964a1,1,0,0,0-1,1v1.6a1,1,0,1,0,1.992,0v-1.6A1,1,0,0,0,365.454,153.964Z" transform="translate(-316.026 -133.513)"/>
      <path id="Trazado_1069914" data-name="Trazado 1069914" d="M291.269,165.894a1,1,0,0,0-1.405.1,1.884,1.884,0,0,1-1.443.658,1.922,1.922,0,0,1-1.447-.66,1,1,0,1,0-1.5,1.311,3.91,3.91,0,0,0,5.893,0A1,1,0,0,0,291.269,165.894Z" transform="translate(-247.32 -143.645)"/>
      <path id="Trazado_1069915" data-name="Trazado 1069915" d="M226.764,81.691c0-8.252-6.691-13.926-14.921-13.926-8.259,0-14.923,5.7-14.923,13.926a13.37,13.37,0,0,0,5.811,11.2,11.979,11.979,0,0,0-2.887,7.876,1,1,0,0,0,1,1h22a1,1,0,0,0,1-1,11.979,11.979,0,0,0-2.887-7.877,13.37,13.37,0,0,0,5.81-11.2Zm-5.326-8.249a5.979,5.979,0,0,1-6.643.588,6.2,6.2,0,0,0-5.908,0,5.976,5.976,0,0,1-6.641-.589,14.34,14.34,0,0,1,19.192,0ZM221.8,99.77H201.884a9.945,9.945,0,0,1,2.595-5.843,16.857,16.857,0,0,0,14.728,0A9.945,9.945,0,0,1,221.8,99.77Zm-9.959-6.144c-7.528,0-12.93-5.057-12.93-11.935a11.619,11.619,0,0,1,2.053-6.724,7.958,7.958,0,0,0,8.881.81,4.187,4.187,0,0,1,3.99,0,7.967,7.967,0,0,0,8.883-.809,11.62,11.62,0,0,1,2.052,6.723c0,6.882-5.406,11.935-12.928,11.935Z" transform="translate(-170.743 -58.764)"/>
    </g>
  </g>
</svg>
