<svg xmlns="http://www.w3.org/2000/svg" xmlns:xlink="http://www.w3.org/1999/xlink" width="108" height="108" viewBox="0 0 108 108">
  <defs>
    <filter id="Trazado_904820" x="0" y="0" width="108" height="108" filterUnits="userSpaceOnUse">
      <feOffset dy="3" input="SourceAlpha"/>
      <feGaussianBlur stdDeviation="3" result="blur"/>
      <feFlood flood-opacity="0.161"/>
      <feComposite operator="in" in2="blur"/>
      <feComposite in="SourceGraphic"/>
    </filter>
  </defs>
  <g id="Grupo_1201623" data-name="Grupo 1201623" transform="translate(-200 -4589.985)">
    <g id="Grupo_1201114" data-name="Grupo 1201114" transform="translate(209 4595.985)">
      <g id="Grupo_1173585" data-name="Grupo 1173585" transform="translate(0 0)">
        <g id="Grupo_1173428" data-name="Grupo 1173428">
          <g id="Grupo_1171958" data-name="Grupo 1171958">
            <g id="Grupo_1167341" data-name="Grupo 1167341">
              <g id="Grupo_1166792" data-name="Grupo 1166792">
                <g transform="matrix(1, 0, 0, 1, -9, -6)" filter="url(#Trazado_904820)">
                  <g id="Trazado_904820-2" data-name="Trazado 904820" transform="translate(9 6)" fill="#edf3fc">
                    <path d="M 44.99999618530273 88.50009918212891 C 39.12687301635742 88.50009918212891 33.43022155761719 87.35017395019531 28.06829643249512 85.08226013183594 C 22.88852119445801 82.89139556884766 18.23629570007324 79.75468444824219 14.24084663391113 75.75922393798828 C 10.24540901184082 71.76377105712891 7.108683586120605 67.11154937744141 4.917821407318115 61.93177032470703 C 2.649921178817749 56.56983184814453 1.499996185302734 50.8731689453125 1.499996185302734 45.00004577636719 C 1.499996185302734 39.12692260742188 2.649921178817749 33.43025970458984 4.917821407318115 28.06832122802734 C 7.108683586120605 22.88854598999023 10.24540901184082 18.23632049560547 14.24084663391113 14.24087047576904 C 18.23629570007324 10.2454080581665 22.88852119445801 7.108695983886719 28.06829643249512 4.91783332824707 C 33.43022155761719 2.649920701980591 39.12687301635742 1.499995827674866 44.99999618530273 1.499995827674866 C 50.87311935424805 1.499995827674866 56.56977081298828 2.649920701980591 61.93169784545898 4.91783332824707 C 67.11147308349609 7.108695983886719 71.76369476318359 10.2454080581665 75.75914764404297 14.24087047576904 C 79.75458526611328 18.23632049560547 82.89131164550781 22.88854598999023 85.08216857910156 28.06832122802734 C 87.35007476806641 33.43025970458984 88.5 39.12692260742188 88.5 45.00004577636719 C 88.5 50.8731689453125 87.35007476806641 56.56983184814453 85.08216857910156 61.93177032470703 C 82.89131164550781 67.11154937744141 79.75458526611328 71.76377105712891 75.75914764404297 75.75922393798828 C 71.76369476318359 79.75468444824219 67.11147308349609 82.89139556884766 61.93169784545898 85.08226013183594 C 56.56977081298828 87.35017395019531 50.87311935424805 88.50009918212891 44.99999618530273 88.50009918212891 Z" stroke="none"/>
                    <path d="M 44.99999618530273 3 C 39.32870864868164 3 33.82865142822266 4.110061645507812 28.65262603759766 6.299346923828125 C 23.65165710449219 8.414573669433594 19.15968322753906 11.44334411621094 15.301513671875 15.30152893066406 C 11.44333648681641 19.15970611572266 8.414566040039062 23.65167236328125 6.299339294433594 28.65264511108398 C 4.110054016113281 33.82868957519531 2.999992370605469 39.3287467956543 2.999992370605469 45.00004577636719 C 2.999992370605469 50.67134475708008 4.110054016113281 56.17140197753906 6.299339294433594 61.34744644165039 C 8.414566040039062 66.34841918945312 11.44333648681641 70.84039306640625 15.301513671875 74.69856262207031 C 19.15968322753906 78.55674743652344 23.65165710449219 81.58551788330078 28.65262603759766 83.70074462890625 C 33.82865142822266 85.89002990722656 39.32870864868164 87.00009155273438 44.99999618530273 87.00009155273438 C 50.67128372192383 87.00009155273438 56.17134094238281 85.89002990722656 61.34736633300781 83.70074462890625 C 66.34834289550781 81.58551788330078 70.84030914306641 78.55674743652344 74.69847869873047 74.69856262207031 C 78.55665588378906 70.84039306640625 81.58542633056641 66.34841918945312 83.70065307617188 61.34744644165039 C 85.88993835449219 56.17140197753906 87 50.67134475708008 87 45.00004577636719 C 87 39.3287467956543 85.88993835449219 33.82868957519531 83.70065307617188 28.65264511108398 C 81.58542633056641 23.65167236328125 78.55665588378906 19.15970611572266 74.69847869873047 15.30152893066406 C 70.84030914306641 11.44334411621094 66.34834289550781 8.414573669433594 61.34736633300781 6.299346923828125 C 56.17134094238281 4.110061645507812 50.67128372192383 3 44.99999618530273 3 M 44.99999618530273 0 C 69.85281372070312 0 90 20.14720153808594 90 45.00004577636719 C 90 69.85289001464844 69.85281372070312 90.00009155273438 44.99999618530273 90.00009155273438 C 20.14717864990234 90.00009155273438 -7.62939453125e-06 69.85289001464844 -7.62939453125e-06 45.00004577636719 C -7.62939453125e-06 20.14720153808594 20.14717864990234 0 44.99999618530273 0 Z" stroke="none" fill="#5692e8"/>
                  </g>
                </g>
              </g>
            </g>
          </g>
        </g>
      </g>
    </g>
    <g id="rompecabezas_1_" data-name="rompecabezas (1)" transform="translate(220.604 4606.682)">
      <path id="Trazado_1070128" data-name="Trazado 1070128" d="M217.735,442.422H204.257v5.405a2.682,2.682,0,0,0,2.682,2.682h8.114a2.682,2.682,0,0,0,2.682-2.682Z" transform="translate(-177.6 -384.827)" fill="#d8ecfe"/>
      <path id="Trazado_1070129" data-name="Trazado 1070129" d="M210.841,450.506h-3.905a2.682,2.682,0,0,1-2.682-2.682v-5.406h3.905v5.406A2.682,2.682,0,0,0,210.841,450.506Z" transform="translate(-177.597 -384.824)" fill="#b3dafe"/>
      <path id="Trazado_1070130" data-name="Trazado 1070130" d="M196.565,415.3H180.39a2.022,2.022,0,1,1,0-4.044h16.175a2.022,2.022,0,0,1,0,4.044Z" transform="translate(-155.081 -357.721)" fill="#eaf6ff"/>
      <path id="Trazado_1070131" data-name="Trazado 1070131" d="M184.292,415.3h-3.905a2.022,2.022,0,1,1,0-4.043h3.905a2.022,2.022,0,1,0,0,4.043Z" transform="translate(-155.078 -357.72)" fill="#d8ecfe"/>
      <path id="Trazado_1070132" data-name="Trazado 1070132" d="M124.3,235.069a3.369,3.369,0,0,1-3.369,3.37v9.805h-6.739v-1.974a3.349,3.349,0,0,0-1.9-3.029,20.221,20.221,0,0,1-11.574-18.28v-.023h6.739v.022a3.37,3.37,0,1,0,6.739,0v-.022h6.739V231.7A3.369,3.369,0,0,1,124.3,235.069Z" transform="translate(-87.536 -195.656)" fill="#aee69c"/>
      <path id="Trazado_1070133" data-name="Trazado 1070133" d="M116.8,246.271v1.974h-2.6v-1.974a3.349,3.349,0,0,0-1.9-3.029,20.221,20.221,0,0,1-11.574-18.28v-.023h2.6v.023a20.221,20.221,0,0,0,11.574,18.28A3.349,3.349,0,0,1,116.8,246.271Z" transform="translate(-87.536 -195.656)" fill="#89daa4"/>
      <path id="Trazado_1070134" data-name="Trazado 1070134" d="M276.242,202.566v.022a20.219,20.219,0,0,1-11.566,18.277,3.354,3.354,0,0,0-1.912,3.033v2.929h-6.739V216.067a3.37,3.37,0,0,0,0-6.739v-6.762h6.739a3.37,3.37,0,0,1,6.739,0Z" transform="translate(-222.628 -173.284)" fill="#8ac9fe"/>
      <path id="Trazado_1070135" data-name="Trazado 1070135" d="M253.731,89.994h-6.739a3.37,3.37,0,0,0-6.739,0h-6.739V83.277a3.37,3.37,0,0,1,0-6.739V69.8A20.218,20.218,0,0,1,253.731,89.994Z" transform="translate(-200.117 -60.712)" fill="#ffe177"/>
      <path id="Trazado_1070136" data-name="Trazado 1070136" d="M117.563,79.906a3.369,3.369,0,0,0,3.369,3.37v6.717h-6.739v.022a3.37,3.37,0,1,1-6.739,0v-.022h-6.739a20.18,20.18,0,0,1,20.218-20.2v6.739a3.368,3.368,0,0,0-3.369,3.369Z" transform="translate(-87.536 -60.712)" fill="#fe646f"/>
      <path id="Trazado_1070137" data-name="Trazado 1070137" d="M120.932,69.8v.165a20.175,20.175,0,0,0-17.615,20.031h-2.6A20.18,20.18,0,0,1,120.932,69.8Z" transform="translate(-87.536 -60.712)" fill="#fd4755"/>
      <g id="Grupo_1201622" data-name="Grupo 1201622" transform="translate(0.077)">
        <path id="Trazado_1070138" data-name="Trazado 1070138" d="M132.428,72.385a.976.976,0,1,0-1.662,1.025,19.174,19.174,0,0,1,2.82,9.082h-4.874a4.346,4.346,0,0,0-8.46,0h-4.9V76.75a.976.976,0,0,0-.976-.976,2.393,2.393,0,1,1,0-4.786.976.976,0,0,0,.976-.976V64.272a19.064,19.064,0,0,1,12.92,5.907.976.976,0,1,0,1.41-1.351A21.016,21.016,0,0,0,114.386,62.3h-.026A21.2,21.2,0,0,0,100.4,67.535.976.976,0,0,0,101.683,69a19.231,19.231,0,0,1,11.713-4.73v4.872a4.347,4.347,0,0,0,0,8.471v4.875h-5.763a.976.976,0,0,0-.976.976v.023a2.394,2.394,0,0,1-4.787,0v-.023a.976.976,0,0,0-.976-.976H95.157a19.075,19.075,0,0,1,3.775-10.51.976.976,0,0,0-1.565-1.167,21.05,21.05,0,0,0-4.189,12.654c-.2,8.053,4.944,15.779,12.133,19.186a2.38,2.38,0,0,1,1.346,2.147v1.946c-2,0-3.37,1.074-3.37,3s1.323,3,3.37,3v4.443a3.782,3.782,0,0,0,3.658,3.658h8.115a3.782,3.782,0,0,0,3.658-3.658v-4.443c2.286,0,3.371-1.213,3.37-3,0-1.861-1.171-3-3.37-3V104.8a2.387,2.387,0,0,1,1.354-2.151,21.549,21.549,0,0,0,12.124-19.183,21.144,21.144,0,0,0-3.139-11.082Zm-26.281,28.5A19.348,19.348,0,0,1,95.158,84.444h4.865a4.347,4.347,0,0,0,8.482,0H113.4v5.785a.976.976,0,0,0,.976.976,2.393,2.393,0,1,1,0,4.786.976.976,0,0,0-.976.976v9.778H108.61V104.8A4.341,4.341,0,0,0,106.147,100.889Zm12.284,18h-8.115a1.789,1.789,0,0,1-1.705-2.083h11.526C120.138,117.85,119.808,118.891,118.43,118.891Zm4.029-8.1h-6.035a.976.976,0,0,0-.976.976s0,0,0,.007,0,0,0,.007a.976.976,0,0,0,.976.976h3.711v2.1H108.61v-2.1h3.56a.976.976,0,0,0,.976-.976s0,0,0-.007,0,0,0-.007a.976.976,0,0,0-.976-.976h-5.884a1.053,1.053,0,1,1,0-2.091H122.46A1.046,1.046,0,1,1,122.46,110.79Zm.147-9.905a4.349,4.349,0,0,0-2.471,3.916v1.946h-4.787V97.834a4.347,4.347,0,0,0,0-8.471v-4.92h5.763a.976.976,0,0,0,.976-.97,2.394,2.394,0,0,1,4.788,0,.976.976,0,0,0,.976.97h5.736a19.348,19.348,0,0,1-10.981,16.441Z" transform="translate(-81.053 -54.185)"/>
        <g id="Grupo_1201621" data-name="Grupo 1201621" transform="translate(0)">
          <g id="Grupo_1201609" data-name="Grupo 1201609" transform="translate(32.343)">
            <path id="Trazado_1070139" data-name="Trazado 1070139" d="M249.5,6a.976.976,0,0,1-.976-.976V.976a.976.976,0,0,1,1.953,0V5.02A.976.976,0,0,1,249.5,6Z" transform="translate(-248.524)"/>
          </g>
          <g id="Grupo_1201610" data-name="Grupo 1201610" transform="translate(46.492 4.333)">
            <path id="Trazado_1070140" data-name="Trazado 1070140" d="M357.7,38.608a.975.975,0,0,1-.357-1.334l2.022-3.5a.976.976,0,1,1,1.691.976l-2.022,3.5a1.051,1.051,0,0,1-1.334.357Z" transform="translate(-357.213 -33.284)"/>
          </g>
          <g id="Grupo_1201613" data-name="Grupo 1201613" transform="translate(4.342 16.171)">
            <g id="Grupo_1201611" data-name="Grupo 1201611" transform="translate(52.509)">
              <path id="Trazado_1070141" data-name="Trazado 1070141" d="M436.915,127.708a.976.976,0,0,1,.357-1.334l3.5-2.022a.976.976,0,0,1,.976,1.691l-3.5,2.022A1.017,1.017,0,0,1,436.915,127.708Z" transform="translate(-436.784 -124.222)"/>
            </g>
            <g id="Grupo_1201612" data-name="Grupo 1201612" transform="translate(0 30.321)">
              <path id="Trazado_1070142" data-name="Trazado 1070142" d="M33.551,360.624a.991.991,0,0,1,.357-1.334l3.5-2.022a.976.976,0,0,1,.976,1.691l-3.5,2.022A.917.917,0,0,1,33.551,360.624Z" transform="translate(-33.429 -357.138)"/>
            </g>
          </g>
          <g id="Grupo_1201614" data-name="Grupo 1201614" transform="translate(16.171 4.333)">
            <path id="Trazado_1070143" data-name="Trazado 1070143" d="M126.452,38.251l-2.022-3.5a.976.976,0,1,1,1.691-.976l2.022,3.5a.991.991,0,0,1-.357,1.334A1.017,1.017,0,0,1,126.452,38.251Z" transform="translate(-124.299 -33.284)"/>
          </g>
          <g id="Grupo_1201617" data-name="Grupo 1201617" transform="translate(4.333 16.171)">
            <g id="Grupo_1201615" data-name="Grupo 1201615">
              <path id="Trazado_1070144" data-name="Trazado 1070144" d="M37.352,128.066l-3.5-2.022a.976.976,0,1,1,.976-1.691l3.5,2.022a.93.93,0,0,1,.357,1.334A1,1,0,0,1,37.352,128.066Z" transform="translate(-33.362 -124.222)"/>
            </g>
            <g id="Grupo_1201616" data-name="Grupo 1201616" transform="translate(52.518 30.321)">
              <path id="Trazado_1070145" data-name="Trazado 1070145" d="M440.774,360.983l-3.5-2.022a.976.976,0,0,1,.976-1.691l3.5,2.022a.961.961,0,0,1,.357,1.334A.9.9,0,0,1,440.774,360.983Z" transform="translate(-436.784 -357.139)"/>
            </g>
          </g>
          <g id="Grupo_1201620" data-name="Grupo 1201620" transform="translate(0 32.343)">
            <g id="Grupo_1201618" data-name="Grupo 1201618">
              <path id="Trazado_1070146" data-name="Trazado 1070146" d="M5.1,250.4H1.053a.976.976,0,1,1,0-1.953H5.1a.976.976,0,1,1,0,1.953Z" transform="translate(-0.077 -248.447)"/>
            </g>
            <g id="Grupo_1201619" data-name="Grupo 1201619" transform="translate(60.642)">
              <path id="Trazado_1070147" data-name="Trazado 1070147" d="M470.928,250.4h-4.044a.976.976,0,1,1,0-1.953h4.044a.976.976,0,1,1,0,1.953Z" transform="translate(-465.908 -248.447)"/>
            </g>
          </g>
        </g>
      </g>
    </g>
  </g>
</svg>
