<svg xmlns="http://www.w3.org/2000/svg" xmlns:xlink="http://www.w3.org/1999/xlink" width="110" height="110" viewBox="0 0 110 110">
  <defs>
    <filter id="Trazado_982547" x="0" y="0" width="110" height="110" filterUnits="userSpaceOnUse">
      <feOffset dy="3" input="SourceAlpha"/>
      <feGaussianBlur stdDeviation="3" result="blur"/>
      <feFlood flood-opacity="0.161"/>
      <feComposite operator="in" in2="blur"/>
      <feComposite in="SourceGraphic"/>
    </filter>
  </defs>
  <g id="Grupo_1201510" data-name="Grupo 1201510" transform="translate(-797 -4438.714)">
    <g id="Grupo_1182824" data-name="Grupo 1182824" transform="translate(806 4444.714)">
      <g id="Grupo_1179602" data-name="Grupo 1179602" transform="translate(0 0)">
        <g id="Grupo_1171898" data-name="Grupo 1171898" transform="translate(0 0)">
          <g id="Grupo_1164700" data-name="Grupo 1164700">
            <g id="Grupo_1160931" data-name="Grupo 1160931">
              <g id="Grupo_1160749" data-name="Grupo 1160749">
                <g id="Grupo_1158891" data-name="Grupo 1158891">
                  <g id="Grupo_1157406" data-name="Grupo 1157406">
                    <g id="Grupo_1155793" data-name="Grupo 1155793">
                      <g id="Grupo_1154704" data-name="Grupo 1154704">
                        <g id="Grupo_1150790" data-name="Grupo 1150790">
                          <g id="Grupo_1154214" data-name="Grupo 1154214">
                            <g id="Grupo_1152583" data-name="Grupo 1152583">
                              <g id="Grupo_1146973" data-name="Grupo 1146973">
                                <g id="Grupo_1146954" data-name="Grupo 1146954">
                                  <g transform="matrix(1, 0, 0, 1, -9, -6)" filter="url(#Trazado_982547)">
                                    <g id="Trazado_982547-2" data-name="Trazado 982547" transform="translate(9 6)" fill="#effbfe">
                                      <path d="M 46.00000381469727 90.49986267089844 C 39.99188232421875 90.49986267089844 34.16428375244141 89.32350158691406 28.67905807495117 87.00344848632812 C 23.38021659851074 84.76223754882812 18.62104415893555 81.55341339111328 14.53376388549805 77.46613311767578 C 10.44647026062012 73.37885284423828 7.237643718719482 68.61968994140625 4.996417045593262 63.32085037231445 C 2.676363706588745 57.83565139770508 1.500003814697266 52.00805282592773 1.500003814697266 45.99993133544922 C 1.500003814697266 39.99182510375977 2.676363706588745 34.16422653198242 4.996417045593262 28.67901039123535 C 7.237643718719482 23.38017082214355 10.44647026062012 18.62101173400879 14.53376388549805 14.53373146057129 C 18.62104415893555 10.44645118713379 23.38021659851074 7.237624645233154 28.67905807495117 4.996411323547363 C 34.16428375244141 2.676357984542847 39.99188232421875 1.499997973442078 46.00000381469727 1.499997973442078 C 52.00812530517578 1.499997973442078 57.83573532104492 2.676357984542847 63.32094955444336 4.996411323547363 C 68.61980438232422 7.237624645233154 73.37896728515625 10.44645118713379 77.46625518798828 14.53373146057129 C 81.55353546142578 18.62101173400879 84.76236724853516 23.38017082214355 87.00359344482422 28.67901039123535 C 89.32364654541016 34.16422653198242 90.5 39.99182510375977 90.5 45.99993133544922 C 90.5 52.00805282592773 89.32364654541016 57.83565139770508 87.00359344482422 63.32085037231445 C 84.76236724853516 68.61968994140625 81.55353546142578 73.37885284423828 77.46625518798828 77.46613311767578 C 73.37896728515625 81.55341339111328 68.61980438232422 84.76223754882812 63.32094955444336 87.00344848632812 C 57.83573532104492 89.32350158691406 52.00812530517578 90.49986267089844 46.00000381469727 90.49986267089844 Z" stroke="none"/>
                                      <path d="M 46.00000381469727 3 C 40.19371795654297 3 34.56270217895508 4.136505126953125 29.26338958740234 6.377914428710938 C 24.14333343505859 8.54351806640625 19.54443359375 11.64438629150391 15.59442138671875 15.59439086914062 C 11.64440155029297 19.54440307617188 8.543533325195312 24.14330291748047 6.3779296875 29.26334381103516 C 4.136505126953125 34.56266021728516 3.000007629394531 40.19366073608398 3.000007629394531 45.99993133544922 C 3.000007629394531 51.80620193481445 4.136505126953125 57.43720245361328 6.3779296875 62.73651885986328 C 8.543533325195312 67.85655975341797 11.64440155029297 72.45545959472656 15.59442138671875 76.40547180175781 C 19.54443359375 80.35547637939453 24.14333343505859 83.45634460449219 29.26338958740234 85.6219482421875 C 34.56270217895508 87.86335754394531 40.19371795654297 88.99986267089844 46.00000381469727 88.99986267089844 C 51.80628967285156 88.99986267089844 57.43730545043945 87.86335754394531 62.73663330078125 85.6219482421875 C 67.85667419433594 83.45634460449219 72.45558929443359 80.35547637939453 76.40560150146484 76.40547180175781 C 80.35560607910156 72.45545959472656 83.45648956298828 67.85655975341797 85.62208557128906 62.73651885986328 C 87.86350250244141 57.43720245361328 89 51.80620193481445 89 45.99993133544922 C 89 40.19366073608398 87.86350250244141 34.56266021728516 85.62208557128906 29.26334381103516 C 83.45648956298828 24.14330291748047 80.35560607910156 19.54440307617188 76.40560150146484 15.59439086914062 C 72.45558929443359 11.64438629150391 67.85667419433594 8.54351806640625 62.73663330078125 6.377914428710938 C 57.43730545043945 4.136505126953125 51.80628967285156 3 46.00000381469727 3 M 46.00000381469727 0 C 71.40510559082031 0 92 20.59487152099609 92 45.99993133544922 C 92 71.40499114990234 71.40510559082031 91.99986267089844 46.00000381469727 91.99986267089844 C 20.59491729736328 91.99986267089844 7.62939453125e-06 71.40499114990234 7.62939453125e-06 45.99993133544922 C 7.62939453125e-06 20.59487152099609 20.59491729736328 0 46.00000381469727 0 Z" stroke="none" fill="#397b86"/>
                                    </g>
                                  </g>
                                </g>
                              </g>
                            </g>
                          </g>
                        </g>
                      </g>
                    </g>
                  </g>
                </g>
              </g>
            </g>
          </g>
        </g>
      </g>
    </g>
    <g id="escritor-de-blogs" transform="translate(825.008 4462.661)">
      <g id="Grupo_1201476" data-name="Grupo 1201476" transform="translate(3.729 2.789)">
        <path id="Trazado_1069916" data-name="Trazado 1069916" d="M42.311,2.939H7.826A3.948,3.948,0,0,0,3.879,6.887v7.405H30.471l1.145-2.179H40.89l1.145,2.179h4.223V6.887a3.948,3.948,0,0,0-3.947-3.947ZM9.846,10.589A1.974,1.974,0,1,1,11.82,8.616,1.974,1.974,0,0,1,9.846,10.589Zm7.68,0A1.974,1.974,0,1,1,19.5,8.616,1.974,1.974,0,0,1,17.527,10.589Zm7.672,0a1.974,1.974,0,1,1,1.973-1.974A1.974,1.974,0,0,1,25.2,10.589Z" transform="translate(-3.879 -2.939)" fill="#ffcc2e"/>
      </g>
      <g id="Grupo_1201477" data-name="Grupo 1201477" transform="translate(2.94 2)">
        <path id="Trazado_1069917" data-name="Trazado 1069917" d="M46.108,14.932H41.885a.789.789,0,0,1-.7-.422l-.923-1.756h-8.32l-.923,1.756a.789.789,0,0,1-.7.422H3.729a.79.79,0,0,1-.789-.789V6.737A4.742,4.742,0,0,1,7.676,2H42.161A4.742,4.742,0,0,1,46.9,6.737v7.405a.79.79,0,0,1-.789.789Zm-3.746-1.579h2.956V6.737a3.161,3.161,0,0,0-3.157-3.158H7.676A3.161,3.161,0,0,0,4.519,6.737v6.616H29.844l.923-1.756a.789.789,0,0,1,.7-.422H40.74a.789.789,0,0,1,.7.422Z" transform="translate(-2.94 -2)"/>
      </g>
      <g id="Grupo_1201478" data-name="Grupo 1201478" transform="translate(2.94 11.174)">
        <path id="Trazado_1069918" data-name="Trazado 1069918" d="M42.161,55.848H7.676A4.742,4.742,0,0,1,2.94,51.111V15.884a.79.79,0,0,1,.789-.789H29.844l.923-1.756a.789.789,0,0,1,.7-.422H40.74a.789.789,0,0,1,.7.422l.923,1.756h3.746a.79.79,0,0,1,.789.789V26.708a.79.79,0,0,1-.131.436L37.706,40.8l4.541,3.018,3.2-4.829a.79.79,0,0,1,1.448.436V51.111a4.742,4.742,0,0,1-4.736,4.737ZM4.519,16.674V51.111a3.161,3.161,0,0,0,3.157,3.158H42.161a3.161,3.161,0,0,0,3.157-3.158V42.046l-2.191,3.3a.79.79,0,0,1-1.094.222l-5.858-3.893a.79.79,0,0,1-.22-1.094L45.318,26.47v-9.8H41.885a.789.789,0,0,1-.7-.422l-.923-1.756h-8.32l-.923,1.756a.789.789,0,0,1-.7.422ZM46.108,26.708h.008Z" transform="translate(-2.94 -12.916)"/>
      </g>
      <g id="Grupo_1201479" data-name="Grupo 1201479" transform="translate(45.611 20.489)">
        <path id="Trazado_1069919" data-name="Trazado 1069919" d="M60.359,32.709a.785.785,0,0,1-.436-.131l-5.857-3.884a.79.79,0,0,1-.221-1.095l1.815-2.732a1.913,1.913,0,0,1,1.227-.824,2.1,2.1,0,0,1,1.579.311L62.21,26.84a2.028,2.028,0,0,1,.627,2.779l0,.006-1.815,2.732a.789.789,0,0,1-.658.352ZM55.6,27.814l4.541,3.011,1.376-2.07a.454.454,0,0,0-.178-.6l-3.743-2.488a.515.515,0,0,0-.387-.08.351.351,0,0,0-.228.146Zm6.577,1.374h.008Z" transform="translate(-53.714 -24)"/>
      </g>
      <g id="Grupo_1201480" data-name="Grupo 1201480" transform="translate(39.541 26.466)">
        <path id="Trazado_1069920" data-name="Trazado 1069920" d="M59.207,33.054,53.058,42.33l-3.639,5.487-2.928-1.942,6.567-9.908,3.22-4.855Z" transform="translate(-46.491 -31.112)" fill="#fd8d65"/>
      </g>
      <g id="Grupo_1201481" data-name="Grupo 1201481" transform="translate(36.612 24.524)">
        <path id="Trazado_1069921" data-name="Trazado 1069921" d="M55.723,30.743,52.5,35.6l-6.567,9.908-2.928-1.95,9.5-14.313.292-.442Z" transform="translate(-43.007 -28.801)" fill="#fd8d65"/>
      </g>
      <g id="Grupo_1201482" data-name="Grupo 1201482" transform="translate(38.751 25.677)">
        <path id="Trazado_1069922" data-name="Trazado 1069922" d="M49.269,48.457a.785.785,0,0,1-.436-.131L45.9,46.383a.789.789,0,0,1-.222-1.094l9.788-14.763a.79.79,0,0,1,1.094-.222l2.929,1.942a.79.79,0,0,1,.222,1.094L49.928,48.1a.789.789,0,0,1-.659.353ZM47.435,45.5l1.613,1.069,8.915-13.447L56.35,32.057Z" transform="translate(-45.552 -30.173)"/>
      </g>
      <g id="Grupo_1201483" data-name="Grupo 1201483" transform="translate(35.823 23.735)">
        <path id="Trazado_1069923" data-name="Trazado 1069923" d="M45.785,46.146a.79.79,0,0,1-.438-.132l-2.928-1.95A.79.79,0,0,1,42.2,42.97l9.787-14.754a.79.79,0,0,1,1.095-.222l2.928,1.942a.79.79,0,0,1,.222,1.094L46.443,45.792a.787.787,0,0,1-.658.353Zm-1.835-2.96,1.614,1.075,8.914-13.446-1.612-1.069Z" transform="translate(-42.067 -27.862)"/>
      </g>
      <g id="Grupo_1201484" data-name="Grupo 1201484" transform="translate(35.515 38.49)">
        <path id="Trazado_1069924" data-name="Trazado 1069924" d="M42.49,53.819a.79.79,0,0,1-.789-.794l.039-6.41a.788.788,0,0,1,.129-.427l.269-.411a.79.79,0,0,1,1.1-.225l5.856,3.891a.789.789,0,0,1,.221,1.1l-.268.4a.792.792,0,0,1-.347.288l-5.9,2.526a.793.793,0,0,1-.311.064Zm.823-6.319-.027,4.329,3.977-1.7Z" transform="translate(-41.701 -45.419)"/>
      </g>
      <g id="Grupo_1201490" data-name="Grupo 1201490" transform="translate(6.934 5.703)">
        <g id="Grupo_1201485" data-name="Grupo 1201485">
          <path id="Trazado_1069925" data-name="Trazado 1069925" d="M10.455,11.932a2.763,2.763,0,1,1,2.763-2.763A2.766,2.766,0,0,1,10.455,11.932Zm0-3.947a1.184,1.184,0,1,0,1.184,1.184A1.185,1.185,0,0,0,10.455,7.985Z" transform="translate(-7.692 -6.406)"/>
        </g>
        <g id="Grupo_1201487" data-name="Grupo 1201487" transform="translate(7.68)">
          <g id="Grupo_1201486" data-name="Grupo 1201486">
            <path id="Trazado_1069926" data-name="Trazado 1069926" d="M19.594,11.932a2.763,2.763,0,1,1,2.763-2.763A2.766,2.766,0,0,1,19.594,11.932Zm0-3.947a1.184,1.184,0,1,0,1.184,1.184A1.185,1.185,0,0,0,19.594,7.985Z" transform="translate(-16.831 -6.406)"/>
          </g>
        </g>
        <g id="Grupo_1201489" data-name="Grupo 1201489" transform="translate(15.352)">
          <g id="Grupo_1201488" data-name="Grupo 1201488">
            <path id="Trazado_1069927" data-name="Trazado 1069927" d="M28.722,11.932a2.763,2.763,0,1,1,2.763-2.763,2.766,2.766,0,0,1-2.763,2.763Zm0-3.947a1.184,1.184,0,1,0,1.184,1.184A1.185,1.185,0,0,0,28.722,7.985Z" transform="translate(-25.96 -6.406)"/>
          </g>
        </g>
      </g>
      <g id="Grupo_1201495" data-name="Grupo 1201495" transform="translate(6.937 17.724)">
        <g id="Grupo_1201491" data-name="Grupo 1201491">
          <path id="Trazado_1069928" data-name="Trazado 1069928" d="M8.486,27a.79.79,0,0,1-.789-.789V21.5a.79.79,0,0,1,.789-.789H13.2a.789.789,0,1,1,0,1.579H9.275v3.924A.79.79,0,0,1,8.486,27Z" transform="translate(-7.696 -20.71)"/>
        </g>
        <g id="Grupo_1201492" data-name="Grupo 1201492" transform="translate(0 11.386)">
          <path id="Trazado_1069929" data-name="Trazado 1069929" d="M13.2,40.551H8.486a.79.79,0,0,1-.789-.789V35.048a.789.789,0,0,1,1.579,0v3.924H13.2a.789.789,0,1,1,0,1.579Z" transform="translate(-7.696 -34.258)"/>
        </g>
        <g id="Grupo_1201493" data-name="Grupo 1201493" transform="translate(11.383 0)">
          <path id="Trazado_1069930" data-name="Trazado 1069930" d="M26.743,27.008a.79.79,0,0,1-.789-.789v-3.93H22.031a.789.789,0,1,1,0-1.579h4.713a.79.79,0,0,1,.789.789v4.719a.79.79,0,0,1-.789.789Z" transform="translate(-21.241 -20.71)"/>
        </g>
        <g id="Grupo_1201494" data-name="Grupo 1201494" transform="translate(11.378 11.38)">
          <path id="Trazado_1069931" data-name="Trazado 1069931" d="M26.742,40.55H22.024a.789.789,0,1,1,0-1.579h3.928v-3.93a.789.789,0,0,1,1.579,0V39.76a.79.79,0,0,1-.789.789Z" transform="translate(-21.235 -34.252)"/>
        </g>
      </g>
      <g id="Grupo_1201498" data-name="Grupo 1201498" transform="translate(11.836 20.897)">
        <g id="Grupo_1201496" data-name="Grupo 1201496">
          <path id="Trazado_1069932" data-name="Trazado 1069932" d="M17.386,30.942H14.315a.79.79,0,0,1-.789-.789V25.275a.79.79,0,0,1,.789-.789h3.071a3.228,3.228,0,0,1,0,6.456ZM15.1,29.363h2.282a1.649,1.649,0,0,0,0-3.3H15.1Z" transform="translate(-13.525 -24.485)"/>
        </g>
        <g id="Grupo_1201497" data-name="Grupo 1201497" transform="translate(0 4.877)">
          <path id="Trazado_1069933" data-name="Trazado 1069933" d="M18.175,36.744h-3.86a.79.79,0,0,1-.789-.789V31.078a.79.79,0,0,1,.789-.789h3.86a3.228,3.228,0,0,1,0,6.456ZM15.1,35.165h3.071a1.649,1.649,0,0,0,0-3.3H15.1Z" transform="translate(-13.525 -30.289)"/>
        </g>
      </g>
      <g id="Grupo_1201499" data-name="Grupo 1201499" transform="translate(34.781 17.724)">
        <path id="Trazado_1069934" data-name="Trazado 1069934" d="M47.513,22.289h-5.9a.789.789,0,1,1,0-1.579h5.9a.789.789,0,0,1,0,1.579Z" transform="translate(-40.828 -20.71)"/>
      </g>
      <g id="Grupo_1201500" data-name="Grupo 1201500" transform="translate(28.198 17.724)">
        <path id="Trazado_1069935" data-name="Trazado 1069935" d="M36.839,22.289H33.784a.789.789,0,1,1,0-1.579h3.055a.789.789,0,1,1,0,1.579Z" transform="translate(-32.995 -20.71)"/>
      </g>
      <g id="Grupo_1201501" data-name="Grupo 1201501" transform="translate(38.12 23.091)">
        <path id="Trazado_1069936" data-name="Trazado 1069936" d="M48.147,28.675H45.59a.789.789,0,0,1,0-1.579h2.557a.789.789,0,0,1,0,1.579Z" transform="translate(-44.8 -27.096)"/>
      </g>
      <g id="Grupo_1201502" data-name="Grupo 1201502" transform="translate(28.198 23.091)">
        <path id="Trazado_1069937" data-name="Trazado 1069937" d="M39.838,28.675H33.784a.789.789,0,1,1,0-1.579h6.054a.789.789,0,1,1,0,1.579Z" transform="translate(-32.995 -27.096)"/>
      </g>
      <g id="Grupo_1201503" data-name="Grupo 1201503" transform="translate(33.721 28.457)">
        <path id="Trazado_1069938" data-name="Trazado 1069938" d="M44.755,35.061h-4.4a.789.789,0,0,1,0-1.579h4.4a.789.789,0,1,1,0,1.579Z" transform="translate(-39.567 -33.482)"/>
      </g>
      <g id="Grupo_1201504" data-name="Grupo 1201504" transform="translate(28.198 28.457)">
        <path id="Trazado_1069939" data-name="Trazado 1069939" d="M36.264,35.061h-2.48a.789.789,0,1,1,0-1.579h2.48a.789.789,0,1,1,0,1.579Z" transform="translate(-32.995 -33.482)"/>
      </g>
      <g id="Grupo_1201505" data-name="Grupo 1201505" transform="translate(28.198 33.824)">
        <path id="Trazado_1069940" data-name="Trazado 1069940" d="M40.367,41.446H33.784a.789.789,0,1,1,0-1.579h6.583a.789.789,0,0,1,0,1.579Z" transform="translate(-32.995 -39.867)"/>
      </g>
      <g id="Grupo_1201506" data-name="Grupo 1201506" transform="translate(15.972 40.021)">
        <path id="Trazado_1069941" data-name="Trazado 1069941" d="M32.291,48.82H19.236a.789.789,0,0,1,0-1.579H32.291a.789.789,0,1,1,0,1.579Z" transform="translate(-18.446 -47.241)"/>
      </g>
      <g id="Grupo_1201507" data-name="Grupo 1201507" transform="translate(6.937 40.021)">
        <path id="Trazado_1069942" data-name="Trazado 1069942" d="M12.214,48.82H8.486a.789.789,0,0,1,0-1.579h3.728a.789.789,0,0,1,0,1.579Z" transform="translate(-7.696 -47.241)"/>
      </g>
      <g id="Grupo_1201508" data-name="Grupo 1201508" transform="translate(23.699 46.068)">
        <path id="Trazado_1069943" data-name="Trazado 1069943" d="M33.758,56.016H28.431a.789.789,0,1,1,0-1.579h5.328a.789.789,0,1,1,0,1.579Z" transform="translate(-27.641 -54.437)"/>
      </g>
      <g id="Grupo_1201509" data-name="Grupo 1201509" transform="translate(6.937 46.068)">
        <path id="Trazado_1069944" data-name="Trazado 1069944" d="M19.683,56.016H8.486a.789.789,0,1,1,0-1.579h11.2a.789.789,0,1,1,0,1.579Z" transform="translate(-7.696 -54.437)"/>
      </g>
    </g>
  </g>
</svg>
