<svg xmlns="http://www.w3.org/2000/svg" xmlns:xlink="http://www.w3.org/1999/xlink" width="103" height="103" viewBox="0 0 103 103">
  <defs>
    <filter id="Trazado_978624" x="0" y="0" width="103" height="103" filterUnits="userSpaceOnUse">
      <feOffset dy="3" input="SourceAlpha"/>
      <feGaussianBlur stdDeviation="3" result="blur"/>
      <feFlood flood-opacity="0.161"/>
      <feComposite operator="in" in2="blur"/>
      <feComposite in="SourceGraphic"/>
    </filter>
  </defs>
  <g id="Grupo_1201630" data-name="Grupo 1201630" transform="translate(-152 -5519)">
    <g id="Grupo_1201297" data-name="Grupo 1201297" transform="translate(-19 -2287.104)">
      <g id="Grupo_1183567" data-name="Grupo 1183567" transform="translate(180 7812.104)">
        <g id="Grupo_1174730" data-name="Grupo 1174730">
          <g id="Grupo_1173798" data-name="Grupo 1173798">
            <g id="Grupo_1171925" data-name="Grupo 1171925">
              <g id="Grupo_1164524" data-name="Grupo 1164524">
                <g id="Grupo_1144123" data-name="Grupo 1144123">
                  <g transform="matrix(1, 0, 0, 1, -9, -6)" filter="url(#Trazado_978624)">
                    <g id="Trazado_978624-2" data-name="Trazado 978624" transform="translate(9 6)" fill="#ebe9f0">
                      <path d="M 42.5 83.5 C 36.96437835693359 83.5 31.59512901306152 82.41617584228516 26.54141235351562 80.27863311767578 C 21.65934181213379 78.21369171142578 17.27447128295898 75.25723266601562 13.50862312316895 71.49137878417969 C 9.742764472961426 67.72553253173828 6.786305904388428 63.34066009521484 4.721364498138428 58.45858764648438 C 2.583823442459106 53.40486907958984 1.5 48.03562164306641 1.5 42.5 C 1.5 36.96437835693359 2.583823442459106 31.59512901306152 4.721364498138428 26.54141235351562 C 6.786305904388428 21.65934181213379 9.742764472961426 17.27447128295898 13.50862312316895 13.50862312316895 C 17.27447128295898 9.742764472961426 21.65934181213379 6.786305904388428 26.54141235351562 4.721364498138428 C 31.59512901306152 2.583823442459106 36.96437835693359 1.5 42.5 1.5 C 48.03562164306641 1.5 53.40486907958984 2.583823442459106 58.45858764648438 4.721364498138428 C 63.34066009521484 6.786305904388428 67.72553253173828 9.742764472961426 71.49137878417969 13.50862312316895 C 75.25723266601562 17.27447128295898 78.21369171142578 21.65934181213379 80.27863311767578 26.54141235351562 C 82.41617584228516 31.59512901306152 83.5 36.96437835693359 83.5 42.5 C 83.5 48.03562164306641 82.41617584228516 53.40486907958984 80.27863311767578 58.45858764648438 C 78.21369171142578 63.34066009521484 75.25723266601562 67.72553253173828 71.49137878417969 71.49137878417969 C 67.72553253173828 75.25723266601562 63.34066009521484 78.21369171142578 58.45858764648438 80.27863311767578 C 53.40486907958984 82.41617584228516 48.03562164306641 83.5 42.5 83.5 Z" stroke="none"/>
                      <path d="M 42.5 3 C 37.16621398925781 3 31.99356079101562 4.043960571289062 27.125732421875 6.102882385253906 C 22.42246627807617 8.092185974121094 18.19785308837891 10.94070434570312 14.56928253173828 14.56928253173828 C 10.94070434570312 18.19785308837891 8.092185974121094 22.42246627807617 6.102882385253906 27.125732421875 C 4.043960571289062 31.99356079101562 3 37.16621398925781 3 42.5 C 3 47.83378601074219 4.043960571289062 53.00643920898438 6.102882385253906 57.87425231933594 C 8.092185974121094 62.57753372192383 10.94070434570312 66.80213165283203 14.56928253173828 70.43071746826172 C 18.19786834716797 74.05929565429688 22.42246627807617 76.90781402587891 27.125732421875 78.89711761474609 C 31.99356079101562 80.95603942871094 37.16621398925781 82 42.5 82 C 47.83378601074219 82 53.00642395019531 80.95603942871094 57.87425231933594 78.89711761474609 C 62.57753372192383 76.90781402587891 66.80213165283203 74.05929565429688 70.43071746826172 70.43071746826172 C 74.05929565429688 66.80213165283203 76.90781402587891 62.57753372192383 78.89711761474609 57.87425231933594 C 80.95603942871094 53.00642395019531 82 47.83378601074219 82 42.5 C 82 37.16621398925781 80.95603942871094 31.99356079101562 78.89711761474609 27.125732421875 C 76.90781402587891 22.42246627807617 74.05929565429688 18.19786834716797 70.43071746826172 14.56928253173828 C 66.80213165283203 10.94070434570312 62.57753372192383 8.092185974121094 57.87425231933594 6.102882385253906 C 53.00643920898438 4.043960571289062 47.83378601074219 3 42.5 3 M 42.5 0 C 65.97209167480469 0 85 19.02789306640625 85 42.5 C 85 65.97209167480469 65.97209167480469 85 42.5 85 C 19.02789306640625 85 0 65.97209167480469 0 42.5 C 0 19.02789306640625 19.02789306640625 0 42.5 0 Z" stroke="none" fill="#453179"/>
                    </g>
                  </g>
                </g>
              </g>
            </g>
          </g>
        </g>
      </g>
    </g>
    <g id="educacion_2_" data-name="educacion (2)" transform="translate(175.623 5535.09)">
      <g id="Grupo_1201628" data-name="Grupo 1201628" transform="translate(1.611 0.902)">
        <path id="Trazado_1070148" data-name="Trazado 1070148" d="M77.687,365.7V353.958H36.16l-5.5,5.417v5.44l5.276,3.67H77.687Z" transform="translate(-28.286 -317.318)" fill="#fdd79b"/>
        <path id="Trazado_1070149" data-name="Trazado 1070149" d="M43.1,367.413a8.756,8.756,0,0,1,1.3-13.454H36.16l-5.5,5.417v5.44l5.275,3.67H44.4A8.806,8.806,0,0,1,43.1,367.413Z" transform="translate(-28.286 -317.319)" fill="#fccd7f"/>
        <g id="Grupo_1201625" data-name="Grupo 1201625" transform="translate(0 35.088)">
          <g id="XMLID_1066_">
            <g id="Grupo_1201624" data-name="Grupo 1201624">
              <path id="Trazado_1070150" data-name="Trazado 1070150" d="M60.847,353.6v2.452a.789.789,0,0,1-.789.789H17.07a8.755,8.755,0,0,1,0-17.511H60.058a.79.79,0,0,1,.789.79v2.451a.789.789,0,0,1-.789.789h-42.9a4.793,4.793,0,0,0-4.808,4.808,4.73,4.73,0,0,0,4.724,4.642H60.058A.789.789,0,0,1,60.847,353.6Z" transform="translate(-8.315 -339.332)" fill="#fec165"/>
            </g>
          </g>
        </g>
        <path id="Trazado_1070151" data-name="Trazado 1070151" d="M17.155,343.363h4.833a8.751,8.751,0,0,1,7.077-3.966.162.162,0,0,0,.062-.014l.109-.05H17.183a8.828,8.828,0,0,0-8.867,8.653,8.756,8.756,0,0,0,8.755,8.858H28.314a8.762,8.762,0,0,1-6.4-4.03h-4.84a4.73,4.73,0,0,1-4.724-4.642A4.793,4.793,0,0,1,17.155,343.363Z" transform="translate(-8.315 -304.244)" fill="#fdb441"/>
        <path id="Trazado_1070152" data-name="Trazado 1070152" d="M155.326,430.4l-2.837-1.174-2.837,1.174a.419.419,0,0,1-.579-.387v-8.129H155.9v8.129A.419.419,0,0,1,155.326,430.4Z" transform="translate(-134.145 -378.039)" fill="#fee45a"/>
        <path id="Trazado_1070153" data-name="Trazado 1070153" d="M139.423,93.122a6.456,6.456,0,0,1,6.215-.4c4.947,2.057,8.309,9.642,4.694,17.71s-8.562,8.15-10.021,7.7c-.764-.237-1.407-.49-1.847-.676a1.534,1.534,0,0,0-1.233-.012,19.984,19.984,0,0,1-1.876.689c-1.459.453-6.406.371-10.021-7.7s-.254-15.654,4.694-17.71a6.456,6.456,0,0,1,6.215.4l1.344,1.275Z" transform="translate(-111.566 -83.253)" fill="#f47c7c"/>
        <g id="Grupo_1201626" data-name="Grupo 1201626" transform="translate(12.25 8.869)">
          <path id="Trazado_1070154" data-name="Trazado 1070154" d="M132.226,110.436c-3.431-7.657-.578-14.879,3.951-17.353a6.458,6.458,0,0,0-6.151-.357c-4.947,2.057-8.309,9.642-4.694,17.71s8.563,8.15,10.021,7.7a19.973,19.973,0,0,0,1.876-.689,1.525,1.525,0,0,1,.53-.122C135.958,116.3,133.943,114.268,132.226,110.436Z" transform="translate(-123.816 -92.122)" fill="#ee6161"/>
          <path id="Trazado_1070155" data-name="Trazado 1070155" d="M291.31,329.846c-.44.188-1.1.446-1.876.689a3.759,3.759,0,0,1-.969.146,6.715,6.715,0,0,0,3.517-.955A1.537,1.537,0,0,0,291.31,329.846Z" transform="translate(-271.002 -304.524)" fill="#e94444"/>
        </g>
        <path id="Trazado_1070156" data-name="Trazado 1070156" d="M271.324,16.052H266.86V13.535a3.166,3.166,0,0,1,3.166-3.166h3.882a.582.582,0,0,1,.582.582v1.935A3.166,3.166,0,0,1,271.324,16.052Z" transform="translate(-239.438 -10.171)" fill="#22b27f"/>
        <g id="Grupo_1201627" data-name="Grupo 1201627" transform="translate(22.851)">
          <path id="Trazado_1070157" data-name="Trazado 1070157" d="M228.775,23.079V15.532a10.62,10.62,0,0,0-1.116-4.727l-.976-1.95a.644.644,0,0,0-.864-.288l-1.694.848a.644.644,0,0,0-.288.864l.975,1.95a7.42,7.42,0,0,1,.78,3.3v7.547h3.182Z" transform="translate(-223.769 -8.5)" fill="#fdd79b"/>
        </g>
      </g>
      <g id="Grupo_1201629" data-name="Grupo 1201629" transform="translate(0.816 0)">
        <path id="Trazado_1070158" data-name="Trazado 1070158" d="M53.354,40.816a1.587,1.587,0,0,0,1.585-1.585V36.78a1.587,1.587,0,0,0-1.585-1.585H35.978A15.976,15.976,0,0,0,41.1,28.41,18.2,18.2,0,0,0,42.488,23.8a.8.8,0,1,0-1.572-.247,16.612,16.612,0,0,1-1.265,4.2c-1.462,3.263-3.35,5.567-5.46,6.663a5.148,5.148,0,0,1-3.6.6c-.746-.232-1.37-.479-1.765-.646a2.338,2.338,0,0,0-1.863-.015c-.4.17-1.036.423-1.8.661a5.148,5.148,0,0,1-3.6-.6c-2.11-1.1-4-3.4-5.46-6.663a14.527,14.527,0,0,1-.547-11.343,9.335,9.335,0,0,1,4.82-5.308,5.694,5.694,0,0,1,5.114.118v3.292c-.2-.067-.4-.139-.6-.223a.8.8,0,0,0-.61,1.469,9.448,9.448,0,0,0,3.65.748,9.944,9.944,0,0,0,3.707-.744.8.8,0,1,0-.59-1.477q-.393.157-.782.275V11.226a5.7,5.7,0,0,1,5.114-.118,8.534,8.534,0,0,1,3.836,3.379,12.394,12.394,0,0,1,1.853,5.853.8.8,0,0,0,.793.743l.053,0a.8.8,0,0,0,.741-.846c-.323-4.888-2.939-9.048-6.666-10.6a7.351,7.351,0,0,0-5.725-.168V7.934q0-.33-.02-.66h3.688a3.966,3.966,0,0,0,3.962-3.962V1.377A1.379,1.379,0,0,0,36.516,0H32.634a3.968,3.968,0,0,0-3.71,2.573L28.088.9A1.439,1.439,0,0,0,26.157.258l-1.694.848a1.441,1.441,0,0,0-.643,1.931l.975,1.95a6.621,6.621,0,0,1,.7,2.947V9.471a7.351,7.351,0,0,0-5.725.168,10.923,10.923,0,0,0-5.688,6.19,16.1,16.1,0,0,0,.573,12.58,15.976,15.976,0,0,0,5.125,6.785h-9.41a9.551,9.551,0,0,0,0,19.1h2.992a.8.8,0,1,0,0-1.591H10.366a7.96,7.96,0,0,1,0-15.919H44.616l8.732-.006.006,2.446H45.733a.8.8,0,0,0,0,1.591h4.483v7.859H26.553a.8.8,0,1,0,0,1.591l26.795-.006.006,2.446h-26.8a.8.8,0,1,0,0,1.591h26.8a1.587,1.587,0,0,0,1.585-1.585V50.259a1.587,1.587,0,0,0-1.585-1.585H51.808V40.816ZM30.264,3.961a2.373,2.373,0,0,1,2.371-2.371H36.3V3.312a2.373,2.373,0,0,1-2.371,2.371H30.264Zm-4.954-1.5,1.423-.712.908,1.814a9.82,9.82,0,0,1,1.032,4.371v6.955a7.439,7.439,0,0,1-1.591-.013V7.934a8.22,8.22,0,0,0-.864-3.659Z" transform="translate(-0.816 0)"/>
        <path id="Trazado_1070159" data-name="Trazado 1070159" d="M44.419,371.427H76.313a.8.8,0,1,0,0-1.591H44.419a5.675,5.675,0,0,0-4.02,1.691,5.432,5.432,0,0,0-1.583,3.925,5.546,5.546,0,0,0,5.519,5.424h2.992a.8.8,0,1,0,0-1.591H44.336a3.947,3.947,0,0,1-3.929-3.861,3.854,3.854,0,0,1,1.127-2.782A4.074,4.074,0,0,1,44.419,371.427Z" transform="translate(-34.785 -330.611)"/>
        <path id="Trazado_1070160" data-name="Trazado 1070160" d="M135.742,414.384h-9.977a.8.8,0,1,0,0,1.591h.966v1.935a.8.8,0,0,0,1.591,0v-1.935h5.24v6.769l-2.316-.958a.8.8,0,0,0-.608,0l-2.316.958V421.3a.8.8,0,0,0-1.591,0v2.634a.8.8,0,0,0,1.1.735l3.111-1.288,3.111,1.288a.8.8,0,0,0,1.1-.735v-7.96h.59a.8.8,0,1,0,0-1.591Z" transform="translate(-111.801 -370.434)"/>
      </g>
    </g>
  </g>
</svg>
