<svg xmlns="http://www.w3.org/2000/svg" xmlns:xlink="http://www.w3.org/1999/xlink" width="110" height="110" viewBox="0 0 110 110">
  <defs>
    <filter id="Trazado_982547" x="0" y="0" width="110" height="110" filterUnits="userSpaceOnUse">
      <feOffset dy="3" input="SourceAlpha"/>
      <feGaussianBlur stdDeviation="3" result="blur"/>
      <feFlood flood-opacity="0.161"/>
      <feComposite operator="in" in2="blur"/>
      <feComposite in="SourceGraphic"/>
    </filter>
  </defs>
  <g id="Grupo_1201560" data-name="Grupo 1201560" transform="translate(2368.609 -4854.271)">
    <g id="Grupo_1183569" data-name="Grupo 1183569" transform="translate(-2359.609 4860.271)">
      <g id="Grupo_1179602" data-name="Grupo 1179602" transform="translate(0 0)">
        <g id="Grupo_1171898" data-name="Grupo 1171898" transform="translate(0 0)">
          <g id="Grupo_1164700" data-name="Grupo 1164700" transform="translate(0 0)">
            <g id="Grupo_1160931" data-name="Grupo 1160931" transform="translate(0 0)">
              <g id="Grupo_1160749" data-name="Grupo 1160749">
                <g id="Grupo_1158891" data-name="Grupo 1158891">
                  <g id="Grupo_1157406" data-name="Grupo 1157406">
                    <g id="Grupo_1155793" data-name="Grupo 1155793">
                      <g id="Grupo_1154704" data-name="Grupo 1154704">
                        <g id="Grupo_1150790" data-name="Grupo 1150790">
                          <g id="Grupo_1154214" data-name="Grupo 1154214">
                            <g id="Grupo_1152583" data-name="Grupo 1152583">
                              <g id="Grupo_1146973" data-name="Grupo 1146973">
                                <g id="Grupo_1146954" data-name="Grupo 1146954">
                                  <g transform="matrix(1, 0, 0, 1, -9, -6)" filter="url(#Trazado_982547)">
                                    <g id="Trazado_982547-2" data-name="Trazado 982547" transform="translate(9 6)" fill="#effbfe">
                                      <path d="M 46.00000381469727 90.49986267089844 C 39.99188232421875 90.49986267089844 34.16428375244141 89.32350158691406 28.67905807495117 87.00344848632812 C 23.38021659851074 84.76223754882812 18.62104415893555 81.55341339111328 14.53376388549805 77.46613311767578 C 10.44647026062012 73.37885284423828 7.237643718719482 68.61968994140625 4.996417045593262 63.32085037231445 C 2.676363706588745 57.83565139770508 1.500003814697266 52.00805282592773 1.500003814697266 45.99993133544922 C 1.500003814697266 39.99182510375977 2.676363706588745 34.16422653198242 4.996417045593262 28.67901039123535 C 7.237643718719482 23.38017082214355 10.44647026062012 18.62101173400879 14.53376388549805 14.53373146057129 C 18.62104415893555 10.44645118713379 23.38021659851074 7.237624645233154 28.67905807495117 4.996411323547363 C 34.16428375244141 2.676357984542847 39.99188232421875 1.499997973442078 46.00000381469727 1.499997973442078 C 52.00812530517578 1.499997973442078 57.83573532104492 2.676357984542847 63.32094955444336 4.996411323547363 C 68.61980438232422 7.237624645233154 73.37896728515625 10.44645118713379 77.46625518798828 14.53373146057129 C 81.55353546142578 18.62101173400879 84.76236724853516 23.38017082214355 87.00359344482422 28.67901039123535 C 89.32364654541016 34.16422653198242 90.5 39.99182510375977 90.5 45.99993133544922 C 90.5 52.00805282592773 89.32364654541016 57.83565139770508 87.00359344482422 63.32085037231445 C 84.76236724853516 68.61968994140625 81.55353546142578 73.37885284423828 77.46625518798828 77.46613311767578 C 73.37896728515625 81.55341339111328 68.61980438232422 84.76223754882812 63.32094955444336 87.00344848632812 C 57.83573532104492 89.32350158691406 52.00812530517578 90.49986267089844 46.00000381469727 90.49986267089844 Z" stroke="none"/>
                                      <path d="M 46.00000381469727 3 C 40.19371795654297 3 34.56270217895508 4.136505126953125 29.26338958740234 6.377914428710938 C 24.14333343505859 8.54351806640625 19.54443359375 11.64438629150391 15.59442138671875 15.59439086914062 C 11.64440155029297 19.54440307617188 8.543533325195312 24.14330291748047 6.3779296875 29.26334381103516 C 4.136505126953125 34.56266021728516 3.000007629394531 40.19366073608398 3.000007629394531 45.99993133544922 C 3.000007629394531 51.80620193481445 4.136505126953125 57.43720245361328 6.3779296875 62.73651885986328 C 8.543533325195312 67.85655975341797 11.64440155029297 72.45545959472656 15.59442138671875 76.40547180175781 C 19.54443359375 80.35547637939453 24.14333343505859 83.45634460449219 29.26338958740234 85.6219482421875 C 34.56270217895508 87.86335754394531 40.19371795654297 88.99986267089844 46.00000381469727 88.99986267089844 C 51.80628967285156 88.99986267089844 57.43730545043945 87.86335754394531 62.73663330078125 85.6219482421875 C 67.85667419433594 83.45634460449219 72.45558929443359 80.35547637939453 76.40560150146484 76.40547180175781 C 80.35560607910156 72.45545959472656 83.45648956298828 67.85655975341797 85.62208557128906 62.73651885986328 C 87.86350250244141 57.43720245361328 89 51.80620193481445 89 45.99993133544922 C 89 40.19366073608398 87.86350250244141 34.56266021728516 85.62208557128906 29.26334381103516 C 83.45648956298828 24.14330291748047 80.35560607910156 19.54440307617188 76.40560150146484 15.59439086914062 C 72.45558929443359 11.64438629150391 67.85667419433594 8.54351806640625 62.73663330078125 6.377914428710938 C 57.43730545043945 4.136505126953125 51.80628967285156 3 46.00000381469727 3 M 46.00000381469727 0 C 71.40510559082031 0 92 20.59487152099609 92 45.99993133544922 C 92 71.40499114990234 71.40510559082031 91.99986267089844 46.00000381469727 91.99986267089844 C 20.59491729736328 91.99986267089844 7.62939453125e-06 71.40499114990234 7.62939453125e-06 45.99993133544922 C 7.62939453125e-06 20.59487152099609 20.59491729736328 0 46.00000381469727 0 Z" stroke="none" fill="#397b86"/>
                                    </g>
                                  </g>
                                </g>
                              </g>
                            </g>
                          </g>
                        </g>
                      </g>
                    </g>
                  </g>
                </g>
              </g>
            </g>
          </g>
        </g>
      </g>
    </g>
    <g id="simulador-de-realidad-virtual" transform="translate(-2341.789 4863.877)">
      <g id="Grupo_1201543" data-name="Grupo 1201543" transform="translate(3.8 27.684)">
        <path id="Trazado_1069995" data-name="Trazado 1069995" d="M81.149,158.164v29.625H32.4V158.164a1.871,1.871,0,0,1,1.864-1.864H42.9l.589,2.551H34.951v26.386H78.6V158.851H70.311l-.589-2.551H79.3A1.861,1.861,0,0,1,81.149,158.164Z" transform="translate(-32.4 -156.3)" fill="#6f76de"/>
      </g>
      <g id="Grupo_1201544" data-name="Grupo 1201544" transform="translate(6.351 30.236)">
        <path id="Trazado_1069996" data-name="Trazado 1069996" d="M55.8,179.7h4.656v26.386H55.8Z" transform="translate(-55.8 -179.7)" fill="#f3f4ff"/>
      </g>
      <g id="Grupo_1201545" data-name="Grupo 1201545" transform="translate(11.007 30.236)">
        <path id="Trazado_1069997" data-name="Trazado 1069997" d="M102.774,181.4c-2.726,3.762-4.274,7.24-4.274,9.748V179.7h3.882Z" transform="translate(-98.5 -179.7)" fill="#fafbff"/>
      </g>
      <g id="Grupo_1201546" data-name="Grupo 1201546" transform="translate(10.996 30.236)">
        <path id="Trazado_1069998" data-name="Trazado 1069998" d="M137.4,179.7v26.386h-39V191.149c.371,6.738,9.4,2.966,13.531.578,1.69.512,5.321,1.625,7.033,2.148l.622-.589c9.977,6.477,15,2.246,9.431-8.788l.97-.916-.883-3.871h8.3Z" transform="translate(-98.4 -179.7)" fill="#fafbff"/>
      </g>
      <g id="Grupo_1201547" data-name="Grupo 1201547" transform="translate(28.18 19.409)">
        <path id="Trazado_1069999" data-name="Trazado 1069999" d="M270.425,95.109c-.949.9-10,9.312-11.034,10.282l-.273-1.178L256,90.693c2.748-2.562,8.308-7.741,11.034-10.293C267.874,84.053,269.6,91.5,270.425,95.109Z" transform="translate(-256 -80.4)" fill="#f6c544"/>
      </g>
      <g id="Grupo_1201548" data-name="Grupo 1201548" transform="translate(13.744 15.015)">
        <path id="Trazado_1070000" data-name="Trazado 1070000" d="M149.06,44.5c-2.726,2.541-8.287,7.741-11.034,10.293-3.653-1.112-10.86-3.326-14.425-4.416.949-.883,10-9.322,11.034-10.282C138.222,41.19,145.472,43.4,149.06,44.5Z" transform="translate(-123.6 -40.1)" fill="#ffd77d"/>
      </g>
      <g id="Grupo_1201549" data-name="Grupo 1201549" transform="translate(13.755 25.296)">
        <path id="Trazado_1070001" data-name="Trazado 1070001" d="M141.516,153.514c-3.587-1.09-10.827-3.315-14.425-4.416-.85-3.642-2.562-11.089-3.391-14.7,3.533,1.079,10.805,3.315,14.425,4.416l3.118,13.52Z" transform="translate(-123.7 -134.4)" fill="#f2a53d"/>
      </g>
      <g id="Grupo_1201550" data-name="Grupo 1201550" transform="translate(0.9 60.002)">
        <path id="Trazado_1070002" data-name="Trazado 1070002" d="M60.35,452.7v2.159a2.41,2.41,0,0,1-2.41,2.41H8.221a2.42,2.42,0,0,1-2.421-2.41V452.7a2.413,2.413,0,0,0,2.421,2.41H57.94A2.417,2.417,0,0,0,60.35,452.7Z" transform="translate(-5.8 -452.7)" fill="#6f76de"/>
      </g>
      <g id="Grupo_1201551" data-name="Grupo 1201551" transform="translate(0.9 59.174)">
        <path id="Trazado_1070003" data-name="Trazado 1070003" d="M60.35,445.1v.818a2.41,2.41,0,0,1-2.41,2.41H8.221a2.42,2.42,0,0,1-2.421-2.41V445.1Z" transform="translate(-5.8 -445.1)" fill="#96bbf9"/>
      </g>
      <g id="Grupo_1201552" data-name="Grupo 1201552" transform="translate(17.179 59.174)">
        <path id="Trazado_1070004" data-name="Trazado 1070004" d="M155.1,445.1h21.992v2.693H155.1Z" transform="translate(-155.1 -445.1)" fill="#f3f4ff"/>
      </g>
      <g id="Grupo_1201553" data-name="Grupo 1201553" transform="translate(10.996 49.764)">
        <path id="Trazado_1070005" data-name="Trazado 1070005" d="M98.4,358.8h8.341v2.54H98.4Z" transform="translate(-98.4 -358.8)" fill="#f2a53d"/>
      </g>
      <g id="Grupo_1201554" data-name="Grupo 1201554" transform="translate(24.004 49.764)">
        <path id="Trazado_1070006" data-name="Trazado 1070006" d="M217.7,358.8h8.341v2.54H217.7Z" transform="translate(-217.7 -358.8)" fill="#f2a53d"/>
      </g>
      <g id="Grupo_1201555" data-name="Grupo 1201555" transform="translate(37.012 49.764)">
        <path id="Trazado_1070007" data-name="Trazado 1070007" d="M337,358.8h8.341v2.54H337Z" transform="translate(-337 -358.8)" fill="#f2a53d"/>
      </g>
      <g id="Grupo_1201556" data-name="Grupo 1201556" transform="translate(0.3 11.945)">
        <path id="Trazado_1070008" data-name="Trazado 1070008" d="M55.45,58.563H53.16V29.549a2.471,2.471,0,0,0-2.475-2.464H42.093c8.341-11.972,2.279-17.751-10.358-10.576l-6.782-2.072c-.349-.131-.654.174-.883.4C13.8,8.331,8.576,13.368,13.984,24.25a9.415,9.415,0,0,0-.741.731.612.612,0,0,0-.076.458l.382,1.646H5.664A2.469,2.469,0,0,0,3.2,29.549V58.563H.911a.61.61,0,0,0-.611.611V62.15a3.02,3.02,0,0,0,3.02,3.02H53.04a3.02,3.02,0,0,0,3.02-3.02V59.174a.6.6,0,0,0-.611-.611Zm-31.227-42.2a43.146,43.146,0,0,1,3.555,2.639,58.042,58.042,0,0,0-8.548,7.327l-4.274-1.308Zm13.8,3.326L34.1,23.356c-1.374-1.483-2.813-2.9-4.318-4.231.7-.458,1.407-.894,2.1-1.308Zm-25.7,24.173c-1.843-1.788.327-7.142,2.682-10.456l1.548,6.717a.614.614,0,0,0,.414.447l6,1.832C19.49,44.323,13.907,45.915,12.326,43.865Zm16.41-24.042A54.392,54.392,0,0,1,33.2,24.2l-5.059,4.721-.109.109-.229-.076-7.251-2.213a55.892,55.892,0,0,1,8.188-6.913Zm9.551,10.762A45.6,45.6,0,0,1,40.872,34.9l-8.941,8.341L28.856,29.92,34.024,25.1A57.847,57.847,0,0,1,38.288,30.585Zm-20.3-1.079c.523-.611,1.058-1.2,1.6-1.777l8.079,2.464L30.71,43.374l.033.142c-3.217-.981-9.835-3.009-13.073-4l-1.723-7.436c.643-.883,1.33-1.745,2.039-2.573ZM33.207,43.723l8.232-7.676C46.138,46.046,41.679,48.924,33.207,43.723Zm8.341-11.492.382,1.679-.131.12a52.366,52.366,0,0,0-6.88-9.769l3.936-3.674ZM28.823,18.286c-1.025-.85-2.039-1.636-3.031-2.333l4.525,1.385C29.816,17.642,29.325,17.958,28.823,18.286ZM15.51,26.474l2.769.85c-.938,1.025-1.832,2.083-2.693,3.195l-1-4.329Zm-.883,5.321C7.126,41.9,9.688,50.222,22.685,43.941c.327-.164.654-.349.981-.523.164-.076.818-.545.949-.5L31.4,44.988c.338.142.665-.185.883-.4C42.7,51.127,47.752,45.9,42.387,35.164c.262-.294.97-.709.818-1.188-.185-.774-.545-2.355-.72-3.129h6.9V56H6.973V30.857h7.436ZM44.045,15.538c1.537,1.723.48,5.757-2.682,10.456l-1.548-6.717c-.011-.033-.022-.055-.033-.087a.6.6,0,0,0-.382-.36L33.4,17C38.408,14.415,42.507,13.826,44.045,15.538Zm-30.028-1.69c1.57-1.4,4.961-.709,9.148,1.843l-8.243,7.687c-2.148-4.569-2.5-8.1-.9-9.53Zm-9.606,15.7a1.242,1.242,0,0,1,1.243-1.243h8.156l.305,1.33H6.362a.61.61,0,0,0-.611.611V56.633a.61.61,0,0,0,.611.611H50.009a.61.61,0,0,0,.611-.611V30.247a.61.61,0,0,0-.611-.611h-7.8l-.305-1.33h8.8a1.242,1.242,0,0,1,1.243,1.243V58.563H4.411ZM17.8,59.784H38.56v1.472H17.8ZM54.839,62.15a1.8,1.8,0,0,1-1.8,1.8H3.32a1.8,1.8,0,0,1-1.8-1.8V59.784H16.579v2.083a.61.61,0,0,0,.611.611H39.182a.61.61,0,0,0,.611-.611V59.784H54.85V62.15Z" transform="translate(-0.3 -11.945)" fill="#231f20"/>
      </g>
      <g id="Grupo_1201557" data-name="Grupo 1201557" transform="translate(10.397 49.142)">
        <path id="Trazado_1070009" data-name="Trazado 1070009" d="M93.511,356.862h8.341a.61.61,0,0,0,.611-.611v-2.541a.61.61,0,0,0-.611-.611H93.511a.61.61,0,0,0-.611.611v2.541A.61.61,0,0,0,93.511,356.862Zm.611-2.53h7.109v1.308H94.121Z" transform="translate(-92.9 -353.1)" fill="#231f20"/>
      </g>
      <g id="Grupo_1201558" data-name="Grupo 1201558" transform="translate(23.404 49.142)">
        <path id="Trazado_1070010" data-name="Trazado 1070010" d="M212.811,356.862h8.341a.61.61,0,0,0,.611-.611v-2.541a.61.61,0,0,0-.611-.611h-8.341a.61.61,0,0,0-.611.611v2.541A.61.61,0,0,0,212.811,356.862Zm.611-2.53h7.109v1.308h-7.109Z" transform="translate(-212.2 -353.1)" fill="#231f20"/>
      </g>
      <g id="Grupo_1201559" data-name="Grupo 1201559" transform="translate(36.401 49.142)">
        <path id="Trazado_1070011" data-name="Trazado 1070011" d="M332.011,356.862h8.341a.61.61,0,0,0,.611-.611v-2.541a.61.61,0,0,0-.611-.611h-8.341a.61.61,0,0,0-.611.611v2.541A.61.61,0,0,0,332.011,356.862Zm.621-2.53h7.109v1.308h-7.109Z" transform="translate(-331.4 -353.1)" fill="#231f20"/>
      </g>
    </g>
  </g>
</svg>
