<svg xmlns="http://www.w3.org/2000/svg" xmlns:xlink="http://www.w3.org/1999/xlink" width="103" height="103" viewBox="0 0 103 103">
  <defs>
    <filter id="Trazado_978624" x="0" y="0" width="103" height="103" filterUnits="userSpaceOnUse">
      <feOffset dy="3" input="SourceAlpha"/>
      <feGaussianBlur stdDeviation="3" result="blur"/>
      <feFlood flood-opacity="0.161"/>
      <feComposite operator="in" in2="blur"/>
      <feComposite in="SourceGraphic"/>
    </filter>
  </defs>
  <g id="Grupo_1201348" data-name="Grupo 1201348" transform="translate(-191 -450)">
    <g id="Grupo_1176915" data-name="Grupo 1176915" transform="translate(20 -2416)">
      <g id="Grupo_1176881" data-name="Grupo 1176881">
        <g id="Grupo_1175148" data-name="Grupo 1175148" transform="translate(0 1580)">
          <g id="Grupo_1173798" data-name="Grupo 1173798" transform="translate(-3 -3520)">
            <g id="Grupo_1171925" data-name="Grupo 1171925" transform="translate(-22 -2246)">
              <g id="Grupo_1164524" data-name="Grupo 1164524" transform="translate(205 7058)">
                <g id="Grupo_1144123" data-name="Grupo 1144123">
                  <g transform="matrix(1, 0, 0, 1, -9, -6)" filter="url(#Trazado_978624)">
                    <g id="Trazado_978624-2" data-name="Trazado 978624" transform="translate(9 6)" fill="#effbfe">
                      <path d="M 42.5 83.5 C 36.96437835693359 83.5 31.59512901306152 82.41617584228516 26.54141235351562 80.27863311767578 C 21.65934181213379 78.21369171142578 17.27447128295898 75.25723266601562 13.50862312316895 71.49137878417969 C 9.742764472961426 67.72553253173828 6.786305904388428 63.34066009521484 4.721364498138428 58.45858764648438 C 2.583823442459106 53.40486907958984 1.5 48.03562164306641 1.5 42.5 C 1.5 36.96437835693359 2.583823442459106 31.59512901306152 4.721364498138428 26.54141235351562 C 6.786305904388428 21.65934181213379 9.742764472961426 17.27447128295898 13.50862312316895 13.50862312316895 C 17.27447128295898 9.742764472961426 21.65934181213379 6.786305904388428 26.54141235351562 4.721364498138428 C 31.59512901306152 2.583823442459106 36.96437835693359 1.5 42.5 1.5 C 48.03562164306641 1.5 53.40486907958984 2.583823442459106 58.45858764648438 4.721364498138428 C 63.34066009521484 6.786305904388428 67.72553253173828 9.742764472961426 71.49137878417969 13.50862312316895 C 75.25723266601562 17.27447128295898 78.21369171142578 21.65934181213379 80.27863311767578 26.54141235351562 C 82.41617584228516 31.59512901306152 83.5 36.96437835693359 83.5 42.5 C 83.5 48.03562164306641 82.41617584228516 53.40486907958984 80.27863311767578 58.45858764648438 C 78.21369171142578 63.34066009521484 75.25723266601562 67.72553253173828 71.49137878417969 71.49137878417969 C 67.72553253173828 75.25723266601562 63.34066009521484 78.21369171142578 58.45858764648438 80.27863311767578 C 53.40486907958984 82.41617584228516 48.03562164306641 83.5 42.5 83.5 Z" stroke="none"/>
                      <path d="M 42.5 3 C 37.16621398925781 3 31.99356079101562 4.043960571289062 27.125732421875 6.102882385253906 C 22.42246627807617 8.092185974121094 18.19785308837891 10.94070434570312 14.56928253173828 14.56928253173828 C 10.94070434570312 18.19785308837891 8.092185974121094 22.42246627807617 6.102882385253906 27.125732421875 C 4.043960571289062 31.99356079101562 3 37.16621398925781 3 42.5 C 3 47.83378601074219 4.043960571289062 53.00643920898438 6.102882385253906 57.87425231933594 C 8.092185974121094 62.57753372192383 10.94070434570312 66.80213165283203 14.56928253173828 70.43071746826172 C 18.19786834716797 74.05929565429688 22.42246627807617 76.90781402587891 27.125732421875 78.89711761474609 C 31.99356079101562 80.95603942871094 37.16621398925781 82 42.5 82 C 47.83378601074219 82 53.00642395019531 80.95603942871094 57.87425231933594 78.89711761474609 C 62.57753372192383 76.90781402587891 66.80213165283203 74.05929565429688 70.43071746826172 70.43071746826172 C 74.05929565429688 66.80213165283203 76.90781402587891 62.57753372192383 78.89711761474609 57.87425231933594 C 80.95603942871094 53.00642395019531 82 47.83378601074219 82 42.5 C 82 37.16621398925781 80.95603942871094 31.99356079101562 78.89711761474609 27.125732421875 C 76.90781402587891 22.42246627807617 74.05929565429688 18.19786834716797 70.43071746826172 14.56928253173828 C 66.80213165283203 10.94070434570312 62.57753372192383 8.092185974121094 57.87425231933594 6.102882385253906 C 53.00643920898438 4.043960571289062 47.83378601074219 3 42.5 3 M 42.5 0 C 65.97209167480469 0 85 19.02789306640625 85 42.5 C 85 65.97209167480469 65.97209167480469 85 42.5 85 C 19.02789306640625 85 0 65.97209167480469 0 42.5 C 0 19.02789306640625 19.02789306640625 0 42.5 0 Z" stroke="none" fill="#497f88"/>
                    </g>
                  </g>
                </g>
              </g>
            </g>
          </g>
        </g>
      </g>
    </g>
    <g id="educacion_1_" data-name="educacion (1)" transform="translate(217.238 468.748)">
      <g id="Grupo_1201347" data-name="Grupo 1201347" transform="translate(0.865 5.603)">
        <path id="Trazado_1045397" data-name="Trazado 1045397" d="M93.133,233.349a9.942,9.942,0,0,0-.059,7.363l.811,1.589h-35s-6.517-3.662,0-10.179l34.7-.715Z" transform="translate(-51.325 -209.683)" fill="#f1f2f2"/>
        <path id="Trazado_1045398" data-name="Trazado 1045398" d="M93.887,242.3h-35s-6.517-3.662,0-10.179l34.7-.715-.45,1.943a9.53,9.53,0,0,0-.494,1.579H60.878a2.231,2.231,0,1,0,0,4.461H92.653a8.568,8.568,0,0,0,.423,1.322Z" transform="translate(-51.327 -209.683)" fill="#dee1e1"/>
        <path id="Trazado_1045399" data-name="Trazado 1045399" d="M77.006,232.931l-32-.05c-3.833,0-7.125-2.445-7.125-6.279a8.733,8.733,0,0,1,.13-2.707,6.943,6.943,0,0,1,6.512-4.533H77.352a1.566,1.566,0,0,1,0,3.131H52.509l-2.426.569-2.11-.569H44.527a3.81,3.81,0,1,0,0,7.619H77.352a1.567,1.567,0,0,1,1.555,1.75C78.815,232.64,77.809,232.931,77.006,232.931Z" transform="translate(-34.976 -198.828)" fill="#b7e546"/>
        <path id="Trazado_1045400" data-name="Trazado 1045400" d="M76.529,269.6a1.565,1.565,0,0,1-1.554,1.382l-16.217.972-16.608-.972a6.944,6.944,0,0,1-6.349-9.75v1.427a6.941,6.941,0,0,0,6.941,6.941Z" transform="translate(-32.599 -236.569)" fill="#abd641"/>
        <path id="Trazado_1045401" data-name="Trazado 1045401" d="M146.173,255.656v-4.564H142.92l-1.155.116.069,4.251a.2.2,0,0,0,.269.184l.816-.2.913-.358a.2.2,0,0,1,.144,0l1.927.755A.2.2,0,0,0,146.173,255.656Z" transform="translate(-128.641 -227.427)" fill="#ef5227"/>
        <path id="Trazado_1045402" data-name="Trazado 1045402" d="M141.753,251.1v4.351l-1.013.4a.2.2,0,0,1-.269-.184V251.1Z" transform="translate(-127.474 -227.43)" fill="#d83724"/>
        <path id="Trazado_1045403" data-name="Trazado 1045403" d="M131.313,173.082v2.225l-.1.987a.691.691,0,0,1-.691.691l-26.3-.1a.69.69,0,0,1-.691-.691l-.2-3.113,13.5-.645Z" transform="translate(-94.004 -156.534)" fill="#fdcd08"/>
        <path id="Trazado_1045404" data-name="Trazado 1045404" d="M437.644,197.8c-.618,1.523-1.239,3.025-1.857,4.548a1.382,1.382,0,0,0,1.269,1.908l1.142.1h2.779a1.382,1.382,0,0,0,1.269-1.908l-1.288-3.176-.81-1.471h-2.5Z" transform="translate(-393.555 -179.392)" fill="#fdcd08"/>
        <path id="Trazado_1045405" data-name="Trazado 1045405" d="M437.741,197.453a3.751,3.751,0,0,0,2.318-.561l-.693-1.731-1.145.342h0l-1.492-.2c-.188.465-.462,1.125-.651,1.59h0l-1.288,3.174a1.382,1.382,0,0,0,1.268,1.908h1.579a1.382,1.382,0,0,1-1.268-1.908l.962-2.371A.4.4,0,0,1,437.741,197.453Z" transform="translate(-392.657 -177.015)" fill="#faab18"/>
        <path id="Trazado_1045406" data-name="Trazado 1045406" d="M451.867,160.136a2.3,2.3,0,0,0-1.538-2.175c-.232-.08-.569.063-.828.063a1.938,1.938,0,0,0-2.032,2.113,2.007,2.007,0,0,0,2.2,2.032c.259,0,.429.224.661.143A2.3,2.3,0,0,0,451.867,160.136Z" transform="translate(-404.177 -143.464)" fill="#fdcd08"/>
        <path id="Trazado_1045407" data-name="Trazado 1045407" d="M448.894,161.4a2.245,2.245,0,0,1-.74.124,2.3,2.3,0,0,1,0-4.6,2.245,2.245,0,0,1,.74.124,2.308,2.308,0,0,0,0,4.351Z" transform="translate(-402.742 -142.552)" fill="#faab18"/>
        <path id="Trazado_1045408" data-name="Trazado 1045408" d="M58.83,20.355l-6.509,2.253-1.776-.182L37.911,27.6a4.141,4.141,0,0,1-2.709,0L22.568,22.628l-1.776-.019-6.509-2.253a.828.828,0,0,1,0-1.565l21.166-7.327a3.386,3.386,0,0,1,2.216,0L58.83,18.79A.828.828,0,0,1,58.83,20.355Z" transform="translate(-13.236 -11.277)" fill="#868491"/>
        <path id="Trazado_1045409" data-name="Trazado 1045409" d="M116.866,82.364v.668l-14.41,4.988a4.14,4.14,0,0,1-2.71,0L85.336,83.032v-.668a2.9,2.9,0,0,1,2.392-2.86,75.79,75.79,0,0,1,26.745,0,2.905,2.905,0,0,1,2.392,2.86Z" transform="translate(-77.78 -71.7)" fill="#77777f"/>
        <path id="Trazado_1045410" data-name="Trazado 1045410" d="M133.116,98.588v5.884H105.435l-.1-5.687a1.129,1.129,0,0,1,.93-1.111c.282-.051.367-.3.649-.344a73.992,73.992,0,0,1,25.271.147,1.13,1.13,0,0,1,.93,1.111Z" transform="translate(-95.807 -87.923)" fill="#868491"/>
        <path id="Trazado_1045411" data-name="Trazado 1045411" d="M131.313,175.307v1.085a.691.691,0,0,1-.691.691h-26.6a.691.691,0,0,1-.691-.691v-3.311l.888-.645.888.645v1.732a.493.493,0,0,0,.493.493Z" transform="translate(-94.004 -156.534)" fill="#faab18"/>
        <path id="Trazado_1045412" data-name="Trazado 1045412" d="M105.112,106.6v7.142h-1.776v-5.884a1.129,1.129,0,0,1,.93-1.111C104.548,106.7,104.83,106.651,105.112,106.6Z" transform="translate(-94.004 -97.198)" fill="#77777f"/>
        <path id="Trazado_1045413" data-name="Trazado 1045413" d="M75.38,389.051a9.285,9.285,0,0,1,0-7.106l.3-1.334H35.328s-4.542,4.938.3,9.776l40.319.3Z" transform="translate(-30.964 -344.165)" fill="#f1f2f2"/>
        <path id="Trazado_1045414" data-name="Trazado 1045414" d="M75.942,390.692l-40.319-.3c-4.838-4.837-.3-9.775-.3-9.775l40.545.075-.494,1.258a9.247,9.247,0,0,0-.441,1.346H37.9a2.231,2.231,0,1,0,0,4.461H74.951a9.362,9.362,0,0,0,.429,1.3Z" transform="translate(-30.964 -344.168)" fill="#dee1e1"/>
        <path id="Trazado_1045415" data-name="Trazado 1045415" d="M57.912,373.569,21.43,373.5c-3.833,0-7.206-2.163-7.206-6,0-1.217-.3-2.892.252-3.886a6.939,6.939,0,0,1,6.078-3.586H58.6a1.566,1.566,0,1,1,0,3.131H49.172l-2.463.545-2.073-.545H20.554a3.81,3.81,0,1,0,0,7.619H58.6a1.567,1.567,0,0,1,1.54,1.848c-.133.73-1.458.937-2.226.937Z" transform="translate(-13.613 -325.617)" fill="#ef5227"/>
        <path id="Trazado_1045416" data-name="Trazado 1045416" d="M55.293,401.971a1.567,1.567,0,0,1-1.54,1.283H15.709a6.942,6.942,0,0,1-5.856-10.669v2.445a6.941,6.941,0,0,0,6.941,6.941Z" transform="translate(-8.768 -354.957)" fill="#d83724"/>
        <path id="Trazado_1045417" data-name="Trazado 1045417" d="M328.815,396.35v-4.6h-3.056l-1.355.082.073,4.321a.2.2,0,0,0,.269.184l1.013-.277.716-.28a.2.2,0,0,1,.144,0l1.927.755A.2.2,0,0,0,328.815,396.35Z" transform="translate(-293.257 -354.204)" fill="#fdcd08"/>
        <path id="Trazado_1045418" data-name="Trazado 1045418" d="M324.62,391.745v4.311l-1.211.474a.2.2,0,0,1-.269-.184v-4.6Z" transform="translate(-292.118 -354.2)" fill="#faab18"/>
      </g>
      <path id="Trazado_1045419" data-name="Trazado 1045419" d="M50.368,28.056l-1.643-4.049A3.007,3.007,0,0,0,47.2,19.155c0-.195,0-5.072,0-5.279a1.536,1.536,0,0,0-1.046-1.469L25.346,5.2a4.086,4.086,0,0,0-2.662,0L17.5,7a.74.74,0,1,0,.484,1.4L23.168,6.6a2.6,2.6,0,0,1,1.694,0l20.808,7.2a.074.074,0,0,1,0,.14l-7.163,2.48V16.2a1.848,1.848,0,0,0-1.523-1.821,73.223,73.223,0,0,0-25.936,0A1.848,1.848,0,0,0,9.524,16.2v.222l-7.163-2.48a.074.074,0,0,1,0-.14l12.3-4.259a.74.74,0,1,0-.484-1.4l-12.3,4.259a1.554,1.554,0,0,0,0,2.938l7.647,2.647v7.325a7.678,7.678,0,0,0-3.5,14.025A7.68,7.68,0,0,0,7.681,54.522H45.725a2.305,2.305,0,0,0,.047-4.61,8.479,8.479,0,0,1-.018-6.141,2.305,2.305,0,0,0-.029-4.611h-.457a2.3,2.3,0,0,0-2.152-3.131H43.1a8.474,8.474,0,0,1-.14-5.75,2.079,2.079,0,0,0,1.528.67h3.952a2.082,2.082,0,0,0,1.728-.922,2.106,2.106,0,0,0,.2-1.972Zm-2.409-5.994a1.5,1.5,0,1,1-1.5-1.52A1.512,1.512,0,0,1,47.959,22.062ZM45.72,15.5v3.659a3.007,3.007,0,0,0-1.526,4.852l-.516,1.272H38.507V17.993Zm-34.411.345a71.761,71.761,0,0,1,25.414,0,.369.369,0,0,1,.3.364v5.044h-4.56a.74.74,0,0,0,0,1.48h4.56v2.55H11v-2.55H29.012a.74.74,0,0,0,0-1.48H11V16.2a.369.369,0,0,1,.3-.364ZM46.55,41.466a.826.826,0,0,1-.825.825H7.681a4.55,4.55,0,1,0,0,9.1H36.907a.74.74,0,0,0,0-1.48H7.681a3.069,3.069,0,1,1,0-6.139H31.022V47.92a.74.74,0,0,0,1.01.689l2-.782,2,.782a.74.74,0,0,0,1.01-.689V43.772h7.144a9.933,9.933,0,0,0,.015,6.139H40.36a.74.74,0,1,0,0,1.48h5.364a.825.825,0,0,1,0,1.651H7.681a6.2,6.2,0,0,1,0-12.4H45.725a.826.826,0,0,1,.826.825ZM32.5,43.772h3.056v3.064L34.3,46.343a.74.74,0,0,0-.54,0l-1.258.493ZM19.835,37.509h23.28a.825.825,0,0,1,0,1.651H10.29a6.2,6.2,0,0,1,0-12.4H43.077c-.183.491-.521,1.187-.634,1.651H10.29a4.55,4.55,0,1,0,0,9.1h6.091a.74.74,0,0,0,0-1.48H10.29a3.069,3.069,0,1,1,0-6.139H13V34a.74.74,0,0,0,1.01.689l2-.782,2,.782A.74.74,0,0,0,19.012,34V29.89H41.523a9.934,9.934,0,0,0,0,6.139H19.835a.74.74,0,0,0,0,1.48ZM14.476,29.89h3.056v3.029l-1.258-.493a.74.74,0,0,0-.54,0l-1.258.493Zm34.46-.689a.6.6,0,0,1-.5.269H44.484a.6.6,0,0,1-.5-.269.621.621,0,0,1-.061-.588l1.514-3.732a2.963,2.963,0,0,0,2.046,0L49,28.612a.62.62,0,0,1-.061.588Z" transform="translate(0 0)"/>
    </g>
  </g>
</svg>
