<svg xmlns="http://www.w3.org/2000/svg" xmlns:xlink="http://www.w3.org/1999/xlink" width="108" height="108" viewBox="0 0 108 108">
  <defs>
    <filter id="Trazado_904820" x="0" y="0" width="108" height="108" filterUnits="userSpaceOnUse">
      <feOffset dy="3" input="SourceAlpha"/>
      <feGaussianBlur stdDeviation="3" result="blur"/>
      <feFlood flood-opacity="0.161"/>
      <feComposite operator="in" in2="blur"/>
      <feComposite in="SourceGraphic"/>
    </filter>
  </defs>
  <g id="Grupo_1201745" data-name="Grupo 1201745" transform="translate(-200.522 -291)">
    <g id="Grupo_1201321" data-name="Grupo 1201321" transform="translate(209.522 297)">
      <g id="Grupo_1173585" data-name="Grupo 1173585" transform="translate(0 0)">
        <g id="Grupo_1173428" data-name="Grupo 1173428">
          <g id="Grupo_1171958" data-name="Grupo 1171958">
            <g id="Grupo_1167341" data-name="Grupo 1167341">
              <g id="Grupo_1166792" data-name="Grupo 1166792">
                <g transform="matrix(1, 0, 0, 1, -9, -6)" filter="url(#Trazado_904820)">
                  <g id="Trazado_904820-2" data-name="Trazado 904820" transform="translate(9 6)" fill="#edf3fc">
                    <path d="M 44.99999618530273 88.49999237060547 C 39.12687301635742 88.49999237060547 33.43022155761719 87.35006713867188 28.06829643249512 85.08216857910156 C 22.88852119445801 82.89130401611328 18.23629570007324 79.75457763671875 14.24084663391113 75.75914001464844 C 10.24540901184082 71.76369476318359 7.108683586120605 67.11146545410156 4.917821407318115 61.93169403076172 C 2.649921178817749 56.56976699829102 1.499996185302734 50.87311553955078 1.499996185302734 44.99999237060547 C 1.499996185302734 39.12686920166016 2.649921178817749 33.43021774291992 4.917821407318115 28.06829261779785 C 7.108683586120605 22.88851737976074 10.24540901184082 18.23630523681641 14.24084663391113 14.24085521697998 C 18.23629570007324 10.24540519714355 22.88852119445801 7.108692169189453 28.06829643249512 4.917829990386963 C 33.43022155761719 2.649929761886597 39.12687301635742 1.500004887580872 44.99999618530273 1.500004887580872 C 50.87311935424805 1.500004887580872 56.56977081298828 2.649929761886597 61.93169784545898 4.917829990386963 C 67.11147308349609 7.108692169189453 71.76369476318359 10.24540519714355 75.75914764404297 14.24085521697998 C 79.75458526611328 18.23630523681641 82.89131164550781 22.88851737976074 85.08216857910156 28.06829261779785 C 87.35007476806641 33.43021774291992 88.5 39.12686920166016 88.5 44.99999237060547 C 88.5 50.87311553955078 87.35007476806641 56.56976699829102 85.08216857910156 61.93169403076172 C 82.89131164550781 67.11146545410156 79.75458526611328 71.76369476318359 75.75914764404297 75.75914001464844 C 71.76369476318359 79.75457763671875 67.11147308349609 82.89130401611328 61.93169784545898 85.08216857910156 C 56.56977081298828 87.35006713867188 50.87311935424805 88.49999237060547 44.99999618530273 88.49999237060547 Z" stroke="none"/>
                    <path d="M 44.99999618530273 2.999992370605469 C 39.32870864868164 2.999992370605469 33.82865142822266 4.11004638671875 28.65262603759766 6.299331665039062 C 23.65165710449219 8.414566040039062 19.15968322753906 11.44333648681641 15.301513671875 15.30150604248047 C 11.44333648681641 19.15967559814453 8.414566040039062 23.65164947509766 6.299339294433594 28.65262222290039 C 4.110054016113281 33.82864761352539 2.999992370605469 39.32870483398438 2.999992370605469 44.99999237060547 C 2.999992370605469 50.67127990722656 4.110054016113281 56.17132186889648 6.299339294433594 61.34736633300781 C 8.414566040039062 66.34833526611328 11.44333648681641 70.84029388427734 15.301513671875 74.69846343994141 C 19.15968322753906 78.55663299560547 23.65165710449219 81.58540344238281 28.65262603759766 83.70063781738281 C 33.82865142822266 85.88992309570312 39.32870864868164 86.99997711181641 44.99999618530273 86.99997711181641 C 50.67128372192383 86.99997711181641 56.17134094238281 85.88992309570312 61.34736633300781 83.70063781738281 C 66.34834289550781 81.58540344238281 70.84030914306641 78.55663299560547 74.69847869873047 74.69846343994141 C 78.55665588378906 70.84029388427734 81.58542633056641 66.34833526611328 83.70065307617188 61.34736633300781 C 85.88993835449219 56.17132186889648 87 50.67127990722656 87 44.99999237060547 C 87 39.32870483398438 85.88993835449219 33.82864761352539 83.70065307617188 28.65262222290039 C 81.58542633056641 23.65164947509766 78.55665588378906 19.15967559814453 74.69847869873047 15.30150604248047 C 70.84030914306641 11.44333648681641 66.34834289550781 8.414566040039062 61.34736633300781 6.299331665039062 C 56.17134094238281 4.11004638671875 50.67128372192383 2.999992370605469 44.99999618530273 2.999992370605469 M 44.99999618530273 -7.62939453125e-06 C 69.85281372070312 -7.62939453125e-06 90 20.14717864990234 90 44.99999237060547 C 90 69.85279083251953 69.85281372070312 89.99997711181641 44.99999618530273 89.99997711181641 C 20.14717864990234 89.99997711181641 -7.62939453125e-06 69.85279083251953 -7.62939453125e-06 44.99999237060547 C -7.62939453125e-06 20.14717864990234 20.14717864990234 -7.62939453125e-06 44.99999618530273 -7.62939453125e-06 Z" stroke="none" fill="#5692e8"/>
                  </g>
                </g>
              </g>
            </g>
          </g>
        </g>
      </g>
    </g>
    <g id="aprendiendo" transform="translate(225.518 277.742)">
      <g id="Grupo_1201743" data-name="Grupo 1201743" transform="translate(0.85 40.533)">
        <path id="Trazado_1070338" data-name="Trazado 1070338" d="M55.731,304.662H45.083a11.849,11.849,0,0,0-11.849,11.849v.857H67.58v-.857a11.849,11.849,0,0,0-11.849-11.849Z" transform="translate(-30.318 -275.423)" fill="#82eca9"/>
        <path id="Trazado_1070339" data-name="Trazado 1070339" d="M185.893,304.662h-5.865v10.382a2.385,2.385,0,0,0,1.849,2.323h15.866v-.857A11.849,11.849,0,0,0,185.893,304.662Z" transform="translate(-160.481 -275.423)" fill="#78df9f"/>
        <path id="Trazado_1070340" data-name="Trazado 1070340" d="M100.806,52.424A11.217,11.217,0,0,0,97.394,50.4a.386.386,0,0,1-.242-.433,6.5,6.5,0,0,1,.543-1.573,1.173,1.173,0,0,0-.922-1.685C90.5,46,86.81,48.815,85.147,50.59a.552.552,0,0,1-.41.177,9.742,9.742,0,0,0-6.011,2.221,3.321,3.321,0,0,0-1.284,2.69l.15,7.966a4.393,4.393,0,0,0,4.376,4.009H97.212a4.393,4.393,0,0,0,4.377-4.019l.341-8.58A3.346,3.346,0,0,0,100.806,52.424Z" transform="translate(-69.517 -46.595)" fill="#ffe177"/>
        <circle id="Elipse_13530" data-name="Elipse 13530" cx="2.587" cy="2.587" r="2.587" transform="translate(8.689 17.643)" fill="#ffdfcf"/>
        <circle id="Elipse_13531" data-name="Elipse 13531" cx="2.587" cy="2.587" r="2.587" transform="translate(26.741 17.643)" fill="#ffdfcf"/>
        <path id="Trazado_1070341" data-name="Trazado 1070341" d="M62.875,421.9H8.435a.935.935,0,0,1-.934-.935v-3.521a.935.935,0,0,1,.934-.934H62.875a.935.935,0,0,1,.934.934v3.521A.935.935,0,0,1,62.875,421.9Z" transform="translate(-7.5 -374.6)" fill="#bc7c63"/>
        <path id="Trazado_1070342" data-name="Trazado 1070342" d="M154.815,278.282h-.521a3.6,3.6,0,0,1-3.6-3.6v-5.7h7.731v5.7A3.6,3.6,0,0,1,154.815,278.282Z" transform="translate(-134.466 -243.778)" fill="#ffdfcf"/>
        <path id="Trazado_1070343" data-name="Trazado 1070343" d="M120.057,144.551h-1.364a7.678,7.678,0,0,1-7.678-7.678v-5.634a7.678,7.678,0,0,1,7.678-7.678h1.364a7.678,7.678,0,0,1,7.678,7.678v5.634A7.678,7.678,0,0,1,120.057,144.551Z" transform="translate(-99.286 -114.84)" fill="#ffeee6"/>
        <path id="Trazado_1070344" data-name="Trazado 1070344" d="M117.188,122.158a6.814,6.814,0,0,0,5.857-3.328c0-2.983-4.183-5.6-7.378-5.6-4.413,0-10.646,4.736-8.336,8.924Z" transform="translate(-95.578 -105.684)" fill="#ffe177"/>
        <path id="Trazado_1070345" data-name="Trazado 1070345" d="M180.028,278.27c.093.007.186.012.281.012h.521a3.6,3.6,0,0,0,3.6-3.6v-5.7h-4.407Z" transform="translate(-160.481 -243.778)" fill="#ffcebf"/>
        <path id="Trazado_1070346" data-name="Trazado 1070346" d="M182.414,207.27a2.386,2.386,0,0,0-2.386,2.386v9.12h1.224a7.678,7.678,0,0,0,7.678-7.678V207.27Z" transform="translate(-160.481 -189.066)" fill="#ffdfcf"/>
        <path id="Trazado_1070347" data-name="Trazado 1070347" d="M232.035,253.309H207.6a2.386,2.386,0,0,1-2.386-2.386V234.837a2.386,2.386,0,0,1,2.386-2.386h24.439a2.386,2.386,0,0,1,2.386,2.386v16.086A2.386,2.386,0,0,1,232.035,253.309Z" transform="translate(-182.809 -211.394)" fill="#dff7ff"/>
        <circle id="Elipse_13532" data-name="Elipse 13532" cx="2.853" cy="2.853" r="2.853" transform="translate(34.153 28.633)" fill="#c5dee2"/>
      </g>
      <g id="Grupo_1201744" data-name="Grupo 1201744" transform="translate(0 39.758)">
        <path id="Trazado_1070348" data-name="Trazado 1070348" d="M56.225,81.668h-3.3a3.216,3.216,0,0,0,.387-1.532V64.05a3.24,3.24,0,0,0-3.236-3.236H33.614a3.414,3.414,0,0,0-.3-1.373,5.225,5.225,0,0,0,.452-1.723q0-.019,0-.039l.341-8.58A4.182,4.182,0,0,0,32.7,45.8a11.97,11.97,0,0,0-3.3-2.034,6.036,6.036,0,0,1,.384-.993,2.023,2.023,0,0,0-1.591-2.9,16.485,16.485,0,0,0-5.344.228.85.85,0,0,0,.36,1.661,14.8,14.8,0,0,1,4.793-.2.315.315,0,0,1,.247.164.324.324,0,0,1,.006.3,7.309,7.309,0,0,0-.613,1.782,1.234,1.234,0,0,0,.771,1.389,10.464,10.464,0,0,1,3.152,1.868,2.488,2.488,0,0,1,.84,1.961l-.34,8.56c-.011.118-.028.234-.05.35a3.415,3.415,0,0,0-1.847-.541h-.033a9.226,9.226,0,0,0-1.078-4.049c-.006-.011-.013-.022-.02-.033h0a.845.845,0,0,0-.447-.367.856.856,0,0,0-1.013.365,6,6,0,0,1-5.127,2.914H12.6a.863.863,0,0,0-.477.146.846.846,0,0,0-.374.642c-.01.134-.015.269-.019.4a3.422,3.422,0,0,0-1.843.807,3.567,3.567,0,0,1-.116-.622l-.149-7.935a2.482,2.482,0,0,1,.954-2,8.964,8.964,0,0,1,5.478-2.043,1.407,1.407,0,0,0,1.043-.445,11.62,11.62,0,0,1,2.912-2.238.85.85,0,1,0-.81-1.494,13.18,13.18,0,0,0-3.255,2.478,10.689,10.689,0,0,0-6.41,2.4,4.189,4.189,0,0,0-1.613,3.378l.15,7.966q0,.029,0,.058A5.192,5.192,0,0,0,8.8,59.964a3.436,3.436,0,0,0,3.221,4.307,9.228,9.228,0,0,0,3,4.739A12.714,12.714,0,0,0,2.916,81.669H1.784A1.786,1.786,0,0,0,0,83.453v3.521a1.786,1.786,0,0,0,1.784,1.784H43.575a.85.85,0,0,0,0-1.7H1.784a.085.085,0,0,1-.085-.085V83.453a.085.085,0,0,1,.085-.085H3.533a.847.847,0,0,0,.232.033l52.459-.033a.085.085,0,0,1,.085.085v3.521a.085.085,0,0,1-.085.085H47.54a.85.85,0,0,0,0,1.7h8.684a1.786,1.786,0,0,0,1.784-1.784V83.453a1.786,1.786,0,0,0-1.784-1.784ZM10.388,60.838a1.739,1.739,0,0,1,1.339-1.69v2.809c0,.193.008.385.02.575A1.74,1.74,0,0,1,10.388,60.838ZM30.149,59.1h.029a1.739,1.739,0,0,1,1.736,1.714H30.149ZM13.427,61.957V57.931h9.031a7.712,7.712,0,0,0,5.648-2.487,7.548,7.548,0,0,1,.342,2.244v3.127H25.636A3.24,3.24,0,0,0,22.4,64.05v5.275a7.515,7.515,0,0,1-8.973-7.368Zm4.5,8.7a9.169,9.169,0,0,0,3.016.508,9.285,9.285,0,0,0,1.462-.116v2.933a2.753,2.753,0,0,1-1.2.277h-.521a2.758,2.758,0,0,1-2.755-2.755Zm-2.308.036h.609v.811a4.46,4.46,0,0,0,4.455,4.455H21.2a4.463,4.463,0,0,0,1.2-.165v4.34a3.215,3.215,0,0,0,.387,1.532H4.615A11.011,11.011,0,0,1,15.614,70.7Zm36,9.441a1.537,1.537,0,0,1-1.453,1.532H25.553A1.537,1.537,0,0,1,24.1,80.136V64.05a1.538,1.538,0,0,1,1.536-1.536H50.075a1.538,1.538,0,0,1,1.536,1.536Z" transform="translate(0 -39.758)"/>
        <path id="Trazado_1070349" data-name="Trazado 1070349" d="M305.145,292.477a3.7,3.7,0,1,0,3.7,3.7A3.707,3.707,0,0,0,305.145,292.477Zm0,5.706a2,2,0,1,1,2-2A2.006,2.006,0,0,1,305.145,298.183Z" transform="translate(-267.289 -263.844)"/>
      </g>
    </g>
  </g>
</svg>
