<svg xmlns="http://www.w3.org/2000/svg" xmlns:xlink="http://www.w3.org/1999/xlink" width="103" height="103" viewBox="0 0 103 103">
  <defs>
    <filter id="Trazado_978624" x="0" y="0" width="103" height="103" filterUnits="userSpaceOnUse">
      <feOffset dy="3" input="SourceAlpha"/>
      <feGaussianBlur stdDeviation="3" result="blur"/>
      <feFlood flood-opacity="0.161"/>
      <feComposite operator="in" in2="blur"/>
      <feComposite in="SourceGraphic"/>
    </filter>
  </defs>
  <g id="Grupo_1201654" data-name="Grupo 1201654" transform="translate(-155 -7394)">
    <g id="Grupo_1183567" data-name="Grupo 1183567" transform="translate(164 7400)">
      <g id="Grupo_1174730" data-name="Grupo 1174730">
        <g id="Grupo_1173798" data-name="Grupo 1173798">
          <g id="Grupo_1171925" data-name="Grupo 1171925">
            <g id="Grupo_1164524" data-name="Grupo 1164524">
              <g id="Grupo_1144123" data-name="Grupo 1144123">
                <g transform="matrix(1, 0, 0, 1, -9, -6)" filter="url(#Trazado_978624)">
                  <g id="Trazado_978624-2" data-name="Trazado 978624" transform="translate(9 6)" fill="#ebe9f0">
                    <path d="M 42.5 83.5 C 36.96437835693359 83.5 31.59512901306152 82.41617584228516 26.54141235351562 80.27863311767578 C 21.65934181213379 78.21369171142578 17.27447128295898 75.25723266601562 13.50862312316895 71.49137878417969 C 9.742764472961426 67.72553253173828 6.786305904388428 63.34066009521484 4.721364498138428 58.45858764648438 C 2.583823442459106 53.40486907958984 1.5 48.03562164306641 1.5 42.5 C 1.5 36.96437835693359 2.583823442459106 31.59512901306152 4.721364498138428 26.54141235351562 C 6.786305904388428 21.65934181213379 9.742764472961426 17.27447128295898 13.50862312316895 13.50862312316895 C 17.27447128295898 9.742764472961426 21.65934181213379 6.786305904388428 26.54141235351562 4.721364498138428 C 31.59512901306152 2.583823442459106 36.96437835693359 1.5 42.5 1.5 C 48.03562164306641 1.5 53.40486907958984 2.583823442459106 58.45858764648438 4.721364498138428 C 63.34066009521484 6.786305904388428 67.72553253173828 9.742764472961426 71.49137878417969 13.50862312316895 C 75.25723266601562 17.27447128295898 78.21369171142578 21.65934181213379 80.27863311767578 26.54141235351562 C 82.41617584228516 31.59512901306152 83.5 36.96437835693359 83.5 42.5 C 83.5 48.03562164306641 82.41617584228516 53.40486907958984 80.27863311767578 58.45858764648438 C 78.21369171142578 63.34066009521484 75.25723266601562 67.72553253173828 71.49137878417969 71.49137878417969 C 67.72553253173828 75.25723266601562 63.34066009521484 78.21369171142578 58.45858764648438 80.27863311767578 C 53.40486907958984 82.41617584228516 48.03562164306641 83.5 42.5 83.5 Z" stroke="none"/>
                    <path d="M 42.5 3 C 37.16621398925781 3 31.99356079101562 4.043960571289062 27.125732421875 6.102882385253906 C 22.42246627807617 8.092185974121094 18.19785308837891 10.94070434570312 14.56928253173828 14.56928253173828 C 10.94070434570312 18.19785308837891 8.092185974121094 22.42246627807617 6.102882385253906 27.125732421875 C 4.043960571289062 31.99356079101562 3 37.16621398925781 3 42.5 C 3 47.83378601074219 4.043960571289062 53.00643920898438 6.102882385253906 57.87425231933594 C 8.092185974121094 62.57753372192383 10.94070434570312 66.80213165283203 14.56928253173828 70.43071746826172 C 18.19786834716797 74.05929565429688 22.42246627807617 76.90781402587891 27.125732421875 78.89711761474609 C 31.99356079101562 80.95603942871094 37.16621398925781 82 42.5 82 C 47.83378601074219 82 53.00642395019531 80.95603942871094 57.87425231933594 78.89711761474609 C 62.57753372192383 76.90781402587891 66.80213165283203 74.05929565429688 70.43071746826172 70.43071746826172 C 74.05929565429688 66.80213165283203 76.90781402587891 62.57753372192383 78.89711761474609 57.87425231933594 C 80.95603942871094 53.00642395019531 82 47.83378601074219 82 42.5 C 82 37.16621398925781 80.95603942871094 31.99356079101562 78.89711761474609 27.125732421875 C 76.90781402587891 22.42246627807617 74.05929565429688 18.19786834716797 70.43071746826172 14.56928253173828 C 66.80213165283203 10.94070434570312 62.57753372192383 8.092185974121094 57.87425231933594 6.102882385253906 C 53.00643920898438 4.043960571289062 47.83378601074219 3 42.5 3 M 42.5 0 C 65.97209167480469 0 85 19.02789306640625 85 42.5 C 85 65.97209167480469 65.97209167480469 85 42.5 85 C 19.02789306640625 85 0 65.97209167480469 0 42.5 C 0 19.02789306640625 19.02789306640625 0 42.5 0 Z" stroke="none" fill="#c6c0d6"/>
                  </g>
                </g>
              </g>
            </g>
          </g>
        </g>
      </g>
    </g>
    <g id="leer_2_" data-name="leer (2)" transform="translate(153.044 7413.039)">
      <g id="Grupo_1201652" data-name="Grupo 1201652" transform="translate(27.978 0.863)">
        <g id="Grupo_1201648" data-name="Grupo 1201648" transform="translate(6.508)">
          <path id="Trazado_1070164" data-name="Trazado 1070164" d="M129.106,26.725a18.971,18.971,0,1,0-37.939,0c0,10.618,8.493,11.419,18.97,11.419S129.106,37.343,129.106,26.725Z" transform="translate(-91.167 -7.5)" fill="#665e66"/>
          <path id="Trazado_1070165" data-name="Trazado 1070165" d="M109.887,38.147c-10.361-.013-18.72-.884-18.72-11.418A19.1,19.1,0,0,1,110.137,7.5c-5.332,0-9.654,8.608-9.654,19.225C100.483,37.181,104.671,38.121,109.887,38.147Z" transform="translate(-91.167 -7.504)" fill="#454045"/>
          <path id="Trazado_1070166" data-name="Trazado 1070166" d="M164.405,84.221a7.626,7.626,0,0,1-7.263,7.229q-5.047.239-10.094.1h-.006q-1.28-.036-2.56-.1a7.625,7.625,0,0,1-7.262-7.229q-.222-4.318-.036-8.638h0q.056-1.345.154-2.691c.622-2.955,3.057-5.48,6.458-6.961.1-.043.2-.087.3-.129a17.19,17.19,0,0,1,4.525-1.149,18.69,18.69,0,0,1,6.891.476h0c4.59,1.22,8.02,4.178,8.77,7.772a0,0,0,0,0,0,0A92,92,0,0,1,164.405,84.221Z" transform="translate(-131.813 -57.962)" fill="#f1d0a5"/>
          <path id="Trazado_1070167" data-name="Trazado 1070167" d="M147.048,101.36h-.006q-1.28-.036-2.56-.1a7.625,7.625,0,0,1-7.262-7.229,91.859,91.859,0,0,1,.118-11.33c.622-2.955,3.057-5.48,6.458-6.961.1-.043.2-.087.3-.129-.233,5.686-.289,13.924-.169,18.58C144.023,97.775,145.331,100.694,147.048,101.36Z" transform="translate(-131.814 -67.777)" fill="#f1b986"/>
          <path id="Trazado_1070168" data-name="Trazado 1070168" d="M156.17,65.127h0c-2.26,3.876-7.679,8.972-9.835,7.755-.789-.446-.686-1.364-.241-2.352a17.51,17.51,0,0,1-3.366,4.135c-1.45,1.222-3.2,1.981-4.89.916h0q.056-1.345.154-2.691c.622-2.955,3.057-5.48,6.458-6.961.1-.043.2-.087.3-.129a17.189,17.189,0,0,1,4.525-1.149,18.689,18.689,0,0,1,6.891.476Z" transform="translate(-132.467 -57.961)" fill="#665e66"/>
          <path id="Trazado_1070169" data-name="Trazado 1070169" d="M142.728,74.666c-1.45,1.222-3.2,1.981-4.89.916h0q.056-1.345.154-2.691c.622-2.955,3.057-5.48,6.458-6.961.1-.043.2-.087.3-.129a17.189,17.189,0,0,1,4.525-1.149,18.425,18.425,0,0,1,2.187-.128C146.73,66.177,136.95,74.666,142.728,74.666Z" transform="translate(-132.467 -57.961)" fill="#454045"/>
          <g id="Grupo_1201647" data-name="Grupo 1201647" transform="translate(8.189 24.514)">
            <ellipse id="Elipse_13499" data-name="Elipse 13499" cx="2.32" cy="1.471" rx="2.32" ry="1.471" fill="#df9380"/>
            <ellipse id="Elipse_13500" data-name="Elipse 13500" cx="2.32" cy="1.471" rx="2.32" ry="1.471" transform="translate(16.979)" fill="#f9a58e"/>
          </g>
          <path id="Trazado_1070170" data-name="Trazado 1070170" d="M165.094,50.5a7.28,7.28,0,0,1-.131,1.379c-.921-4.8-6.612-8.491-13.5-8.491a18.418,18.418,0,0,0-2.187.128,17.2,17.2,0,0,0-4.26,1.043q-.288.111-.569.234c-3.447,1.5-5.9,4.075-6.483,7.082a7.294,7.294,0,0,1-.129-1.374c0-3.589,2.65-6.731,6.612-8.455q.615-.268,1.271-.488a17.378,17.378,0,0,1,3.558-.791,18.418,18.418,0,0,1,2.187-.127C158.992,40.641,165.094,45.056,165.094,50.5Z" transform="translate(-132.466 -36.827)" fill="#da4a54"/>
          <path id="Trazado_1070171" data-name="Trazado 1070171" d="M145.722,48.612l-.7,3q-.288.111-.569.234c-3.447,1.5-5.9,4.075-6.483,7.082a7.3,7.3,0,0,1-.129-1.374c0-3.589,2.65-6.731,6.612-8.455Q145.066,48.832,145.722,48.612Z" transform="translate(-132.468 -43.881)" fill="#c32430"/>
        </g>
        <path id="Trazado_1070172" data-name="Trazado 1070172" d="M278.315,260.1v19.454a2.646,2.646,0,0,1-2.085,2.586l-17.28,3.745h-2.23V261.021h2.23l16.159-3.5A2.646,2.646,0,0,1,278.315,260.1Z" transform="translate(-231.159 -228.692)" fill="#80b4fb"/>
        <path id="Trazado_1070173" data-name="Trazado 1070173" d="M89.391,261.021v24.867H87l-17.28-3.745a2.646,2.646,0,0,1-2.085-2.586V260.1a2.646,2.646,0,0,1,3.206-2.585L87,261.021Z" transform="translate(-63.83 -228.692)" fill="#5490f9"/>
        <path id="Trazado_1070174" data-name="Trazado 1070174" d="M235.9,313.286V288.419h4.626v24.867" transform="translate(-212.737 -256.09)" fill="#bed8fb"/>
        <g id="Grupo_1201651" data-name="Grupo 1201651" transform="translate(0 33.8)">
          <g id="Grupo_1201649" data-name="Grupo 1201649">
            <path id="Trazado_1070175" data-name="Trazado 1070175" d="M37.939,308.212h-.905a2.42,2.42,0,0,1-2.42-2.42V303.62a2.42,2.42,0,0,1,2.42-2.42h.905a2.42,2.42,0,0,1,2.42,2.42v2.172A2.42,2.42,0,0,1,37.939,308.212Z" transform="translate(-34.614 -301.2)" fill="#f1d0a5"/>
            <path id="Trazado_1070176" data-name="Trazado 1070176" d="M38.4,308.166a2.294,2.294,0,0,1-.465.046h-.906a2.42,2.42,0,0,1-2.419-2.42V303.62a2.419,2.419,0,0,1,2.419-2.42h.906a2.294,2.294,0,0,1,.465.046,2.419,2.419,0,0,0-1.953,2.374v2.172A2.419,2.419,0,0,0,38.4,308.166Z" transform="translate(-34.615 -301.2)" fill="#f1b986"/>
          </g>
          <g id="Grupo_1201650" data-name="Grupo 1201650" transform="translate(45.211)">
            <path id="Trazado_1070177" data-name="Trazado 1070177" d="M430.794,308.212h-.905a2.42,2.42,0,0,1-2.42-2.42V303.62a2.42,2.42,0,0,1,2.42-2.42h.905a2.42,2.42,0,0,1,2.42,2.42v2.172A2.42,2.42,0,0,1,430.794,308.212Z" transform="translate(-427.469 -301.2)" fill="#f1d0a5"/>
            <path id="Trazado_1070178" data-name="Trazado 1070178" d="M431.26,308.166a2.294,2.294,0,0,1-.465.046h-.906a2.42,2.42,0,0,1-2.419-2.42V303.62a2.419,2.419,0,0,1,2.419-2.42h.906a2.294,2.294,0,0,1,.465.046,2.419,2.419,0,0,0-1.953,2.374v2.172A2.419,2.419,0,0,0,431.26,308.166Z" transform="translate(-427.47 -301.2)" fill="#f1b986"/>
          </g>
        </g>
      </g>
      <g id="Grupo_1201653" data-name="Grupo 1201653" transform="translate(27.115 0)">
        <path id="Trazado_1070179" data-name="Trazado 1070179" d="M231.345,230.761a.863.863,0,0,0-1.15.41,2.222,2.222,0,0,1-4.015,0,.863.863,0,0,0-1.56.74,3.948,3.948,0,0,0,7.134,0A.863.863,0,0,0,231.345,230.761Z" transform="translate(-201.817 -204.131)"/>
        <path id="Trazado_1070180" data-name="Trazado 1070180" d="M298.719,181.384a6.622,6.622,0,0,0-1.259-.121,2.581,2.581,0,0,0,.14-.849c0-1.018-.556-1.846-1.24-1.846s-1.241.828-1.241,1.846a2.425,2.425,0,0,0,.3,1.2,3.76,3.76,0,0,0-.58.258.864.864,0,0,0,.433,1.612.854.854,0,0,0,.433-.118,4.18,4.18,0,0,1,2.69-.283.863.863,0,0,0,.327-1.7Z" transform="translate(-263.646 -158.018)"/>
        <path id="Trazado_1070181" data-name="Trazado 1070181" d="M179.14,181.868a3.771,3.771,0,0,0-.58-.258,2.425,2.425,0,0,0,.3-1.2c0-1.018-.556-1.846-1.24-1.846s-1.24.828-1.24,1.846a2.578,2.578,0,0,0,.14.849,6.624,6.624,0,0,0-1.259.121.863.863,0,1,0,.326,1.7,4.187,4.187,0,0,1,2.689.282.863.863,0,0,0,.867-1.493Z" transform="translate(-157.589 -158.017)"/>
        <path id="Trazado_1070182" data-name="Trazado 1070182" d="M329.536,312.6l-9.558,2.072a.863.863,0,1,0,.366,1.687l9.558-2.071a.863.863,0,0,0-.366-1.687Z" transform="translate(-285.673 -276.606)"/>
        <path id="Trazado_1070183" data-name="Trazado 1070183" d="M329.536,340.468l-9.558,2.072a.863.863,0,1,0,.366,1.687l9.558-2.072a.863.863,0,0,0-.366-1.687Z" transform="translate(-285.673 -301.268)"/>
        <path id="Trazado_1070184" data-name="Trazado 1070184" d="M76.514,33.8H76V32.275a3.509,3.509,0,0,0-4.252-3.428l-2.46.533c2.688-1.975,4-5.04,4-9.291a19.834,19.834,0,1,0-39.665,0c0,4.25,1.316,7.316,4.005,9.291l-2.462-.534a3.509,3.509,0,0,0-4.253,3.428V33.8H30.4a3.287,3.287,0,0,0-3.283,3.283v2.172A3.287,3.287,0,0,0,30.4,42.538h.517v9.191a3.528,3.528,0,0,0,2.766,3.429L50.96,58.9a.863.863,0,0,0,.183.02h4.626a.863.863,0,0,0,.183-.02l17.28-3.745A3.528,3.528,0,0,0,76,51.729V42.538h.517A3.287,3.287,0,0,0,79.8,39.255V37.083A3.286,3.286,0,0,0,76.514,33.8ZM35.35,20.089a18.108,18.108,0,1,1,36.212,0c0,3.914-1.2,6.57-3.757,8.209a8.54,8.54,0,0,0,.135-1.132c.024-.467.043-.893.058-1.3a.863.863,0,0,0-1.725-.065c-.015.4-.034.821-.057,1.279a6.766,6.766,0,0,1-.983,3.181l-9.557,2.071H51.235l-9.488-2.056a6.745,6.745,0,0,1-.992-3.2c-.125-2.425-.15-4.876-.078-7.323a3.851,3.851,0,0,0,.872.1,4.305,4.305,0,0,0,1.051-.134c1.9-.478,3.6-2.2,4.753-3.657a2.108,2.108,0,0,0,.577.472c1.69.954,4.119-.593,5.859-2.059A25.458,25.458,0,0,0,58.58,9.043c3.914,1.211,6.852,3.773,7.524,6.891.152,2.143.23,4.315.231,6.457a.863.863,0,0,0,.863.863h0a.863.863,0,0,0,.863-.864c0-2.113-.076-4.255-.222-6.371a8.139,8.139,0,0,0,.137-1.481,9.525,9.525,0,0,0-4.349-7.672A17.379,17.379,0,0,0,53.486,3.814a19.327,19.327,0,0,0-2.287.133,17.872,17.872,0,0,0-5.074,1.344A13.321,13.321,0,0,0,41,9.072a8.733,8.733,0,0,0-2.009,5.466,8.207,8.207,0,0,0,.138,1.489,93.094,93.094,0,0,0-.1,11.138,8.51,8.51,0,0,0,.142,1.174c-2.6-1.637-3.824-4.305-3.824-8.251ZM53.485,6.563A19.321,19.321,0,0,0,51.2,6.7a17.88,17.88,0,0,0-5.074,1.343,13.934,13.934,0,0,0-4.276,2.831,11.03,11.03,0,0,1,4.965-4A16.15,16.15,0,0,1,51.4,5.661a17.614,17.614,0,0,1,2.084-.121c5.231,0,9.737,2.229,11.706,5.41a12.838,12.838,0,0,0-2.259-1.807,17.8,17.8,0,0,0-9.448-2.581ZM46.813,9.622A16.157,16.157,0,0,1,51.4,8.41a17.878,17.878,0,0,1,5.4.191,24.319,24.319,0,0,1-4.125,4.556c-2.865,2.413-3.857,1.9-3.9,1.876-.306-.173-.054-.856.123-1.248A.863.863,0,0,0,47.366,13c-.691,1.215-2.971,4.488-5.188,5.044a2.279,2.279,0,0,1-1.43-.075c.033-.685.072-1.37.121-2.053C41.437,13.313,43.594,11.024,46.813,9.622ZM28.841,39.255V37.083A1.558,1.558,0,0,1,30.4,35.526H31.3a1.558,1.558,0,0,1,1.557,1.557v2.172A1.558,1.558,0,0,1,31.3,40.811H30.4A1.558,1.558,0,0,1,28.841,39.255Zm3.8,12.474V42.252a3.287,3.287,0,0,0,1.945-3V37.083a3.287,3.287,0,0,0-1.945-3V32.275a1.783,1.783,0,0,1,2.16-1.741L50.28,33.888v5.464a.863.863,0,0,0,1.726,0v-5.3h2.9V57.2h-2.9V42.805a.863.863,0,0,0-1.726,0V56.989L34.046,53.471a1.793,1.793,0,0,1-1.4-1.742Zm40.225,1.742L56.632,56.989v-23.1l15.479-3.355a1.783,1.783,0,0,1,2.16,1.741v1.811a3.287,3.287,0,0,0-1.945,3v2.172a3.287,3.287,0,0,0,1.945,3v9.477A1.793,1.793,0,0,1,72.866,53.471Zm5.2-14.216a1.558,1.558,0,0,1-1.557,1.557h-.905a1.558,1.558,0,0,1-1.557-1.557V37.083a1.558,1.558,0,0,1,1.557-1.557h.905a1.558,1.558,0,0,1,1.557,1.557Z" transform="translate(-27.115 0)"/>
      </g>
    </g>
  </g>
</svg>
