<svg xmlns="http://www.w3.org/2000/svg" xmlns:xlink="http://www.w3.org/1999/xlink" width="400" height="271" viewBox="0 0 400 271">
  <defs>
    <clipPath id="clip-path">
      <rect id="Rect치ngulo_416151" data-name="Rect치ngulo 416151" width="400" height="271" transform="translate(180 775)" fill="#fff" stroke="#707070" stroke-width="1"/>
    </clipPath>
    <clipPath id="clip-path-2">
      <rect id="Rect치ngulo_416146" data-name="Rect치ngulo 416146" width="421.495" height="267.819"/>
    </clipPath>
  </defs>
  <g id="Enmascarar_grupo_1098842" data-name="Enmascarar grupo 1098842" transform="translate(-180 -775)" clip-path="url(#clip-path)">
    <g id="OBJECTS" transform="translate(39.447 1403.132)">
      <g id="Grupo_1201384" data-name="Grupo 1201384" transform="translate(127.058 -624.826)">
        <g id="Grupo_1201368" data-name="Grupo 1201368" transform="translate(0 0)">
          <g id="Grupo_1201349" data-name="Grupo 1201349" clip-path="url(#clip-path-2)">
            <path id="Trazado_1045420" data-name="Trazado 1045420" d="M270.785,156.84a37.665,37.665,0,0,1,1.629,17.153,32.48,32.48,0,0,1-18.154,24.644,30.6,30.6,0,0,1-16.924,2.38c-6.8-.836-13.32-3.082-20.033-4.387a86.991,86.991,0,0,0-21.087-1.469A98.6,98.6,0,0,0,185.9,196.3a36.077,36.077,0,0,1-9.439.671,13.18,13.18,0,0,1-7.655-3.327,16.2,16.2,0,0,1-4.317-6.83,26.811,26.811,0,0,1-1.108-9.9,47.874,47.874,0,0,1,1.341-8.944,49.014,49.014,0,0,1,2.156-6.638c.49-1.251,1.033-2.481,1.634-3.678A43.9,43.9,0,0,1,170.9,153.5q.647-1.007,1.331-1.991a48.408,48.408,0,0,1,12.474-12.191c.953-.644,1.933-1.24,2.928-1.815a66.855,66.855,0,0,1,6.207-3.418,74.2,74.2,0,0,1,18.047-6.053,63.106,63.106,0,0,1,19.831-.841,52.555,52.555,0,0,1,16.636,4.893,46.534,46.534,0,0,1,13.693,10.04A40.281,40.281,0,0,1,270.785,156.84Z" transform="translate(-85.223 -86.216)" fill="#60bfb2"/>
          </g>
          <g id="Grupo_1201350" data-name="Grupo 1201350" clip-path="url(#clip-path-2)">
            <path id="Trazado_1045421" data-name="Trazado 1045421" d="M138.647,335.378a37.771,37.771,0,0,1-4.823,32.961,42.086,42.086,0,0,1-11.6,11.3,46.205,46.205,0,0,1-15.631,6.333c-5.98,1.3-12.117,1.936-17.975,3.788a33.245,33.245,0,0,0-8.233,3.836,55.4,55.4,0,0,1-7.478,4.64,12.136,12.136,0,0,1-7.977.816,14.931,14.931,0,0,1-6.863-4.031c-4.293-4.336-5.59-10.613-5.6-16.526a61.365,61.365,0,0,1,2.472-16.806A68.8,68.8,0,0,1,61.351,346.5a70.042,70.042,0,0,1,3.8-5.907,68.548,68.548,0,0,1,5.438-7.831A64.538,64.538,0,0,1,82.17,321.549a48.9,48.9,0,0,1,16.368-8.33,31.953,31.953,0,0,1,17.013.018,34.473,34.473,0,0,1,14.151,8.007A33.641,33.641,0,0,1,138.647,335.378Z" transform="translate(-34.452 -158.688)" fill="#ff7550"/>
          </g>
          <g id="Grupo_1201351" data-name="Grupo 1201351" clip-path="url(#clip-path-2)">
            <path id="Trazado_1045422" data-name="Trazado 1045422" d="M645.672,456.933A32.868,32.868,0,0,1,632.7,471.626c-6.2,3.921-13.317,6.211-20.423,7.849a81.66,81.66,0,0,1-23.6,2.186,57.55,57.55,0,0,1-20.734-5.182,44.323,44.323,0,0,1-15.552-11.971,46.131,46.131,0,0,1-9.938-33.825,41.23,41.23,0,0,1,5.913-17.1A38.678,38.678,0,0,1,561.2,400.8a30.2,30.2,0,0,1,32.967.877,26.276,26.276,0,0,1,6.034,5.809,39.187,39.187,0,0,1,4.293,8.476c2.283,3.5,4.634,6.954,8.318,9.049,5.754,3.276,12.763,2.515,19.065,3.714a19.3,19.3,0,0,1,8.4,3.562,18.506,18.506,0,0,1,5.346,6.905A22.078,22.078,0,0,1,645.672,456.933Z" transform="translate(-236.351 -191.635)" fill="#ffb533"/>
          </g>
          <g id="Grupo_1201367" data-name="Grupo 1201367" clip-path="url(#clip-path-2)">
            <g id="Grupo_1201356" data-name="Grupo 1201356" transform="translate(46.628 10.018)">
              <g id="Grupo_1201352" data-name="Grupo 1201352" transform="translate(0 3.722)">
                <path id="Trazado_1045423" data-name="Trazado 1045423" d="M112.065,86.717a.467.467,0,0,1-.082-.007.432.432,0,0,1-.343-.5,7.694,7.694,0,0,1,1.5-3.3.432.432,0,0,1,.683.53,6.824,6.824,0,0,0-1.333,2.931A.432.432,0,0,1,112.065,86.717Z" transform="translate(-111.632 -82.738)" fill="#332623"/>
              </g>
              <g id="Grupo_1201353" data-name="Grupo 1201353" transform="translate(7.51)">
                <path id="Trazado_1045424" data-name="Trazado 1045424" d="M131.393,78.594a.437.437,0,0,1-.191-.044q-.331-.163-.677-.307a10.742,10.742,0,0,0-6.047-.554.432.432,0,1,1-.162-.849,11.625,11.625,0,0,1,6.543.606c.245.1.487.213.724.329a.432.432,0,0,1-.191.82Z" transform="translate(-123.966 -76.626)" fill="#332623"/>
              </g>
              <g id="Grupo_1201354" data-name="Grupo 1201354" transform="translate(20.972 7.182)">
                <path id="Trazado_1045425" data-name="Trazado 1045425" d="M234.806,175.593h0a33.564,33.564,0,0,1-7.214-.819.432.432,0,1,1,.191-.842,32.7,32.7,0,0,0,7.029.8.432.432,0,0,1,0,.864Zm8.878-1.123a.432.432,0,0,1-.111-.849,42.588,42.588,0,0,0,6.68-2.4.432.432,0,1,1,.357.786,43.4,43.4,0,0,1-6.817,2.45A.4.4,0,0,1,243.684,174.469Zm-22.744-2.1a.423.423,0,0,1-.2-.048,24.626,24.626,0,0,1-5.947-4.2.432.432,0,0,1,.6-.622,23.825,23.825,0,0,0,5.739,4.051.432.432,0,0,1-.2.817Zm35.8-3.755a.432.432,0,0,1-.231-.8,67.725,67.725,0,0,0,5.808-4.139.432.432,0,0,1,.536.677,68.519,68.519,0,0,1-5.882,4.192A.427.427,0,0,1,256.736,168.618Zm-46.7-7.711a.431.431,0,0,1-.395-.256,39.685,39.685,0,0,1-2.26-6.887.432.432,0,0,1,.84-.2,38.76,38.76,0,0,0,2.21,6.74.432.432,0,0,1-.219.571A.427.427,0,0,1,210.037,160.906Zm59.3-2.365a.432.432,0,0,1-.3-.744c.924-.882,1.888-1.831,2.866-2.821q1.1-1.116,2.188-2.251a.432.432,0,0,1,.624.6q-1.092,1.139-2.2,2.262c-.983.995-1.953,1.95-2.884,2.838A.429.429,0,0,1,269.332,158.541Zm9.992-10.313a.432.432,0,0,1-.316-.726c1.748-1.873,3.326-3.559,4.933-5.227a.432.432,0,0,1,.622.6c-1.6,1.663-3.179,3.347-4.925,5.216A.427.427,0,0,1,279.324,148.229Zm-72.972-1.169a.433.433,0,0,1-.424-.351c-.328-1.72-.683-3.546-1.1-5.316-.131-.552-.273-1.108-.429-1.662a.432.432,0,0,1,.832-.233q.237.85.437,1.7c.422,1.786.779,3.623,1.109,5.352a.432.432,0,0,1-.343.505A.464.464,0,0,1,206.353,147.06Zm185.888-7.092a.432.432,0,0,1-.317-.138c-1.61-1.731-3.33-3.4-5.115-4.974a.432.432,0,1,1,.57-.649c1.805,1.589,3.548,3.283,5.178,5.033a.432.432,0,0,1-.316.726ZM290.65,136.71a.432.432,0,0,1-.292-.75c1.89-1.737,3.687-3.267,5.494-4.675a.432.432,0,0,1,.532.681c-1.788,1.393-3.568,2.908-5.44,4.63A.431.431,0,0,1,290.65,136.71Zm-89.275-4.93a.432.432,0,0,1-.371-.211,20.088,20.088,0,0,0-4.491-5.36.432.432,0,1,1,.545-.67,20.924,20.924,0,0,1,4.689,5.588.432.432,0,0,1-.15.592A.423.423,0,0,1,201.374,131.78Zm180.1-1.286a.428.428,0,0,1-.252-.082c-1.925-1.383-3.94-2.687-5.992-3.875a.432.432,0,1,1,.434-.747c2.075,1.2,4.115,2.521,6.062,3.921a.432.432,0,0,1-.252.782ZM302,127.945a.432.432,0,0,1-.228-.8,70.777,70.777,0,0,1,6.314-3.506.432.432,0,1,1,.379.775,70.007,70.007,0,0,0-6.237,3.464A.427.427,0,0,1,302,127.945Zm-132.964-1.833a17.092,17.092,0,0,1-1.749-.089.432.432,0,0,1-.385-.474.427.427,0,0,1,.474-.385,22.558,22.558,0,0,0,7-.55.44.44,0,0,1,.51.336.431.431,0,0,1-.336.51A27.075,27.075,0,0,1,169.034,126.112Zm14.177-2.634a.432.432,0,0,1-.074-.857,20.26,20.26,0,0,1,7.292-.177.432.432,0,1,1-.153.85,19.427,19.427,0,0,0-6.989.177A.393.393,0,0,1,183.211,123.478Zm-22.49-.021a.434.434,0,0,1-.258-.085,18.8,18.8,0,0,1-4.826-5.482.432.432,0,0,1,.74-.445,17.951,17.951,0,0,0,4.6,5.234.431.431,0,0,1-.256.778Zm206.7-.869a.433.433,0,0,1-.169-.034,70.891,70.891,0,0,0-6.7-2.452.432.432,0,0,1,.255-.826,71.789,71.789,0,0,1,6.782,2.481.433.433,0,0,1-.169.831Zm-50.868-1.569a.432.432,0,0,1-.141-.84c2.267-.781,4.6-1.458,6.934-2.013a.432.432,0,1,1,.2.84c-2.306.549-4.611,1.218-6.852,1.989A.421.421,0,0,1,316.557,121.019Zm37.171-2.662a.4.4,0,0,1-.085-.009c-.4-.079-.793-.153-1.19-.225-1.928-.347-3.9-.614-5.868-.793a.432.432,0,1,1,.079-.86c1.991.182,3.99.452,5.942.8q.6.109,1.206.229a.432.432,0,0,1-.083.855Zm-23.224-.656a.432.432,0,0,1-.057-.86c2.383-.324,4.8-.532,7.194-.618a.422.422,0,0,1,.447.416.432.432,0,0,1-.417.447c-2.362.085-4.753.29-7.108.611A.378.378,0,0,1,330.505,117.7Zm-177.8-7.916a.433.433,0,0,1-.418-.325c-.5-1.927-.895-3.91-1.28-5.828l-.245-1.211a.432.432,0,0,1,.847-.172l.245,1.212c.383,1.907.779,3.878,1.27,5.783a.433.433,0,0,1-.311.526A.439.439,0,0,1,152.708,109.786ZM149.483,95.8a.432.432,0,0,1-.412-.3,27.249,27.249,0,0,0-2.93-6.411.432.432,0,0,1,.73-.465,28.138,28.138,0,0,1,3.024,6.614.432.432,0,0,1-.281.543A.423.423,0,0,1,149.483,95.8Z" transform="translate(-146.073 -88.42)" fill="#332623"/>
              </g>
              <g id="Grupo_1201355" data-name="Grupo 1201355" transform="translate(272.425 64.865)">
                <path id="Trazado_1045426" data-name="Trazado 1045426" d="M561.393,186.877a.429.429,0,0,1-.364-.2c-.61-.954-1.257-1.91-1.925-2.844a.433.433,0,1,1,.7-.5c.676.947,1.332,1.916,1.949,2.881a.432.432,0,0,1-.364.665Z" transform="translate(-559.024 -183.151)" fill="#332623"/>
              </g>
            </g>
            <g id="Grupo_1201361" data-name="Grupo 1201361" transform="translate(331.406 153.352)">
              <g id="Grupo_1201357" data-name="Grupo 1201357" transform="translate(35.057)">
                <path id="Trazado_1045427" data-name="Trazado 1045427" d="M640.329,314.576a.426.426,0,0,1-.214-.057q-1.5-.854-3.01-1.693a.432.432,0,1,1,.422-.754c1,.562,2.011,1.125,3.015,1.7a.432.432,0,0,1-.213.808Z" transform="translate(-636.884 -312.017)" fill="#332623"/>
              </g>
              <g id="Grupo_1201358" data-name="Grupo 1201358" transform="translate(43.511 4.939)">
                <path id="Trazado_1045428" data-name="Trazado 1045428" d="M656.392,324.614a.426.426,0,0,1-.265-.091c-1.534-1.192-3.222-2.369-5.159-3.6a.432.432,0,1,1,.462-.729c1.962,1.244,3.671,2.437,5.227,3.646a.432.432,0,0,1-.265.773Z" transform="translate(-650.767 -320.128)" fill="#332623"/>
              </g>
              <g id="Grupo_1201359" data-name="Grupo 1201359" transform="translate(11.262 13.94)">
                <path id="Trazado_1045429" data-name="Trazado 1045429" d="M610.865,425.59a.432.432,0,0,1-.007-.864,52.444,52.444,0,0,0,6.261-.469.432.432,0,0,1,.118.856,53.126,53.126,0,0,1-6.364.477Zm-6.329-.2H604.5c-1.982-.146-4.05-.368-6.323-.679a.432.432,0,1,1,.116-.856c2.255.308,4.307.528,6.271.672a.432.432,0,0,1-.031.863Zm20.337-2.089a.432.432,0,0,1-.144-.84,32.884,32.884,0,0,0,5.657-2.641.432.432,0,0,1,.438.744,33.757,33.757,0,0,1-5.808,2.712A.42.42,0,0,1,624.873,423.306Zm10.853-6.389a.432.432,0,0,1-.287-.755,28.569,28.569,0,0,0,4.192-4.6.432.432,0,1,1,.7.507,29.462,29.462,0,0,1-4.319,4.745A.436.436,0,0,1,635.726,416.917Zm7.782-11.718a.457.457,0,0,1-.123-.018.433.433,0,0,1-.291-.538,19.544,19.544,0,0,0,.82-5.568c0-.181,0-.365-.007-.547a.432.432,0,0,1,.42-.444h.012a.432.432,0,0,1,.432.42q.007.286.007.571a20.432,20.432,0,0,1-.856,5.815A.432.432,0,0,1,643.508,405.2Zm-.136-12.5a.433.433,0,0,1-.42-.33c-.209-.859-.436-1.715-.663-2.572-.31-1.17-.63-2.378-.9-3.577a.432.432,0,0,1,.844-.189c.265,1.182.583,2.383.89,3.545.228.862.457,1.724.667,2.589a.43.43,0,0,1-.317.521A.4.4,0,0,1,643.373,392.7Zm-2.181-13.995a.382.382,0,0,1-.046,0,.432.432,0,0,1-.385-.474,29.044,29.044,0,0,1,1.43-6.251.432.432,0,1,1,.82.272,28.219,28.219,0,0,0-1.391,6.069A.431.431,0,0,1,641.192,378.708Zm3.675-12.077a.425.425,0,0,1-.163-.032.431.431,0,0,1-.237-.563c.776-1.908,1.58-3.881,2.234-5.894a.432.432,0,1,1,.822.267c-.663,2.042-1.472,4.03-2.255,5.953A.433.433,0,0,1,644.866,366.631Zm3.687-13.676h0a.431.431,0,0,1-.429-.434l0-.3a20.936,20.936,0,0,0-.856-5.827.432.432,0,0,1,.831-.241,21.854,21.854,0,0,1,.89,6.068l0,.3A.433.433,0,0,1,648.553,352.955ZM645.178,340.9a.431.431,0,0,1-.374-.216,31.727,31.727,0,0,0-3.649-5.061.432.432,0,1,1,.65-.571,32.606,32.606,0,0,1,3.747,5.2.432.432,0,0,1-.374.648Z" transform="translate(-597.806 -334.909)" fill="#332623"/>
              </g>
              <g id="Grupo_1201360" data-name="Grupo 1201360" transform="translate(0 101.002)">
                <path id="Trazado_1045430" data-name="Trazado 1045430" d="M583.145,479.371a.463.463,0,0,1-.077-.007q-1.707-.305-3.4-.619a.432.432,0,0,1,.156-.851q1.693.312,3.4.619a.432.432,0,0,1-.075.857Z" transform="translate(-579.311 -477.888)" fill="#332623"/>
              </g>
            </g>
            <g id="Grupo_1201366" data-name="Grupo 1201366" transform="translate(28.706 139.005)">
              <g id="Grupo_1201362" data-name="Grupo 1201362" transform="translate(32.427)">
                <path id="Trazado_1045431" data-name="Trazado 1045431" d="M135.885,290.534a.432.432,0,0,1-.159-.834q1.617-.637,3.248-1.22a.432.432,0,1,1,.292.814q-1.617.58-3.222,1.21A.418.418,0,0,1,135.885,290.534Z" transform="translate(-135.453 -288.455)" fill="#332623"/>
              </g>
              <g id="Grupo_1201363" data-name="Grupo 1201363" transform="translate(21.028 3.729)">
                <path id="Trazado_1045432" data-name="Trazado 1045432" d="M117.165,298.414a.432.432,0,0,1-.22-.8c1.744-1.035,3.636-2.041,5.623-2.989a.432.432,0,0,1,.373.779c-1.964.937-3.833,1.93-5.555,2.953A.431.431,0,0,1,117.165,298.414Z" transform="translate(-116.733 -294.579)" fill="#332623"/>
              </g>
              <g id="Grupo_1201364" data-name="Grupo 1201364" transform="translate(0 11.197)">
                <path id="Trazado_1045433" data-name="Trazado 1045433" d="M113.739,410.905a.431.431,0,0,1-.092-.01c-2.245-.484-4.262-1-6.165-1.577a.432.432,0,1,1,.25-.827c1.882.569,3.876,1.08,6.1,1.56a.432.432,0,0,1-.09.854Zm-12.077-3.735a.425.425,0,0,1-.173-.037,43.072,43.072,0,0,1-4.61-2.339q-.528-.309-1.046-.639a.433.433,0,0,1,.466-.729c.336.215.675.424,1.017.624a42.314,42.314,0,0,0,4.518,2.293.432.432,0,0,1-.172.828Zm-11.7-7.964a.43.43,0,0,1-.312-.133A29.9,29.9,0,0,1,85.737,394a.432.432,0,1,1,.737-.449,29.155,29.155,0,0,0,3.8,4.929.431.431,0,0,1-.312.73ZM83.515,388.45a.432.432,0,0,1-.414-.308,21.1,21.1,0,0,1-.9-6.034l0-.337a.432.432,0,0,1,.432-.425h.007a.432.432,0,0,1,.425.439l0,.324a20.227,20.227,0,0,0,.865,5.787.433.433,0,0,1-.29.538A.473.473,0,0,1,83.515,388.45Zm.586-13.988a.426.426,0,0,1-.133-.021.432.432,0,0,1-.278-.544c.492-1.521,1.066-3.049,1.62-4.528l.539-1.443a.432.432,0,0,1,.81.3l-.54,1.446c-.551,1.469-1.122,2.988-1.608,4.491A.431.431,0,0,1,84.1,374.462Zm4.058-11.986a.44.44,0,0,1-.1-.011.432.432,0,0,1-.324-.518,21.022,21.022,0,0,0,.587-4.764q0-.532-.033-1.066l-.023-.315a.432.432,0,0,1,.393-.468.437.437,0,0,1,.468.393l.024.334c.024.374.035.748.035,1.122a21.877,21.877,0,0,1-.609,4.958A.434.434,0,0,1,88.158,362.476Zm-1.448-13.91a.434.434,0,0,1-.4-.278c-.225-.593-.457-1.185-.689-1.778-.532-1.356-1.083-2.759-1.545-4.166a.432.432,0,0,1,.82-.27c.455,1.384,1,2.775,1.529,4.12.234.6.466,1.19.694,1.787a.433.433,0,0,1-.251.558A.45.45,0,0,1,86.71,348.566Zm-3.517-12.107a.431.431,0,0,1-.429-.4c-.055-.692-.085-1.4-.085-2.111a28.313,28.313,0,0,1,.336-4.3.438.438,0,0,1,.493-.361.432.432,0,0,1,.361.493,27.62,27.62,0,0,0-.326,4.169c0,.685.027,1.372.081,2.042a.431.431,0,0,1-.4.465Zm2.441-13.894a.432.432,0,0,1-.4-.6,36.252,36.252,0,0,1,3.023-5.64.432.432,0,0,1,.722.473,35.493,35.493,0,0,0-2.951,5.507A.431.431,0,0,1,85.634,322.565Zm6.887-10.551a.432.432,0,0,1-.317-.726,45.6,45.6,0,0,1,4.678-4.348.432.432,0,0,1,.544.672,44.774,44.774,0,0,0-4.588,4.265A.434.434,0,0,1,92.522,312.014Z" transform="translate(-82.2 -306.844)" fill="#332623"/>
              </g>
              <g id="Grupo_1201365" data-name="Grupo 1201365" transform="translate(38.932 115.828)">
                <path id="Trazado_1045434" data-name="Trazado 1045434" d="M149.984,480.066a.472.472,0,0,1-.066,0q-1.706-.258-3.418-.528a.432.432,0,0,1-.359-.494.437.437,0,0,1,.494-.359q1.709.272,3.413.528a.432.432,0,0,1-.065.859Z" transform="translate(-146.136 -478.674)" fill="#332623"/>
              </g>
            </g>
          </g>
        </g>
        <g id="Grupo_1201373" data-name="Grupo 1201373" transform="translate(15.881 22.013)">
          <g id="Grupo_1201370" data-name="Grupo 1201370">
            <path id="Trazado_1045435" data-name="Trazado 1045435" d="M88.834,220.206c-2.411,3.949-6.748,6.7-11.483,5.642-4.985-1.123-8.364-5.452-10.023-10.048a41.2,41.2,0,0,1-1.815-7.957c-.423-2.825-.751-5.668-.994-8.511a134.784,134.784,0,0,1-.363-17.721,129.916,129.916,0,0,1,5.409-31.718,10.354,10.354,0,0,1-6.221-4.251,13.889,13.889,0,0,1-2.108-9.478,18.13,18.13,0,0,1,3.422-9.245c1.858-2.35,4.994-3.949,8.018-3.128,2.462.666,4.035,2.756,5.262,4.9a35.515,35.515,0,0,1,5.011-1.52c2.3-.5,4.942-.406,6.221,1.892,1.175,2.1.847,4.8.656,7.085a68.6,68.6,0,0,1-2.964,14.973,297.982,297.982,0,0,1,4.2,34.457q.6,9.293.6,18.611C91.668,209.57,91.738,215.445,88.834,220.206Z" transform="translate(-61.138 -106.981)" fill="#fc9f7e"/>
            <g id="Grupo_1201369" data-name="Grupo 1201369" transform="translate(0.966)">
              <path id="Trazado_1045436" data-name="Trazado 1045436" d="M70.413,150.566l-7.688-3.637,19.768-40.581,7.688,3.637Z" transform="translate(-62.725 -100.244)" fill="#ff7550"/>
              <path id="Trazado_1045437" data-name="Trazado 1045437" d="M95.138,102.427s-.362,1.208.466,1.666a3.1,3.1,0,0,0,2.134-.017,1.777,1.777,0,0,0,.856,1.7,2.013,2.013,0,0,0,2.128-.119s-.121.954.384,1.324,1.721-.913,1.721-.913l1.123-8.239a1.321,1.321,0,0,0-1.2-1.5h0a1.319,1.319,0,0,0-.975.321Z" transform="translate(-75.37 -96.325)" fill="#ffbfa8"/>
              <path id="Trazado_1045438" data-name="Trazado 1045438" d="M106.444,100.568l-4.052-1.961,2.246-1.958a1.323,1.323,0,0,1,2.178,1.176Z" transform="translate(-78.238 -96.325)" fill="#332623"/>
              <path id="Trazado_1045439" data-name="Trazado 1045439" d="M85.24,109.694q-6.984,15.278-14.749,30.182-2.184,4.19-4.429,8.346c-.264.49.482.926.746.436Q74.787,133.876,82,118.695q2.026-4.268,3.99-8.566C86.215,109.628,85.471,109.188,85.24,109.694Z" transform="translate(-64.008 -101.465)" fill="#332623"/>
              <path id="Trazado_1045440" data-name="Trazado 1045440" d="M92.243,111.5l-14.2,30.556-4,8.618c-.233.5.511.94.746.436l14.2-30.556,4-8.619C93.222,111.437,92.477,111,92.243,111.5Z" transform="translate(-67.132 -102.173)" fill="#332623"/>
            </g>
            <path id="Trazado_1045441" data-name="Trazado 1045441" d="M89.6,133.748a21.939,21.939,0,0,1-1.72,6.247,30.634,30.634,0,0,1-2.808,5.729,15.2,15.2,0,0,1-3.828,4.069,7.632,7.632,0,0,1-2.48,1.287,1.264,1.264,0,0,1-.951-.13.4.4,0,0,1-.311-.2,10.468,10.468,0,0,1,4.89-15.405c-1.538-.164-3.076-.328-4.614-.5-1.2-.138-2.739-.475-3.032-1.858a12.663,12.663,0,0,1-1.4,2.1,3.522,3.522,0,0,1-1.555,6.169,6.582,6.582,0,0,1-.942,5.763,3.746,3.746,0,0,1-5.055.812.426.426,0,0,1-.164-.475c-1.572-1.547-1.581-4.484-1.486-6.558.242-5.5,1.685-12.019,6.808-15.06a3.632,3.632,0,0,1,3.681-.346,3.251,3.251,0,0,1,1.339,2.679,8.441,8.441,0,0,1-.328,2.652,7.351,7.351,0,0,1,1.7-1.046,20.865,20.865,0,0,1,10.368-1.84.462.462,0,0,1,.4.613A7.592,7.592,0,0,1,89.6,133.748Z" transform="translate(-62.301 -107.547)" fill="#fcb190"/>
            <path id="Trazado_1045442" data-name="Trazado 1045442" d="M93.058,128.318a21.871,21.871,0,0,0-9.321,2.277c-1.267.632-2.682,1.474-2.889,3.012a2.54,2.54,0,0,0,2.276,2.679,22.957,22.957,0,0,0,2.884.3l1.749.146a12.893,12.893,0,0,0-5.109,13.349c.123.542.956.312.833-.23a12,12,0,0,1,5.8-13.07.436.436,0,0,0-.218-.8l-2.842-.237a22.861,22.861,0,0,1-2.865-.283c-.794-.171-1.679-.635-1.667-1.565a2.555,2.555,0,0,1,1.416-1.964,19.847,19.847,0,0,1,9.955-2.743A.432.432,0,0,0,93.058,128.318Z" transform="translate(-68.839 -108.837)" fill="#332623"/>
            <path id="Trazado_1045443" data-name="Trazado 1045443" d="M75.752,134.748c-.355.058-.705-.331-.937-.552a8.393,8.393,0,0,1-.761-.831,8.69,8.69,0,0,1-1.839-6.187c.049-.553-.815-.55-.864,0a9.531,9.531,0,0,0,.981,5.078,9.372,9.372,0,0,0,1.435,2.1c.577.639,1.279,1.377,2.214,1.224C76.529,135.491,76.3,134.659,75.752,134.748Z" transform="translate(-65.119 -108.229)" fill="#332623"/>
            <path id="Trazado_1045444" data-name="Trazado 1045444" d="M71.695,144.962a8.72,8.72,0,0,1-6.451-8.709c.018-.556-.846-.555-.864,0a9.593,9.593,0,0,0,7.085,9.542A.432.432,0,0,0,71.695,144.962Z" transform="translate(-62.404 -111.777)" fill="#332623"/>
            <path id="Trazado_1045445" data-name="Trazado 1045445" d="M67.059,156.9a9.676,9.676,0,0,1-4.7-6.989c-.078-.548-.911-.315-.833.23a10.489,10.489,0,0,0,5.1,7.5A.432.432,0,0,0,67.059,156.9Z" transform="translate(-61.287 -117.16)" fill="#332623"/>
          </g>
          <g id="Grupo_1201371" data-name="Grupo 1201371" transform="translate(3.338 81.44)">
            <path id="Trazado_1045446" data-name="Trazado 1045446" d="M132.038,452.04l-4.564,26.443h97.109l-2.156-34Z" transform="translate(-90.419 -313.924)" fill="#332623"/>
            <path id="Trazado_1045447" data-name="Trazado 1045447" d="M244.485,276.681a12.251,12.251,0,0,1-3.223,6.653,23.816,23.816,0,0,1-5.962,4.476c-2.437,1.391-4.985,2.609-7.526,3.8A173.523,173.523,0,0,1,196.6,302.748c.043.19.078.38.112.57q2.45,13.051,4.372,26.171.946,6.493,1.78,12.995c.527,4.113,1.262,8.32,1.14,12.477a17.775,17.775,0,0,1-1.028,5.737,15.347,15.347,0,0,1-2.7,4.51,31.935,31.935,0,0,1-8.692,6.826,47.462,47.462,0,0,1-22.1,6.307c-8.2.285-16.3-1.357-24.348-2.687a120.076,120.076,0,0,0-12.3-1.53,59.387,59.387,0,0,0-6.2-.052c-2.126.095-4.225.38-6.333.656-3.767.5-7.647.8-11.207-.786a8.723,8.723,0,0,1-5.383-7.742c-.138-3.957,1.8-7.517,3.249-11.06a18.439,18.439,0,0,0,1.6-5.962,11.113,11.113,0,0,0-1.27-5.452,37.591,37.591,0,0,1-2.126-4.692,8.231,8.231,0,0,1-.052-4.855c.89-3,3.361-5.789,3.076-9.064-.164-1.935-1.425-3.646-2.143-5.409a23.217,23.217,0,0,1-1.477-5.607,23.743,23.743,0,0,1,.484-8.934,44.71,44.71,0,0,1-8.6-4.838,47.877,47.877,0,0,1-12.572-13.461A45.779,45.779,0,0,1,77.511,270.2a5.088,5.088,0,0,1-6.367-7.767,4.669,4.669,0,0,1-3.249-1.823,6.012,6.012,0,0,1-1.063-5.357,14.344,14.344,0,0,1,2.652-5.055c1.149-1.555,2.376-3.059,3.646-4.519a78.83,78.83,0,0,1,8.511-8.4c1.477-1.262,3.007-2.462,4.571-3.6a25.162,25.162,0,0,1,5.028-3.205c1.5-.613,3.292-.639,4.364.734a2.766,2.766,0,0,1,.544,2.436,3.662,3.662,0,0,1,3.093,6.005,21.284,21.284,0,0,1,6.126,2.272,20.918,20.918,0,0,1,8.8,9.5,21.491,21.491,0,0,1,1.538,12.917,19.284,19.284,0,0,1,4.709,1.227c5.642,2.29,15.561,11.56,17.4,11.12a34.041,34.041,0,0,1,19.587,1.21c.683-.449,1.382-.881,2.083-1.3a52.184,52.184,0,0,1,24.08-7.007c2.929-.112,5.849.216,8.778.1a13.839,13.839,0,0,0,4.191-.734,12.349,12.349,0,0,0,3.577-2.108c2.117-1.71,3.949-3.75,6.1-5.426a37.133,37.133,0,0,1,14.507-6.886,35.449,35.449,0,0,1,7.862-.9,17.639,17.639,0,0,1,7.4,1.46,11.067,11.067,0,0,1,5.21,5.2,36.9,36.9,0,0,1,2.436,7.638A23.348,23.348,0,0,1,244.485,276.681Z" transform="translate(-66.621 -230.071)" fill="#ffb533"/>
            <path id="Trazado_1045448" data-name="Trazado 1045448" d="M98.943,241.884A57.99,57.99,0,0,0,78.03,261c-.308.465.44.9.746.436a57.027,57.027,0,0,1,20.6-18.809C99.869,242.367,99.433,241.621,98.943,241.884Z" transform="translate(-71.054 -234.669)" fill="#332623"/>
            <path id="Trazado_1045449" data-name="Trazado 1045449" d="M102.561,249.813a84.129,84.129,0,0,0-13.4,17.539q-1.561,2.725-2.912,5.562c-.239.5.506.938.746.436a83.245,83.245,0,0,1,11.974-18.39q2.017-2.346,4.2-4.536A.433.433,0,0,0,102.561,249.813Z" transform="translate(-74.278 -237.742)" fill="#332623"/>
            <path id="Trazado_1045450" data-name="Trazado 1045450" d="M118.856,266.569c-1.254-1.151-3.682-1.508-4.888,0l-2.881,3.6a3.748,3.748,0,0,0-1.012,2.444,3.516,3.516,0,0,0,1.012,2.444c1.254,1.151,3.682,1.508,4.888,0l2.881-3.6a3.748,3.748,0,0,0,1.012-2.444A3.513,3.513,0,0,0,118.856,266.569Z" transform="translate(-83.615 -243.953)" fill="#f49f16"/>
            <path id="Trazado_1045451" data-name="Trazado 1045451" d="M105.893,305.436l-2.587-5.072a3.48,3.48,0,0,0-4.729-1.24,3.538,3.538,0,0,0-1.24,4.729l2.587,5.072a3.48,3.48,0,0,0,4.728,1.24A3.538,3.538,0,0,0,105.893,305.436Z" transform="translate(-78.463 -256.892)" fill="#f49f16"/>
            <path id="Trazado_1045452" data-name="Trazado 1045452" d="M141.15,294.39l-5.063-2.116c-1.673-.7-3.873.753-4.251,2.414a3.565,3.565,0,0,0,2.414,4.251l5.063,2.116c1.673.7,3.873-.753,4.251-2.414A3.565,3.565,0,0,0,141.15,294.39Z" transform="translate(-92.083 -254.327)" fill="#f49f16"/>
            <path id="Trazado_1045453" data-name="Trazado 1045453" d="M129.994,325.591q-.35-2.884-.7-5.767c-.217-1.788-1.434-3.546-3.456-3.456-1.686.076-3.689,1.534-3.456,3.456s.466,3.845.7,5.767c.217,1.788,1.434,3.547,3.456,3.456C128.223,328.972,130.227,327.514,129.994,325.591Z" transform="translate(-88.421 -263.818)" fill="#f49f16"/>
            <path id="Trazado_1045454" data-name="Trazado 1045454" d="M165.146,326.3l-3.843-.72a3.533,3.533,0,0,0-4.251,2.414c-.387,1.7.514,3.9,2.414,4.251l3.843.72a3.533,3.533,0,0,0,4.251-2.414C167.947,328.849,167.045,326.653,165.146,326.3Z" transform="translate(-101.952 -267.393)" fill="#f49f16"/>
            <path id="Trazado_1045455" data-name="Trazado 1045455" d="M152.537,345.454a3.456,3.456,0,0,0-6.912,0l.314,5.52a3.456,3.456,0,0,0,6.912,0Z" transform="translate(-97.516 -273.842)" fill="#f49f16"/>
            <path id="Trazado_1045456" data-name="Trazado 1045456" d="M148.972,381.4l-2.162-4.564a3.472,3.472,0,0,0-4.728-1.24,3.549,3.549,0,0,0-1.24,4.729L143,384.889a3.473,3.473,0,0,0,4.729,1.24A3.55,3.55,0,0,0,148.972,381.4Z" transform="translate(-95.482 -286.801)" fill="#f49f16"/>
            <path id="Trazado_1045457" data-name="Trazado 1045457" d="M176.6,364.285a3.542,3.542,0,0,0-4.888,0l-4.882,4.233a3.475,3.475,0,0,0,0,4.888,3.542,3.542,0,0,0,4.888,0l4.882-4.233A3.475,3.475,0,0,0,176.6,364.285Z" transform="translate(-105.419 -282.176)" fill="#f49f16"/>
            <path id="Trazado_1045458" data-name="Trazado 1045458" d="M195.842,340.952l-4.307-3.384a3.764,3.764,0,0,0-2.444-1.012,3.516,3.516,0,0,0-2.444,1.012c-1.142,1.244-1.518,3.695,0,4.888l4.307,3.384a3.764,3.764,0,0,0,2.444,1.012,3.516,3.516,0,0,0,2.444-1.012C196.984,344.6,197.36,342.145,195.842,340.952Z" transform="translate(-113.169 -271.715)" fill="#f49f16"/>
            <path id="Trazado_1045459" data-name="Trazado 1045459" d="M209.011,377.931l-3.382-3.585a3.487,3.487,0,0,0-4.888,0,3.528,3.528,0,0,0,0,4.888l3.382,3.585a3.486,3.486,0,0,0,4.888,0A3.527,3.527,0,0,0,209.011,377.931Z" transform="translate(-118.688 -286.103)" fill="#f49f16"/>
            <path id="Trazado_1045460" data-name="Trazado 1045460" d="M188.854,401.866q-.371-2.761-.741-5.522c-.239-1.785-1.418-3.548-3.456-3.456-1.666.075-3.714,1.537-3.456,3.456q.371,2.761.741,5.522c.239,1.785,1.418,3.548,3.456,3.456C187.065,405.248,189.112,403.785,188.854,401.866Z" transform="translate(-111.422 -293.744)" fill="#f49f16"/>
            <path id="Trazado_1045461" data-name="Trazado 1045461" d="M163.195,414.2l-2.617-5.776c-.77-1.7-3.236-2.112-4.729-1.24a3.538,3.538,0,0,0-1.24,4.728l2.617,5.776c.77,1.7,3.236,2.112,4.728,1.24A3.539,3.539,0,0,0,163.195,414.2Z" transform="translate(-100.871 -299.163)" fill="#f49f16"/>
            <path id="Trazado_1045462" data-name="Trazado 1045462" d="M153.638,437.039l-6.7.892c-1.85.246-3.456,1.412-3.456,3.456,0,1.676,1.592,3.7,3.456,3.456l6.7-.892c1.85-.246,3.456-1.412,3.456-3.456C157.093,438.819,155.5,436.791,153.638,437.039Z" transform="translate(-96.678 -311.004)" fill="#f49f16"/>
            <path id="Trazado_1045463" data-name="Trazado 1045463" d="M198.759,439.253l-2.243-5.491c-.681-1.667-2.329-3.036-4.251-2.414-1.608.521-3.146,2.459-2.414,4.251l2.243,5.491c.681,1.667,2.329,3.036,4.251,2.414C197.954,442.984,199.491,441.045,198.759,439.253Z" transform="translate(-114.74 -308.726)" fill="#f49f16"/>
            <path id="Trazado_1045464" data-name="Trazado 1045464" d="M221.358,410.075a3.542,3.542,0,0,0-4.729-1.24L212.305,411a3.478,3.478,0,0,0-1.24,4.729,3.542,3.542,0,0,0,4.729,1.24l4.324-2.16A3.479,3.479,0,0,0,221.358,410.075Z" transform="translate(-122.927 -299.813)" fill="#f49f16"/>
            <path id="Trazado_1045465" data-name="Trazado 1045465" d="M240.587,441.205l-3.834-6.01a3.457,3.457,0,0,0-5.969,3.489l3.834,6.01a3.457,3.457,0,0,0,5.969-3.489Z" transform="translate(-130.636 -309.627)" fill="#f49f16"/>
            <path id="Trazado_1045466" data-name="Trazado 1045466" d="M176.43,443.908a3.527,3.527,0,0,0-4.251,2.414l-1.656,5.532a3.491,3.491,0,0,0,2.414,4.251,3.527,3.527,0,0,0,4.251-2.414l1.656-5.532A3.492,3.492,0,0,0,176.43,443.908Z" transform="translate(-107.205 -313.66)" fill="#f49f16"/>
            <path id="Trazado_1045467" data-name="Trazado 1045467" d="M252.33,418.043l-4.8.466a3.534,3.534,0,0,0-3.456,3.456c.077,1.723,1.529,3.643,3.456,3.456l4.8-.466a3.534,3.534,0,0,0,3.456-3.456C255.709,419.776,254.257,417.856,252.33,418.043Z" transform="translate(-136.016 -303.578)" fill="#f49f16"/>
            <path id="Trazado_1045468" data-name="Trazado 1045468" d="M223.568,453.586l-6.246-1.917a3.457,3.457,0,0,0-1.838,6.665l6.246,1.917a3.457,3.457,0,0,0,1.838-6.665Z" transform="translate(-123.847 -316.681)" fill="#f49f16"/>
            <path id="Trazado_1045469" data-name="Trazado 1045469" d="M270.7,439.81a3.52,3.52,0,0,0-4.888,0l-4.834,4.774a3.456,3.456,0,0,0,4.888,4.888L270.7,444.7A3.5,3.5,0,0,0,270.7,439.81Z" transform="translate(-142.242 -311.71)" fill="#f49f16"/>
            <path id="Trazado_1045470" data-name="Trazado 1045470" d="M280.533,405.988l-1.969-5.507a3.527,3.527,0,0,0-4.251-2.414c-1.673.541-3.065,2.429-2.414,4.251l1.969,5.507a3.527,3.527,0,0,0,4.251,2.414C279.792,409.7,281.185,407.811,280.533,405.988Z" transform="translate(-146.837 -295.712)" fill="#f49f16"/>
            <path id="Trazado_1045471" data-name="Trazado 1045471" d="M258.491,393.56l-2.335-5.313c-.73-1.661-3.284-2.171-4.729-1.24a3.561,3.561,0,0,0-1.24,4.729l2.335,5.313c.73,1.661,3.284,2.171,4.729,1.24A3.563,3.563,0,0,0,258.491,393.56Z" transform="translate(-138.25 -291.265)" fill="#f49f16"/>
            <path id="Trazado_1045472" data-name="Trazado 1045472" d="M241,372.95c-.944-1.465-3.148-2.352-4.729-1.24l-5.069,3.566a3.531,3.531,0,0,0-1.24,4.729c.944,1.465,3.148,2.352,4.729,1.24l5.069-3.566A3.531,3.531,0,0,0,241,372.95Z" transform="translate(-130.311 -285.267)" fill="#f49f16"/>
            <path id="Trazado_1045473" data-name="Trazado 1045473" d="M228.758,345.45a3.456,3.456,0,1,0-6.912,0q.161,2.287.321,4.575a3.456,3.456,0,0,0,6.912,0Q228.919,347.738,228.758,345.45Z" transform="translate(-127.323 -273.84)" fill="#f49f16"/>
            <path id="Trazado_1045474" data-name="Trazado 1045474" d="M262.928,359.736l-3.125-4.082a3.8,3.8,0,0,0-2.065-1.588,3.532,3.532,0,0,0-2.663.348c-1.413.911-2.416,3.193-1.24,4.728l3.125,4.082a3.8,3.8,0,0,0,2.065,1.588,3.534,3.534,0,0,0,2.663-.348C263.1,363.553,264.1,361.271,262.928,359.736Z" transform="translate(-139.634 -278.518)" fill="#f49f16"/>
            <path id="Trazado_1045475" data-name="Trazado 1045475" d="M253.47,328.45c-1.239-1.137-3.7-1.523-4.888,0l-2.629,3.373a3.775,3.775,0,0,0-1.012,2.444,3.516,3.516,0,0,0,1.012,2.444c1.239,1.137,3.7,1.523,4.888,0l2.629-3.373a3.775,3.775,0,0,0,1.012-2.444A3.516,3.516,0,0,0,253.47,328.45Z" transform="translate(-136.358 -268.153)" fill="#f49f16"/>
            <path id="Trazado_1045476" data-name="Trazado 1045476" d="M264.1,306.765l-2.171-5.28c-.685-1.665-2.325-3.037-4.251-2.414-1.6.519-3.15,2.461-2.414,4.251l2.171,5.28c.685,1.665,2.325,3.037,4.251,2.414C263.293,310.5,264.838,308.555,264.1,306.765Z" transform="translate(-140.322 -256.995)" fill="#f49f16"/>
            <path id="Trazado_1045477" data-name="Trazado 1045477" d="M285.457,324.8a3.512,3.512,0,0,0-4.888,0l-3.636,3.811a3.456,3.456,0,0,0,4.888,4.888l3.636-3.811A3.505,3.505,0,0,0,285.457,324.8Z" transform="translate(-148.481 -266.732)" fill="#f49f16"/>
            <path id="Trazado_1045478" data-name="Trazado 1045478" d="M293.657,299.815l-4.564-1.922c-1.671-.7-3.874.756-4.251,2.414a3.567,3.567,0,0,0,2.414,4.251l4.564,1.922c1.672.7,3.874-.756,4.252-2.414A3.566,3.566,0,0,0,293.657,299.815Z" transform="translate(-151.921 -256.524)" fill="#f49f16"/>
            <path id="Trazado_1045479" data-name="Trazado 1045479" d="M317.092,290.424l-2.4-2.642a3.481,3.481,0,0,0-4.888,0,3.533,3.533,0,0,0,0,4.888l2.4,2.642a3.481,3.481,0,0,0,4.888,0A3.534,3.534,0,0,0,317.092,290.424Z" transform="translate(-161.34 -252.248)" fill="#f49f16"/>
            <path id="Trazado_1045480" data-name="Trazado 1045480" d="M310.934,311.752c-1.709-.389-3.883.516-4.251,2.414q-.49,2.52-.979,5.041a3.529,3.529,0,0,0,2.414,4.251c1.709.389,3.883-.516,4.251-2.414q.49-2.52.979-5.041A3.53,3.53,0,0,0,310.934,311.752Z" transform="translate(-160.092 -261.98)" fill="#f49f16"/>
            <path id="Trazado_1045481" data-name="Trazado 1045481" d="M333.927,307.094l-3.362-1.681a3.457,3.457,0,1,0-3.489,5.969l3.362,1.681a3.457,3.457,0,1,0,3.489-5.969Z" transform="translate(-167.826 -259.371)" fill="#f49f16"/>
            <path id="Trazado_1045482" data-name="Trazado 1045482" d="M340.335,286.962l-2.164-2.88a3.78,3.78,0,0,0-2.065-1.588,3.534,3.534,0,0,0-2.663.348,3.486,3.486,0,0,0-1.588,2.065,3.355,3.355,0,0,0,.348,2.663l2.165,2.88a3.78,3.78,0,0,0,2.065,1.588,3.534,3.534,0,0,0,2.663-.348,3.486,3.486,0,0,0,1.588-2.065A3.358,3.358,0,0,0,340.335,286.962Z" transform="translate(-170.302 -250.527)" fill="#f49f16"/>
            <path id="Trazado_1045483" data-name="Trazado 1045483" d="M189.888,317.385l-5.52-1.694a3.489,3.489,0,0,0-4.251,2.414,3.529,3.529,0,0,0,2.414,4.251l5.52,1.694a3.489,3.489,0,0,0,4.251-2.414A3.528,3.528,0,0,0,189.888,317.385Z" transform="translate(-110.968 -263.505)" fill="#f49f16"/>
            <path id="Trazado_1045484" data-name="Trazado 1045484" d="M229.694,321.594l-6.486,1.8c-4.281,1.186-2.463,7.857,1.838,6.665l6.486-1.8C235.813,327.073,234,320.4,229.694,321.594Z" transform="translate(-126.904 -265.808)" fill="#f49f16"/>
            <path id="Trazado_1045485" data-name="Trazado 1045485" d="M230.72,466.022a39.737,39.737,0,0,1-21.89-1.47c-.524-.189-.75.645-.23.833a40.589,40.589,0,0,0,22.35,1.47C231.493,466.738,231.263,465.9,230.72,466.022Z" transform="translate(-122.031 -321.761)" fill="#332623"/>
            <path id="Trazado_1045486" data-name="Trazado 1045486" d="M270.28,449.635a40.716,40.716,0,0,1-18.531,9.7c-.542.122-.312.956.23.833a41.59,41.59,0,0,0,18.912-9.924C271.3,449.869,270.689,449.259,270.28,449.635Z" transform="translate(-138.9 -315.892)" fill="#332623"/>
            <path id="Trazado_1045487" data-name="Trazado 1045487" d="M213.891,374.31A141.562,141.562,0,0,0,176.9,390.3q-4.862,2.989-9.469,6.366c-.444.325-.013,1.075.436.746a140.506,140.506,0,0,1,35.462-18.87q5.325-1.915,10.793-3.4A.432.432,0,0,0,213.891,374.31Z" transform="translate(-105.972 -286.473)" fill="#332623"/>
            <path id="Trazado_1045488" data-name="Trazado 1045488" d="M210.7,397.158l-21.2,5.468-6.028,1.555a.432.432,0,0,0,.23.833l21.2-5.468,6.028-1.555A.432.432,0,0,0,210.7,397.158Z" transform="translate(-112.199 -295.409)" fill="#332623"/>
          </g>
          <g id="Grupo_1201372" data-name="Grupo 1201372" transform="translate(30.525 34.128)">
            <path id="Trazado_1045489" data-name="Trazado 1045489" d="M214.3,303.54l1.446,4.054s-8.608,2.95-15.855,1.031l1.018-3.748Z" transform="translate(-145.928 -211.491)" fill="#ff7550"/>
            <path id="Trazado_1045490" data-name="Trazado 1045490" d="M136.819,240.123a12.525,12.525,0,0,0,2.526-.071c4.854,17.07,21.83,20.32,41.533,17.794s35.31-9.953,35.7-27.7a13.664,13.664,0,0,0-.927-27.007,12.565,12.565,0,0,0-7.2,1.672c-8.438-12.481-22.392-21.241-36.858-19.387-14.415,1.848-25.691,13.773-30.724,27.92a13.108,13.108,0,0,0-2.16-.342c-7.181-.5-13.432,5.172-13.952,12.66S129.639,239.624,136.819,240.123Z" transform="translate(-116.529 -165.2)" fill="#fc9f7e"/>
            <path id="Trazado_1045491" data-name="Trazado 1045491" d="M261.459,270.095a25.986,25.986,0,0,0,6.919-27.323c-.176-.525.62-.861.8-.334a26.846,26.846,0,0,1-7.189,28.341C261.579,271.159,261.055,270.471,261.459,270.095Z" transform="translate(-169.948 -187.491)" fill="#332623"/>
            <path id="Trazado_1045492" data-name="Trazado 1045492" d="M145.812,259.29a26.644,26.644,0,0,1,.991-8.305c.15-.533.945-.192.8.338a25.37,25.37,0,0,0,13.07,29.565c.494.248.161,1.046-.338.8A26.4,26.4,0,0,1,145.812,259.29Z" transform="translate(-124.769 -190.833)" fill="#332623"/>
            <path id="Trazado_1045493" data-name="Trazado 1045493" d="M132.131,250.8c.1-.546.952-.428.856.122-.271,1.553.091,3.418,1.7,4.087,1.59.662,2.775-.547,3.177-2a10.173,10.173,0,0,0-1.639-8.069,10.481,10.481,0,0,0-3.555-3.289c-.481-.267-.149-1.066.338-.8a11.759,11.759,0,0,1,5.793,8.176,8.788,8.788,0,0,1-.384,4.991,3.082,3.082,0,0,1-3.85,1.864C132.45,255.179,131.78,252.818,132.131,250.8Z" transform="translate(-119.392 -186.957)" fill="#332623"/>
            <path id="Trazado_1045494" data-name="Trazado 1045494" d="M277.868,228.388c.265-1.887.673-4.191,2.434-5.276a2.687,2.687,0,0,1,2.755-.156A2.211,2.211,0,0,1,284.2,225.2a.432.432,0,0,1-.855-.122,1.4,1.4,0,0,0-.98-1.494,2.112,2.112,0,0,0-2.005.56c-1.182,1.045-1.43,2.894-1.637,4.37a16.935,16.935,0,0,0,.01,5.086c.227,1.4.631,3.639,2.115,4.251a1.476,1.476,0,0,0,1.932-.874,4.835,4.835,0,0,0,.052-2.852c-.093-.549.764-.658.857-.11.287,1.686.368,4.255-1.771,4.766-2.16.516-3.265-1.927-3.716-3.58A16.977,16.977,0,0,1,277.868,228.388Z" transform="translate(-176.346 -179.855)" fill="#332623"/>
            <circle id="Elipse_13070" data-name="Elipse 13070" cx="6.816" cy="6.816" r="6.816" transform="translate(79.263 56.539)" fill="#f27a51"/>
            <circle id="Elipse_13071" data-name="Elipse 13071" cx="6.816" cy="6.816" r="6.816" transform="translate(31.02 62.723)" fill="#f27a51"/>
            <ellipse id="Elipse_13072" data-name="Elipse 13072" cx="3.714" cy="4.594" rx="3.714" ry="4.594" transform="translate(70.895 51.666) rotate(-7.308)" fill="#332623"/>
            <ellipse id="Elipse_13073" data-name="Elipse 13073" cx="3.714" cy="4.594" rx="3.714" ry="4.594" transform="translate(42.885 55.258) rotate(-7.308)" fill="#332623"/>
            <path id="Trazado_1045495" data-name="Trazado 1045495" d="M191.338,272.442a8.853,8.853,0,0,0,8.419,4.357,10.246,10.246,0,0,0,4.9-1.89c1.268-.886,2.688-2.085,2.8-3.749a3.585,3.585,0,0,0-2.587-3.446,7.048,7.048,0,0,0-4.859.526,9.232,9.232,0,0,0-2.57-2.667c-1.4-.954-3.387-1.813-5.082-1.231C189.091,265.448,190.037,270.2,191.338,272.442Z" transform="translate(-142.111 -196.087)" fill="#332623"/>
            <path id="Trazado_1045496" data-name="Trazado 1045496" d="M205.6,197.536a.429.429,0,0,1-.717.181.623.623,0,0,1-.1-.06q-4.782-4.821-9.565-9.634a33.266,33.266,0,0,1-3.543,2.765c-5.944,4.044-12.978,6.169-20.036,7.18-5.815.838-12.053,1.21-17.687-.674a36.529,36.529,0,0,1-3.724,7.241c-3.076,4.407-8.156,7.906-13.746,6.593a8.19,8.19,0,0,1-5.642-4.415,7.426,7.426,0,0,1-.268-5.824c-2.834,1-5.91,1.9-8.882,1.141a7.356,7.356,0,0,1-4.933-4.113,5.473,5.473,0,0,1,1.745-6.169c3.508-3.188,8.8-4.225,13.41-3.352a25.227,25.227,0,0,1-5.055-7.249,10.782,10.782,0,0,1-.363-7.552,7.123,7.123,0,0,1,5.2-4.83,9.874,9.874,0,0,1,7.862,2.143,25.131,25.131,0,0,1,5.366,6.5,35.55,35.55,0,0,1,7.3-8.13c5.167-4.164,11.716-6.713,18.413-5.9,5.9.709,11.63,3.819,14.68,9.021a10.076,10.076,0,0,1,6.783-3.974,11.788,11.788,0,0,1,7.8,1.52,15.3,15.3,0,0,1,5.763,6.618C208.794,183.211,207.524,190.736,205.6,197.536Z" transform="translate(-113.268 -156.616)" fill="#332623"/>
            <path id="Trazado_1045497" data-name="Trazado 1045497" d="M143.661,179.65c-1.262-3.345-2.771-6.707-5.293-9.306a11.669,11.669,0,0,0-8.955-3.77,9.115,9.115,0,0,0-7.339,5.156,11.707,11.707,0,0,0,.035,9.86,16.721,16.721,0,0,0,5.836,6.835,17.2,17.2,0,0,0-7.27.321,14.408,14.408,0,0,0-8.177,5.271,7.233,7.233,0,0,0,.435,8.637,10.33,10.33,0,0,0,8.78,3.615c4.31-.182,8.186-2.272,11.868-4.331a.432.432,0,0,0-.436-.746c-3.046,1.7-6.186,3.435-9.668,4.027-3.093.526-6.643.083-9.009-2.148a6.632,6.632,0,0,1-1.661-7.909c1.448-2.677,4.451-4.439,7.267-5.341a16.255,16.255,0,0,1,10.38.142c.463.164.76-.558.333-.79a18.184,18.184,0,0,1-7.152-6.492,11.488,11.488,0,0,1-1.259-9.461,8.556,8.556,0,0,1,6.076-5.645c3.107-.663,6.386.7,8.674,2.771,2.792,2.529,4.393,6.072,5.7,9.533C143.023,180.395,143.858,180.172,143.661,179.65Z" transform="translate(-111.268 -157.916)" fill="#332623"/>
            <path id="Trazado_1045498" data-name="Trazado 1045498" d="M233.324,156.71a34.374,34.374,0,0,1-3.423,10.915c-.252.494.493.932.746.436a35.073,35.073,0,0,0,3.51-11.121C234.233,156.4,233.4,156.161,233.324,156.71Z" transform="translate(-157.643 -153.946)" fill="#332623"/>
            <path id="Trazado_1045499" data-name="Trazado 1045499" d="M227.911,152.681c-.127-.541-.96-.312-.833.23a41.4,41.4,0,0,1,1.032,11.574c-.029.556.835.554.864,0A42.266,42.266,0,0,0,227.911,152.681Z" transform="translate(-156.554 -152.372)" fill="#332623"/>
            <path id="Trazado_1045500" data-name="Trazado 1045500" d="M220.229,163.3A19.743,19.743,0,0,0,211,152.761c-.491-.259-.929.487-.436.746a18.847,18.847,0,0,1,8.837,10.025C219.588,164.049,220.424,163.826,220.229,163.3Z" transform="translate(-150.014 -152.503)" fill="#332623"/>
            <path id="Trazado_1045501" data-name="Trazado 1045501" d="M219.519,255.277a14.546,14.546,0,0,1-2.551,1.382,6.007,6.007,0,0,1-2.369.518,3.617,3.617,0,0,1-1.376-.2c-1.949-.682-2.978-2.594-3.532-4.457-.548-1.833-1.017-3.934-.311-5.791a3.648,3.648,0,0,1,3.733-2.533c1.839.225,2.521,2.016,2.771,3.617a7.728,7.728,0,0,0,.731,2.838,2.4,2.4,0,0,0,.9.913,5.149,5.149,0,0,0,1.48.353,1.831,1.831,0,0,1,1.662,1.37A2.16,2.16,0,0,1,219.519,255.277Z" transform="translate(-149.498 -188.273)" fill="#f27a51"/>
            <path id="Trazado_1045502" data-name="Trazado 1045502" d="M184.174,229.336a2.154,2.154,0,0,0-2.916-.765l-2.469,1.843a2.325,2.325,0,0,0-.979,1.274,2.132,2.132,0,0,0,3.131,2.407l2.469-1.843a2.323,2.323,0,0,0,.979-1.274A2.181,2.181,0,0,0,184.174,229.336Z" transform="translate(-137.263 -182.049)" fill="#332623"/>
            <path id="Trazado_1045503" data-name="Trazado 1045503" d="M237.177,224.659l-2.523-1.135a2.186,2.186,0,0,0-2.916.765,2.156,2.156,0,0,0,.765,2.916l2.523,1.135a2.186,2.186,0,0,0,2.916-.765A2.157,2.157,0,0,0,237.177,224.659Z" transform="translate(-158.279 -180.102)" fill="#332623"/>
          </g>
        </g>
        <g id="Grupo_1201379" data-name="Grupo 1201379" transform="translate(218.158 48.629)">
          <path id="Trazado_1045504" data-name="Trazado 1045504" d="M456.445,428.163l-18.9,43.937H542.411l-1.25-19.115Z" transform="translate(-410.619 -252.716)" fill="#332623"/>
          <g id="Grupo_1201374" data-name="Grupo 1201374" transform="translate(48.643)">
            <path id="Trazado_1045505" data-name="Trazado 1045505" d="M576.921,231.507a78.9,78.9,0,0,1-68.664,10.014c-11.457-3.776-34.509-17.98-35.045-19.233,0,0,6.645-27.269,12.191-37.792a76.125,76.125,0,0,1,10.576-15.345c.069-.078.138-.164.216-.242a51.6,51.6,0,0,1,23.873-15.569c6.653-2,13.859-2.609,20.546-.726,7.672,2.169,14.187,7.509,18.9,13.937s7.759,13.928,10.17,21.523A155.126,155.126,0,0,1,576.921,231.507Z" transform="translate(-473.213 -144.51)" fill="#332623"/>
            <path id="Trazado_1045506" data-name="Trazado 1045506" d="M540.395,291.979l-1.626,3.985s8.467,3.333,15.792,1.741l-.848-3.79Z" transform="translate(-498.851 -199.457)" fill="#ff7550"/>
            <path id="Trazado_1045507" data-name="Trazado 1045507" d="M563.916,231.035a12.522,12.522,0,0,1-2.52-.184c-5.615,16.835-22.72,19.32-42.289,15.913s-34.828-11.528-34.421-29.278a13.664,13.664,0,0,1,2.138-26.938,12.566,12.566,0,0,1,7.116,1.993c8.989-12.09,23.323-20.215,37.691-17.713,14.318,2.493,25.047,14.912,29.441,29.27a13.072,13.072,0,0,1,2.174-.244c7.2-.177,13.186,5.769,13.37,13.273S571.113,230.858,563.916,231.035Z" transform="translate(-473.567 -153.464)" fill="#fcb190"/>
            <path id="Trazado_1045508" data-name="Trazado 1045508" d="M498.86,256.651a25.984,25.984,0,0,1-5.687-27.606c.2-.516-.581-.888-.781-.369a26.846,26.846,0,0,0,5.91,28.636C498.692,257.709,499.247,257.045,498.86,256.651Z" transform="translate(-480.004 -174.603)" fill="#332623"/>
            <path id="Trazado_1045509" data-name="Trazado 1045509" d="M610.51,251.223a26.65,26.65,0,0,0-.617-8.341c-.127-.54-.935-.234-.81.3a25.37,25.37,0,0,1-14.383,28.95c-.505.225-.208,1.037.3.81A26.4,26.4,0,0,0,610.51,251.223Z" transform="translate(-520.622 -180.146)" fill="#332623"/>
            <path id="Trazado_1045510" data-name="Trazado 1045510" d="M630.384,243.376c-.071-.55-.932-.47-.86.083.2,1.564-.245,3.41-1.881,4.007-1.618.589-2.747-.672-3.084-2.141a10.174,10.174,0,0,1,2-7.987,10.473,10.473,0,0,1,3.7-3.126c.493-.245.2-1.058-.3-.81a11.757,11.757,0,0,0-6.154,7.908,8.787,8.787,0,0,0,.159,5,3.082,3.082,0,0,0,3.763,2.036C629.87,247.732,630.644,245.4,630.384,243.376Z" transform="translate(-531.993 -176.531)" fill="#332623"/>
            <path id="Trazado_1045511" data-name="Trazado 1045511" d="M486.223,214.344c-.18-1.9-.484-4.217-2.195-5.379a2.685,2.685,0,0,0-2.746-.279,2.211,2.211,0,0,0-1.243,2.185.432.432,0,0,0,.86-.083,1.4,1.4,0,0,1,1.046-1.449,2.11,2.11,0,0,1,1.978.65c1.134,1.1,1.3,2.955,1.44,4.439a16.954,16.954,0,0,1-.237,5.081c-.29,1.384-.793,3.607-2.3,4.152a1.475,1.475,0,0,1-1.891-.96,4.833,4.833,0,0,1,.076-2.851c.117-.544-.734-.691-.851-.148-.362,1.671-.559,4.234,1.556,4.841,2.135.612,3.348-1.779,3.872-3.409A16.974,16.974,0,0,0,486.223,214.344Z" transform="translate(-475.839 -166.781)" fill="#332623"/>
            <circle id="Elipse_13074" data-name="Elipse 13074" cx="6.816" cy="6.816" r="6.816" transform="translate(18.33 56.246)" fill="#ff8b6c"/>
            <circle id="Elipse_13075" data-name="Elipse 13075" cx="6.816" cy="6.816" r="6.816" transform="translate(66.247 64.589)" fill="#ff8b6c"/>
            <ellipse id="Elipse_13076" data-name="Elipse 13076" cx="4.594" cy="3.714" rx="4.594" ry="3.714" transform="translate(31.946 59.836) rotate(-80.125)" fill="#332623"/>
            <ellipse id="Elipse_13077" data-name="Elipse 13077" cx="4.594" cy="3.714" rx="4.594" ry="3.714" transform="translate(59.766 64.68) rotate(-80.125)" fill="#332623"/>
            <path id="Trazado_1045512" data-name="Trazado 1045512" d="M547.783,244.424a3.748,3.748,0,0,1-2.221,2.679,6.409,6.409,0,0,1-3.94.3c-1.711-.337-5.919-1.279-4.64-3.931a7.142,7.142,0,0,1,2.774-2.48c.363-.276.743-.536,1.132-.778a11.4,11.4,0,0,1,3.015-1.374.031.031,0,0,1,.026-.009.053.053,0,0,1,.035-.009,4.682,4.682,0,0,1,1.132-.147,2.518,2.518,0,0,1,2.436,2.03A8.215,8.215,0,0,1,547.783,244.424Z" transform="translate(-498.059 -178.613)" fill="#f27a51"/>
            <path id="Trazado_1045513" data-name="Trazado 1045513" d="M559.267,261.5a8.853,8.853,0,0,1-8.606,3.974,10.25,10.25,0,0,1-4.813-2.108c-1.227-.942-2.592-2.2-2.627-3.871a3.586,3.586,0,0,1,2.739-3.327,7.05,7.05,0,0,1,4.83.743,9.232,9.232,0,0,1,2.687-2.549c1.443-.89,3.465-1.659,5.132-1C561.825,254.614,560.667,259.323,559.267,261.5Z" transform="translate(-500.592 -184.258)" fill="#332623"/>
            <path id="Trazado_1045514" data-name="Trazado 1045514" d="M567.9,201.353q-1.776-6.649-3.577-13.306.4,6.973.328,13.937a76.108,76.108,0,0,1-17.522.864q.1-7.5.934-14.973-3.072,7.258-6.152,14.515c-2.843-.32-5.676-.769-8.476-1.322-2.722-.536-5.443-1.167-8.113-1.97a74.287,74.287,0,0,0,1.823-14.61q-3.8,6.273-7.6,12.563a44.029,44.029,0,0,1-5.927-3.024,33.068,33.068,0,0,1-9.02-8.053c3.707-8.295,11.293-14.515,19.535-18.49,8.623-4.156,18.9-6.169,27.752-2.54,6.679,2.739,11.828,8.433,15.164,14.835,3.257,6.238,4.951,13.176,6.316,20.08C571.561,200.445,569.737,200.937,567.9,201.353Z" transform="translate(-485.488 -149.037)" fill="#332623"/>
            <path id="Trazado_1045515" data-name="Trazado 1045515" d="M607.11,142.26a59.56,59.56,0,0,1-1.905,11.524.432.432,0,0,0,.833.23,60.825,60.825,0,0,0,1.936-11.753C608.01,141.7,607.146,141.707,607.11,142.26Z" transform="translate(-524.826 -140.743)" fill="#332623"/>
            <path id="Trazado_1045516" data-name="Trazado 1045516" d="M600.891,152.366a52.524,52.524,0,0,0-4.354-12.112c-.251-.5-1-.06-.746.436a51.636,51.636,0,0,1,4.267,11.906C600.18,153.137,601.013,152.908,600.891,152.366Z" transform="translate(-521.131 -140.035)" fill="#332623"/>
            <path id="Trazado_1045517" data-name="Trazado 1045517" d="M592.893,150.94a56.308,56.308,0,0,0-10.2-8.241c-.472-.3-.905.45-.436.746a55.319,55.319,0,0,1,10.026,8.106C592.671,151.949,593.282,151.338,592.893,150.94Z" transform="translate(-515.779 -141.05)" fill="#332623"/>
          </g>
          <g id="Grupo_1201378" data-name="Grupo 1201378" transform="translate(0 2.901)">
            <path id="Trazado_1045518" data-name="Trazado 1045518" d="M491.42,165.638c-2.328,7.008-10.518,12.877-17.969,10.087a8.822,8.822,0,0,1-5.8-7.439c-.2-2.937,1.183-5.493,2.174-8.128a20.827,20.827,0,0,0-.332-5.216c-.7-3.75-.419-7.371,3.412-9.262,3.387-1.663,7.556-.745,10.764.905A16.049,16.049,0,0,1,491.42,165.638Z" transform="translate(-422.389 -144.799)" fill="#ffb533"/>
            <path id="Trazado_1045519" data-name="Trazado 1045519" d="M432.04,183.2c-4,3.27-9.656,2.488-13.72,5.511-4.04,3-7.057,7.574-12.68,7.3-5.992-.283-9.514-4.754-10.955-10.062a16.97,16.97,0,0,1,2.439-17.3c6.257-7.833,17.656-9.89,26.621-5.844C430.746,165.963,440.476,176.3,432.04,183.2Z" transform="translate(-393.328 -151.049)" fill="#ff7550"/>
            <g id="Grupo_1201375" data-name="Grupo 1201375" transform="translate(156.947 52.885)">
              <path id="Trazado_1045520" data-name="Trazado 1045520" d="M687.852,312.734c-.553,3.577-4.337,5.78-7.646,6.2-3.205.415-8.165-.786-8.476-4.683-.164-1.978,1.348-3.249,3.059-3.828.734-.242,1.486-.449,2.246-.639,1.227-.51,2.471-.994,3.69-1.512,1.737-.734,3.716-1.262,5.374-.026A4.718,4.718,0,0,1,687.852,312.734Z" transform="translate(-659.148 -261.314)" fill="#ffb533"/>
              <path id="Trazado_1045521" data-name="Trazado 1045521" d="M661.548,276.677c-2.3-1.961-2.48-4.769-1.944-7.569.561-2.947.838-5.591-.138-8.485-1.823-5.383-8.122-7.992-8.217-14.109,0-.043.009-.086.009-.13a12.3,12.3,0,0,1,2.54-9.815c3.413-4.164,9.254-5.7,14.394-4.545,5.53,1.244,10.075,5.3,12.719,10.213,5.391,10.014,4.951,24.538-4.208,32.262C672.728,277.852,666.093,280.548,661.548,276.677Z" transform="translate(-651.075 -231.651)" fill="#60bfb2"/>
              <path id="Trazado_1045522" data-name="Trazado 1045522" d="M705.133,302.089a3.77,3.77,0,0,1-3.612,2.722,5.224,5.224,0,0,1-3.507-2.947,3.3,3.3,0,0,1-.069-2.195,3.81,3.81,0,0,1,1.443-1.9,3.629,3.629,0,0,1,4.467.2A3.924,3.924,0,0,1,705.133,302.089Z" transform="translate(-669.344 -257.245)" fill="#f27a51"/>
            </g>
            <path id="Trazado_1045523" data-name="Trazado 1045523" d="M467.625,231.66,455.9,257.279a17.761,17.761,0,0,1-3.465-3.042c-5.383-5.979-8.735-16.071-10.576-23.294-1.262-4.977-1.806-8.6-1.806-8.6h.009a42.354,42.354,0,0,1-.614-7.318c-.06-9.314,1.815-18.525,3.724-27.649l-.251-.052a21.574,21.574,0,0,1-5.538-15.647,40.787,40.787,0,0,1-8.891-7.4c-.674-.751-1.339-1.892-.709-2.669.544-.691,1.616-.5,2.445-.208a33.289,33.289,0,0,1,10.524,6.005l.147-.164q-2.178-8.242-3.75-16.606c-.181-.994-.216-2.3.708-2.7s1.866.484,2.428,1.322c3.361,4.933,4.856,10.852,6.2,16.676a141.361,141.361,0,0,1-.346-18.646c.035-.674.19-1.495.829-1.685a1.5,1.5,0,0,1,1.408.656,12.7,12.7,0,0,1,2.48,6.109,75.508,75.508,0,0,1,1.391,16.736l.328.009a98.418,98.418,0,0,1,2.428-17.531c.216-.89.674-1.978,1.59-1.988s1.382,1.063,1.6,1.944a46.539,46.539,0,0,1,.32,20.849l.51.1a76.086,76.086,0,0,1,4.286-7.344c.6-.907,1.6-1.927,2.592-1.486s.9,1.858.631,2.92a76.677,76.677,0,0,1-7.88,19.121,213.314,213.314,0,0,1,6.3,37.922c.078.951.138,1.918.155,2.886Z" transform="translate(-406.704 -145.102)" fill="#fcb190"/>
            <path id="Trazado_1045524" data-name="Trazado 1045524" d="M481.36,183.78c.374-.833.787-1.643,1.235-2.423q.335-.585.7-1.147a3.618,3.618,0,0,1,1.026-1.229c1.114-.653,1.895.677,1.471,2.056a5.176,5.176,0,0,1-.2.516,2.054,2.054,0,0,1-.028.237,18.25,18.25,0,0,1-2.112,5.243c-.52.859-1.151,1.908-2.005,1.974-1.027.079-1.415-1.223-1.158-2.431A14.586,14.586,0,0,1,481.36,183.78Z" transform="translate(-427.307 -158.1)" fill="#60bfb2"/>
            <path id="Trazado_1045525" data-name="Trazado 1045525" d="M471.593,161.836a47.093,47.093,0,0,0-1.179,9.712c-.019,1.467.181,3.389,1.728,3.22,1.407-.154,1.877-2.108,2.212-3.472a32.944,32.944,0,0,0,.907-9.566,1.017,1.017,0,0,0-.053-.269c-.022-1.338-.08-3.227-1.377-3.322C472.271,158.027,471.906,160.447,471.593,161.836Z" transform="translate(-423.475 -150.015)" fill="#ff7550"/>
            <path id="Trazado_1045526" data-name="Trazado 1045526" d="M461.368,150.514c.165.421.309.848.445,1.277a1.189,1.189,0,0,1,.376.669,36.423,36.423,0,0,1-.248,16.307c-.291,1.2-2.206,1.254-2.332-.018a127.87,127.87,0,0,1-.526-17.605C459.131,149.921,460.9,149.309,461.368,150.514Z" transform="translate(-419.005 -146.779)" fill="#60bfb2"/>
            <path id="Trazado_1045527" data-name="Trazado 1045527" d="M446.35,154.581a1.742,1.742,0,0,1,1.606,1.063,8.3,8.3,0,0,1,.887,2.558,40.038,40.038,0,0,1,1.715,4.894q.5,1.8.834,3.668c.231,1.285.513,2.99-.885,3.636-1.278.591-2.185-.655-2.519-1.877-.362-1.328-.7-2.669-1.046-4l-1.076-4.118-.508-1.944a6.861,6.861,0,0,1-.406-2.154A1.751,1.751,0,0,1,446.35,154.581Z" transform="translate(-413.515 -148.622)" fill="#ff7550"/>
            <path id="Trazado_1045528" data-name="Trazado 1045528" d="M447.626,188.446c-2.646,3.968.1,8.908,3.918,10.823a17.914,17.914,0,0,0,7.087,1.635c2.1.126,4.838.534,6.053-1.645.981-1.762.6-4.359.216-6.241a7.5,7.5,0,0,0-1.326-3.033,9.667,9.667,0,0,0-4.585-4.256C455.216,184.06,450.037,184.84,447.626,188.446Z" transform="translate(-414.153 -160.478)" fill="#ffb533"/>
            <path id="Trazado_1045529" data-name="Trazado 1045529" d="M431.057,175.942a4.418,4.418,0,0,0,1.059.889c.393.281.789.557,1.183.838.8.559,1.584,1.122,2.374,1.679.44.309.879.617,1.316.933a5.119,5.119,0,0,0,1.411.8c1.212.378,2.49-.121,2.416-1.162-.049-.8-.924-1.426-1.67-1.949-.617-.437-1.254-.839-1.911-1.234a8,8,0,0,0-4.49-2.559,1.778,1.778,0,0,0-1.718.4A1.069,1.069,0,0,0,431.057,175.942Z" transform="translate(-407.98 -156.266)" fill="#ffb533"/>
            <path id="Trazado_1045530" data-name="Trazado 1045530" d="M468.693,210.756a52.083,52.083,0,0,1-18.862,2.087c-1.664-.121-1.657,2.472,0,2.592a54.194,54.194,0,0,0,19.552-2.179A1.3,1.3,0,0,0,468.693,210.756Z" transform="translate(-414.938 -170.57)" fill="#f27a51"/>
            <path id="Trazado_1045531" data-name="Trazado 1045531" d="M467.658,216.6a73.955,73.955,0,0,1-20.591,5.529c-1.637.193-1.656,2.787,0,2.592a78.206,78.206,0,0,0,21.9-5.883C470.494,218.177,469.176,215.943,467.658,216.6Z" transform="translate(-413.861 -172.832)" fill="#60bfb2"/>
            <path id="Trazado_1045532" data-name="Trazado 1045532" d="M511.039,294s-19.613-4.787-27.641-7.047l-15.534,28.544,11.649,10.571L468.3,372.937s19.337,28.1,48.721,34.11,36-9.287,36-9.287l-5.092-58.231,8.006,4.662,13.45-33.5s-18.014-16.49-42.554-14.949Z" transform="translate(-422.478 -200.392)" fill="#fff"/>
            <path id="Trazado_1045533" data-name="Trazado 1045533" d="M491.988,293.955l-8.916,24.358c-.191.523.643.748.833.23l8.916-24.358C493.012,293.662,492.178,293.436,491.988,293.955Z" transform="translate(-428.414 -203.016)" fill="#332623"/>
            <path id="Trazado_1045534" data-name="Trazado 1045534" d="M497.949,304.164Q495.976,310.5,494,316.832c-.166.532.668.76.833.23q1.973-6.334,3.945-12.668C498.948,303.862,498.114,303.634,497.949,304.164Z" transform="translate(-432.692 -207.006)" fill="#332623"/>
            <path id="Trazado_1045535" data-name="Trazado 1045535" d="M554.845,303.243a10.843,10.843,0,0,1-7.958,6.284,10.3,10.3,0,0,1-9.323-3.24,10.5,10.5,0,0,1-2.661-5.181c-.1-.546-.938-.314-.833.23a11.681,11.681,0,0,0,6.885,8.362,11.165,11.165,0,0,0,10.788-1.323,11.409,11.409,0,0,0,3.935-4.9C555.893,302.96,555.057,302.736,554.845,303.243Z" transform="translate(-448.366 -205.806)" fill="#332623"/>
            <path id="Trazado_1045536" data-name="Trazado 1045536" d="M621.716,328.228l-9.313,20.2-2.654,5.758c-.231.5.513.941.746.436l9.313-20.2,2.654-5.758C622.693,328.163,621.948,327.724,621.716,328.228Z" transform="translate(-477.949 -216.447)" fill="#332623"/>
            <path id="Trazado_1045537" data-name="Trazado 1045537" d="M553.192,457.967c-6.643,7.074-17.3,6.671-26.027,4.727a63,63,0,0,1-22.911-10.279,62.02,62.02,0,0,1-10.578-9.611c-.367-.419-.975.194-.611.611A63.733,63.733,0,0,0,526,463.312a43.542,43.542,0,0,0,14.543,1.338,21,21,0,0,0,13.256-6.072C554.184,458.173,553.574,457.561,553.192,457.967Z" transform="translate(-432.29 -261.288)" fill="#332623"/>
            <path id="Trazado_1045538" data-name="Trazado 1045538" d="M578.855,460.537a15.61,15.61,0,0,1-10.8,5.007c-.554.022-.557.886,0,.864a16.489,16.489,0,0,0,11.411-5.26C579.842,460.74,579.233,460.127,578.855,460.537Z" transform="translate(-461.498 -268.225)" fill="#332623"/>
            <g id="Grupo_1201376" data-name="Grupo 1201376" transform="translate(60.887 122.14)">
              <path id="Trazado_1045539" data-name="Trazado 1045539" d="M541.939,395.335c-.521-3.99.267-8.037-1.209-11.892a9.646,9.646,0,0,0-7.512-6.347c-7.518-.941-12.753,8.789-15,14.584-1.61,4.158,4.925,6.418,6.528,2.277.859-2.217,4.827-11.156,8.216-9.791,3.191,1.286,1.854,9.9,2.2,12.56C535.742,401.132,542.514,399.734,541.939,395.335Z" transform="translate(-502.96 -357.761)" fill="#ffc261"/>
              <path id="Trazado_1045540" data-name="Trazado 1045540" d="M532.222,361.841c-14.251-2.828-22.049,11.677-26.37,22.62-1.637,4.147,4.9,6.405,6.528,2.277,2.916-7.383,8.017-19.875,18.184-18.221,10.643,1.732,8.669,16.711,7.566,24.074-.659,4.4,6.241,4.835,6.9.46C546.719,381.757,546.629,364.7,532.222,361.841Z" transform="translate(-498.12 -351.68)" fill="#60bfb2"/>
              <path id="Trazado_1045541" data-name="Trazado 1045541" d="M547.739,360.807c-2.965-7.579-9.038-13.573-17.212-15.017-19.035-3.362-30.735,14.807-36.927,29.861-1.7,4.123,4.842,6.377,6.528,2.277,4.824-11.73,13.756-27.868,29.02-25.372,15.8,2.583,14.539,22.694,13.329,34.435-.456,4.428,6.441,4.882,6.9.46C550.29,378.561,551.069,369.321,547.739,360.807Z" transform="translate(-493.321 -345.384)" fill="#ff7550"/>
            </g>
            <path id="Trazado_1045542" data-name="Trazado 1045542" d="M464.965,306.175a6.5,6.5,0,0,1-3.327,1.607c-5.383-5.979-8.735-16.071-10.576-23.294A5.9,5.9,0,0,1,453.1,283a7.4,7.4,0,0,1,7.266,1.141c4.407,3.275,6.593,9.556,6.86,14.853C467.358,301.527,466.917,304.378,464.965,306.175Z" transform="translate(-415.907 -198.647)" fill="#ff8b6c"/>
            <g id="Grupo_1201377" data-name="Grupo 1201377" transform="translate(129.004 61.139)">
              <path id="Trazado_1045543" data-name="Trazado 1045543" d="M657.512,268.2A40.332,40.332,0,0,1,647,273a21.555,21.555,0,0,1-9.444,13.651l-.25-.017c-.553,9.314-1.158,18.689-3.655,27.666a34.45,34.45,0,0,1-5.02,11.155c-.328.449-.674.881-1.037,1.3-3.033,3.534-7.491,6.057-12.157,5.9a11.131,11.131,0,0,1-9.228-5.581,8.221,8.221,0,0,1-.873-2.48c-.527-2.929.441-5.9,1.443-8.7a213.538,213.538,0,0,1,16.019-34.95,76.473,76.473,0,0,1-2.592-20.512c.017-1.1.3-2.479,1.374-2.652s1.771,1.08,2.108,2.108a75.3,75.3,0,0,1,2.212,8.217l.518.035a46.748,46.748,0,0,1,5.772-20.036c.441-.795,1.184-1.693,2.056-1.452s1.037,1.417,1.011,2.333a98.444,98.444,0,0,1-2.246,17.557l.32.078a74.826,74.826,0,0,1,5.729-15.786,12.572,12.572,0,0,1,3.991-5.245,1.507,1.507,0,0,1,1.53-.268c.571.346.5,1.184.354,1.84a140.239,140.239,0,0,1-5.219,17.911c2.834-5.271,5.824-10.593,10.36-14.472.76-.656,1.91-1.27,2.7-.631s.406,1.883-.035,2.791q-3.707,7.647-7.967,15.034l.1.2a33.448,33.448,0,0,1,11.733-3.032c.873-.069,1.961.035,2.307.838C659.3,266.728,658.368,267.652,657.512,268.2Z" transform="translate(-605.186 -245.206)" fill="#fcb190"/>
              <path id="Trazado_1045544" data-name="Trazado 1045544" d="M629.284,373.909c-.328.449-.674.881-1.037,1.3-3.033,3.534-7.491,6.057-12.157,5.9a11.131,11.131,0,0,1-9.228-5.581,9.015,9.015,0,0,1,.691-1c2.756-3.439,7.828-5.331,12.139-5.426A10.953,10.953,0,0,1,629.284,373.909Z" transform="translate(-605.841 -293.659)" fill="#ff8b6c"/>
              <path id="Trazado_1045545" data-name="Trazado 1045545" d="M633.927,273.357a26.148,26.148,0,0,0-.514-2.676q-.163-.657-.357-1.3a3.515,3.515,0,0,0-.667-1.472c-.932-.946-2.132.1-2.122,1.545a4.844,4.844,0,0,0,.041.551,2.055,2.055,0,0,0-.044.235,17.241,17.241,0,0,0,.544,5.629c.266.972.587,2.159,1.435,2.467,1.019.371,1.811-.764,1.919-1.994A13.791,13.791,0,0,0,633.927,273.357Z" transform="translate(-614.978 -253.944)" fill="#60bfb2"/>
              <path id="Trazado_1045546" data-name="Trazado 1045546" d="M648.018,252.919c-1.257-.283-1.85,1.51-2.252,2.785a1.013,1.013,0,0,0-.127.242,33.2,33.2,0,0,0-1.868,9.421c-.071,1.4-.181,3.41,1.108,3.962,1.419.608,2.156-1.176,2.556-2.586a47.523,47.523,0,0,0,1.651-9.64C649.187,255.682,649.531,253.259,648.018,252.919Z" transform="translate(-620.261 -248.211)" fill="#ff7550"/>
              <path id="Trazado_1045547" data-name="Trazado 1045547" d="M661.654,249.926c-.256.337-.5.686-.733,1.041-.18.08-4.67,10.353-5.34,15.858-.149,1.226,1.293,1.941,1.781.793a148.28,148.28,0,0,0,5.838-16.309C663.541,250.146,662.387,248.96,661.654,249.926Z" transform="translate(-624.89 -246.913)" fill="#60bfb2"/>
              <path id="Trazado_1045548" data-name="Trazado 1045548" d="M673.269,257.157a1.565,1.565,0,0,0-1.714.571,8.489,8.489,0,0,0-1.485,2.207,40.951,40.951,0,0,0-2.858,4.217q-.935,1.59-1.743,3.286c-.556,1.168-1.273,2.725-.211,3.736.97.924,2.114-.018,2.744-1.1.684-1.173,1.348-2.366,2.022-3.549l2.079-3.65.982-1.724a7.194,7.194,0,0,0,.948-1.953A1.775,1.775,0,0,0,673.269,257.157Z" transform="translate(-628.465 -249.843)" fill="#ff7550"/>
              <path id="Trazado_1045549" data-name="Trazado 1045549" d="M655.168,287.359c1.391,4.562-2.661,8.5-6.869,9.236a17.918,17.918,0,0,1-7.258-.475c-2.048-.484-4.787-.881-5.323-3.318-.432-1.97.682-4.346,1.59-6.039a7.506,7.506,0,0,1,2.143-2.523,9.67,9.67,0,0,1,5.616-2.756C649.163,280.974,653.9,283.211,655.168,287.359Z" transform="translate(-617.089 -259.365)" fill="#ffb533"/>
              <path id="Trazado_1045550" data-name="Trazado 1045550" d="M681.055,280.8a4.782,4.782,0,0,1-1.175.677c-.429.209-.86.413-1.289.622-.868.414-1.727.832-2.586,1.245-.479.229-.957.457-1.435.692a5.8,5.8,0,0,1-1.508.567c-1.251.22-2.437-.325-2.21-1.221.166-.686,1.121-1.155,1.932-1.542.673-.324,1.36-.616,2.065-.9a8.993,8.993,0,0,1,4.8-1.822,1.836,1.836,0,0,1,1.634.5A.864.864,0,0,1,681.055,280.8Z" transform="translate(-630.855 -258.465)" fill="#ffb533"/>
            </g>
            <path id="Trazado_1045551" data-name="Trazado 1045551" d="M538.767,298.523l15.792,1.741s.457,5.645-7.833,5.765S538.767,298.523,538.767,298.523Z" transform="translate(-450.206 -204.918)" fill="#ff7550"/>
          </g>
        </g>
        <g id="Grupo_1201383" data-name="Grupo 1201383" transform="translate(116.078 69.384)">
          <g id="Grupo_1201381" data-name="Grupo 1201381" transform="translate(23.529)">
            <path id="Trazado_1045552" data-name="Trazado 1045552" d="M387.792,251.88a10.7,10.7,0,0,1-9.772,3.931,9.918,9.918,0,0,1-17.946,4.666,11.26,11.26,0,0,1-18.222,2.575,13.348,13.348,0,0,1-21.894,1.8,15.97,15.97,0,0,1-24.3-.916,11.892,11.892,0,0,1-5.478,3.387,11.592,11.592,0,0,1-11.837-3.085,12.324,12.324,0,0,1-2.86-11.362,13.009,13.009,0,0,1-4.8-3.162,12.708,12.708,0,0,1-3.439-10.584,13.158,13.158,0,0,1,5.8-8.994,17.16,17.16,0,0,1-2.929-8.01,16.717,16.717,0,0,1,5.556-14.4,17.589,17.589,0,0,1,13.85-4.087A12.818,12.818,0,0,1,308.32,192.4a12.049,12.049,0,0,1,20.314-7.378,13.911,13.911,0,0,1,4.432-3.992,13.506,13.506,0,0,1,13.375-.181,14.242,14.242,0,0,1,6.947,10.17,10.213,10.213,0,0,1,4.5-2.419,9.956,9.956,0,0,1,10.316,3.318,10.638,10.638,0,0,1,1.815,9.522,12.181,12.181,0,0,1,6.126.311,11.871,11.871,0,0,1,8.338,9.2,12.7,12.7,0,0,1-3.37,10.869,8.747,8.747,0,0,1,3.8,15.138,10.234,10.234,0,0,1,3.741,4.1A10.045,10.045,0,0,1,387.792,251.88Z" transform="translate(-265.42 -176.092)" fill="#332623"/>
            <path id="Trazado_1045553" data-name="Trazado 1045553" d="M374.315,271.767a12.523,12.523,0,0,1-2.514.25c-2.644,17.548-19.069,22.931-38.933,22.931s-36.289-5.383-38.932-22.94a13.663,13.663,0,0,1-2.514-26.905,12.564,12.564,0,0,1,7.353.743c6.783-13.453,19.51-23.916,34.094-23.916,14.533,0,27.234,10.394,34.025,23.786a13.025,13.025,0,0,1,2.1-.613c7.059-1.408,13.98,3.422,15.449,10.783S381.374,270.36,374.315,271.767Z" transform="translate(-270.856 -192.818)" fill="#f78b66"/>
            <path id="Trazado_1045554" data-name="Trazado 1045554" d="M377.627,238.474c-1.65,1.477-3.937.957-5.82-.054a9.017,9.017,0,0,1-3.879-5.011,11.627,11.627,0,0,1-8.753-2.584,11.47,11.47,0,0,1-3.862-6.964,9.28,9.28,0,0,1-10.852,1.84,16.2,16.2,0,0,1-21.972,7.742,10.246,10.246,0,0,1-16.114,5.487.693.693,0,0,1-.225-.795,10.208,10.208,0,0,1-2.212-7.681c1.14-10.9,12.736-16.771,21.721-20.443,10.031-4.1,21.29-5.867,31.856-2.808,9.366,2.7,17.539,9.4,20.84,18.723C379.591,229.408,380.841,235.588,377.627,238.474Z" transform="translate(-279.796 -186.453)" fill="#332623"/>
            <path id="Trazado_1045555" data-name="Trazado 1045555" d="M424.568,227.555a.268.268,0,0,1,.07.009,2.532,2.532,0,0,1,1.072.94,3.577,3.577,0,0,1,.809,1.386.61.61,0,0,1-.037.276c-2.338,1.776-4.44,3.219-5.861,4.118.376-.926.773-1.81,1.175-2.62.459-.912.949-1.8,1.453-2.616a5.438,5.438,0,0,1,1.071-1.4.418.418,0,0,1,.248-.1m0-2.98a3.391,3.391,0,0,0-2.055.708,7.73,7.73,0,0,0-1.8,2.2q-.849,1.386-1.58,2.843c-.483.971-.924,1.967-1.329,2.974a7.253,7.253,0,0,0-.817,2.914,2.1,2.1,0,0,0,2.2,1.965,2.6,2.6,0,0,0,.569-.063c.924-.2,4.812-2.752,8.577-5.614a3.261,3.261,0,0,0,1.15-2.884,5.7,5.7,0,0,0-1.43-2.95,5.316,5.316,0,0,0-2.557-1.955,3.217,3.217,0,0,0-.931-.137Z" transform="translate(-324.029 -193.852)" fill="#ff7550"/>
            <path id="Trazado_1045556" data-name="Trazado 1045556" d="M402.25,215.912a.275.275,0,0,1,.037-.06,2.53,2.53,0,0,1,1.293-.6,3.577,3.577,0,0,1,1.594-.181.609.609,0,0,1,.238.145c.682,2.855,1.155,5.36,1.4,7.024-.7-.717-1.345-1.438-1.924-2.132-.649-.787-1.26-1.592-1.809-2.385a5.42,5.42,0,0,1-.845-1.543.421.421,0,0,1,.01-.267m-2.727-1.2a3.392,3.392,0,0,0-.181,2.167,7.743,7.743,0,0,0,1.287,2.534q.925,1.336,1.964,2.592c.694.834,1.427,1.639,2.185,2.416a7.244,7.244,0,0,0,2.338,1.922,2.1,2.1,0,0,0,2.687-1.223,2.581,2.581,0,0,0,.171-.546c.187-.927-.578-5.513-1.679-10.112a3.261,3.261,0,0,0-2.176-2.216,5.694,5.694,0,0,0-3.277.119,5.317,5.317,0,0,0-2.82,1.552,3.254,3.254,0,0,0-.5.8Z" transform="translate(-317.091 -188.952)" fill="#60bfb2"/>
            <path id="Trazado_1045557" data-name="Trazado 1045557" d="M307.567,235.7a.277.277,0,0,1,.058.039,2.528,2.528,0,0,1,.541,1.32,3.57,3.57,0,0,1,.106,1.6.6.6,0,0,1-.156.231c-2.884.547-5.408.9-7.083,1.075.749-.661,1.5-1.276,2.22-1.822.817-.612,1.65-1.184,2.466-1.695a5.449,5.449,0,0,1,1.581-.772.434.434,0,0,1,.267.024m1.328-2.668a3.394,3.394,0,0,0-2.156-.282,7.743,7.743,0,0,0-2.592,1.167q-1.377.862-2.68,1.841c-.865.655-1.7,1.349-2.515,2.07a7.247,7.247,0,0,0-2.03,2.245,2.1,2.1,0,0,0,1.1,2.741,2.639,2.639,0,0,0,.537.2c.917.23,5.533-.32,10.18-1.2a3.261,3.261,0,0,0,2.315-2.07,5.7,5.7,0,0,0,.034-3.278,5.316,5.316,0,0,0-1.418-2.889,3.237,3.237,0,0,0-.773-.537Z" transform="translate(-277.008 -197.022)" fill="#ffb533"/>
            <path id="Trazado_1045558" data-name="Trazado 1045558" d="M308.431,199.193a14.8,14.8,0,0,0-12.929-4.974c-4.831.571-10.026,3.937-10.665,9.119a7.518,7.518,0,0,0,1.832,5.946,16.4,16.4,0,0,0-10.451-.052,11.063,11.063,0,0,0-7.23,7.691,9.118,9.118,0,0,0,.477,5.644,9.062,9.062,0,0,0-5.1,7.314,8.487,8.487,0,0,0,4.671,8.2c.241.126.487.238.736.342a12.314,12.314,0,0,0-4.538,7.5,11.567,11.567,0,0,0,4.411,11.038,11.762,11.762,0,0,0,6.461,2.526c.555.038.553-.826,0-.864A11.313,11.313,0,0,1,267,252.409,10.7,10.7,0,0,1,268,241.5a11.091,11.091,0,0,1,2.741-2.741,8.553,8.553,0,0,0,3.744.234c.547-.089.315-.922-.23-.833a7.311,7.311,0,0,1-2.47-.043,9.971,9.971,0,0,1,1.274-.581c.517-.191.293-1.027-.23-.833a11.334,11.334,0,0,0-2.209,1.11,8.31,8.31,0,0,1-4.158-3.106,7.641,7.641,0,0,1-.067-8.286,7.753,7.753,0,0,1,3.739-3.239.441.441,0,0,0,.258-.635,8.733,8.733,0,0,1,1.681-9.641,12.526,12.526,0,0,1,9.654-3.641,19.612,19.612,0,0,1,6.674,1.55c.515.211.738-.625.23-.833l-.09-.035a.4.4,0,0,0-.194-.34,6.368,6.368,0,0,1-2.693-5.822,8.85,8.85,0,0,1,3.426-6.018,13.462,13.462,0,0,1,12.67-2.049,13.3,13.3,0,0,1,6.066,4.083C308.177,200.232,308.785,199.617,308.431,199.193Z" transform="translate(-264.329 -181.941)" fill="#332623"/>
            <path id="Trazado_1045559" data-name="Trazado 1045559" d="M406.612,200.193a12.8,12.8,0,0,0-6.275-1.219,10.183,10.183,0,0,0-.739-9.814,12.5,12.5,0,0,0-12.81-4.913,15.936,15.936,0,0,0-6.626,3.123,10.781,10.781,0,0,0-5.331-11.928,12.52,12.52,0,0,0-15.239,3.3,14.6,14.6,0,0,0-1.974,3.163,11.318,11.318,0,0,0-19.052,4.258,11.6,11.6,0,0,0,.319,7.942c.212.505,1.048.283.833-.23a10.683,10.683,0,0,1,2.707-12.082,10.568,10.568,0,0,1,11.832-1.389,10.882,10.882,0,0,1,2.987,2.371,15.147,15.147,0,0,0-1,4.644c-.03.555.834.554.864,0a14.089,14.089,0,0,1,.767-3.856,10.712,10.712,0,0,1,1.122,1.9c.228.506.974.067.746-.436a11.145,11.145,0,0,0-1.5-2.413,12.4,12.4,0,0,1,7.461-7.076c4.924-1.569,10.575.25,12.9,5.032a9.5,9.5,0,0,1,.295,7.889.434.434,0,0,0,.678.524c3.5-3.253,8.535-5.065,13.24-3.674,4.183,1.237,7.534,4.816,7.585,9.308a9.035,9.035,0,0,1-1.1,4.466c-.382.057-.762.128-1.139.222a.432.432,0,0,0,.23.833c.083-.021.167-.033.25-.051a7.876,7.876,0,0,1-.822.932c-.4.384.208.994.611.611a8.663,8.663,0,0,0,1.4-1.741,11.437,11.437,0,0,1,10.345,18.483,11.779,11.779,0,0,1-6.463,4.077c-.541.125-.312.959.23.833a12.318,12.318,0,0,0,2.666-23.091Z" transform="translate(-293.146 -174.119)" fill="#332623"/>
            <path id="Trazado_1045560" data-name="Trazado 1045560" d="M366.08,233.708a5.676,5.676,0,0,1-9.929,2.037c-.251-.3-.729-.041-.737.306a12.724,12.724,0,0,1-5.645,10.1,12.483,12.483,0,0,1-16.638-3.085c-.325-.444-1.075-.014-.746.436a13.622,13.622,0,0,0,11.036,5.474,13.042,13.042,0,0,0,10.733-6.1,13.281,13.281,0,0,0,2.058-5.823,6.522,6.522,0,0,0,10.7-3.11A.433.433,0,0,0,366.08,233.708Z" transform="translate(-290.912 -197.304)" fill="#332623"/>
            <path id="Trazado_1045561" data-name="Trazado 1045561" d="M416.046,253.848c-1.84,2.073-4.859.511-6.384-1.124a8.333,8.333,0,0,1-2.187-6.339c.046-.554-.818-.551-.864,0a9.176,9.176,0,0,0,2.735,7.252c1.87,1.813,5.261,3.133,7.311.823C417.025,254.044,416.416,253.431,416.046,253.848Z" transform="translate(-319.961 -202.219)" fill="#664e4a"/>
            <path id="Trazado_1045562" data-name="Trazado 1045562" d="M312.318,313.971a25.985,25.985,0,0,1-10.338-26.221c.108-.543-.725-.775-.833-.23a26.844,26.844,0,0,0,10.735,27.2C312.335,315.041,312.766,314.292,312.318,313.971Z" transform="translate(-278.526 -218.346)" fill="#332623"/>
            <path id="Trazado_1045563" data-name="Trazado 1045563" d="M423.832,288.045a26.647,26.647,0,0,0-2.039-8.111c-.217-.51-.961-.07-.746.436a25.371,25.371,0,0,1-9.2,30.988c-.459.309-.027,1.057.436.746A26.4,26.4,0,0,0,423.832,288.045Z" transform="translate(-321.942 -215.413)" fill="#332623"/>
            <path id="Trazado_1045564" data-name="Trazado 1045564" d="M439.819,277.842c-.164-.53-1-.3-.833.23.466,1.507.344,3.4-1.166,4.27-1.492.859-2.822-.191-3.406-1.58a10.172,10.172,0,0,1,.6-8.211,10.486,10.486,0,0,1,3.108-3.714c.443-.326.013-1.077-.436-.746a11.756,11.756,0,0,0-4.706,8.846,8.787,8.787,0,0,0,1.015,4.9,3.082,3.082,0,0,0,4.056,1.36C440.06,282.221,440.425,279.794,439.819,277.842Z" transform="translate(-330.279 -210.837)" fill="#332623"/>
            <path id="Trazado_1045565" data-name="Trazado 1045565" d="M292.056,274.407c-.5-1.838-1.2-4.071-3.085-4.923a2.687,2.687,0,0,0-2.753.2,2.212,2.212,0,0,0-.85,2.366.432.432,0,0,0,.833-.23,1.4,1.4,0,0,1,.782-1.607,2.11,2.11,0,0,1,2.06.3c1.306.886,1.786,2.688,2.179,4.126a16.968,16.968,0,0,1,.638,5.046c-.048,1.413-.163,3.689-1.557,4.486a1.476,1.476,0,0,1-2.028-.621,4.836,4.836,0,0,1-.415-2.822c.023-.556-.841-.555-.864,0-.07,1.708.176,4.267,2.363,4.5,2.208.237,2.993-2.327,3.23-4.023A16.964,16.964,0,0,0,292.056,274.407Z" transform="translate(-272.524 -211.303)" fill="#332623"/>
            <path id="Trazado_1045566" data-name="Trazado 1045566" d="M361.914,293.852A8.976,8.976,0,0,1,354.043,301a7.388,7.388,0,0,1-5.5-1.452,4.089,4.089,0,0,1-1.209-4.882c.89-1.78,2.886-2.54,4.683-3.032.449-.121.916-.242,1.382-.371.069-.026.13-.052.19-.078a13.975,13.975,0,0,0,3.11-2.03c.173-.138.346-.294.519-.441.017-.026.251-.285.371-.285a3.287,3.287,0,0,1,1.5-.666,2.249,2.249,0,0,1,2.048.907C362.251,290.076,362.242,292.193,361.914,293.852Z" transform="translate(-296.645 -218.556)" fill="#e26240"/>
            <circle id="Elipse_13078" data-name="Elipse 13078" cx="6.816" cy="6.816" r="6.816" transform="translate(29.918 69.025)" fill="#e26240"/>
            <circle id="Elipse_13079" data-name="Elipse 13079" cx="6.816" cy="6.816" r="6.816" transform="translate(78.555 69.025)" fill="#e26240"/>
            <ellipse id="Elipse_13080" data-name="Elipse 13080" cx="3.714" cy="4.594" rx="3.714" ry="4.594" transform="translate(42.888 62.319)" fill="#332623"/>
            <ellipse id="Elipse_13081" data-name="Elipse 13081" cx="3.714" cy="4.594" rx="3.714" ry="4.594" transform="translate(71.126 62.319)" fill="#332623"/>
            <path id="Trazado_1045567" data-name="Trazado 1045567" d="M338.827,265.343a1.748,1.748,0,0,0-.794-1.033l-.413-.174a1.743,1.743,0,0,0-.919,0l-2.833,1.175a1.935,1.935,0,0,0-1.033.794,1.728,1.728,0,0,0,.62,2.364l.413.174a1.742,1.742,0,0,0,.919,0l2.833-1.175a1.935,1.935,0,0,0,1.033-.794A1.761,1.761,0,0,0,338.827,265.343Z" transform="translate(-291.028 -209.299)" fill="#332623"/>
            <path id="Trazado_1045568" data-name="Trazado 1045568" d="M391.163,265.473l-.27-.35a1.728,1.728,0,0,0-.762-.444l-2.761-.963a1.315,1.315,0,0,0-.689-.031,1.282,1.282,0,0,0-.642.205,1.728,1.728,0,0,0-.62,2.364l.27.35a1.725,1.725,0,0,0,.762.444l2.761.963a1.314,1.314,0,0,0,.689.031,1.282,1.282,0,0,0,.642-.205,1.728,1.728,0,0,0,.62-2.364Z" transform="translate(-311.594 -209.134)" fill="#332623"/>
            <g id="Grupo_1201380" data-name="Grupo 1201380" transform="translate(65.455 75.873)">
              <path id="Trazado_1045569" data-name="Trazado 1045569" d="M377.826,299.1a1.3,1.3,0,0,0-1.833,0,1.519,1.519,0,0,0-.38.916c.052-.42-.007.027-.027.128-.025.13-.054.26-.087.388a6.855,6.855,0,0,1-.247.764.21.21,0,0,1,.014-.021.178.178,0,0,0-.018.032c0,.007,0,.013-.007.02-.03.078-.04.089-.041.082-.006.016-.012.035-.018.047-.057.12-.117.239-.18.355a7.116,7.116,0,0,1-.441.711l-.091.125c-.084.1-.166.2-.254.3a7.01,7.01,0,0,1-.567.558c-.057.051-.116.1-.175.149-.1.069-.19.14-.289.206a6.785,6.785,0,0,1-.723.418,1.3,1.3,0,0,0-.465,1.773,1.328,1.328,0,0,0,1.773.465,8.3,8.3,0,0,0,4.432-6.495A1.288,1.288,0,0,0,377.826,299.1Z" transform="translate(-371.823 -298.723)" fill="#332623"/>
              <path id="Trazado_1045570" data-name="Trazado 1045570" d="M377.422,302.954a.279.279,0,0,0-.051.112.571.571,0,0,1,.047-.1A.079.079,0,0,1,377.422,302.954Z" transform="translate(-373.993 -300.377)" fill="#332623"/>
            </g>
          </g>
          <g id="Grupo_1201382" data-name="Grupo 1201382" transform="translate(0 79.615)">
            <rect id="Rect치ngulo_416150" data-name="Rect치ngulo 416150" width="65.724" height="95.197" transform="translate(51.572 23.817)" fill="#fff"/>
            <path id="Trazado_1045571" data-name="Trazado 1045571" d="M376.107,434.409l-65.724-2.662v9.388l65.724-2.082Z" transform="translate(-258.811 -354.488)" fill="#ff7550"/>
            <path id="Trazado_1045572" data-name="Trazado 1045572" d="M376.107,456.893v6.565L310.383,460.9v-4Z" transform="translate(-258.811 -364.322)" fill="#ff7550"/>
            <path id="Trazado_1045573" data-name="Trazado 1045573" d="M376.107,482.4H310.383v8.487l65.724-2.883Z" transform="translate(-258.811 -374.298)" fill="#ff7550"/>
            <path id="Trazado_1045574" data-name="Trazado 1045574" d="M419.062,391.154q2.23,8.658,4.458,17.3,1.348,5.262,2.713,10.532c.458,1.788.924,3.586,1.382,5.383.231.891.46,1.786.642,2.691H380.691q-.082-.659-.164-1.317-.674-5.4-1.348-10.826-2.735-22.007-5.478-44.022-2.722-21.9-5.452-43.789l-.674-5.418c-.052-.449,5.729-5.642,9.072-7.094a19.628,19.628,0,0,1,11.993-1.149,19.984,19.984,0,0,1,5.78,2.281,27.44,27.44,0,0,0,5.5,2.964c2.367.734,4.666-.017,7.033-.354a21.1,21.1,0,0,1,6.593.147c4.407.8,8.148,3.145,11.6,5.893a89.265,89.265,0,0,1,9.988,8.77,36.783,36.783,0,0,1,4.078,5.245c1.218,1.918,2.316,3.914,3.508,5.858a44.189,44.189,0,0,0,4.035,5.513c1.452,1.693,2.955,3.352,4.251,5.175,4.787,6.688,6.558,15.457,3.811,23.311a24.642,24.642,0,0,1-15.19,15.25A24.947,24.947,0,0,1,419.062,391.154Z" transform="translate(-281.178 -308.044)" fill="#60bfb2"/>
            <path id="Trazado_1045575" data-name="Trazado 1045575" d="M262.74,391.154q-2.23,8.658-4.459,17.3-1.348,5.262-2.713,10.532c-.458,1.788-.924,3.586-1.382,5.383-.231.891-.46,1.786-.642,2.691h47.567q.082-.659.164-1.317.674-5.4,1.348-10.826,2.735-22.007,5.478-44.022,2.722-21.9,5.452-43.789l.674-5.418c.052-.449-5.729-5.642-9.072-7.094a19.628,19.628,0,0,0-11.993-1.149,19.984,19.984,0,0,0-5.78,2.281,27.441,27.441,0,0,1-5.5,2.964c-2.367.734-4.666-.017-7.033-.354a21.1,21.1,0,0,0-6.593.147c-4.407.8-8.148,3.145-11.6,5.893a89.269,89.269,0,0,0-9.988,8.77,36.784,36.784,0,0,0-4.078,5.245c-1.218,1.918-2.316,3.914-3.508,5.858a44.185,44.185,0,0,1-4.035,5.513c-1.452,1.693-2.955,3.352-4.251,5.175-4.787,6.688-6.558,15.457-3.811,23.311a24.642,24.642,0,0,0,15.189,15.25A24.946,24.946,0,0,0,262.74,391.154Z" transform="translate(-225.688 -308.044)" fill="#60bfb2"/>
            <path id="Trazado_1045576" data-name="Trazado 1045576" d="M361.169,316.632l-1.771,69.5h7.573l-2.4-69.5Z" transform="translate(-277.98 -309.469)" fill="#ffb533"/>
            <path id="Trazado_1045577" data-name="Trazado 1045577" d="M333.407,314.883l-45-2.722,1.818,34.988.744,30.985,40.663,6.245Z" transform="translate(-250.218 -307.72)" fill="#ffc261"/>
            <path id="Trazado_1045578" data-name="Trazado 1045578" d="M414.637,309.593l-3.56,67.376-40.791,6.4-2.4-69.494,44.082-4.044Z" transform="translate(-281.299 -306.716)" fill="#ffc261"/>
            <path id="Trazado_1045579" data-name="Trazado 1045579" d="M369.943,359.369q-.576-13.247-1.152-26.494-.323-7.431-.646-14.862c-.024-.554-.888-.557-.864,0q.575,13.247,1.152,26.494T369.585,371q.323,7.431.646,14.863c.024.554.888.557.864,0Q370.519,372.616,369.943,359.369Z" transform="translate(-281.062 -309.846)" fill="#332623"/>
            <path id="Trazado_1045580" data-name="Trazado 1045580" d="M359.241,388.021q-.454,12.133-.907,24.266c-.021.556.843.555.864,0q.453-12.133.907-24.266C360.126,387.465,359.262,387.466,359.241,388.021Z" transform="translate(-277.563 -337.225)" fill="#332623"/>
            <path id="Trazado_1045581" data-name="Trazado 1045581" d="M296.068,342.668c-.613.173-1.218.337-1.832.493q.752.039,1.5.13a25.281,25.281,0,0,1,3.007.544,10.742,10.742,0,0,1,2.557.864,2.195,2.195,0,0,1,.337,3.862,6.51,6.51,0,0,1-2.739.709c-.942.121-1.883.225-2.825.3a16.444,16.444,0,0,1,4.8,2.221c1.322.976,2.117,2.929.734,4.234-1.365,1.27-3.672.959-5.374.838a31.192,31.192,0,0,1-4.554-.674,19.916,19.916,0,0,1-5.218,5.979,17.632,17.632,0,0,0-4.458-3.758,15.58,15.58,0,0,0-11.88-1.564,12.614,12.614,0,0,1,.441-4.821,29.779,29.779,0,0,1,3.681-7.742,41.522,41.522,0,0,1,11.094-11.656q1.659-1.166,3.422-2.169a18.9,18.9,0,0,1,3.663-1.78,2.512,2.512,0,0,1,2.972.847,2.8,2.8,0,0,1-.761,3.31c-1.132,1.175-2.445,2.221-3.663,3.309-.631.57-1.27,1.141-1.9,1.71a22.982,22.982,0,0,1,11.448-.993,3.249,3.249,0,0,1,2.514,1.279,1.666,1.666,0,0,1-.458,2.195,9.863,9.863,0,0,1-2.9,1.2C298.487,341.942,297.278,342.322,296.068,342.668Z" transform="translate(-243.04 -314.121)" fill="#f78b66"/>
            <path id="Trazado_1045582" data-name="Trazado 1045582" d="M279.668,392.413a27.626,27.626,0,0,1-3.032,10.947,46.977,46.977,0,0,1-2.912,5.037,19.925,19.925,0,0,1-3.5,4.113,12.4,12.4,0,0,1-9.945,2.687,19.019,19.019,0,0,1-9.642-4.778c-5.426-4.717-10.1-11.682-9.772-19.138a13.839,13.839,0,0,1,3.957-9.4,11.282,11.282,0,0,1,8.588-3.24,6.074,6.074,0,0,1,2.756-4.286,9.59,9.59,0,0,1,6.359-1.218c6.55.709,13.159,4.666,15.621,10.921A18.5,18.5,0,0,1,279.668,392.413Z" transform="translate(-231.617 -331.534)" fill="#60bfb2"/>
            <path id="Trazado_1045583" data-name="Trazado 1045583" d="M421.267,342.668c.613.173,1.218.337,1.832.493q-.752.039-1.5.13a25.281,25.281,0,0,0-3.007.544,10.742,10.742,0,0,0-2.557.864,2.195,2.195,0,0,0-.337,3.862,6.51,6.51,0,0,0,2.739.709c.942.121,1.883.225,2.825.3a16.444,16.444,0,0,0-4.8,2.221c-1.322.976-2.117,2.929-.734,4.234,1.365,1.27,3.672.959,5.374.838a31.192,31.192,0,0,0,4.554-.674,19.916,19.916,0,0,0,5.218,5.979,17.631,17.631,0,0,1,4.459-3.758,15.579,15.579,0,0,1,11.88-1.564,12.614,12.614,0,0,0-.441-4.821,29.778,29.778,0,0,0-3.681-7.742,41.52,41.52,0,0,0-11.094-11.656q-1.659-1.166-3.422-2.169a18.9,18.9,0,0,0-3.663-1.78,2.512,2.512,0,0,0-2.972.847,2.8,2.8,0,0,0,.761,3.31c1.132,1.175,2.445,2.221,3.663,3.309.631.57,1.27,1.141,1.9,1.71a22.982,22.982,0,0,0-11.448-.993,3.249,3.249,0,0,0-2.514,1.279,1.666,1.666,0,0,0,.458,2.195,9.863,9.863,0,0,0,2.9,1.2C418.848,341.942,420.057,342.322,421.267,342.668Z" transform="translate(-299.358 -314.121)" fill="#f78b66"/>
            <path id="Trazado_1045584" data-name="Trazado 1045584" d="M434.055,392.413a27.626,27.626,0,0,0,3.032,10.947A46.977,46.977,0,0,0,440,408.4a19.925,19.925,0,0,0,3.5,4.113,12.4,12.4,0,0,0,9.945,2.687,19.019,19.019,0,0,0,9.642-4.778c5.426-4.717,10.1-11.682,9.772-19.138a13.839,13.839,0,0,0-3.957-9.4,11.282,11.282,0,0,0-8.588-3.24,6.074,6.074,0,0,0-2.756-4.286,9.59,9.59,0,0,0-6.359-1.218c-6.55.709-13.159,4.666-15.621,10.921A18.505,18.505,0,0,0,434.055,392.413Z" transform="translate(-307.169 -331.534)" fill="#60bfb2"/>
            <path id="Trazado_1045585" data-name="Trazado 1045585" d="M256.9,373.868a8.221,8.221,0,0,0-5,6.229,13.651,13.651,0,0,0-13.545,6.257.432.432,0,0,0,.746.436A12.755,12.755,0,0,1,252.125,381a.441.441,0,0,0,.547-.417,7.326,7.326,0,0,1,4.458-5.882C257.64,374.5,257.417,373.659,256.9,373.868Z" transform="translate(-230.615 -331.84)" fill="#332623"/>
            <path id="Trazado_1045586" data-name="Trazado 1045586" d="M482.806,381.9a7.63,7.63,0,0,0-6.142-1.428,9.414,9.414,0,0,0-6.95-6.987c-.541-.124-.772.709-.23.833a8.56,8.56,0,0,1,6.432,6.773.438.438,0,0,0,.532.3,6.632,6.632,0,0,1,8.367,6.469.432.432,0,0,0,.864,0A7.651,7.651,0,0,0,482.806,381.9Z" transform="translate(-320.911 -331.696)" fill="#332623"/>
            <path id="Trazado_1045587" data-name="Trazado 1045587" d="M442.908,385.925l-1.575-3.535a.436.436,0,0,0-.591-.155.443.443,0,0,0-.155.591l1.575,3.535a.436.436,0,0,0,.591.155A.442.442,0,0,0,442.908,385.925Z" transform="translate(-309.711 -335.103)" fill="#332623"/>
            <path id="Trazado_1045588" data-name="Trazado 1045588" d="M449.019,383.89l-2.678-4.669a.432.432,0,0,0-.746.436l2.678,4.669A.432.432,0,0,0,449.019,383.89Z" transform="translate(-311.666 -333.864)" fill="#332623"/>
            <path id="Trazado_1045589" data-name="Trazado 1045589" d="M455.133,378.826l-1.765-2.719a.432.432,0,0,0-.747.436l1.765,2.719a.432.432,0,0,0,.747-.436Z" transform="translate(-314.414 -332.644)" fill="#332623"/>
            <path id="Trazado_1045590" data-name="Trazado 1045590" d="M460.856,377.407l-2.037-4.026a.432.432,0,1,0-.746.436l2.037,4.026a.432.432,0,1,0,.746-.436Z" transform="translate(-316.548 -331.58)" fill="#332623"/>
            <path id="Trazado_1045591" data-name="Trazado 1045591" d="M466.578,375.137,465.3,372.9a.432.432,0,1,0-.746.436l1.28,2.242a.432.432,0,1,0,.747-.436Z" transform="translate(-319.081 -331.388)" fill="#332623"/>
            <path id="Trazado_1045592" data-name="Trazado 1045592" d="M273.91,372.5a.439.439,0,0,0-.591.155l-1.131,2.076a.432.432,0,1,0,.747.436q.565-1.038,1.131-2.076A.439.439,0,0,0,273.91,372.5Z" transform="translate(-243.852 -331.296)" fill="#332623"/>
            <path id="Trazado_1045593" data-name="Trazado 1045593" d="M281.116,373.088a.436.436,0,0,0-.591.155l-2.4,5.283a.445.445,0,0,0,.155.591.436.436,0,0,0,.591-.155l2.4-5.283A.446.446,0,0,0,281.116,373.088Z" transform="translate(-246.174 -331.526)" fill="#332623"/>
            <path id="Trazado_1045594" data-name="Trazado 1045594" d="M288.018,378.311a.44.44,0,0,0-.591.155l-1.763,2.881a.432.432,0,1,0,.746.436l1.763-2.881A.438.438,0,0,0,288.018,378.311Z" transform="translate(-249.121 -333.568)" fill="#332623"/>
            <path id="Trazado_1045595" data-name="Trazado 1045595" d="M294.079,381.742a.437.437,0,0,0-.591.155l-1.784,3.512a.443.443,0,0,0,.155.591.437.437,0,0,0,.591-.155l1.784-3.511A.443.443,0,0,0,294.079,381.742Z" transform="translate(-251.485 -334.91)" fill="#332623"/>
            <path id="Trazado_1045596" data-name="Trazado 1045596" d="M298.242,386.469a.436.436,0,0,0-.591.155l-2.244,4.642a.443.443,0,0,0,.155.591.436.436,0,0,0,.591-.155l2.244-4.642A.443.443,0,0,0,298.242,386.469Z" transform="translate(-252.933 -336.759)" fill="#332623"/>
            <path id="Trazado_1045597" data-name="Trazado 1045597" d="M263.645,360.337a20.856,20.856,0,0,0-6.006-5.521.432.432,0,0,0-.436.746,19.778,19.778,0,0,1,5.7,5.211.446.446,0,0,0,.591.155A.436.436,0,0,0,263.645,360.337Z" transform="translate(-237.933 -324.376)" fill="#332623"/>
            <path id="Trazado_1045598" data-name="Trazado 1045598" d="M267.224,356.823a13.408,13.408,0,0,0-3.72-6.635c-.4-.388-1.01.222-.611.611a12.582,12.582,0,0,1,3.5,6.254C266.513,357.595,267.346,357.365,267.224,356.823Z" transform="translate(-240.187 -322.543)" fill="#332623"/>
            <path id="Trazado_1045599" data-name="Trazado 1045599" d="M470.251,351.157l-3.89,2.157c-.487.27-.051,1.016.436.746l3.89-2.157C471.174,351.633,470.738,350.886,470.251,351.157Z" transform="translate(-319.728 -322.948)" fill="#332623"/>
            <path id="Trazado_1045600" data-name="Trazado 1045600" d="M474.465,355.611a.436.436,0,0,0-.532-.3l-4.472,1.634a.444.444,0,0,0-.3.532.436.436,0,0,0,.532.3l4.472-1.634A.443.443,0,0,0,474.465,355.611Z" transform="translate(-320.899 -324.587)" fill="#332623"/>
            <path id="Trazado_1045601" data-name="Trazado 1045601" d="M420.966,443.41a.451.451,0,0,0-.534-.44l-23.848,4.659a.354.354,0,0,0-.3.316.438.438,0,0,0-.046.267,64.013,64.013,0,0,0,3.7,13.668c1.487,3.76,3.635,7.69,7.531,9.377a10.843,10.843,0,0,0,11.06-1.912,15.7,15.7,0,0,0,5.193-10.568C424.255,453.5,422.73,448.317,420.966,443.41ZM419.13,467.57A10.351,10.351,0,0,1,408.7,470.8c-3.916-1.186-6.212-4.963-7.683-8.526a62.708,62.708,0,0,1-3.878-13.872l23.083-4.51c1.447,4.051,2.715,8.242,2.74,12.579A16.157,16.157,0,0,1,419.13,467.57Z" transform="translate(-292.383 -358.873)" fill="#332623"/>
            <path id="Trazado_1045602" data-name="Trazado 1045602" d="M298.006,454.228A15.694,15.694,0,0,0,303.2,464.8a10.842,10.842,0,0,0,11.06,1.912c3.9-1.687,6.043-5.617,7.53-9.377a63.986,63.986,0,0,0,3.7-13.668.433.433,0,0,0-.046-.267.353.353,0,0,0-.3-.316l-23.848-4.659a.451.451,0,0,0-.534.44C298.993,443.77,297.467,448.956,298.006,454.228Zm.756-2.308c.024-4.337,1.293-8.529,2.74-12.579l23.083,4.51a62.706,62.706,0,0,1-3.878,13.872c-1.471,3.563-3.767,7.341-7.683,8.526a10.352,10.352,0,0,1-10.43-3.227A16.162,16.162,0,0,1,298.762,451.921Z" transform="translate(-253.927 -357.095)" fill="#332623"/>
            <path id="Trazado_1045603" data-name="Trazado 1045603" d="M298,396.778a26.972,26.972,0,0,0-1.766-7.788c-.2-.512-1.036-.289-.833.23a25.929,25.929,0,0,1-8.3,30.057c-.439.34.177.948.611.611A26.919,26.919,0,0,0,298,396.778Z" transform="translate(-249.647 -337.653)" fill="#332623"/>
            <path id="Trazado_1045604" data-name="Trazado 1045604" d="M444.324,419.258a27.584,27.584,0,0,1-7.731-32.012c.216-.506-.529-.946-.746-.436a28.437,28.437,0,0,0,7.865,33.059C444.136,420.224,444.75,419.616,444.324,419.258Z" transform="translate(-306.982 -336.825)" fill="#332623"/>
            <path id="Trazado_1045605" data-name="Trazado 1045605" d="M301.113,343.1a.438.438,0,0,0-.591-.155l-1.689,1.19a.464.464,0,0,0-.2.258.432.432,0,0,0,.635.488l1.689-1.19a.464.464,0,0,0,.2-.258A.442.442,0,0,0,301.113,343.1Z" transform="translate(-254.21 -319.733)" fill="#332623"/>
            <path id="Trazado_1045606" data-name="Trazado 1045606" d="M309.647,352.366a10.157,10.157,0,0,0-3.482.354.432.432,0,0,0,.23.833,9.412,9.412,0,0,1,3.252-.323.432.432,0,0,0,0-.864Z" transform="translate(-257.042 -323.433)" fill="#332623"/>
            <path id="Trazado_1045607" data-name="Trazado 1045607" d="M311.73,362.982l-3.84-.621a.445.445,0,0,0-.532.3.436.436,0,0,0,.3.532l3.84.62a.445.445,0,0,0,.532-.3A.436.436,0,0,0,311.73,362.982Z" transform="translate(-257.623 -327.349)" fill="#332623"/>
            <path id="Trazado_1045608" data-name="Trazado 1045608" d="M432.128,372.869a.439.439,0,0,0-.532.3q-.163.76-.326,1.52a.432.432,0,1,0,.833.23q.163-.76.326-1.52A.439.439,0,0,0,432.128,372.869Z" transform="translate(-306.083 -331.457)" fill="#332623"/>
            <path id="Trazado_1045609" data-name="Trazado 1045609" d="M439.493,344.9l-1.824-1.621a.432.432,0,0,0-.611.611l1.824,1.621a.432.432,0,1,0,.611-.611Z" transform="translate(-308.303 -319.841)" fill="#332623"/>
            <path id="Trazado_1045610" data-name="Trazado 1045610" d="M431.319,352.07l-3.687-.446a.434.434,0,0,0-.432.432.442.442,0,0,0,.432.432l3.687.446a.434.434,0,0,0,.432-.432A.442.442,0,0,0,431.319,352.07Z" transform="translate(-304.496 -323.153)" fill="#332623"/>
            <path id="Trazado_1045611" data-name="Trazado 1045611" d="M430.33,361.842l-3.6.375a.444.444,0,0,0-.432.432.435.435,0,0,0,.432.432l3.6-.375a.444.444,0,0,0,.432-.432A.435.435,0,0,0,430.33,361.842Z" transform="translate(-304.144 -327.149)" fill="#332623"/>
            <path id="Trazado_1045612" data-name="Trazado 1045612" d="M382.057,304.868v3.119l-44.082,4.044h-3.4L291.4,309.81v-4.026l45.189,5.21Z" transform="translate(-251.388 -304.868)" fill="#fff"/>
          </g>
        </g>
      </g>
    </g>
  </g>
</svg>
