<svg xmlns="http://www.w3.org/2000/svg" xmlns:xlink="http://www.w3.org/1999/xlink" width="93.934" height="93.934" viewBox="0 0 93.934 93.934">
  <defs>
    <filter id="Trazado_982547" x="0" y="0" width="93.934" height="93.934" filterUnits="userSpaceOnUse">
      <feOffset dy="3" input="SourceAlpha"/>
      <feGaussianBlur stdDeviation="3" result="blur"/>
      <feFlood flood-opacity="0.161"/>
      <feComposite operator="in" in2="blur"/>
      <feComposite in="SourceGraphic"/>
    </filter>
  </defs>
  <g id="Grupo_1201747" data-name="Grupo 1201747" transform="translate(-188.854 -760)">
    <g id="Grupo_1201322" data-name="Grupo 1201322" transform="translate(-0.146 413.939)">
      <g id="Grupo_1181939" data-name="Grupo 1181939" transform="translate(0 -388.939)">
        <g id="Grupo_1175133" data-name="Grupo 1175133" transform="translate(-0.033 -1251)">
          <g id="Grupo_1167337" data-name="Grupo 1167337" transform="translate(198.033 1992)">
            <g id="Grupo_1166720" data-name="Grupo 1166720">
              <g id="Grupo_1164305" data-name="Grupo 1164305">
                <g id="Grupo_1163948" data-name="Grupo 1163948">
                  <g id="Grupo_1158168" data-name="Grupo 1158168">
                    <g id="Grupo_1152576" data-name="Grupo 1152576">
                      <g id="Grupo_1148633" data-name="Grupo 1148633">
                        <g id="Grupo_1148525" data-name="Grupo 1148525">
                          <g transform="matrix(1, 0, 0, 1, -9, -6)" filter="url(#Trazado_982547)">
                            <g id="Trazado_982547-2" data-name="Trazado 982547" transform="translate(9 6)" fill="#fdfbec">
                              <path d="M 37.966796875 74.43359375 C 33.04315185546875 74.43359375 28.26757431030273 73.46962738037109 23.77274131774902 71.56847381591797 C 19.43047523498535 69.73184967041016 15.53040790557861 67.10224914550781 12.18087482452393 63.75271987915039 C 8.831341743469238 60.4031867980957 6.201741218566895 56.50312042236328 4.365118980407715 52.16086196899414 C 2.463963508605957 47.66601943969727 1.499996900558472 42.89044189453125 1.499996900558472 37.966796875 C 1.499996900558472 33.04315185546875 2.463963508605957 28.26757431030273 4.365118980407715 23.77274131774902 C 6.201741218566895 19.43047523498535 8.831341743469238 15.53040790557861 12.18087482452393 12.18087482452393 C 15.53040790557861 8.831341743469238 19.43047523498535 6.201741218566895 23.77274131774902 4.365118980407715 C 28.26757431030273 2.463963508605957 33.04315185546875 1.499996900558472 37.966796875 1.499996900558472 C 42.89044189453125 1.499996900558472 47.66601943969727 2.463963508605957 52.16086196899414 4.365118980407715 C 56.50312042236328 6.201741218566895 60.4031867980957 8.831341743469238 63.75271987915039 12.18087482452393 C 67.10224914550781 15.53040790557861 69.73184967041016 19.43047523498535 71.56847381591797 23.77274131774902 C 73.46962738037109 28.26757431030273 74.43359375 33.04315185546875 74.43359375 37.966796875 C 74.43359375 42.89044189453125 73.46962738037109 47.66601943969727 71.56847381591797 52.16086196899414 C 69.73184967041016 56.50313186645508 67.10224914550781 60.4031867980957 63.75271987915039 63.75271987915039 C 60.4031867980957 67.10224914550781 56.50313186645508 69.73184967041016 52.16086196899414 71.56847381591797 C 47.66601943969727 73.46962738037109 42.89044189453125 74.43359375 37.966796875 74.43359375 Z" stroke="none"/>
                              <path d="M 37.966796875 3 C 33.2449836730957 3 28.66600799560547 3.924095153808594 24.35705947875977 5.746635437011719 C 20.19359588623047 7.507637023925781 16.45379638671875 10.02928161621094 13.24153518676758 13.24153518676758 C 10.02927398681641 16.45379638671875 7.507621765136719 20.19359588623047 5.746635437011719 24.35705947875977 C 3.924095153808594 28.66600799560547 3 33.2449836730957 3 37.966796875 C 3 42.6886100769043 3.924095153808594 47.26758575439453 5.746635437011719 51.57653427124023 C 7.507621765136719 55.73999786376953 10.02927398681641 59.47979736328125 13.24153518676758 62.69205856323242 C 16.45379638671875 65.90431976318359 20.19359588623047 68.42597198486328 24.35705947875977 70.18695831298828 C 28.66600799560547 72.00949859619141 33.2449836730957 72.93359375 37.966796875 72.93359375 C 42.6886100769043 72.93359375 47.26758575439453 72.00949859619141 51.57653427124023 70.18695831298828 C 55.73999786376953 68.42597198486328 59.47979736328125 65.90431976318359 62.69205856323242 62.69205856323242 C 65.90431976318359 59.47979736328125 68.42597198486328 55.73999786376953 70.18695831298828 51.57653427124023 C 72.00949859619141 47.26758575439453 72.93359375 42.6886100769043 72.93359375 37.966796875 C 72.93359375 33.2449836730957 72.00949859619141 28.66600799560547 70.18695831298828 24.35705947875977 C 68.42597198486328 20.19359588623047 65.90431976318359 16.45379638671875 62.69205856323242 13.24153518676758 C 59.47979736328125 10.02928161621094 55.73999786376953 7.507637023925781 51.57653427124023 5.746635437011719 C 47.26758575439453 3.924095153808594 42.6886100769043 3 37.966796875 3 M 37.966796875 0 C 58.93528366088867 0 75.93359375 16.99832153320312 75.93359375 37.966796875 C 75.93359375 58.93528366088867 58.93528366088867 75.93359375 37.966796875 75.93359375 C 16.99831008911133 75.93359375 0 58.93528366088867 0 37.966796875 C 0 16.99832153320312 16.99831008911133 0 37.966796875 0 Z" stroke="none" fill="#84792b"/>
                            </g>
                          </g>
                        </g>
                      </g>
                    </g>
                  </g>
                </g>
              </g>
            </g>
          </g>
        </g>
      </g>
    </g>
    <g id="ciencia" transform="translate(208.836 766.475)">
      <path id="Trazado_1070350" data-name="Trazado 1070350" d="M395.806,22.547a1.339,1.339,0,1,1-1.339,1.339A1.339,1.339,0,0,1,395.806,22.547Z" transform="translate(-354.846 -6.361)" fill="#fcdb35" fill-rule="evenodd"/>
      <circle id="Elipse_13533" data-name="Elipse 13533" cx="2.086" cy="2.086" r="2.086" transform="translate(31.698 27.781) rotate(-3.555)" fill="#fdc72e"/>
      <g id="Grupo_1201746" data-name="Grupo 1201746" transform="translate(4.75 16.186)">
        <path id="Trazado_1070351" data-name="Trazado 1070351" d="M310.618,152.9a2.086,2.086,0,1,1,1.547-2.015A2.086,2.086,0,0,1,310.618,152.9Z" transform="translate(-281.993 -137.339)" fill="#fcdb35" fill-rule="evenodd"/>
        <path id="Trazado_1070352" data-name="Trazado 1070352" d="M473.018,156.281a1.339,1.339,0,1,1-1.339,1.339A1.339,1.339,0,0,1,473.018,156.281Z" transform="translate(-429.761 -144.076)" fill="#fcdb35" fill-rule="evenodd"/>
        <path id="Trazado_1070353" data-name="Trazado 1070353" d="M241.383,22.547a1.339,1.339,0,1,1-1.339,1.339A1.339,1.339,0,0,1,241.383,22.547Z" transform="translate(-219.266 -22.547)" fill="#fcdb35" fill-rule="evenodd"/>
        <path id="Trazado_1070354" data-name="Trazado 1070354" d="M395.807,290.016a1.339,1.339,0,1,1-1.339,1.339A1.339,1.339,0,0,1,395.807,290.016Z" transform="translate(-359.596 -265.606)" fill="#fcdb35" fill-rule="evenodd"/>
        <path id="Trazado_1070355" data-name="Trazado 1070355" d="M241.384,290.016a1.339,1.339,0,1,1-1.339,1.339A1.339,1.339,0,0,1,241.384,290.016Z" transform="translate(-219.267 -265.606)" fill="#fcdb35" fill-rule="evenodd"/>
        <path id="Trazado_1070356" data-name="Trazado 1070356" d="M13.141,188.347l8.392-10.5a2.568,2.568,0,0,0,.584-1.666V164.293h6.339v11.885a2.568,2.568,0,0,0,.584,1.666l8.392,10.5a3.457,3.457,0,0,1-2.7,5.614H15.841a3.457,3.457,0,0,1-2.7-5.614Z" transform="translate(-12.373 -151.357)" fill="#2a92fa" fill-rule="evenodd"/>
        <path id="Trazado_1070357" data-name="Trazado 1070357" d="M13.141,203.024l8.392-10.5a2.568,2.568,0,0,0,.584-1.666V180.444H25.95v10.411a2.568,2.568,0,0,0,.584,1.666l8.392,10.5a3.456,3.456,0,0,1-2.7,5.614H15.841a3.457,3.457,0,0,1-2.7-5.614Z" transform="translate(-12.373 -166.034)" fill="#4eb1fc" fill-rule="evenodd"/>
        <path id="Trazado_1070358" data-name="Trazado 1070358" d="M13.141,359.738l5.467-6.842H31.966l5.467,6.842a3.457,3.457,0,0,1-2.7,5.614H15.841a3.457,3.457,0,0,1-2.7-5.614Z" transform="translate(-12.373 -322.747)" fill="#2dcffc" fill-rule="evenodd"/>
        <path id="Trazado_1070359" data-name="Trazado 1070359" d="M13.141,359.739l5.467-6.842H29.46l5.467,6.842a3.456,3.456,0,0,1-2.7,5.614H15.841a3.457,3.457,0,0,1-2.7-5.614Z" transform="translate(-12.373 -322.748)" fill="#78eaff" fill-rule="evenodd"/>
      </g>
      <rect id="Rect치ngulo_416191" data-name="Rect치ngulo 416191" width="9.116" height="2.934" rx="1.467" transform="translate(13.106 27.663)" fill="#004cbd"/>
      <rect id="Rect치ngulo_416192" data-name="Rect치ngulo 416192" width="6.684" height="2.934" rx="1.467" transform="translate(13.106 27.663)" fill="#1176e8"/>
      <circle id="Elipse_13534" data-name="Elipse 13534" cx="1.754" cy="1.754" r="1.754" transform="translate(16.957 48.44) rotate(-13.3)" fill="#e3f1ff"/>
      <path id="Trazado_1070360" data-name="Trazado 1070360" d="M151.291,375.183a1.755,1.755,0,1,1,1.308-1.7A1.755,1.755,0,0,1,151.291,375.183Z" transform="translate(-132.674 -323.731)" fill="#fff" fill-rule="evenodd"/>
      <path id="Trazado_1070361" data-name="Trazado 1070361" d="M141.6,269.85a1.242,1.242,0,1,0-1.242-1.242A1.245,1.245,0,0,0,141.6,269.85Z" transform="translate(-123.927 -228.836)" fill="#2dcffc" fill-rule="evenodd"/>
      <path id="Trazado_1070362" data-name="Trazado 1070362" d="M141.245,270.312a1.243,1.243,0,1,1,.888-1.191A1.243,1.243,0,0,1,141.245,270.312Z" transform="translate(-123.927 -229.349)" fill="#78eaff" fill-rule="evenodd"/>
      <circle id="Elipse_13535" data-name="Elipse 13535" cx="1.195" cy="1.195" r="1.195" transform="translate(23.562 53.284)" fill="#e3f1ff"/>
      <path id="Trazado_1070363" data-name="Trazado 1070363" d="M219.341,431.906a1.2,1.2,0,1,1,.84-1.142A1.2,1.2,0,0,1,219.341,431.906Z" transform="translate(-194.939 -376.286)" fill="#fff" fill-rule="evenodd"/>
      <path id="Trazado_1070364" data-name="Trazado 1070364" d="M14.77,52.769a.638.638,0,0,1-.638.639h-.515v.512a.638.638,0,1,1-1.276,0v-.512h-.515a.639.639,0,0,1,0-1.278h.515v-.512a.638.638,0,1,1,1.276,0v.512h.515A.639.639,0,0,1,14.77,52.769Zm25.092-.262a.642.642,0,0,1-.092.9l-1.328,1.081a.64.64,0,0,1-.809-.992l1.328-1.08a.642.642,0,0,1,.9.092Zm-3.739,2.8a.641.641,0,0,1-.29.856l-1.535.759a.639.639,0,1,1-.567-1.145l1.535-.759a.641.641,0,0,1,.858.289ZM3.984,37.97,4,36.257a.636.636,0,0,1,.638-.635h0a.637.637,0,0,1,.633.643l-.009,1.712a.639.639,0,0,1-.638.635h0a.643.643,0,0,1-.638-.643Zm43.057-1.712.009,1.712a.637.637,0,0,1-.633.643h0a.639.639,0,0,1-.638-.635l-.009-1.712a.637.637,0,0,1,.633-.643h0a.639.639,0,0,1,.638.635ZM42.994,49.846l-1.056,1.348a.631.631,0,0,1-.5.245.65.65,0,0,1-.4-.136.637.637,0,0,1-.106-.9l1.056-1.348a.638.638,0,1,1,1,.788Zm2.358-4.187-.73,1.549a.638.638,0,1,1-1.153-.545l.73-1.548a.637.637,0,1,1,1.153.545Zm1.372-4.606-.37,1.672a.638.638,0,0,1-.62.5.665.665,0,0,1-.141-.015.642.642,0,0,1-.488-.762l.37-1.673a.645.645,0,0,1,.765-.486.636.636,0,0,1,.484.761Zm-27.3-23.845a.644.644,0,0,1,.484-.765l1.667-.38a.639.639,0,0,1,.286,1.246l-1.672.38a.638.638,0,0,1-.765-.481Zm-13.984,26a.665.665,0,0,1-.141.015.638.638,0,0,1-.62-.5l-.37-1.672a.638.638,0,1,1,1.245-.276l.37,1.673a.636.636,0,0,1-.484.762ZM8.2,24.432,9.272,23.1a.638.638,0,1,1,.994.8L9.2,25.232a.64.64,0,1,1-1-.8ZM5.686,45.659a.637.637,0,1,1,1.153-.545l.73,1.548a.638.638,0,1,1-1.153.545l-.73-1.549Zm.1-17.068.752-1.54a.639.639,0,1,1,1.148.559l-.748,1.54a.644.644,0,0,1-.576.359.657.657,0,0,1-.282-.065.639.639,0,0,1-.295-.854ZM4.362,33.179l.387-1.667a.643.643,0,0,1,.77-.477.636.636,0,0,1,.475.768L5.607,33.47a.643.643,0,0,1-.625.494.637.637,0,0,1-.62-.784ZM15.14,19.056a.638.638,0,0,1,.3-.852l1.544-.74a.639.639,0,0,1,.554,1.152l-1.544.74a.64.64,0,0,1-.853-.3Zm-3.774,2.753a.638.638,0,0,1,.106-.9l1.342-1.064a.638.638,0,1,1,.792,1l-1.342,1.064a.624.624,0,0,1-.4.138.64.64,0,0,1-.5-.241ZM24.756,55.038a.556.556,0,1,1,.559-.556.557.557,0,0,1-.559.556Zm0-2.391a1.834,1.834,0,1,0,1.834,1.834A1.836,1.836,0,0,0,24.756,52.647Zm-7.082-13.48a.6.6,0,1,1-.607.6A.606.606,0,0,1,17.674,39.167Zm0,2.485a1.882,1.882,0,1,0-1.883-1.881A1.883,1.883,0,0,0,17.674,41.652Zm1.39,9.221a1.116,1.116,0,1,1,1.113-1.116,1.118,1.118,0,0,1-1.113,1.116Zm0-3.509a2.394,2.394,0,1,0,2.393,2.394,2.4,2.4,0,0,0-2.393-2.394Zm10.588,9.2a2.753,2.753,0,0,0-.339-2.982l-5.274-6.6H11.286l-5.274,6.6a2.819,2.819,0,0,0,2.2,4.579h18.9a2.759,2.759,0,0,0,2.538-1.6ZM14.405,43.072l-2.1,2.626H23.018l-2.1-2.626a3.187,3.187,0,0,1-.726-2.066V31.229H15.131v9.777a3.187,3.187,0,0,1-.726,2.066Zm-.664-13.121V28.294h7.843v1.656Zm8.178,12.323a1.932,1.932,0,0,1-.444-1.268V31.23h.11a1.278,1.278,0,0,0,1.276-1.278V28.3a1.278,1.278,0,0,0-1.276-1.279H13.741A1.278,1.278,0,0,0,12.465,28.3v1.656a1.278,1.278,0,0,0,1.276,1.278h.114v9.777a1.956,1.956,0,0,1-.444,1.268l-8.4,10.508a4.1,4.1,0,0,0,3.2,6.654h18.9a4.1,4.1,0,0,0,3.2-6.654ZM48,30.429a.7.7,0,1,1,.7-.7A.7.7,0,0,1,48,30.429Zm-4.39,4.9c-.444.77-1.914,1.033-3.937.705-.4-.066-.818-.153-1.249-.26a25.161,25.161,0,0,0,.484-3.161,25.65,25.65,0,0,0,2.494-2c.308.318.594.636.853.952,1.293,1.585,1.8,2.992,1.355,3.762Zm-1.958,6.6a.7.7,0,1,1-.7-.7A.7.7,0,0,1,41.657,41.935Zm-7.747-1c-1.073,0-2.217-1.6-2.978-4.267A26.252,26.252,0,0,0,33.91,35.5a26.633,26.633,0,0,0,2.983,1.164C36.136,39.334,34.988,40.934,33.91,40.934Zm-7.043,1.7a.7.7,0,1,1,.7-.7A.7.7,0,0,1,26.868,42.635Zm-.308-6.452c-1.2,0-2.028-.293-2.349-.851-.541-.931.273-2.724,2.2-4.717a25.776,25.776,0,0,0,2.5,2,25.229,25.229,0,0,0,.484,3.165,11.945,11.945,0,0,1-2.837.4ZM24.211,24.127c.321-.558,1.152-.851,2.349-.851a11.968,11.968,0,0,1,2.837.4,25.256,25.256,0,0,0-.484,3.165,25.817,25.817,0,0,0-2.5,2c-1.931-1.992-2.745-3.786-2.2-4.717Zm1.953-6.6a.7.7,0,1,1,.7.7.7.7,0,0,1-.7-.7Zm7.747,1c1.078,0,2.226,1.6,2.983,4.268a26.457,26.457,0,0,0-2.983,1.164,26.188,26.188,0,0,0-2.978-1.164C31.693,20.126,32.837,18.525,33.91,18.525Zm7.047-1.7a.7.7,0,1,1-.7.7A.7.7,0,0,1,40.957,16.825ZM39.022,28.509c.013.4.022.811.022,1.221s-.009.817-.022,1.22c.519-.4,1.012-.809,1.465-1.22C40.034,29.318,39.541,28.909,39.022,28.509ZM35.41,24.7q.911-.378,1.795-.661c.123.59.233,1.219.321,1.883-.343-.216-.691-.426-1.047-.632s-.713-.4-1.069-.59ZM30.3,25.918c.088-.665.2-1.3.326-1.886.572.185,1.174.406,1.795.663-.361.189-.717.386-1.073.591s-.7.417-1.047.632Zm-1.5,5.035c-.532-.408-1.021-.818-1.469-1.223q.673-.608,1.469-1.223c-.013.4-.022.812-.022,1.223S28.79,30.549,28.8,30.953Zm3.616,3.812c-.62.257-1.223.478-1.795.664-.128-.591-.238-1.221-.326-1.886.343.215.691.426,1.047.631s.717.4,1.073.591Zm5.107-1.222c-.088.664-.2,1.292-.321,1.883q-.884-.283-1.795-.661.535-.282,1.069-.59c.356-.205.7-.416,1.047-.631Zm-1.689-.475q-.977.566-1.922,1.023c-.642-.311-1.289-.653-1.931-1.023s-1.267-.765-1.848-1.157c-.048-.7-.075-1.426-.075-2.181s.026-1.482.075-2.181q.871-.589,1.848-1.157c.642-.371,1.289-.712,1.931-1.024q.944.459,1.922,1.024c.642.37,1.263.758,1.852,1.158.048.7.075,1.425.075,2.179s-.026,1.481-.075,2.179c-.589.4-1.21.788-1.852,1.158Zm3.84-9.645a9.955,9.955,0,0,1,1.575-.139c1.2,0,2.046.292,2.362.844.444.77-.062,2.177-1.355,3.762-.26.317-.545.635-.853.952a25.743,25.743,0,0,0-2.494-2,25.2,25.2,0,0,0-.484-3.161c.431-.107.849-.195,1.249-.26ZM48,27.752a1.977,1.977,0,0,0-1.87,1.339h-3.22c.114-.132.224-.263.334-.394,1.689-2.074,2.217-3.923,1.474-5.209s-2.609-1.757-5.248-1.328c-.167.027-.339.059-.51.092l1.61-2.788a2.053,2.053,0,0,0,.383.037,1.979,1.979,0,1,0-1.487-.677l-1.61,2.79c-.057-.165-.114-.327-.176-.485-.946-2.5-2.287-3.881-3.774-3.881s-2.824,1.378-3.77,3.881c-.062.158-.119.32-.176.485l-1.61-2.79a1.976,1.976,0,1,0-1.487.678,2.023,2.023,0,0,0,.383-.038l1.61,2.788c-.172-.033-.343-.065-.51-.092-2.639-.429-4.5.042-5.248,1.328s-.22,3.135,1.474,5.209q.422.516.924,1.032-.5.515-.924,1.032c-1.694,2.074-2.213,3.923-1.474,5.209.563.976,1.773,1.482,3.48,1.482A11.051,11.051,0,0,0,28.35,37.3c.167-.027.339-.058.51-.092l-1.61,2.788a2.052,2.052,0,0,0-.383-.037,1.979,1.979,0,1,0,1.487.677l1.61-2.79c.057.165.114.327.176.486.946,2.5,2.287,3.881,3.77,3.881s2.829-1.379,3.774-3.881c.062-.158.119-.321.176-.486l1.61,2.79a1.977,1.977,0,1,0,1.487-.677,2.051,2.051,0,0,0-.383.037l-1.61-2.788c.172.034.343.065.51.092a11.051,11.051,0,0,0,1.768.155c1.707,0,2.917-.507,3.48-1.482.743-1.285.216-3.135-1.474-5.209-.11-.131-.22-.262-.334-.393h3.22A1.978,1.978,0,1,0,48,27.752ZM33.91,31.177a1.447,1.447,0,1,0-1.443-1.447A1.447,1.447,0,0,0,33.91,31.177Zm0-4.172a2.725,2.725,0,1,1-2.723,2.725A2.729,2.729,0,0,1,33.91,27.005Z" fill-rule="evenodd"/>
    </g>
  </g>
</svg>
