<svg xmlns="http://www.w3.org/2000/svg" xmlns:xlink="http://www.w3.org/1999/xlink" width="108" height="108" viewBox="0 0 108 108">
  <defs>
    <filter id="Trazado_904820" x="0" y="0" width="108" height="108" filterUnits="userSpaceOnUse">
      <feOffset dy="3" input="SourceAlpha"/>
      <feGaussianBlur stdDeviation="3" result="blur"/>
      <feFlood flood-opacity="0.161"/>
      <feComposite operator="in" in2="blur"/>
      <feComposite in="SourceGraphic"/>
    </filter>
  </defs>
  <g id="Grupo_1201414" data-name="Grupo 1201414" transform="translate(-620 -749.5)">
    <g id="Grupo_1183263" data-name="Grupo 1183263" transform="translate(0 223.5)">
      <g id="Grupo_1173585" data-name="Grupo 1173585" transform="translate(629 532)">
        <g id="Grupo_1173428" data-name="Grupo 1173428" transform="translate(0 0)">
          <g id="Grupo_1171958" data-name="Grupo 1171958">
            <g id="Grupo_1167341" data-name="Grupo 1167341">
              <g id="Grupo_1166792" data-name="Grupo 1166792">
                <g transform="matrix(1, 0, 0, 1, -9, -6)" filter="url(#Trazado_904820)">
                  <g id="Trazado_904820-2" data-name="Trazado 904820" transform="translate(9 6)" fill="#effbfe">
                    <path d="M 44.99999618530273 88.49999237060547 C 39.12687301635742 88.49999237060547 33.43022155761719 87.35006713867188 28.06829643249512 85.08216857910156 C 22.88852119445801 82.89130401611328 18.23629570007324 79.75457763671875 14.24084663391113 75.75914001464844 C 10.24540901184082 71.76369476318359 7.108683586120605 67.11146545410156 4.917821407318115 61.93169403076172 C 2.649921178817749 56.56976699829102 1.499996185302734 50.87311553955078 1.499996185302734 44.99999237060547 C 1.499996185302734 39.12686920166016 2.649921178817749 33.43021774291992 4.917821407318115 28.06829261779785 C 7.108683586120605 22.88851737976074 10.24540901184082 18.23630523681641 14.24084663391113 14.24085521697998 C 18.23629570007324 10.24540519714355 22.88852119445801 7.108692169189453 28.06829643249512 4.917829990386963 C 33.43022155761719 2.649929761886597 39.12687301635742 1.500004887580872 44.99999618530273 1.500004887580872 C 50.87311935424805 1.500004887580872 56.56977081298828 2.649929761886597 61.93169784545898 4.917829990386963 C 67.11147308349609 7.108692169189453 71.76369476318359 10.24540519714355 75.75914764404297 14.24085521697998 C 79.75458526611328 18.23630523681641 82.89131164550781 22.88851737976074 85.08216857910156 28.06829261779785 C 87.35007476806641 33.43021774291992 88.5 39.12686920166016 88.5 44.99999237060547 C 88.5 50.87311553955078 87.35007476806641 56.56976699829102 85.08216857910156 61.93169403076172 C 82.89131164550781 67.11146545410156 79.75458526611328 71.76369476318359 75.75914764404297 75.75914001464844 C 71.76369476318359 79.75457763671875 67.11147308349609 82.89130401611328 61.93169784545898 85.08216857910156 C 56.56977081298828 87.35006713867188 50.87311935424805 88.49999237060547 44.99999618530273 88.49999237060547 Z" stroke="none"/>
                    <path d="M 44.99999618530273 2.999992370605469 C 39.32870864868164 2.999992370605469 33.82865142822266 4.11004638671875 28.65262603759766 6.299331665039062 C 23.65165710449219 8.414566040039062 19.15968322753906 11.44333648681641 15.301513671875 15.30150604248047 C 11.44333648681641 19.15967559814453 8.414566040039062 23.65164947509766 6.299339294433594 28.65262222290039 C 4.110054016113281 33.82864761352539 2.999992370605469 39.32870483398438 2.999992370605469 44.99999237060547 C 2.999992370605469 50.67127990722656 4.110054016113281 56.17132186889648 6.299339294433594 61.34736633300781 C 8.414566040039062 66.34833526611328 11.44333648681641 70.84029388427734 15.301513671875 74.69846343994141 C 19.15968322753906 78.55663299560547 23.65165710449219 81.58540344238281 28.65262603759766 83.70063781738281 C 33.82865142822266 85.88992309570312 39.32870864868164 86.99997711181641 44.99999618530273 86.99997711181641 C 50.67128372192383 86.99997711181641 56.17134094238281 85.88992309570312 61.34736633300781 83.70063781738281 C 66.34834289550781 81.58540344238281 70.84030914306641 78.55663299560547 74.69847869873047 74.69846343994141 C 78.55665588378906 70.84029388427734 81.58542633056641 66.34833526611328 83.70065307617188 61.34736633300781 C 85.88993835449219 56.17132186889648 87 50.67127990722656 87 44.99999237060547 C 87 39.32870483398438 85.88993835449219 33.82864761352539 83.70065307617188 28.65262222290039 C 81.58542633056641 23.65164947509766 78.55665588378906 19.15967559814453 74.69847869873047 15.30150604248047 C 70.84030914306641 11.44333648681641 66.34834289550781 8.414566040039062 61.34736633300781 6.299331665039062 C 56.17134094238281 4.11004638671875 50.67128372192383 2.999992370605469 44.99999618530273 2.999992370605469 M 44.99999618530273 -7.62939453125e-06 C 69.85281372070312 -7.62939453125e-06 90 20.14717864990234 90 44.99999237060547 C 90 69.85279083251953 69.85281372070312 89.99997711181641 44.99999618530273 89.99997711181641 C 20.14717864990234 89.99997711181641 -7.62939453125e-06 69.85279083251953 -7.62939453125e-06 44.99999237060547 C -7.62939453125e-06 20.14717864990234 20.14717864990234 -7.62939453125e-06 44.99999618530273 -7.62939453125e-06 Z" stroke="none" fill="#497f88"/>
                  </g>
                </g>
              </g>
            </g>
          </g>
        </g>
      </g>
    </g>
    <g id="estudiante_1_" data-name="estudiante (1)" transform="translate(644.594 767.364)">
      <g id="Grupo_1201412" data-name="Grupo 1201412" transform="translate(0.798 2.89)">
        <g id="Grupo_1201397" data-name="Grupo 1201397" transform="translate(13.023 22.362)">
          <g id="Grupo_1201390" data-name="Grupo 1201390">
            <path id="Trazado_1045665" data-name="Trazado 1045665" d="M124.747,259.356a2.937,2.937,0,0,1-2.966,0,2.957,2.957,0,0,0-.4.282,12.321,12.321,0,0,1-.972,1.553,7.716,7.716,0,0,0-.086,1.963,2.941,2.941,0,1,0,5.882,0V261.9A2.939,2.939,0,0,0,124.747,259.356Z" transform="translate(-120.321 -253.02)" fill="#57697d"/>
            <path id="Trazado_1045666" data-name="Trazado 1045666" d="M124.747,204.2a2.937,2.937,0,0,1-2.966,0,2.957,2.957,0,0,0-.4.282,12.323,12.323,0,0,1-.972,1.553,7.716,7.716,0,0,0-.086,1.963,2.941,2.941,0,1,0,5.882,0v-1.26A2.939,2.939,0,0,0,124.747,204.2Z" transform="translate(-120.321 -204.201)" fill="#57697d"/>
            <path id="Trazado_1045667" data-name="Trazado 1045667" d="M126.209,318.335v-1.26a2.939,2.939,0,0,0-1.458-2.539,2.943,2.943,0,0,1-2.966,0,2.951,2.951,0,0,0-1.458,2.573c0,.146,0,1.215,0,1.246a2.941,2.941,0,0,0,5.881-.02Z" transform="translate(-120.325 -301.862)" fill="#57697d"/>
            <path id="Trazado_1045668" data-name="Trazado 1045668" d="M124.747,259.356a2.937,2.937,0,0,1-2.966,0,2.957,2.957,0,0,0-.4.282,12.321,12.321,0,0,1-.972,1.553,7.716,7.716,0,0,0-.086,1.963,2.941,2.941,0,1,0,5.882,0V261.9A2.939,2.939,0,0,0,124.747,259.356Z" transform="translate(-120.321 -253.02)" fill="#57697d"/>
            <path id="Trazado_1045669" data-name="Trazado 1045669" d="M124.747,204.2a2.937,2.937,0,0,1-2.966,0,2.957,2.957,0,0,0-.4.282,12.323,12.323,0,0,1-.972,1.553,7.716,7.716,0,0,0-.086,1.963,2.941,2.941,0,1,0,5.882,0v-1.26A2.939,2.939,0,0,0,124.747,204.2Z" transform="translate(-120.321 -204.201)" fill="#57697d"/>
            <path id="Trazado_1045670" data-name="Trazado 1045670" d="M126.209,318.335v-1.26a2.939,2.939,0,0,0-1.458-2.539,2.943,2.943,0,0,1-2.966,0,2.951,2.951,0,0,0-1.458,2.573c0,.146,0,1.215,0,1.246a2.941,2.941,0,0,0,5.881-.02Z" transform="translate(-120.325 -301.862)" fill="#57697d"/>
            <path id="Trazado_1045671" data-name="Trazado 1045671" d="M124.368,263.155V261.9a2.954,2.954,0,0,0-.928-2.143,2.935,2.935,0,0,1-1.658-.4,2.945,2.945,0,0,0-.4.282,12.325,12.325,0,0,1-.972,1.553,7.716,7.716,0,0,0-.086,1.963,2.941,2.941,0,0,0,1.984,2.781A2.874,2.874,0,0,0,124.368,263.155Z" transform="translate(-120.322 -253.02)" fill="#57697d"/>
            <path id="Trazado_1045672" data-name="Trazado 1045672" d="M123.442,204.6l0,0a2.934,2.934,0,0,1-1.657-.4,2.948,2.948,0,0,0-.4.282,12.326,12.326,0,0,1-.972,1.553,7.715,7.715,0,0,0-.086,1.963,2.941,2.941,0,0,0,2.015,2.791A2.929,2.929,0,0,0,124.368,208v-1.26A2.929,2.929,0,0,0,123.442,204.6Z" transform="translate(-120.322 -204.2)" fill="#57697d"/>
            <path id="Trazado_1045673" data-name="Trazado 1045673" d="M122.464,321.088a2.944,2.944,0,0,0,1.907-2.753c0-1.256.161-2.376-.927-3.4l0,0a2.937,2.937,0,0,1-1.656-.4,2.951,2.951,0,0,0-1.458,2.573c0,.146,0,1.215,0,1.246a2.942,2.942,0,0,0,2.036,2.779Z" transform="translate(-120.325 -301.861)" fill="#57697d"/>
          </g>
          <g id="Grupo_1201392" data-name="Grupo 1201392" transform="translate(1.909 0)">
            <g id="Grupo_1201391" data-name="Grupo 1201391">
              <path id="Trazado_1045674" data-name="Trazado 1045674" d="M139.458,204.2a2.933,2.933,0,0,1-1.536.4c1.087,1.024.926,2.148.926,3.4a2.941,2.941,0,0,1-1.907,2.753A2.943,2.943,0,0,0,140.916,208v-1.26A2.938,2.938,0,0,0,139.458,204.2Z" transform="translate(-136.941 -204.201)" fill="#3d5168"/>
            </g>
          </g>
          <g id="Grupo_1201394" data-name="Grupo 1201394" transform="translate(1.909 6.336)">
            <g id="Grupo_1201393" data-name="Grupo 1201393">
              <path id="Trazado_1045675" data-name="Trazado 1045675" d="M139.458,259.356a2.934,2.934,0,0,1-1.536.4c1.087,1.024.926,2.148.926,3.4a2.942,2.942,0,0,1-1.907,2.753,2.943,2.943,0,0,0,3.975-2.753V261.9A2.938,2.938,0,0,0,139.458,259.356Z" transform="translate(-136.941 -259.356)" fill="#3d5168"/>
            </g>
          </g>
          <g id="Grupo_1201396" data-name="Grupo 1201396" transform="translate(1.909 12.674)">
            <g id="Grupo_1201395" data-name="Grupo 1201395">
              <path id="Trazado_1045676" data-name="Trazado 1045676" d="M139.461,314.535a2.936,2.936,0,0,1-1.536.4c1.074,1.011.927,2.106.927,3.4a2.944,2.944,0,0,1-1.907,2.753,2.943,2.943,0,0,0,3.974-2.753v-1.26a2.939,2.939,0,0,0-1.458-2.539Z" transform="translate(-136.944 -314.535)" fill="#3d5168"/>
            </g>
          </g>
        </g>
        <g id="Grupo_1201405" data-name="Grupo 1201405" transform="translate(38.378 22.362)">
          <g id="Grupo_1201398" data-name="Grupo 1201398">
            <path id="Trazado_1045677" data-name="Trazado 1045677" d="M345.481,259.356a2.937,2.937,0,0,1-2.966,0,2.96,2.96,0,0,0-.4.282,12.319,12.319,0,0,1-.972,1.553,7.715,7.715,0,0,0-.086,1.963,2.941,2.941,0,1,0,5.882,0V261.9A2.939,2.939,0,0,0,345.481,259.356Z" transform="translate(-341.055 -253.02)" fill="#57697d"/>
            <path id="Trazado_1045678" data-name="Trazado 1045678" d="M345.481,204.2a2.937,2.937,0,0,1-2.966,0,2.96,2.96,0,0,0-.4.282,12.321,12.321,0,0,1-.972,1.553,7.715,7.715,0,0,0-.086,1.963,2.941,2.941,0,1,0,5.882,0v-1.26A2.939,2.939,0,0,0,345.481,204.2Z" transform="translate(-341.055 -204.201)" fill="#57697d"/>
            <path id="Trazado_1045679" data-name="Trazado 1045679" d="M346.943,318.335v-1.26a2.939,2.939,0,0,0-1.458-2.539,2.943,2.943,0,0,1-2.966,0,2.951,2.951,0,0,0-1.458,2.573c0,.146,0,1.215,0,1.246a2.941,2.941,0,0,0,5.881-.02Z" transform="translate(-341.059 -301.862)" fill="#57697d"/>
            <path id="Trazado_1045680" data-name="Trazado 1045680" d="M345.481,259.356a2.937,2.937,0,0,1-2.966,0,2.96,2.96,0,0,0-.4.282,12.319,12.319,0,0,1-.972,1.553,7.715,7.715,0,0,0-.086,1.963,2.941,2.941,0,1,0,5.882,0V261.9A2.939,2.939,0,0,0,345.481,259.356Z" transform="translate(-341.055 -253.02)" fill="#57697d"/>
            <path id="Trazado_1045681" data-name="Trazado 1045681" d="M345.481,204.2a2.937,2.937,0,0,1-2.966,0,2.96,2.96,0,0,0-.4.282,12.321,12.321,0,0,1-.972,1.553,7.715,7.715,0,0,0-.086,1.963,2.941,2.941,0,1,0,5.882,0v-1.26A2.939,2.939,0,0,0,345.481,204.2Z" transform="translate(-341.055 -204.201)" fill="#57697d"/>
            <path id="Trazado_1045682" data-name="Trazado 1045682" d="M346.943,318.335v-1.26a2.939,2.939,0,0,0-1.458-2.539,2.943,2.943,0,0,1-2.966,0,2.951,2.951,0,0,0-1.458,2.573c0,.146,0,1.215,0,1.246a2.941,2.941,0,0,0,5.881-.02Z" transform="translate(-341.059 -301.862)" fill="#57697d"/>
            <path id="Trazado_1045683" data-name="Trazado 1045683" d="M345.1,263.155V261.9a2.954,2.954,0,0,0-.928-2.143,2.935,2.935,0,0,1-1.658-.4,2.946,2.946,0,0,0-.4.282,12.328,12.328,0,0,1-.972,1.553,7.715,7.715,0,0,0-.086,1.963,2.941,2.941,0,0,0,1.984,2.781,2.874,2.874,0,0,0,2.06-2.781Z" transform="translate(-341.056 -253.02)" fill="#57697d"/>
            <path id="Trazado_1045684" data-name="Trazado 1045684" d="M344.177,204.6l0,0a2.934,2.934,0,0,1-1.657-.4,2.947,2.947,0,0,0-.4.282,12.321,12.321,0,0,1-.972,1.553,7.718,7.718,0,0,0-.086,1.963,2.128,2.128,0,1,0,4.044,0v-1.26A2.93,2.93,0,0,0,344.177,204.6Z" transform="translate(-341.057 -204.2)" fill="#57697d"/>
            <path id="Trazado_1045685" data-name="Trazado 1045685" d="M343.2,321.088a2.944,2.944,0,0,0,1.907-2.753c0-1.66.125-2.24-.93-3.4a2.937,2.937,0,0,1-1.656-.4,2.951,2.951,0,0,0-1.458,2.573c0,.146,0,1.215,0,1.246a2.942,2.942,0,0,0,2.036,2.779Z" transform="translate(-341.059 -301.861)" fill="#57697d"/>
          </g>
          <g id="Grupo_1201400" data-name="Grupo 1201400" transform="translate(1.909 0)">
            <g id="Grupo_1201399" data-name="Grupo 1201399">
              <path id="Trazado_1045686" data-name="Trazado 1045686" d="M360.192,204.2a2.933,2.933,0,0,1-1.536.4,2.929,2.929,0,0,1,.926,2.139V208a2.941,2.941,0,0,1-1.907,2.753A2.943,2.943,0,0,0,361.65,208v-1.26A2.938,2.938,0,0,0,360.192,204.2Z" transform="translate(-357.675 -204.201)" fill="#3d5168"/>
            </g>
          </g>
          <g id="Grupo_1201402" data-name="Grupo 1201402" transform="translate(1.909 6.336)">
            <g id="Grupo_1201401" data-name="Grupo 1201401">
              <path id="Trazado_1045687" data-name="Trazado 1045687" d="M360.192,259.356a2.934,2.934,0,0,1-1.536.4c1.087,1.024.926,2.148.926,3.4a2.942,2.942,0,0,1-1.907,2.753,2.943,2.943,0,0,0,3.975-2.753V261.9A2.938,2.938,0,0,0,360.192,259.356Z" transform="translate(-357.675 -259.356)" fill="#3d5168"/>
            </g>
          </g>
          <g id="Grupo_1201404" data-name="Grupo 1201404" transform="translate(1.909 12.674)">
            <g id="Grupo_1201403" data-name="Grupo 1201403">
              <path id="Trazado_1045688" data-name="Trazado 1045688" d="M360.195,314.535a2.936,2.936,0,0,1-1.536.4c1.074,1.011.927,2.106.927,3.4a2.944,2.944,0,0,1-1.907,2.753,2.943,2.943,0,0,0,3.974-2.753v-1.26a2.939,2.939,0,0,0-1.458-2.539Z" transform="translate(-357.678 -314.535)" fill="#3d5168"/>
            </g>
          </g>
        </g>
        <path id="Trazado_1045689" data-name="Trazado 1045689" d="M137.183,348.02h-2.247l-4.431,5.443v3.809h-8.861v-3.809l-4.431-5.443h-2.247a5.678,5.678,0,0,0-5.68,5.76v9.038h33.577V353.7A5.68,5.68,0,0,0,137.183,348.02Z" transform="translate(-97.531 -309.138)" fill="#eaf6ff"/>
        <path id="Trazado_1045690" data-name="Trazado 1045690" d="M137.183,348.02h-2.247l-4.431,5.443v3.809h-8.861v-3.809l-4.431-5.443h-2.247a5.678,5.678,0,0,0-5.68,5.76v9.038h33.577V353.7A5.68,5.68,0,0,0,137.183,348.02Z" transform="translate(-97.531 -309.138)" fill="#eaf6ff"/>
        <g id="Grupo_1201406" data-name="Grupo 1201406" transform="translate(37.4 38.882)">
          <path id="Trazado_1045691" data-name="Trazado 1045691" d="M334.793,348.02h-2.247l-.006.007a5.68,5.68,0,0,1,5.406,5.674v9.117h2.527V353.7A5.68,5.68,0,0,0,334.793,348.02Z" transform="translate(-332.54 -348.02)" fill="#d8ecfe"/>
        </g>
        <path id="Trazado_1045692" data-name="Trazado 1045692" d="M210.562,287.447v4.118l4.682,6.839a.574.574,0,0,0,.948,0l4.682-6.839v-4.118Z" transform="translate(-187.173 -255.523)" fill="#ffa78f"/>
        <path id="Trazado_1045693" data-name="Trazado 1045693" d="M115.253,162.606h-2.4A4.178,4.178,0,0,0,111,166.077v.026a4.183,4.183,0,0,0,4.347,4.182h2.607v-7.679Z" transform="translate(-99.049 -145.022)" fill="#ffb09e"/>
        <path id="Trazado_1045694" data-name="Trazado 1045694" d="M338.894,162.606h-5.75v7.679h3.217a4.19,4.19,0,0,0,4.381-4.182v-.026A4.178,4.178,0,0,0,338.894,162.606Z" transform="translate(-295.675 -145.022)" fill="#f89580"/>
        <path id="Trazado_1045695" data-name="Trazado 1045695" d="M170.269,86.067H147.46v8.792h0c-.088.843-.068.9-.068,5.664,0,7.023,5.878,12.264,11.7,12.264a12.317,12.317,0,0,0,11.18-12.264C170.269,99.883,170.269,86.687,170.269,86.067Z" transform="translate(-131.256 -77.274)" fill="#ffcebf"/>
        <path id="Trazado_1045696" data-name="Trazado 1045696" d="M186.691,330.133l-4.682-6.839-3.705,2.84,4.43,5.443v9.355H191.6v-9.355l4.431-5.443-3.705-2.84-4.682,6.839A.574.574,0,0,1,186.691,330.133Z" transform="translate(-158.621 -287.252)" fill="#d8ecfe"/>
        <path id="Trazado_1045697" data-name="Trazado 1045697" d="M281.137,404.014v-8.269a1.149,1.149,0,0,0-1.12-1.148c-4.594-.119-21.879-.122-24.57,6.468v2.95Z" transform="translate(-226.903 -350.341)" fill="#fff3be"/>
        <path id="Trazado_1045698" data-name="Trazado 1045698" d="M281.04,457.009H255.446v-5.9H281.04a2.95,2.95,0,0,1,2.95,2.95h0A2.95,2.95,0,0,1,281.04,457.009Z" transform="translate(-226.902 -400.386)" fill="#fd8087"/>
        <path id="Trazado_1045699" data-name="Trazado 1045699" d="M256.426,109.713v11.74a12.317,12.317,0,0,1-11.181,12.264,12.319,12.319,0,0,0,13.479-12.264v-11.74Z" transform="translate(-217.873 -98.204)" fill="#ffb09e"/>
        <path id="Trazado_1045700" data-name="Trazado 1045700" d="M140.976,10c-6.624,0-13.881,6.039-13.881,14.621v2.909h7.24a7.5,7.5,0,0,0,7.5-7.5,7.5,7.5,0,0,0,7.5,7.5h5.1V24.618A14.666,14.666,0,0,0,140.976,10Z" transform="translate(-113.294 -9.942)" fill="#57697d"/>
        <g id="Grupo_1201408" data-name="Grupo 1201408" transform="translate(27.223)">
          <g id="Grupo_1201407" data-name="Grupo 1201407">
            <path id="Trazado_1045701" data-name="Trazado 1045701" d="M243.942,9.574A14.666,14.666,0,0,1,257.411,24.2V27.1h2.527V24.2A14.683,14.683,0,0,0,243.942,9.574Z" transform="translate(-243.942 -9.519)" fill="#3d5168"/>
          </g>
        </g>
        <g id="Grupo_1201410" data-name="Grupo 1201410" transform="translate(30.448 36.042)">
          <g id="Grupo_1201409" data-name="Grupo 1201409">
            <path id="Trazado_1045702" data-name="Trazado 1045702" d="M275.27,323.293l-.87,1.27,2.048,1.57-4.431,5.443v9.355h2.527v-9.355l4.431-5.443Z" transform="translate(-272.018 -323.293)" fill="#c4e2ff"/>
          </g>
        </g>
        <path id="Trazado_1045703" data-name="Trazado 1045703" d="M100.609,259.7c-3.38-12.616-3.094-11.85-3.444-12.138l-.957.256a.992.992,0,0,0-.7,1.215l3.008,11.228Z" transform="translate(-85.304 -220.217)" fill="#5de1c4"/>
        <path id="Trazado_1045704" data-name="Trazado 1045704" d="M110.535,258.471l1.959-.525-3.116-11.63a.992.992,0,0,0-1.215-.7l-1.079.289c.236.258-.017-.5,3.342,12.042Z" transform="translate(-95.582 -218.465)" fill="#0ed2b3"/>
        <path id="Trazado_1045705" data-name="Trazado 1045705" d="M97.908,322.3v-5.123a2.3,2.3,0,0,0-2.3-2.3H92.326a2.3,2.3,0,0,0-2.3,2.3V322.3a2.3,2.3,0,0,0,2.3,2.3h3.285A2.3,2.3,0,0,0,97.908,322.3Z" transform="translate(-80.486 -279.805)" fill="#ffcebf"/>
        <path id="Trazado_1045706" data-name="Trazado 1045706" d="M136.922,314.881h-2.3a2.3,2.3,0,0,1,2.3,2.3V322.3a2.3,2.3,0,0,1-2.3,2.3h2.3a2.3,2.3,0,0,0,2.3-2.3v-5.123A2.3,2.3,0,0,0,136.922,314.881Z" transform="translate(-119.959 -279.805)" fill="#ffb09e"/>
        <path id="Trazado_1045707" data-name="Trazado 1045707" d="M277.72,394.6c-1.046-.027-1.394-.025.3-.027-6.306-.01-20.185.647-22.573,6.494v2.95H278.84v-8.269A1.149,1.149,0,0,0,277.72,394.6Z" transform="translate(-226.903 -350.342)" fill="#ffe177"/>
        <path id="Trazado_1045708" data-name="Trazado 1045708" d="M443.136,394.522c-.719-.019-5.28-.072-2.527,0a1.149,1.149,0,0,1,1.12,1.148v8.269h2.527v-8.269A1.149,1.149,0,0,0,443.136,394.522Z" transform="translate(-390.022 -350.266)" fill="#ffd15b"/>
        <path id="Trazado_1045709" data-name="Trazado 1045709" d="M278.743,457.009a2.95,2.95,0,0,0,0-5.9h-23.3v5.9h23.3Z" transform="translate(-226.902 -400.386)" fill="#fe646f"/>
        <path id="Trazado_1045710" data-name="Trazado 1045710" d="M458.793,451.109h-2.527a2.95,2.95,0,0,1,0,5.9h2.527a2.95,2.95,0,0,0,2.95-2.95h0A2.95,2.95,0,0,0,458.793,451.109Z" transform="translate(-404.655 -400.386)" fill="#fd4755"/>
        <path id="Trazado_1045711" data-name="Trazado 1045711" d="M31.8,404.071V395.8a1.149,1.149,0,0,1,1.12-1.148c4.594-.119,21.88-.122,24.57,6.468v2.95Z" transform="translate(-28.941 -350.391)" fill="#fff0ad"/>
        <path id="Trazado_1045712" data-name="Trazado 1045712" d="M35.49,457.009H9.9a2.95,2.95,0,0,1-2.95-2.95h0a2.95,2.95,0,0,1,2.95-2.95H35.49Z" transform="translate(-6.946 -400.386)" fill="#fd8087"/>
        <g id="Grupo_1201411" data-name="Grupo 1201411" transform="translate(19.683 27.658)">
          <path id="Trazado_1045713" data-name="Trazado 1045713" d="M307.347,252.079H308.4a.912.912,0,0,0,.924-.86.887.887,0,0,0-.887-.915h-1.086a.887.887,0,0,0,0,1.775Z" transform="translate(-291.739 -250.304)" fill="#fe8f83"/>
          <path id="Trazado_1045714" data-name="Trazado 1045714" d="M180.277,252.079h-1.049a.912.912,0,0,1-.924-.86.888.888,0,0,1,.887-.915h1.086a.887.887,0,0,1,0,1.775Z" transform="translate(-178.303 -250.304)" fill="#fe8f83"/>
        </g>
      </g>
      <g id="Grupo_1201413" data-name="Grupo 1201413" transform="translate(0 2.03)">
        <path id="Trazado_1045715" data-name="Trazado 1045715" d="M228.67,261.442a3.49,3.49,0,0,0,3.487-3.487.861.861,0,0,0-1.723,0,1.764,1.764,0,0,1-3.527,0,.861.861,0,0,0-1.723,0A3.49,3.49,0,0,0,228.67,261.442Z" transform="translate(-199.317 -227.796)"/>
        <path id="Trazado_1045716" data-name="Trazado 1045716" d="M301.421,216.968a.862.862,0,0,0,.862-.861v-1.415h.071a.861.861,0,0,0,0-1.723h-.932a.862.862,0,0,0-.861.861v2.276A.861.861,0,0,0,301.421,216.968Z" transform="translate(-266.036 -188.739)"/>
        <path id="Trazado_1045717" data-name="Trazado 1045717" d="M188.257,214.692h.071v1.415a.861.861,0,1,0,1.723,0V213.83a.862.862,0,0,0-.861-.861h-.932a.861.861,0,0,0,0,1.723Z" transform="translate(-165.871 -188.739)"/>
        <path id="Trazado_1045718" data-name="Trazado 1045718" d="M55.957,52.874v-4.58A2,2,0,0,0,54,46.285c-1.332-.035-3.962-.064-7.031.109a6.485,6.485,0,0,0-1.354-3.035,3.774,3.774,0,0,0,.371-1.634v-1.26a3.814,3.814,0,0,0-.976-2.538,3.787,3.787,0,0,0,.976-2.54v-1.26a3.814,3.814,0,0,0-.976-2.538,3.784,3.784,0,0,0,.976-2.54,8.264,8.264,0,0,0-.111-2.171,5.12,5.12,0,0,0,.917-2.906v-.026a5.036,5.036,0,0,0-1.849-3.9v-2.48A15.585,15.585,0,0,0,18.734,6.211.862.862,0,0,0,19.91,7.47a13.862,13.862,0,0,1,23.309,10.1v2.047h-6.31a6.649,6.649,0,0,1-6.642-6.642.861.861,0,1,0-1.723,0A6.649,6.649,0,0,1,21.9,19.613H15.524V17.566a13.785,13.785,0,0,1,2-7.17.862.862,0,1,0-1.472-.9A15.507,15.507,0,0,0,13.8,17.566v2.48a5.037,5.037,0,0,0-1.849,3.9v.026a5.087,5.087,0,0,0,1.127,3.179,6.25,6.25,0,0,0-.058,1.18c0,.374,0,.668.011.928l-1.49.4a1.855,1.855,0,0,0-1.31,2.27l1.434,5.353a3.164,3.164,0,0,0-2.123,2.983v5.123a3.13,3.13,0,0,0,.139.922c-2.117-.065-3.864-.042-4.87-.016A2,2,0,0,0,2.854,48.3v4.573a3.811,3.811,0,0,0,.957,7.5H47.3a.861.861,0,0,0,0-1.723H30.267V54.475H55a2.088,2.088,0,0,1,0,4.177H51.324a.861.861,0,0,0,0,1.723H55a3.812,3.812,0,0,0,.957-7.5ZM34.7,48.5v-.974l3.979-4.888c1.921,0,3.638-.215,5.266,1.433a4.662,4.662,0,0,1,1.3,2.442A42.381,42.381,0,0,0,34.7,48.5Zm-4.43,2.485c0-6.977,0,2.727,0-4.251l4.492-6.561,2.28,1.748-3.871,4.755a.862.862,0,0,0-.193.544V49.21a11.321,11.321,0,0,0-2.707,1.771Zm-4.43-1.764v-2a.862.862,0,0,0-.193-.544l-3.871-4.755,2.28-1.748,4.492,6.561c0,.384,0,3.872,0,4.257a11.345,11.345,0,0,0-2.707-1.771ZM17.825,37.1h-.57L16.1,32.781a3.878,3.878,0,0,0,1.783-.08,13.187,13.187,0,0,0,1.026,1.525c0,.1,0,.065,0,1.161a2.073,2.073,0,0,1-.914,1.722c-.055,0-.111,0-.167,0Zm-2.289-6.425a1.946,1.946,0,0,0-.742-1.18,4.973,4.973,0,0,1-.05-1.014,5.145,5.145,0,0,0,1.7.489,13.053,13.053,0,0,0,.662,2.135,2.089,2.089,0,0,1-1.566-.43Zm5.04,5.328a13.044,13.044,0,0,0,2.813,1.907v.593l-2.405,1.843a3.159,3.159,0,0,0-1.2-2.566A3.783,3.783,0,0,0,20.576,36.007Zm8.82,3.31a13.123,13.123,0,0,0,4.29-.718l.014,0v.07l-4.294,6.273-4.294-6.273v-.034a13.662,13.662,0,0,0,4.284.686Zm14.181-.393a2.089,2.089,0,0,1,.685,1.541,10.865,10.865,0,0,1-.027,1.6A6.812,6.812,0,0,0,40.1,40.906v-.44a2.089,2.089,0,0,1,.685-1.541A3.813,3.813,0,0,0,43.577,38.924Zm.685-3.537a2.079,2.079,0,0,1-4.159,0,12.977,12.977,0,0,1,.028-1.6,13.247,13.247,0,0,0,.742-1.164,3.818,3.818,0,0,0,2.7-.032,2.089,2.089,0,0,1,.685,1.541Zm-1.117-4.5a2.059,2.059,0,0,1-1.52.163l0-.013a12.948,12.948,0,0,0,.628-2.025l.009-.037a5.128,5.128,0,0,0,1.995-.63A2.4,2.4,0,0,1,43.144,30.889ZM38.4,35.754a3.788,3.788,0,0,0,.958,2.173,3.814,3.814,0,0,0-.976,2.538v.308l-2.957-2.267v-.651a13.247,13.247,0,0,0,2.975-2.1ZM20.983,45.386V43.676l3.13,3.845V48.5a27.953,27.953,0,0,0-3.873-1.079A3.155,3.155,0,0,0,20.983,45.386ZM43.8,21.336a3.318,3.318,0,0,1,1.267,2.609v.026a3.3,3.3,0,0,1-2.534,3.2c.027-.341.041-.746.041-1.036,0-4.672,0-4.5-.008-4.8H43.8ZM29.406,16.667a8.375,8.375,0,0,0,7.5,4.669h3.932c.014.347.01.035.01,4.8a11.5,11.5,0,0,1-22.994,0c0-3.155-.009-4.205.01-4.8H21.9a8.375,8.375,0,0,0,7.5-4.669Zm-15.73,7.278a3.318,3.318,0,0,1,1.267-2.609h1.2c-.012.462-.011,1.177-.01,2.615,0,1.983-.015,2.486.042,3.222a3.292,3.292,0,0,1-2.5-3.2Zm-1.687,7.376,1.678-.45a.132.132,0,0,1,.125.033.3.3,0,0,1,.045.1l1.635,6.1H13.4L11.9,31.481a.13.13,0,0,1,.092-.159Zm-.31,15.069a1.417,1.417,0,0,1-.412-1V40.263a1.437,1.437,0,0,1,1.476-1.436c5.428,0,5.118-.009,5.307.02h.012a1.437,1.437,0,0,1,1.2,1.415v5.123a1.437,1.437,0,0,1-1.436,1.436c-2.376,0-2.166-.219-6.146-.431ZM4.577,48.3a.286.286,0,0,1,.281-.287c5.913-.154,19.142.253,23,4.738H4.577ZM1.723,56.564a2.091,2.091,0,0,1,2.088-2.088H28.544v4.177H3.811a2.091,2.091,0,0,1-2.088-2.088Zm29.22-3.811c3.858-4.5,17.08-4.9,23.011-4.745a.286.286,0,0,1,.281.287v4.458Z" transform="translate(0 -2.03)"/>
      </g>
    </g>
  </g>
</svg>
