<svg xmlns="http://www.w3.org/2000/svg" xmlns:xlink="http://www.w3.org/1999/xlink" width="108" height="108" viewBox="0 0 108 108">
  <defs>
    <filter id="Trazado_904820" x="0" y="0" width="108" height="108" filterUnits="userSpaceOnUse">
      <feOffset dy="3" input="SourceAlpha"/>
      <feGaussianBlur stdDeviation="3" result="blur"/>
      <feFlood flood-opacity="0.161"/>
      <feComposite operator="in" in2="blur"/>
      <feComposite in="SourceGraphic"/>
    </filter>
  </defs>
  <g id="Grupo_1201736" data-name="Grupo 1201736" transform="translate(-200.522 -1090.85)">
    <g id="Grupo_1201319" data-name="Grupo 1201319" transform="translate(209.522 1096.85)">
      <g id="Grupo_1173585" data-name="Grupo 1173585" transform="translate(0 0)">
        <g id="Grupo_1173428" data-name="Grupo 1173428">
          <g id="Grupo_1171958" data-name="Grupo 1171958">
            <g id="Grupo_1167341" data-name="Grupo 1167341">
              <g id="Grupo_1166792" data-name="Grupo 1166792">
                <g transform="matrix(1, 0, 0, 1, -9, -6)" filter="url(#Trazado_904820)">
                  <g id="Trazado_904820-2" data-name="Trazado 904820" transform="translate(9 6)" fill="#edf3fc">
                    <path d="M 44.99999618530273 88.49999237060547 C 39.12687301635742 88.49999237060547 33.43022155761719 87.35006713867188 28.06829643249512 85.08216857910156 C 22.88852119445801 82.89130401611328 18.23629570007324 79.75457763671875 14.24084663391113 75.75914001464844 C 10.24540901184082 71.76369476318359 7.108683586120605 67.11146545410156 4.917821407318115 61.93169403076172 C 2.649921178817749 56.56976699829102 1.499996185302734 50.87311553955078 1.499996185302734 44.99999237060547 C 1.499996185302734 39.12686920166016 2.649921178817749 33.43021774291992 4.917821407318115 28.06829261779785 C 7.108683586120605 22.88851737976074 10.24540901184082 18.23630523681641 14.24084663391113 14.24085521697998 C 18.23629570007324 10.24540519714355 22.88852119445801 7.108692169189453 28.06829643249512 4.917829990386963 C 33.43022155761719 2.649929761886597 39.12687301635742 1.500004887580872 44.99999618530273 1.500004887580872 C 50.87311935424805 1.500004887580872 56.56977081298828 2.649929761886597 61.93169784545898 4.917829990386963 C 67.11147308349609 7.108692169189453 71.76369476318359 10.24540519714355 75.75914764404297 14.24085521697998 C 79.75458526611328 18.23630523681641 82.89131164550781 22.88851737976074 85.08216857910156 28.06829261779785 C 87.35007476806641 33.43021774291992 88.5 39.12686920166016 88.5 44.99999237060547 C 88.5 50.87311553955078 87.35007476806641 56.56976699829102 85.08216857910156 61.93169403076172 C 82.89131164550781 67.11146545410156 79.75458526611328 71.76369476318359 75.75914764404297 75.75914001464844 C 71.76369476318359 79.75457763671875 67.11147308349609 82.89130401611328 61.93169784545898 85.08216857910156 C 56.56977081298828 87.35006713867188 50.87311935424805 88.49999237060547 44.99999618530273 88.49999237060547 Z" stroke="none"/>
                    <path d="M 44.99999618530273 2.999992370605469 C 39.32870864868164 2.999992370605469 33.82865142822266 4.11004638671875 28.65262603759766 6.299331665039062 C 23.65165710449219 8.414566040039062 19.15968322753906 11.44333648681641 15.301513671875 15.30150604248047 C 11.44333648681641 19.15967559814453 8.414566040039062 23.65164947509766 6.299339294433594 28.65262222290039 C 4.110054016113281 33.82864761352539 2.999992370605469 39.32870483398438 2.999992370605469 44.99999237060547 C 2.999992370605469 50.67127990722656 4.110054016113281 56.17132186889648 6.299339294433594 61.34736633300781 C 8.414566040039062 66.34833526611328 11.44333648681641 70.84029388427734 15.301513671875 74.69846343994141 C 19.15968322753906 78.55663299560547 23.65165710449219 81.58540344238281 28.65262603759766 83.70063781738281 C 33.82865142822266 85.88992309570312 39.32870864868164 86.99997711181641 44.99999618530273 86.99997711181641 C 50.67128372192383 86.99997711181641 56.17134094238281 85.88992309570312 61.34736633300781 83.70063781738281 C 66.34834289550781 81.58540344238281 70.84030914306641 78.55663299560547 74.69847869873047 74.69846343994141 C 78.55665588378906 70.84029388427734 81.58542633056641 66.34833526611328 83.70065307617188 61.34736633300781 C 85.88993835449219 56.17132186889648 87 50.67127990722656 87 44.99999237060547 C 87 39.32870483398438 85.88993835449219 33.82864761352539 83.70065307617188 28.65262222290039 C 81.58542633056641 23.65164947509766 78.55665588378906 19.15967559814453 74.69847869873047 15.30150604248047 C 70.84030914306641 11.44333648681641 66.34834289550781 8.414566040039062 61.34736633300781 6.299331665039062 C 56.17134094238281 4.11004638671875 50.67128372192383 2.999992370605469 44.99999618530273 2.999992370605469 M 44.99999618530273 -7.62939453125e-06 C 69.85281372070312 -7.62939453125e-06 90 20.14717864990234 90 44.99999237060547 C 90 69.85279083251953 69.85281372070312 89.99997711181641 44.99999618530273 89.99997711181641 C 20.14717864990234 89.99997711181641 -7.62939453125e-06 69.85279083251953 -7.62939453125e-06 44.99999237060547 C -7.62939453125e-06 20.14717864990234 20.14717864990234 -7.62939453125e-06 44.99999618530273 -7.62939453125e-06 Z" stroke="none" fill="#5692e8"/>
                  </g>
                </g>
              </g>
            </g>
          </g>
        </g>
      </g>
    </g>
    <g id="yoga" transform="translate(219.332 1104.295)">
      <g id="Grupo_1201734" data-name="Grupo 1201734" transform="translate(7.479 7.52)">
        <path id="Trazado_1070289" data-name="Trazado 1070289" d="M50.879,399.946H35.962a1.66,1.66,0,0,1-1.7-1.427l0-.015a3.73,3.73,0,0,0-3.541-3.092,4.474,4.474,0,0,0-1.414.109,1.248,1.248,0,0,1-1.425-.631,6.2,6.2,0,0,0-5.724-3.411,6.222,6.222,0,0,0-5.678,3.311,1.426,1.426,0,0,1-1.592.7c-2.466-.525-4.746,1.1-4.849,3.2a1.785,1.785,0,0,1-1.195,1.531c-2.349.935-1.449,4,1.08,4H50.938a2.291,2.291,0,0,0,2.437-2.219A2.362,2.362,0,0,0,50.879,399.946Z" transform="translate(-7.479 -348.141)" fill="#7dce5c"/>
        <path id="Trazado_1070290" data-name="Trazado 1070290" d="M261.625,74.371,256.473,71.4,266.955,53.24a2.975,2.975,0,0,1,4.063-1.089h0a2.975,2.975,0,0,1,1.089,4.063Z" transform="translate(-228.368 -46.76)" fill="#ffcbbe"/>
        <path id="Trazado_1070291" data-name="Trazado 1070291" d="M156.888,242.82h0a2.974,2.974,0,0,1-2.111-3.638l5.381-20.262,5.75,1.527-5.381,20.263A2.974,2.974,0,0,1,156.888,242.82Z" transform="translate(-138.062 -195.058)" fill="#ffcbbe"/>
        <path id="Trazado_1070292" data-name="Trazado 1070292" d="M296.992,259.028a3.4,3.4,0,0,1-6.532,1.325l-2.473-5.854-2.181-5.161a1.286,1.286,0,0,0-2.047-.517q-.372.327-.753.621a14.347,14.347,0,0,1-1.622,1.093,9.173,9.173,0,0,1-1.008-.087c-2.4-.322-8.126-1.829-6.671-8.886a16.068,16.068,0,0,1,1.936-2.61c4.87-5.359,11.748-6.075,12.928-1.04a12.24,12.24,0,0,0,.623,1.972C297.2,258.825,296.992,258.05,296.992,259.028Z" transform="translate(-243.449 -208.887)" fill="#7fb0e4"/>
        <path id="Trazado_1070293" data-name="Trazado 1070293" d="M232.7,305.984A11.839,11.839,0,0,1,230.44,307a1.272,1.272,0,0,0-.717.6l-4.754,8.6a3.4,3.4,0,1,1-5.951-3.289l.076-.138,4.533-8.2c-.73-2.037-.211-4.857,1.394-7.562a25.969,25.969,0,0,0,7.2,8.6C232.378,305.737,232.537,305.861,232.7,305.984Z" transform="translate(-194.764 -264.335)" fill="#4f96d9"/>
        <path id="Trazado_1070294" data-name="Trazado 1070294" d="M253.6,145.888l-7.584,7.584s-15.65-2.047-6.729-19.93l.983-.764,1.474.842,2.6-4.5a1.129,1.129,0,0,1,1.553-.406L249.756,131a1.129,1.129,0,0,1,.4,1.535l-1.961,3.4a1.19,1.19,0,0,0,.44,1.63l4.167,2.383A3.774,3.774,0,0,1,253.6,145.888Z" transform="translate(-210.685 -114.89)" fill="#a4e7ff"/>
        <path id="Trazado_1070295" data-name="Trazado 1070295" d="M185.988,192.7l-.586.586a4.747,4.747,0,0,1-6.716,0l-.976-1.354a1.191,1.191,0,0,0-2.117.389l-.019.074a1.129,1.129,0,0,1-1.394.8l-4.481-1.247a1.13,1.13,0,0,1-.788-1.377l2.107-7.935-1.594-2.213,2.75-2.139,1.5-1.165,5.587-4.346A24.647,24.647,0,0,0,185.988,192.7Z" transform="translate(-150.656 -154.119)" fill="#5ad6ff"/>
        <path id="Trazado_1070296" data-name="Trazado 1070296" d="M253.59,213.626a4.247,4.247,0,0,1-1.4.932s-5.145-2.439-1.7-8.187a4.25,4.25,0,0,1,3.106,7.254Z" transform="translate(-222.002 -183.926)" fill="#ffcbbe"/>
        <path id="Trazado_1070297" data-name="Trazado 1070297" d="M228.9,214.568a4.25,4.25,0,1,1-1.7-8.187A24.835,24.835,0,0,0,228.9,214.568Z" transform="translate(-198.721 -183.935)" fill="#ffbbae"/>
        <circle id="Elipse_13523" data-name="Elipse 13523" cx="4.141" cy="4.141" r="4.141" transform="translate(23.765 5.906) rotate(-6.321)" fill="#ffcbbe"/>
        <circle id="Elipse_13524" data-name="Elipse 13524" cx="4.141" cy="4.141" r="4.141" transform="translate(1.144 26.775) rotate(-45)" fill="#ffddcf"/>
        <path id="Trazado_1070298" data-name="Trazado 1070298" d="M82.03,68.177a14.715,14.715,0,0,1-7.357,3.16c-22.954-4.381-8.561-26.009-8.435-26.2h0a14.151,14.151,0,0,1,18.247,3.069,13.61,13.61,0,0,1,2.5,4.817A14.459,14.459,0,0,1,82.03,68.177Z" transform="translate(-55.551 -39.082)" fill="#ffddcf"/>
        <path id="Trazado_1070299" data-name="Trazado 1070299" d="M53.435,87.37a14.162,14.162,0,0,1-8.5-1.527,13.6,13.6,0,0,1-4.18-3.462,14.23,14.23,0,0,1,2.456-19.969A15,15,0,0,1,45,61.171C42.872,69.49,42.077,81.8,53.435,87.37Z" transform="translate(-34.314 -55.115)" fill="#ffcbbe"/>
        <path id="Trazado_1070300" data-name="Trazado 1070300" d="M89.049,13.957a17.533,17.533,0,0,1-8.324,1.386,2.312,2.312,0,0,0-2.308,1.585,29.54,29.54,0,0,1-4.741,8.682c-6.635-8.939,3.032-17.886,3.032-17.886a12.458,12.458,0,0,1,6.029.43A11.794,11.794,0,0,1,89.5,12.222,1.145,1.145,0,0,1,89.049,13.957Z" transform="translate(-64.14 -7.52)" fill="#6b7d8e"/>
        <path id="Trazado_1070301" data-name="Trazado 1070301" d="M18.289,27.217a38.666,38.666,0,0,1-4.781,5.126,1.145,1.145,0,0,1-1.607-.073c-5.049-5.513-3.422-14.381,2.852-19.441.052-.042.106-.08.155-.124a13.447,13.447,0,0,1,6.413-3.373C19.885,13.032,17.582,20.276,18.289,27.217Z" transform="translate(-8.754 -9.127)" fill="#546370"/>
        <ellipse id="Elipse_13525" data-name="Elipse 13525" cx="3.051" cy="2.43" rx="3.051" ry="2.43" transform="matrix(0.778, -0.628, 0.628, 0.778, 8.265, 24.804)" fill="#ffa1ac"/>
        <ellipse id="Elipse_13526" data-name="Elipse 13526" cx="3.051" cy="2.43" rx="3.051" ry="2.43" transform="matrix(0.778, -0.628, 0.628, 0.778, 21.138, 14.422)" fill="#ffa1ac"/>
        <ellipse id="Elipse_13527" data-name="Elipse 13527" cx="1.217" cy="1.298" rx="1.217" ry="1.298" transform="matrix(0.778, -0.628, 0.628, 0.778, 16.197, 18.546)" fill="#333941"/>
        <path id="Trazado_1070302" data-name="Trazado 1070302" d="M170.463,415.629a2.1,2.1,0,0,1-2.115,1.994H130.092a2.1,2.1,0,0,1-2.12-2,2.169,2.169,0,0,1,2.066-2.252h18.517c.768,0,1.4-.912,1.464-1.676,0-.012,0-.024,0-.036a3.326,3.326,0,0,1,4.957-2.562,5.172,5.172,0,0,1,8.757-.2,3.325,3.325,0,0,1,4.552,2.753,9.376,9.376,0,0,1,0,1.1.887.887,0,0,0,.59.921A2.043,2.043,0,0,1,170.463,415.629Z" transform="translate(-114.371 -361.537)" fill="#bbe5a7"/>
        <path id="Trazado_1070303" data-name="Trazado 1070303" d="M147.137,471.021H130.092a2.1,2.1,0,0,1-2.12-2,2.169,2.169,0,0,1,2.066-2.252H146.66A4.8,4.8,0,0,0,147.137,471.021Z" transform="translate(-114.371 -414.934)" fill="#9cda82"/>
      </g>
      <g id="Grupo_1201735" data-name="Grupo 1201735" transform="translate(7.481 7.52)">
        <path id="Trazado_1070304" data-name="Trazado 1070304" d="M275.381,466.491h4.189" transform="translate(-245.145 -414.686)" fill="none" stroke="#000" stroke-linecap="round" stroke-linejoin="round" stroke-miterlimit="10" stroke-width="1"/>
        <path id="Trazado_1070305" data-name="Trazado 1070305" d="M50.956,404.229H9.94A2.31,2.31,0,0,1,7.5,402.161a1.929,1.929,0,0,1,1.357-1.934,1.784,1.784,0,0,0,1.2-1.531c0-.065.008-.13.016-.2a3.733,3.733,0,0,1,3.549-3.087,4.469,4.469,0,0,1,1.284.082,1.426,1.426,0,0,0,1.593-.7,6.221,6.221,0,0,1,5.677-3.311,6.907,6.907,0,0,1,2.006.295" transform="translate(-7.502 -348.142)" fill="none" stroke="#000" stroke-linecap="round" stroke-linejoin="round" stroke-miterlimit="10" stroke-width="1"/>
        <path id="Trazado_1070306" data-name="Trazado 1070306" d="M194.361,426.284a1.328,1.328,0,0,0,.73.032,4.42,4.42,0,0,1,.874-.121,4.574,4.574,0,0,1,.541.011,4.241,4.241,0,0,1,1.512.409" transform="translate(-173.27 -378.935)" fill="none" stroke="#000" stroke-linecap="round" stroke-linejoin="round" stroke-miterlimit="10" stroke-width="1"/>
        <path id="Trazado_1070307" data-name="Trazado 1070307" d="M311.061,60.443l4.157-7.2a2.974,2.974,0,1,1,5.151,2.975l-4.182,7.242" transform="translate(-276.797 -46.761)" fill="none" stroke="#000" stroke-linecap="round" stroke-linejoin="round" stroke-miterlimit="10" stroke-width="1"/>
        <path id="Trazado_1070308" data-name="Trazado 1070308" d="M155.088,339.461l-1.768,6.656a2.975,2.975,0,1,0,5.75,1.527l1.754-6.605" transform="translate(-136.772 -301.994)" fill="none" stroke="#000" stroke-linecap="round" stroke-linejoin="round" stroke-miterlimit="10" stroke-width="1"/>
        <path id="Trazado_1070309" data-name="Trazado 1070309" d="M289.319,364l-1.979-4.684a1.286,1.286,0,0,0-2.029-.473,13.834,13.834,0,0,1-3.952,2.483c-.228.091-.456.174-.682.247a1.268,1.268,0,0,0-.717.6l-4.721,8.541-.018.032" transform="translate(-245.003 -318.909)" fill="none" stroke="#000" stroke-linecap="round" stroke-linejoin="round" stroke-miterlimit="10" stroke-width="1"/>
        <path id="Trazado_1070310" data-name="Trazado 1070310" d="M223.519,360.681h0c.034.129.073.253.117.375l-4.113,7.442-.5.9a3.394,3.394,0,0,0-.015,3.26" transform="translate(-194.774 -320.819)" fill="none" stroke="#000" stroke-linecap="round" stroke-linejoin="round" stroke-miterlimit="10" stroke-width="1"/>
        <line id="Línea_1062" data-name="Línea 1062" x2="2.805" y2="6.639" transform="translate(50.177 41.495)" fill="none" stroke="#000" stroke-linecap="round" stroke-linejoin="round" stroke-miterlimit="10" stroke-width="1"/>
        <path id="Trazado_1070311" data-name="Trazado 1070311" d="M390.991,240.791a4,4,0,0,1,.538.412,4.379,4.379,0,0,1,1.3,2.285,12.016,12.016,0,0,0,.623,1.972l3.056,7.233" transform="translate(-347.706 -214.461)" fill="none" stroke="#000" stroke-linecap="round" stroke-linejoin="round" stroke-miterlimit="10" stroke-width="1"/>
        <path id="Trazado_1070312" data-name="Trazado 1070312" d="M181.151,132.076l1.709-2.961a1.129,1.129,0,0,1,1.553-.406L188.271,131a1.128,1.128,0,0,1,.4,1.535l-1.961,3.4a1.19,1.19,0,0,0,.44,1.63l4.168,2.383a3.775,3.775,0,0,1,.8,5.947l-8.17,8.17a4.747,4.747,0,0,1-6.716,0l-.975-1.354a1.192,1.192,0,0,0-2.119.389l-.019.074a1.128,1.128,0,0,1-1.394.8l-4.48-1.247a1.129,1.129,0,0,1-.789-1.377l1.123-4.23" transform="translate(-149.366 -114.89)" fill="none" stroke="#000" stroke-linecap="round" stroke-linejoin="round" stroke-miterlimit="10" stroke-width="1"/>
        <path id="Trazado_1070313" data-name="Trazado 1070313" d="M238.282,212.521a4.318,4.318,0,0,1,.677.551,4.249,4.249,0,0,1-5.969,6.049" transform="translate(-207.539 -189.382)" fill="none" stroke="#000" stroke-linecap="round" stroke-linejoin="round" stroke-miterlimit="10" stroke-width="1"/>
        <path id="Trazado_1070314" data-name="Trazado 1070314" d="M239.885,62.876a4.14,4.14,0,0,0-5.214-6.43" transform="translate(-209.03 -50.158)" fill="none" stroke="#000" stroke-linecap="round" stroke-linejoin="round" stroke-miterlimit="10" stroke-width="1"/>
        <path id="Trazado_1070315" data-name="Trazado 1070315" d="M38.008,223.137a4.14,4.14,0,0,1-5.181-6.456" transform="translate(-28.662 -193.072)" fill="none" stroke="#000" stroke-linecap="round" stroke-linejoin="round" stroke-miterlimit="10" stroke-width="1"/>
        <path id="Trazado_1070316" data-name="Trazado 1070316" d="M65.571,61.791a13.648,13.648,0,0,1,5.878,7.816A14.632,14.632,0,0,1,50.638,86.393a13.662,13.662,0,0,1-6.3-7.135" transform="translate(-40.183 -55.665)" fill="none" stroke="#000" stroke-linecap="round" stroke-linejoin="round" stroke-miterlimit="10" stroke-width="1"/>
        <path id="Trazado_1070317" data-name="Trazado 1070317" d="M75.1,9.8A11.824,11.824,0,0,1,85.9,8.155a11.952,11.952,0,0,1,6.578,3.827" transform="translate(-67.472 -7.52)" fill="none" stroke="#000" stroke-linecap="round" stroke-linejoin="round" stroke-miterlimit="10" stroke-width="1"/>
        <path id="Trazado_1070318" data-name="Trazado 1070318" d="M32.507,47.05l.01.013a1.345,1.345,0,0,1-.534,2.075,17.649,17.649,0,0,1-8.066,1.274A2.312,2.312,0,0,0,21.609,52c-2.086,6.3-6.491,11.066-9.365,13.667a1.351,1.351,0,0,1-1.922-.108q-.157-.178-.307-.364c-4.128-5.119-3.045-12.933,2.3-18.008" transform="translate(-7.5 -42.588)" fill="none" stroke="#000" stroke-linecap="round" stroke-linejoin="round" stroke-miterlimit="10" stroke-width="1"/>
        <path id="Trazado_1070319" data-name="Trazado 1070319" d="M97.561,188.512a2.086,2.086,0,0,0,2.451-1.977" transform="translate(-87.396 -166.329)" fill="none" stroke="#000" stroke-linecap="round" stroke-linejoin="round" stroke-miterlimit="10" stroke-width="1"/>
        <path id="Trazado_1070320" data-name="Trazado 1070320" d="M189.531,114.335a2.086,2.086,0,0,1-2.451,1.977" transform="translate(-166.81 -102.279)" fill="none" stroke="#000" stroke-linecap="round" stroke-linejoin="round" stroke-miterlimit="10" stroke-width="1"/>
        <path id="Trazado_1070321" data-name="Trazado 1070321" d="M168.877,413.676a.886.886,0,0,1-.591-.922,9.224,9.224,0,0,0,0-1.1,3.325,3.325,0,0,0-4.552-2.753,5.17,5.17,0,0,0-8.756.2,3.326,3.326,0,0,0-4.957,2.562l0,.035c-.067.765-.7,1.677-1.464,1.677H130.038a2.169,2.169,0,0,0-2.066,2.252,2.1,2.1,0,0,0,2.119,2h38.256a2.1,2.1,0,0,0,2.115-1.994A2.041,2.041,0,0,0,168.877,413.676Z" transform="translate(-114.373 -361.536)" fill="none" stroke="#000" stroke-linecap="round" stroke-linejoin="round" stroke-miterlimit="10" stroke-width="1"/>
        <ellipse id="Elipse_13528" data-name="Elipse 13528" cx="1.217" cy="1.298" rx="1.217" ry="1.298" transform="matrix(0.778, -0.628, 0.628, 0.778, 16.03, 18.545)"/>
      </g>
    </g>
  </g>
</svg>
