<svg xmlns="http://www.w3.org/2000/svg" xmlns:xlink="http://www.w3.org/1999/xlink" width="93.934" height="93.934" viewBox="0 0 93.934 93.934">
  <defs>
    <filter id="Trazado_982547" x="0" y="0" width="93.934" height="93.934" filterUnits="userSpaceOnUse">
      <feOffset dy="3" input="SourceAlpha"/>
      <feGaussianBlur stdDeviation="3" result="blur"/>
      <feFlood flood-opacity="0.161"/>
      <feComposite operator="in" in2="blur"/>
      <feComposite in="SourceGraphic"/>
    </filter>
  </defs>
  <g id="Grupo_1201756" data-name="Grupo 1201756" transform="translate(-818.729 -760)">
    <g id="Grupo_1201323" data-name="Grupo 1201323" transform="translate(629.729 413.939)">
      <g id="Grupo_1181939" data-name="Grupo 1181939" transform="translate(0 -388.939)">
        <g id="Grupo_1175133" data-name="Grupo 1175133" transform="translate(-0.033 -1251)">
          <g id="Grupo_1167337" data-name="Grupo 1167337" transform="translate(198.033 1992)">
            <g id="Grupo_1166720" data-name="Grupo 1166720">
              <g id="Grupo_1164305" data-name="Grupo 1164305">
                <g id="Grupo_1163948" data-name="Grupo 1163948">
                  <g id="Grupo_1158168" data-name="Grupo 1158168">
                    <g id="Grupo_1152576" data-name="Grupo 1152576">
                      <g id="Grupo_1148633" data-name="Grupo 1148633">
                        <g id="Grupo_1148525" data-name="Grupo 1148525">
                          <g transform="matrix(1, 0, 0, 1, -9, -6)" filter="url(#Trazado_982547)">
                            <g id="Trazado_982547-2" data-name="Trazado 982547" transform="translate(9 6)" fill="#fdfbec">
                              <path d="M 37.966796875 74.43359375 C 33.04315185546875 74.43359375 28.26757431030273 73.46962738037109 23.77274131774902 71.56847381591797 C 19.43047523498535 69.73184967041016 15.53040790557861 67.10224914550781 12.18087482452393 63.75271987915039 C 8.831341743469238 60.4031867980957 6.201741218566895 56.50312042236328 4.365118980407715 52.16086196899414 C 2.463963508605957 47.66601943969727 1.499996900558472 42.89044189453125 1.499996900558472 37.966796875 C 1.499996900558472 33.04315185546875 2.463963508605957 28.26757431030273 4.365118980407715 23.77274131774902 C 6.201741218566895 19.43047523498535 8.831341743469238 15.53040790557861 12.18087482452393 12.18087482452393 C 15.53040790557861 8.831341743469238 19.43047523498535 6.201741218566895 23.77274131774902 4.365118980407715 C 28.26757431030273 2.463963508605957 33.04315185546875 1.499996900558472 37.966796875 1.499996900558472 C 42.89044189453125 1.499996900558472 47.66601943969727 2.463963508605957 52.16086196899414 4.365118980407715 C 56.50312042236328 6.201741218566895 60.4031867980957 8.831341743469238 63.75271987915039 12.18087482452393 C 67.10224914550781 15.53040790557861 69.73184967041016 19.43047523498535 71.56847381591797 23.77274131774902 C 73.46962738037109 28.26757431030273 74.43359375 33.04315185546875 74.43359375 37.966796875 C 74.43359375 42.89044189453125 73.46962738037109 47.66601943969727 71.56847381591797 52.16086196899414 C 69.73184967041016 56.50313186645508 67.10224914550781 60.4031867980957 63.75271987915039 63.75271987915039 C 60.4031867980957 67.10224914550781 56.50313186645508 69.73184967041016 52.16086196899414 71.56847381591797 C 47.66601943969727 73.46962738037109 42.89044189453125 74.43359375 37.966796875 74.43359375 Z" stroke="none"/>
                              <path d="M 37.966796875 3 C 33.2449836730957 3 28.66600799560547 3.924095153808594 24.35705947875977 5.746635437011719 C 20.19359588623047 7.507637023925781 16.45379638671875 10.02928161621094 13.24153518676758 13.24153518676758 C 10.02927398681641 16.45379638671875 7.507621765136719 20.19359588623047 5.746635437011719 24.35705947875977 C 3.924095153808594 28.66600799560547 3 33.2449836730957 3 37.966796875 C 3 42.6886100769043 3.924095153808594 47.26758575439453 5.746635437011719 51.57653427124023 C 7.507621765136719 55.73999786376953 10.02927398681641 59.47979736328125 13.24153518676758 62.69205856323242 C 16.45379638671875 65.90431976318359 20.19359588623047 68.42597198486328 24.35705947875977 70.18695831298828 C 28.66600799560547 72.00949859619141 33.2449836730957 72.93359375 37.966796875 72.93359375 C 42.6886100769043 72.93359375 47.26758575439453 72.00949859619141 51.57653427124023 70.18695831298828 C 55.73999786376953 68.42597198486328 59.47979736328125 65.90431976318359 62.69205856323242 62.69205856323242 C 65.90431976318359 59.47979736328125 68.42597198486328 55.73999786376953 70.18695831298828 51.57653427124023 C 72.00949859619141 47.26758575439453 72.93359375 42.6886100769043 72.93359375 37.966796875 C 72.93359375 33.2449836730957 72.00949859619141 28.66600799560547 70.18695831298828 24.35705947875977 C 68.42597198486328 20.19359588623047 65.90431976318359 16.45379638671875 62.69205856323242 13.24153518676758 C 59.47979736328125 10.02928161621094 55.73999786376953 7.507637023925781 51.57653427124023 5.746635437011719 C 47.26758575439453 3.924095153808594 42.6886100769043 3 37.966796875 3 M 37.966796875 0 C 58.93528366088867 0 75.93359375 16.99832153320312 75.93359375 37.966796875 C 75.93359375 58.93528366088867 58.93528366088867 75.93359375 37.966796875 75.93359375 C 16.99831008911133 75.93359375 0 58.93528366088867 0 37.966796875 C 0 16.99832153320312 16.99831008911133 0 37.966796875 0 Z" stroke="none" fill="#84792b"/>
                            </g>
                          </g>
                        </g>
                      </g>
                    </g>
                  </g>
                </g>
              </g>
            </g>
          </g>
        </g>
      </g>
    </g>
    <g id="evento-virtual" transform="translate(844.179 782.45)">
      <g id="Grupo_1201754" data-name="Grupo 1201754" transform="translate(0.63 0.63)">
        <path id="Trazado_1070365" data-name="Trazado 1070365" d="M75.074,36.1H42.6a2.2,2.2,0,0,1-2.2-2.2V9.7a2.2,2.2,0,0,1,2.2-2.2H75.074a2.2,2.2,0,0,1,2.2,2.2V33.9a2.2,2.2,0,0,1-2.2,2.2Z" transform="translate(-37.637 -7.5)" fill="#c8effe"/>
        <path id="Trazado_1070366" data-name="Trazado 1070366" d="M44.756,36.1H42.6a2.2,2.2,0,0,1-2.2-2.2V9.7a2.2,2.2,0,0,1,2.2-2.2h2.159a2.2,2.2,0,0,0-2.2,2.2V33.9a2.2,2.2,0,0,0,2.2,2.2Z" transform="translate(-37.635 -7.5)" fill="#99e6fc"/>
        <g id="Grupo_1201749" data-name="Grupo 1201749" transform="translate(6.138 1.57)">
          <path id="Trazado_1070367" data-name="Trazado 1070367" d="M113.332,228.2h.743a4.841,4.841,0,0,1,4.841,4.841c0,.459-.372,5.205-.832,5.205h-8.76c-.459,0-.832-4.746-.832-5.205A4.841,4.841,0,0,1,113.332,228.2Z" transform="translate(-106.141 -211.217)" fill="#9be69d"/>
          <path id="Trazado_1070368" data-name="Trazado 1070368" d="M87.86,26.184a7.327,7.327,0,0,0-7.327,7.327V36.19A4.169,4.169,0,0,0,84.7,40.359h6.317a4.169,4.169,0,0,0,4.169-4.169V33.511A7.327,7.327,0,0,0,87.86,26.184Z" transform="translate(-80.533 -26.184)" fill="#fe646f"/>
          <path id="Trazado_1070369" data-name="Trazado 1070369" d="M88.781,40.359H84.7a4.168,4.168,0,0,1-4.168-4.169V33.511A7.332,7.332,0,0,1,89.9,26.472c-4.131-.194-7.126,5.168-3.861,8.144L84.613,36.19A4.169,4.169,0,0,0,88.781,40.359Z" transform="translate(-80.532 -26.184)" fill="#fd4755"/>
          <path id="Trazado_1070370" data-name="Trazado 1070370" d="M109.855,229.608a4.826,4.826,0,0,0-1.418,3.423c0,.459-.539,3.187-.08,3.187h-2.835c-.459,0,.08-2.727.08-3.187a4.84,4.84,0,0,1,4.841-4.841h.743a4.846,4.846,0,0,1,1.047.113A4.831,4.831,0,0,0,109.855,229.608Z" transform="translate(-103.252 -211.212)" fill="#6fd7a3"/>
          <g id="Grupo_1201748" data-name="Grupo 1201748" transform="translate(2.513 7.458)">
            <path id="Trazado_1070371" data-name="Trazado 1070371" d="M120.533,116.7v2.31a5.05,5.05,0,0,1-3.23,4.711v1.123a1.848,1.848,0,0,1-1.752,1.862,1.82,1.82,0,0,1-1.887-1.818v-1.168a5.05,5.05,0,0,1-3.228-4.71V116.7a5.1,5.1,0,0,1,.047-.694.423.423,0,0,1,.581-.331,4.034,4.034,0,0,0,4.132-.658.447.447,0,0,1,.576,0,4.033,4.033,0,0,0,4.132.658.423.423,0,0,1,.581.331A5.061,5.061,0,0,1,120.533,116.7Z" transform="translate(-110.436 -114.914)" fill="#ffdfcf"/>
            <path id="Trazado_1070372" data-name="Trazado 1070372" d="M117.547,131.584c-.08.037-.161.071-.244.1v1.123a1.848,1.848,0,0,1-1.752,1.862,1.82,1.82,0,0,1-1.887-1.818v-1.168a5.05,5.05,0,0,1-3.228-4.71v-2.31a5.1,5.1,0,0,1,.047-.694.423.423,0,0,1,.582-.331,4.052,4.052,0,0,0,2.365.211c-.014.15-.02.3-.02.454v2.31a5.05,5.05,0,0,0,4.138,4.967Z" transform="translate(-110.436 -122.879)" fill="#ffcebf"/>
          </g>
        </g>
        <g id="Grupo_1201750" data-name="Grupo 1201750" transform="translate(14.567 19.925)">
          <path id="Trazado_1070373" data-name="Trazado 1070373" d="M192.713,420.093H181.561a.743.743,0,0,1-.743-.743v-.683a6.319,6.319,0,0,1,12.638,0v.683A.743.743,0,0,1,192.713,420.093Z" transform="translate(-180.818 -398.246)" fill="#fe646f"/>
          <path id="Trazado_1070374" data-name="Trazado 1070374" d="M184.58,418.662v.683a.744.744,0,0,0,.743.743h-3.762a.744.744,0,0,1-.743-.743v-.683a6.323,6.323,0,0,1,8.2-6.034A6.321,6.321,0,0,0,184.58,418.662Z" transform="translate(-180.818 -398.241)" fill="#fd4755"/>
          <path id="Trazado_1070375" data-name="Trazado 1070375" d="M192.543,259.188H181.729a.912.912,0,0,1-.912-.912v-7.392a6.319,6.319,0,1,1,12.638,0v7.392a.912.912,0,0,1-.912.912Z" transform="translate(-180.817 -244.565)" fill="#ffe177"/>
          <path id="Trazado_1070376" data-name="Trazado 1070376" d="M184.357,250.889v7.391a.912.912,0,0,0,.911.912h-3.54a.912.912,0,0,1-.912-.912v-7.391a6.322,6.322,0,0,1,8.089-6.067A6.321,6.321,0,0,0,184.357,250.889Z" transform="translate(-180.817 -244.57)" fill="#ffd15b"/>
        </g>
        <g id="Grupo_1201751" data-name="Grupo 1201751" transform="translate(29.134 19.925)">
          <path id="Trazado_1070377" data-name="Trazado 1070377" d="M366.028,420.093H354.876a.743.743,0,0,1-.743-.743v-.683a6.319,6.319,0,1,1,12.638,0v.683A.743.743,0,0,1,366.028,420.093Z" transform="translate(-354.133 -398.246)" fill="#d9b1ee"/>
          <path id="Trazado_1070378" data-name="Trazado 1070378" d="M373.994,346.014h-2.972a3.727,3.727,0,0,1-3.727-3.727v-2.36h10.426v2.36A3.727,3.727,0,0,1,373.994,346.014Z" transform="translate(-366.189 -331.912)" fill="#ffdfcf"/>
          <path id="Trazado_1070379" data-name="Trazado 1070379" d="M373.981,346.016h-2.959a3.726,3.726,0,0,1-3.727-3.727v-2.36h2.959v2.36A3.726,3.726,0,0,0,373.981,346.016Z" transform="translate(-366.19 -331.914)" fill="#ffcebf"/>
          <path id="Trazado_1070380" data-name="Trazado 1070380" d="M357.9,418.662v.683a.744.744,0,0,0,.743.743h-3.762a.744.744,0,0,1-.743-.743v-.683a6.323,6.323,0,0,1,8.2-6.034A6.321,6.321,0,0,0,357.9,418.662Z" transform="translate(-354.134 -398.241)" fill="#cb97e7"/>
          <path id="Trazado_1070381" data-name="Trazado 1070381" d="M363.687,255.636h-6.469a3.085,3.085,0,0,1-3.085-3.085v-1.667a6.319,6.319,0,0,1,12.638,0v1.667A3.084,3.084,0,0,1,363.687,255.636Z" transform="translate(-354.133 -244.565)" fill="#d1a08f"/>
          <path id="Trazado_1070382" data-name="Trazado 1070382" d="M360.264,255.638h-3.047a3.085,3.085,0,0,1-3.085-3.085v-1.667a6.323,6.323,0,0,1,7.842-6.134,6.32,6.32,0,0,0-4.8,6.134v1.667A3.085,3.085,0,0,0,360.264,255.638Z" transform="translate(-354.133 -244.567)" fill="#c68d7a"/>
        </g>
        <g id="Grupo_1201752" data-name="Grupo 1201752" transform="translate(0 19.925)">
          <path id="Trazado_1070383" data-name="Trazado 1070383" d="M19.395,420.093H8.243a.743.743,0,0,1-.743-.743v-.683a6.319,6.319,0,1,1,12.638,0v.683A.743.743,0,0,1,19.395,420.093Z" transform="translate(-7.5 -398.246)" fill="#03bed7"/>
          <path id="Trazado_1070384" data-name="Trazado 1070384" d="M27.361,346.014H24.389a3.727,3.727,0,0,1-3.727-3.727v-2.36H31.088v2.36A3.727,3.727,0,0,1,27.361,346.014Z" transform="translate(-19.556 -331.912)" fill="#d1a08f"/>
          <path id="Trazado_1070385" data-name="Trazado 1070385" d="M27.348,346.016H24.39a3.726,3.726,0,0,1-3.727-3.727v-2.36h2.959v2.36A3.726,3.726,0,0,0,27.348,346.016Z" transform="translate(-19.557 -331.914)" fill="#c68d7a"/>
          <path id="Trazado_1070386" data-name="Trazado 1070386" d="M11.262,418.662v.683a.744.744,0,0,0,.743.743H8.243a.744.744,0,0,1-.743-.743v-.683a6.323,6.323,0,0,1,8.2-6.034A6.321,6.321,0,0,0,11.262,418.662Z" transform="translate(-7.5 -398.241)" fill="#07b2cd"/>
          <path id="Trazado_1070387" data-name="Trazado 1070387" d="M17.054,255.636H10.585A3.085,3.085,0,0,1,7.5,252.551v-1.667a6.319,6.319,0,0,1,12.638,0v1.667A3.084,3.084,0,0,1,17.054,255.636Z" transform="translate(-7.5 -244.565)" fill="#596c76"/>
          <path id="Trazado_1070388" data-name="Trazado 1070388" d="M13.631,255.638H10.585A3.085,3.085,0,0,1,7.5,252.553v-1.667a6.323,6.323,0,0,1,7.842-6.134,6.32,6.32,0,0,0-4.8,6.134v1.667A3.085,3.085,0,0,0,13.631,255.638Z" transform="translate(-7.5 -244.567)" fill="#465a61"/>
        </g>
        <g id="Grupo_1201753" data-name="Grupo 1201753" transform="translate(23.225 2.726)">
          <path id="Trazado_1070389" data-name="Trazado 1070389" d="M295.047,39.933h-8.558a2.667,2.667,0,0,0-2.667,2.667v4.535a2.667,2.667,0,0,0,2.667,2.667h2.668v2.446a.907.907,0,0,0,1.623.557l2.338-3h1.929a2.667,2.667,0,0,0,2.667-2.667V42.6a2.667,2.667,0,0,0-2.667-2.667Z" transform="translate(-283.822 -39.933)" fill="#ffe177"/>
          <path id="Trazado_1070390" data-name="Trazado 1070390" d="M288.763,49.8h-2.275a2.667,2.667,0,0,1-2.667-2.667V42.6a2.667,2.667,0,0,1,2.667-2.667h2.275A2.667,2.667,0,0,0,286.1,42.6v4.535A2.667,2.667,0,0,0,288.763,49.8Z" transform="translate(-283.821 -39.934)" fill="#ffd15b"/>
        </g>
      </g>
      <g id="Grupo_1201755" data-name="Grupo 1201755" transform="translate(0 0)">
        <path id="Trazado_1070391" data-name="Trazado 1070391" d="M148.966,179.738a.63.63,0,0,0-.572-1.123,2.705,2.705,0,0,1-2.449,0,.63.63,0,0,0-.572,1.123,3.97,3.97,0,0,0,3.594,0Z" transform="translate(-132.838 -163.539)"/>
        <path id="Trazado_1070392" data-name="Trazado 1070392" d="M141.893,139.348v-.723a.63.63,0,0,0-1.261,0v.723a.63.63,0,0,0,1.261,0Z" transform="translate(-128.812 -126.397)"/>
        <path id="Trazado_1070393" data-name="Trazado 1070393" d="M186.008,139.979a.63.63,0,0,0,.63-.63v-.723a.63.63,0,0,0-1.261,0v.723A.63.63,0,0,0,186.008,139.979Z" transform="translate(-169.797 -126.397)"/>
        <path id="Trazado_1070394" data-name="Trazado 1070394" d="M41.919,31.192a3.7,3.7,0,0,0,1.115-2.65V26.875A6.928,6.928,0,0,0,40.9,21.868V2.827A2.831,2.831,0,0,0,38.068,0H5.593A2.831,2.831,0,0,0,2.765,2.827V14.905a.63.63,0,0,0,1.261,0V2.827A1.568,1.568,0,0,1,5.593,1.261H38.068a1.568,1.568,0,0,1,1.567,1.567V20.9a6.945,6.945,0,0,0-10.5,5.97v1.667c0,.018,0,.036,0,.053h-.67v-1.72c0-.112,0-.226-.008-.338A.63.63,0,0,0,27.2,26.6c0,.091.007.184.007.276v7.392a.282.282,0,0,1-.282.282H16.11a.282.282,0,0,1-.282-.282V26.875a5.69,5.69,0,0,1,10.637-2.808.63.63,0,0,0,1.1-.622,6.948,6.948,0,0,0-8.71-2.987,5.509,5.509,0,0,0-2.072-1.5V18.88a5.708,5.708,0,0,0,2.475-2.31,4.779,4.779,0,0,0,2.8-4.363V9.528a7.958,7.958,0,1,0-15.916,0v2.679a4.785,4.785,0,0,0,3.4,4.59,5.733,5.733,0,0,0,.781.975A5.66,5.66,0,0,0,11.88,18.88v.079a5.476,5.476,0,0,0-1.788,1.192c-.118.117-.229.241-.335.368a6.927,6.927,0,0,0-5.73.053V17.847a.63.63,0,0,0-1.261,0V21.33A6.942,6.942,0,0,0,0,26.875v1.667a3.7,3.7,0,0,0,1.115,2.65,4.364,4.364,0,0,0,2.506,3.686A6.955,6.955,0,0,0,0,40.977v.683a1.375,1.375,0,0,0,1.374,1.374H12.525A1.375,1.375,0,0,0,13.9,41.659v-.683a6.955,6.955,0,0,0-3.621-6.1,4.364,4.364,0,0,0,2.506-3.686,3.723,3.723,0,0,0,.874-1.336h.909v4.411a1.544,1.544,0,0,0,1.542,1.542h.759a6.949,6.949,0,0,0-2.3,5.167v.683a1.375,1.375,0,0,0,1.374,1.374H27.092a1.375,1.375,0,0,0,1.374-1.374v-.683a6.9,6.9,0,0,0-2.036-4.914c-.087-.087-.177-.171-.268-.253h.761a1.544,1.544,0,0,0,1.542-1.542V29.856h.909a3.725,3.725,0,0,0,.874,1.336,4.364,4.364,0,0,0,2.506,3.686,6.955,6.955,0,0,0-3.621,6.1v.683a1.375,1.375,0,0,0,1.374,1.374H41.659a1.375,1.375,0,0,0,1.374-1.374v-.683a6.955,6.955,0,0,0-3.621-6.1,4.364,4.364,0,0,0,2.506-3.686ZM7.4,12.207V9.528a6.7,6.7,0,1,1,13.394,0v2.679a3.529,3.529,0,0,1-.834,2.286,5.579,5.579,0,0,0,.05-.738v-2.31a5.713,5.713,0,0,0-.053-.78,1.054,1.054,0,0,0-1.444-.828,3.4,3.4,0,0,1-3.485-.555,1.072,1.072,0,0,0-1.392,0,3.4,3.4,0,0,1-3.485.555,1.054,1.054,0,0,0-1.445.829,5.755,5.755,0,0,0-.053.779v2.31A5.724,5.724,0,0,0,8.8,15.027a3.532,3.532,0,0,1-1.4-2.82Zm3.807,4.673a4.392,4.392,0,0,1-1.294-3.125v-2.31c0-.115,0-.231.013-.346a4.666,4.666,0,0,0,4.405-.758,4.665,4.665,0,0,0,4.4.758c.009.115.013.23.013.346v2.31a4.446,4.446,0,0,1-2.827,4.123.63.63,0,0,0-.4.588V19.59a1.222,1.222,0,0,1-1.145,1.232,1.19,1.19,0,0,1-1.234-1.188V18.466a.63.63,0,0,0-.4-.588A4.4,4.4,0,0,1,11.206,16.88ZM1.261,26.875a5.689,5.689,0,0,1,11.377,0v1.667A2.457,2.457,0,0,1,10.184,31H3.715a2.457,2.457,0,0,1-2.454-2.454Zm11.377,14.1v.683a.113.113,0,0,1-.113.113H1.374a.113.113,0,0,1-.113-.113v-.683a5.7,5.7,0,0,1,5.681-5.689h.016a5.7,5.7,0,0,1,5.681,5.689Zm-4.2-6.949H5.463A3.1,3.1,0,0,1,2.59,32.082a3.7,3.7,0,0,0,1.125.175h6.469a3.7,3.7,0,0,0,1.125-.174,3.1,3.1,0,0,1-2.873,1.945ZM13.9,28.6c0-.018,0-.035,0-.053V26.875a6.946,6.946,0,0,0-3.017-5.726c.033-.036.067-.072.1-.106a4.214,4.214,0,0,1,.99-.735,2.453,2.453,0,0,0,2.355,1.776l.091,0A2.445,2.445,0,0,0,16.679,20.3a4.247,4.247,0,0,1,1.025.765,6.949,6.949,0,0,0-3.136,5.806V28.6H13.9Zm11.641,8.358a5.651,5.651,0,0,1,1.666,4.023v.683a.113.113,0,0,1-.113.113H15.941a.113.113,0,0,1-.113-.113v-.683a5.69,5.69,0,0,1,3.308-5.167H23.9A5.686,5.686,0,0,1,25.539,36.954Zm4.856-10.079a5.689,5.689,0,0,1,11.377,0v1.667A2.457,2.457,0,0,1,39.318,31H32.849a2.457,2.457,0,0,1-2.454-2.454Zm11.377,14.1v.683a.113.113,0,0,1-.113.113H30.508a.113.113,0,0,1-.113-.113v-.683a5.7,5.7,0,0,1,5.681-5.689h.016A5.7,5.7,0,0,1,41.772,40.977Zm-4.2-6.949H34.6a3.1,3.1,0,0,1-2.873-1.945,3.7,3.7,0,0,0,1.125.174h6.469a3.7,3.7,0,0,0,1.125-.175,3.1,3.1,0,0,1-2.874,1.945Z" transform="translate(0 0)"/>
        <path id="Trazado_1070395" data-name="Trazado 1070395" d="M280.422,32.43h-.8a3.3,3.3,0,0,0-3.3,3.3v4.535a3.3,3.3,0,0,0,3.3,3.3h2.038v1.816a1.518,1.518,0,0,0,1.038,1.454,1.567,1.567,0,0,0,.51.086,1.518,1.518,0,0,0,1.2-.6l2.149-2.761h1.621a3.3,3.3,0,0,0,3.3-3.3V35.727a3.3,3.3,0,0,0-3.3-3.3h-4.812a.63.63,0,1,0,0,1.261h4.812a2.039,2.039,0,0,1,2.037,2.037v4.535a2.039,2.039,0,0,1-2.037,2.037h-1.929a.63.63,0,0,0-.5.243l-2.338,3a.276.276,0,0,1-.495-.17V42.929a.63.63,0,0,0-.63-.63h-2.669a2.039,2.039,0,0,1-2.036-2.037V35.727a2.039,2.039,0,0,1,2.036-2.037h.8a.63.63,0,1,0,0-1.261Z" transform="translate(-253.096 -29.704)"/>
        <path id="Trazado_1070396" data-name="Trazado 1070396" d="M319.661,72.83h-8.069a.63.63,0,1,0,0,1.261h8.069a.63.63,0,1,0,0-1.261Z" transform="translate(-284.826 -66.709)"/>
        <path id="Trazado_1070397" data-name="Trazado 1070397" d="M319.661,105.078h-8.069a.63.63,0,0,0,0,1.261h8.069a.63.63,0,0,0,0-1.261Z" transform="translate(-284.826 -96.246)"/>
      </g>
    </g>
  </g>
</svg>
