<svg xmlns="http://www.w3.org/2000/svg" xmlns:xlink="http://www.w3.org/1999/xlink" width="400" height="299" viewBox="0 0 400 299">
  <defs>
    <clipPath id="clip-path">
      <rect id="Rectángulo_416147" data-name="Rectángulo 416147" width="400" height="299" transform="translate(166.59 1761.872)" fill="#fff" stroke="#707070" stroke-width="1"/>
    </clipPath>
  </defs>
  <g id="Enmascarar_grupo_1098848" data-name="Enmascarar grupo 1098848" transform="translate(-166.59 -1761.872)" clip-path="url(#clip-path)">
    <g id="OBJECTS" transform="translate(191.923 1761.538)">
      <g id="Grupo_1201037" data-name="Grupo 1201037" transform="translate(0 0)">
        <g id="Grupo_1201036" data-name="Grupo 1201036" transform="translate(0)">
          <g id="Grupo_1200925" data-name="Grupo 1200925" transform="translate(0 31.807)">
            <g id="Grupo_1200859" data-name="Grupo 1200859" opacity="0.37">
              <path id="Trazado_1069726" data-name="Trazado 1069726" d="M352.8,194.138c0,82.014-61.315,133.57-136.949,133.57S10.13,332.2,10.13,250.182,140.216,30.708,215.852,30.708,352.8,112.123,352.8,194.138Z" transform="translate(-10.13 -30.708)" fill="#fff"/>
            </g>
          </g>
          <g id="Grupo_1200934" data-name="Grupo 1200934" transform="translate(49.035)">
            <g id="Grupo_1200929" data-name="Grupo 1200929" transform="translate(27.877)">
              <g id="Grupo_1200926" data-name="Grupo 1200926" transform="translate(62.053)">
                <path id="Trazado_1069762" data-name="Trazado 1069762" d="M200.338,26.837a44.706,44.706,0,0,1,12.249-1.66q15.884,0,19.455,8.772a11.9,11.9,0,0,1,.814,4.511q0,6.485-3.571,9.775a30.306,30.306,0,0,1-3.556,2.756,28.056,28.056,0,0,0-3.274,2.506,12.649,12.649,0,0,0-3.509,5.671H207.512a16.431,16.431,0,0,1-.94-5.154,9.615,9.615,0,0,1,.642-3.807,8.769,8.769,0,0,1,1.629-2.522,11.671,11.671,0,0,1,2.115-1.786l2.114-1.378a10.078,10.078,0,0,0,1.629-1.285,2.078,2.078,0,0,0,.642-1.52q0-3.665-5.013-3.666a26.621,26.621,0,0,0-8.4,1.66q-1.1.375-1.6.6V26.837Zm13.784,34.649a10.082,10.082,0,0,1,3.728.611,6.966,6.966,0,0,1,2.538,1.676,7.375,7.375,0,0,1,2.005,5.358,8.123,8.123,0,0,1-2.6,5.89,9.456,9.456,0,0,1-6.955,2.616q-4.355.016-6.391-2.13a7.552,7.552,0,0,1-2.052-5.373,8.1,8.1,0,0,1,2.772-5.937A9.583,9.583,0,0,1,214.122,61.486Z" transform="translate(-200.337 -25.177)" fill="#fe777d"/>
              </g>
              <g id="Grupo_1200927" data-name="Grupo 1200927" transform="translate(25.707 40.154)">
                <path id="Trazado_1069763" data-name="Trazado 1069763" d="M154.73,76.955a37.44,37.44,0,0,1,10.257-1.391q13.3,0,16.29,7.345a9.963,9.963,0,0,1,.682,3.777q0,5.431-2.991,8.185a25.431,25.431,0,0,1-2.977,2.308,23.464,23.464,0,0,0-2.741,2.1,10.593,10.593,0,0,0-2.938,4.748h-9.575a13.741,13.741,0,0,1-.787-4.315,8.042,8.042,0,0,1,.538-3.187,7.332,7.332,0,0,1,1.364-2.112,9.748,9.748,0,0,1,1.771-1.495l1.771-1.154a8.36,8.36,0,0,0,1.363-1.076,1.739,1.739,0,0,0,.538-1.273q0-3.068-4.2-3.069a22.28,22.28,0,0,0-7.03,1.391q-.919.314-1.338.5V76.955Zm11.542,29.012a8.452,8.452,0,0,1,3.121.512,5.843,5.843,0,0,1,2.125,1.4,6.174,6.174,0,0,1,1.678,4.486,6.8,6.8,0,0,1-2.177,4.931,7.92,7.92,0,0,1-5.824,2.191q-3.646.013-5.351-1.784a6.319,6.319,0,0,1-1.718-4.5,6.787,6.787,0,0,1,2.321-4.971A8.024,8.024,0,0,1,166.272,105.967Z" transform="translate(-154.728 -75.564)" fill="#fe777d"/>
              </g>
              <g id="Grupo_1200928" data-name="Grupo 1200928" transform="translate(0 86.626)">
                <path id="Trazado_1069764" data-name="Trazado 1069764" d="M122.469,134.984a29.714,29.714,0,0,1,8.14-1.1q10.556,0,12.929,5.829a7.9,7.9,0,0,1,.541,3q0,4.309-2.373,6.5a20.212,20.212,0,0,1-2.363,1.832,18.636,18.636,0,0,0-2.176,1.666,8.4,8.4,0,0,0-2.332,3.769h-7.6a10.926,10.926,0,0,1-.625-3.424,6.385,6.385,0,0,1,.426-2.529,5.816,5.816,0,0,1,1.083-1.676,7.717,7.717,0,0,1,1.4-1.187l1.406-.916a6.709,6.709,0,0,0,1.082-.854,1.379,1.379,0,0,0,.427-1.01q0-2.436-3.331-2.436a17.673,17.673,0,0,0-5.579,1.1q-.729.25-1.062.4v-8.953Zm9.16,23.027a6.707,6.707,0,0,1,2.478.406,4.625,4.625,0,0,1,1.686,1.113,4.9,4.9,0,0,1,1.332,3.561A5.4,5.4,0,0,1,135.4,167a6.281,6.281,0,0,1-4.622,1.739,5.589,5.589,0,0,1-4.247-1.415,5.019,5.019,0,0,1-1.364-3.57,5.39,5.39,0,0,1,1.842-3.945A6.364,6.364,0,0,1,131.629,158.01Z" transform="translate(-122.469 -133.88)" fill="#fe777d"/>
              </g>
            </g>
            <g id="Grupo_1200933" data-name="Grupo 1200933" transform="translate(0 28.111)">
              <g id="Grupo_1200930" data-name="Grupo 1200930">
                <path id="Trazado_1069765" data-name="Trazado 1069765" d="M100.628,87.01H90.337L87.488,60.452h15.989Zm-4.454,4.427a8.924,8.924,0,0,1,3.292.54,6.138,6.138,0,0,1,2.241,1.48,6.51,6.51,0,0,1,1.771,4.73,7.172,7.172,0,0,1-2.3,5.2,8.38,8.38,0,0,1-6.169,2.309q-3.873.014-5.671-1.881a6.618,6.618,0,0,1-1.8-4.744,7.206,7.206,0,0,1,2.462-5.243A8.5,8.5,0,0,1,96.174,91.436Z" transform="translate(-87.488 -60.452)" fill="#ebe9f0"/>
              </g>
              <g id="Grupo_1200931" data-name="Grupo 1200931" transform="translate(204.821 119.053)">
                <path id="Trazado_1069766" data-name="Trazado 1069766" d="M355.47,232h-8.584l-2.377-22.154h13.339Zm-3.715,3.692a7.44,7.44,0,0,1,2.745.449,5.133,5.133,0,0,1,1.87,1.234,5.433,5.433,0,0,1,1.477,3.946,5.983,5.983,0,0,1-1.915,4.338,6.992,6.992,0,0,1-5.146,1.927q-3.231.012-4.731-1.569a5.524,5.524,0,0,1-1.5-3.958,6.011,6.011,0,0,1,2.054-4.373A7.1,7.1,0,0,1,351.755,235.692Z" transform="translate(-344.509 -209.846)" fill="#ebe9f0"/>
              </g>
              <g id="Grupo_1200932" data-name="Grupo 1200932" transform="translate(66.535 88.519)">
                <path id="Trazado_1069767" data-name="Trazado 1069767" d="M179.953,189.666h-7.027L170.98,171.53H181.9Zm-3.042,3.023a6.091,6.091,0,0,1,2.248.368,4.2,4.2,0,0,1,1.53,1.01,4.447,4.447,0,0,1,1.21,3.231,4.9,4.9,0,0,1-1.568,3.552,5.724,5.724,0,0,1-4.213,1.577,5.1,5.1,0,0,1-3.872-1.285,4.52,4.52,0,0,1-1.228-3.24,4.921,4.921,0,0,1,1.681-3.58A5.8,5.8,0,0,1,176.911,192.689Z" transform="translate(-170.98 -171.53)" fill="#ebe9f0"/>
              </g>
            </g>
          </g>
          <g id="Grupo_1200946" data-name="Grupo 1200946" transform="translate(40.679 304.199)">
            <g id="Grupo_1200943" data-name="Grupo 1200943">
              <circle id="Elipse_13470" data-name="Elipse 13470" cx="4.004" cy="4.004" r="4.004" fill="#422038"/>
            </g>
            <g id="Grupo_1200944" data-name="Grupo 1200944" transform="translate(12.189)">
              <circle id="Elipse_13471" data-name="Elipse 13471" cx="4.004" cy="4.004" r="4.004" fill="#422038"/>
            </g>
            <g id="Grupo_1200945" data-name="Grupo 1200945" transform="translate(24.178)">
              <circle id="Elipse_13472" data-name="Elipse 13472" cx="4.004" cy="4.004" r="4.004" fill="#422038"/>
            </g>
          </g>
          <g id="Grupo_1201029" data-name="Grupo 1201029" transform="translate(1.229 51.315)">
            <g id="Grupo_1200947" data-name="Grupo 1200947" transform="translate(101.377 280.604)">
              <path id="Trazado_1069768" data-name="Trazado 1069768" d="M162.474,441.688a229.669,229.669,0,0,0-7.761,45.932h125.01V445.64Z" transform="translate(-154.713 -441.688)" fill="#422038"/>
            </g>
            <g id="Grupo_1200983" data-name="Grupo 1200983" transform="translate(139.948 0)">
              <g id="Grupo_1200948" data-name="Grupo 1200948">
                <path id="Trazado_1069769" data-name="Trazado 1069769" d="M288.453,150.388c3.181-.526,5.857-2.649,8.142-4.924,6.539-6.512,11.279-15.552,10.214-24.718a15.433,15.433,0,0,1-4.287,6.1c-.722.646-1.926,1.183-2.56.45,6.462-7.084,5.386-18.038,1.212-26.67-2.352-4.865-6.133-9.528-11.395-10.757a12.291,12.291,0,0,0-10.421,2.474c-1.795,1.474-3.189,3.459-5.225,4.578-3.129,1.721-6.968,1.012-10.491.426-8.3-1.382-17.093-1.766-24.884,1.418s-14.293,10.685-14.11,19.1c-1.414-2.065-4.491-3.18-6.99-3.3a15.793,15.793,0,0,0-14.116,7.68,17.5,17.5,0,0,1,16.093,1.457c-5.643,2.287-11.7,5.9-14.659,11.225s-2.524,12.866,2.266,16.626c2.166,1.7,4.971,2.5,6.982,4.378a8.682,8.682,0,0,1,1.769,9.961,7.1,7.1,0,0,1,6.193,4.5c.721,1.937.724,4.408,2.455,5.539a5.416,5.416,0,0,0,3.949.347,39.175,39.175,0,0,0,13.344-5.126c2.843-1.747,6.564-3.663,9.278-5.6a69.815,69.815,0,0,1,26.762-11.615c1.693-.34,3.793-1.017,3.961-2.736C283.675,150.031,286.372,150.133,288.453,150.388Z" transform="translate(-203.113 -89.57)" fill="#422038"/>
              </g>
              <g id="Grupo_1200972" data-name="Grupo 1200972" transform="translate(18.677 28.11)">
                <g id="Grupo_1200970" data-name="Grupo 1200970">
                  <g id="Grupo_1200949" data-name="Grupo 1200949" transform="translate(7.184)">
                    <path id="Trazado_1069770" data-name="Trazado 1069770" d="M295.213,181.9c-6.288,20.828-21.291,25-36.823,17.88s-30.652-16.472-18.263-43.934c9.111-20.2,29.034-36.419,44.567-29.3S301.617,160.69,295.213,181.9Z" transform="translate(-235.566 -124.844)" fill="#f2ad97"/>
                  </g>
                  <g id="Grupo_1200950" data-name="Grupo 1200950" transform="translate(43.886 28.45)">
                    <path id="Trazado_1069771" data-name="Trazado 1069771" d="M291.54,173.852q-.063.565-.136,1.128a12.8,12.8,0,0,1-.98,3.945,4.948,4.948,0,0,1-2.935,2.694,4.884,4.884,0,0,1-5.668-3.326c-.525-1.841.081-3.743.742-5.49a83.38,83.38,0,0,1,4.64-10.167c1.591-2.947,4.155-2.88,4.513.843A50.115,50.115,0,0,1,291.54,173.852Z" transform="translate(-281.621 -160.545)" fill="#ed8a85"/>
                  </g>
                  <g id="Grupo_1200951" data-name="Grupo 1200951" transform="translate(32.965 9.636)">
                    <path id="Trazado_1069772" data-name="Trazado 1069772" d="M274.737,137.87c2.75-1.121,5.629-1.548,7.321.536a2.826,2.826,0,0,1-.323,3.951,4.318,4.318,0,0,1-1.944.591,68.408,68.408,0,0,1-9.866.578,3.272,3.272,0,0,1-1.259-.187,1.167,1.167,0,0,1-.749-.963c-.022-.587.523-1.017,1.017-1.328A38.473,38.473,0,0,1,274.737,137.87Z" transform="translate(-267.916 -136.936)" fill="#422038"/>
                  </g>
                  <g id="Grupo_1200953" data-name="Grupo 1200953" transform="translate(57.952 14.301)">
                    <g id="Grupo_1200952" data-name="Grupo 1200952">
                      <path id="Trazado_1069773" data-name="Trazado 1069773" d="M306.957,146.682c-1.361-2.387-3.208-4.342-5.608-3.8a2.587,2.587,0,0,0-1.991,3.048,4.036,4.036,0,0,0,1.077,1.541,63.639,63.639,0,0,0,6.825,6.064,3.05,3.05,0,0,0,1.018.585,1.062,1.062,0,0,0,1.085-.269,1.6,1.6,0,0,0,.011-1.544A36.02,36.02,0,0,0,306.957,146.682Z" transform="translate(-299.272 -142.79)" fill="#422038"/>
                    </g>
                  </g>
                  <g id="Grupo_1200954" data-name="Grupo 1200954" transform="translate(23.203 30.23)">
                    <ellipse id="Elipse_13473" data-name="Elipse 13473" cx="3.651" cy="7.226" rx="3.651" ry="7.226" transform="translate(0 6.908) rotate(-71.089)" fill="#ed6f6d"/>
                  </g>
                  <g id="Grupo_1200955" data-name="Grupo 1200955" transform="translate(56.276 39.79)">
                    <ellipse id="Elipse_13474" data-name="Elipse 13474" cx="3.651" cy="7.389" rx="3.651" ry="7.389" transform="translate(0 6.909) rotate(-71.096)" fill="#ed6f6d"/>
                  </g>
                  <g id="Grupo_1200956" data-name="Grupo 1200956" transform="translate(0 11.026)">
                    <path id="Trazado_1069774" data-name="Trazado 1069774" d="M247.328,155.1c-2.733,6.06-8.248,11.393-13.717,8.886s-8.823-11.9-6.088-17.963,9.384-8.94,14.853-6.433S250.062,149.036,247.328,155.1Z" transform="translate(-226.55 -138.681)" fill="#f2ad97"/>
                  </g>
                  <g id="Grupo_1200958" data-name="Grupo 1200958" transform="translate(7.249 16.61)">
                    <g id="Grupo_1200957" data-name="Grupo 1200957">
                      <path id="Trazado_1069775" data-name="Trazado 1069775" d="M236.194,146.6c2.74-.514,4.7,2.37,4.812,4.789a11.136,11.136,0,0,1-.828,4.354,9.874,9.874,0,0,1-2.056,3.788c-.406.388.21,1,.617.617a11.153,11.153,0,0,0,2.367-4.409,10.747,10.747,0,0,0,.687-5.2c-.418-2.744-2.9-5.332-5.83-4.781-.551.1-.318.944.232.841Z" transform="translate(-235.647 -145.687)" fill="#422038"/>
                    </g>
                  </g>
                  <g id="Grupo_1200960" data-name="Grupo 1200960" transform="translate(5.922 23.228)">
                    <g id="Grupo_1200959" data-name="Grupo 1200959">
                      <path id="Trazado_1069776" data-name="Trazado 1069776" d="M240.744,153.992a7.8,7.8,0,0,0-6.7,3.855.436.436,0,0,0,.753.44,6.912,6.912,0,0,1,5.948-3.423.436.436,0,0,0,0-.872Z" transform="translate(-233.981 -153.992)" fill="#422038"/>
                    </g>
                  </g>
                  <g id="Grupo_1200962" data-name="Grupo 1200962" transform="translate(35.488 50.731)">
                    <g id="Grupo_1200961" data-name="Grupo 1200961">
                      <path id="Trazado_1069777" data-name="Trazado 1069777" d="M273.822,192.811a2.292,2.292,0,0,0,.982-2.14,2.248,2.248,0,0,0-.437-1.153,2.41,2.41,0,0,0-1.2-.8,6.118,6.118,0,0,0-1.667-.218c-.561-.019-.561.853,0,.872a5.075,5.075,0,0,1,1.461.194,1.635,1.635,0,0,1,.551.3,1.039,1.039,0,0,1,.315.431c.013.028.012.026,0-.008.01.026.02.052.029.079.016.046.029.093.041.141s.022.1.031.144.009.056,0,.01c0,.021,0,.042.006.063a2.646,2.646,0,0,1,0,.3c0,.018-.02.159-.006.074q-.012.073-.029.146a1.189,1.189,0,0,1-.2.476c-.009.014-.088.126-.041.065-.03.038-.063.074-.1.109s-.069.069-.106.1-.043.036-.011.01c-.023.017-.046.033-.07.048a.446.446,0,0,0-.156.6.44.44,0,0,0,.6.155Z" transform="translate(-271.083 -188.505)" fill="#422038"/>
                    </g>
                  </g>
                  <g id="Grupo_1200963" data-name="Grupo 1200963" transform="translate(0 35.204)">
                    <path id="Trazado_1069778" data-name="Trazado 1069778" d="M235.736,169.02l-9.185,56.541s10.663,10.769,20.867,7.12L249.99,191.3Z" transform="translate(-226.551 -169.02)" fill="#f2ad97"/>
                  </g>
                  <g id="Grupo_1200965" data-name="Grupo 1200965" transform="translate(9.236 47.645)">
                    <g id="Grupo_1200964" data-name="Grupo 1200964">
                      <path id="Trazado_1069779" data-name="Trazado 1069779" d="M252.393,208.012a26.09,26.09,0,0,1-13.379-22.959.436.436,0,0,0-.872,0,26.967,26.967,0,0,0,13.811,23.712c.492.269.933-.485.44-.753Z" transform="translate(-238.14 -184.632)" fill="#422038"/>
                    </g>
                  </g>
                  <g id="Grupo_1200966" data-name="Grupo 1200966" transform="translate(32.14 22.471)">
                    <ellipse id="Elipse_13475" data-name="Elipse 13475" cx="4.208" cy="2.506" rx="4.208" ry="2.506" transform="translate(0 7.831) rotate(-68.494)" fill="#422038"/>
                  </g>
                  <g id="Grupo_1200967" data-name="Grupo 1200967" transform="translate(56.439 29.956)">
                    <ellipse id="Elipse_13476" data-name="Elipse 13476" cx="4.208" cy="2.506" rx="4.208" ry="2.506" transform="translate(0 7.831) rotate(-68.494)" fill="#422038"/>
                  </g>
                  <g id="Grupo_1200968" data-name="Grupo 1200968" transform="translate(31.901 25.64)">
                    <circle id="Elipse_13477" data-name="Elipse 13477" cx="1.663" cy="1.663" r="1.663" fill="#fff"/>
                  </g>
                  <g id="Grupo_1200969" data-name="Grupo 1200969" transform="translate(56.055 33.515)">
                    <circle id="Elipse_13478" data-name="Elipse 13478" cx="1.663" cy="1.663" r="1.663" fill="#fff"/>
                  </g>
                </g>
                <g id="Grupo_1200971" data-name="Grupo 1200971" transform="translate(37.347 44.823)">
                  <path id="Trazado_1069780" data-name="Trazado 1069780" d="M273.83,181.313c.809-.774,2.772.568,4.757,2.643s3.236,4.1,2.427,4.87-3.711.329-5.7-1.745S273.021,182.086,273.83,181.313Z" transform="translate(-273.415 -181.091)" fill="#422038"/>
                </g>
              </g>
              <g id="Grupo_1200974" data-name="Grupo 1200974" transform="translate(25.771 5.758)">
                <g id="Grupo_1200973" data-name="Grupo 1200973">
                  <path id="Trazado_1069781" data-name="Trazado 1069781" d="M236.246,122.894a18.98,18.98,0,0,1,9.89-9.749,18.344,18.344,0,0,1,7.063-1.527,30.869,30.869,0,0,1,8.064,1.365c4.7,1.228,9.234,1.87,14.056.978a29.684,29.684,0,0,0,11.919-5.13,27.8,27.8,0,0,0,9.278-11.367c.221-.509-.53-.954-.753-.44a28.262,28.262,0,0,1-20.676,16.1,26.153,26.153,0,0,1-6.878.356,49.843,49.843,0,0,1-8.12-1.7,25.508,25.508,0,0,0-7.756-1,19.412,19.412,0,0,0-6.268,1.458,19.78,19.78,0,0,0-10.573,10.219c-.22.509.531.953.755.44Z" transform="translate(-235.452 -96.797)" fill="#6d4f65"/>
                </g>
              </g>
              <g id="Grupo_1200976" data-name="Grupo 1200976" transform="translate(78.033 8.896)">
                <g id="Grupo_1200975" data-name="Grupo 1200975">
                  <path id="Trazado_1069782" data-name="Trazado 1069782" d="M301.663,118.972a30.215,30.215,0,0,0,11.7-17.694c.124-.547-.717-.78-.841-.232a29.305,29.305,0,0,1-11.3,17.173c-.45.327-.015,1.084.44.753Z" transform="translate(-301.033 -100.734)" fill="#6d4f65"/>
                </g>
              </g>
              <g id="Grupo_1200978" data-name="Grupo 1200978" transform="translate(86.351 10.472)">
                <g id="Grupo_1200977" data-name="Grupo 1200977">
                  <path id="Trazado_1069783" data-name="Trazado 1069783" d="M312.269,120.912a57.809,57.809,0,0,0,5.061-17.785c.065-.556-.807-.551-.872,0a56.5,56.5,0,0,1-4.942,17.345c-.237.505.515.948.753.44Z" transform="translate(-311.471 -102.712)" fill="#6d4f65"/>
                </g>
              </g>
              <g id="Grupo_1200980" data-name="Grupo 1200980" transform="translate(7.226 36.74)">
                <g id="Grupo_1200979" data-name="Grupo 1200979">
                  <path id="Trazado_1069784" data-name="Trazado 1069784" d="M223.553,135.681c-6.207-.263-10.639,6.4-11.3,11.947a9.582,9.582,0,0,0,2.733,7.938c1.9,2.013,4.359,3.541,5.913,5.866,2.347,3.512.609,7.677,1.156,11.556.078.554.919.318.841-.232-.461-3.259.821-6.642-.279-9.831-.791-2.293-2.6-3.965-4.372-5.524-1.95-1.715-4.11-3.488-4.873-6.078-.945-3.211.2-6.833,1.918-9.582,1.8-2.874,4.7-5.338,8.262-5.187.562.023.56-.849,0-.873Z" transform="translate(-212.181 -135.674)" fill="#6d4f65"/>
                </g>
              </g>
              <g id="Grupo_1200982" data-name="Grupo 1200982" transform="translate(25.171 3.883)">
                <g id="Grupo_1200981" data-name="Grupo 1200981">
                  <path id="Trazado_1069785" data-name="Trazado 1069785" d="M235.579,122.366a18.75,18.75,0,0,1,5.115-13.118,23.061,23.061,0,0,1,12.694-6.776c5.393-1.039,10.6-.132,15.905.922,4.64.922,9.513,1.727,14.092.1,3.918-1.394,7.375-4.333,7.95-8.635.074-.555-.8-.549-.872,0-.584,4.374-4.632,7.153-8.623,8.2-5.1,1.336-10.412-.17-15.445-1.124a33.958,33.958,0,0,0-14.69.019,23.392,23.392,0,0,0-11.836,6.909,19.607,19.607,0,0,0-5.162,13.5.436.436,0,0,0,.872,0Z" transform="translate(-234.7 -94.443)" fill="#6d4f65"/>
                </g>
              </g>
            </g>
            <g id="Grupo_1200993" data-name="Grupo 1200993" transform="translate(279.096 57.858)">
              <g id="Grupo_1200984" data-name="Grupo 1200984">
                <path id="Trazado_1069786" data-name="Trazado 1069786" d="M400.061,248.592q1.754-16.241,3.719-32.459c.227-1.877.529-3.906,1.879-5.229,1.85-1.815,4.81-1.558,7.4-1.434a39.689,39.689,0,0,0,34.429-17.583,5.25,5.25,0,0,0,1.085-2.776,1.982,1.982,0,0,0-1.767-2.062,2.993,2.993,0,0,0-1.852,1.06,76.845,76.845,0,0,1-14.056,10.6c-1.628.956-4.03,1.713-5.131.18a41.937,41.937,0,0,0,21.94-25.464c.492-1.63.769-3.681-.528-4.784-1.182-1-3.1-.554-4.191.553a11.576,11.576,0,0,0-2.643,4.394,27.118,27.118,0,0,0,2.932-7.969,4.008,4.008,0,0,0,.092-1.468c-.3-1.688-2.548-2.386-4.133-1.732s-2.549,2.278-3.493,3.71a3.419,3.419,0,0,0-2.714-1.8,4.915,4.915,0,0,0-3.011.937c-3.467,2.278-4.878,6.563-7.069,10.086a23.824,23.824,0,0,1-20.25,11.023l5.5-11.356a7.787,7.787,0,0,0,1.088-3.784,2.678,2.678,0,0,0-2.446-2.637c-1.161.046-2.007,1.077-2.69,2.016l-8.5,11.683a57.159,57.159,0,0,0-5.618,8.8c-4.438,9.284-3.592,20.251-6.935,29.983a191.527,191.527,0,0,0-5.374,20.429c2.538,1.315,5.869,3.8,8.581,4.7a50.154,50.154,0,0,0,5.459,1.493C393.89,248.16,398.03,249.369,400.061,248.592Z" transform="translate(-377.724 -162.174)" fill="#f2ad97"/>
              </g>
              <g id="Grupo_1200986" data-name="Grupo 1200986" transform="translate(40.026 3.848)">
                <g id="Grupo_1200985" data-name="Grupo 1200985">
                  <path id="Trazado_1069787" data-name="Trazado 1069787" d="M428.615,189.012a34.131,34.131,0,0,0,17.99-21.469.436.436,0,0,0-.841-.232,33.28,33.28,0,0,1-17.589,20.947c-.507.243-.065,1,.44.754Z" transform="translate(-427.951 -167.003)" fill="#422038"/>
                </g>
              </g>
              <g id="Grupo_1200988" data-name="Grupo 1200988" transform="translate(44.938 8.347)">
                <g id="Grupo_1200987" data-name="Grupo 1200987">
                  <path id="Trazado_1069788" data-name="Trazado 1069788" d="M434.76,196.274c8.686-5.457,14.352-14.269,19.374-22.974a.436.436,0,0,0-.753-.44c-4.945,8.572-10.5,17.285-19.061,22.661-.475.3-.037,1.053.44.753Z" transform="translate(-434.115 -172.648)" fill="#422038"/>
                </g>
              </g>
              <g id="Grupo_1200990" data-name="Grupo 1200990" transform="translate(19.949 26.506)">
                <g id="Grupo_1200989" data-name="Grupo 1200989">
                  <path id="Trazado_1069789" data-name="Trazado 1069789" d="M403.407,208.1c3.833-2.275,5.757-6.433,8.817-9.509a8.293,8.293,0,0,1,3.027-2.163,3.539,3.539,0,0,1,3.754,1.15c1.931,2.109,2.378,5.692,2.481,8.42.021.559.893.563.872,0-.108-2.859-.587-6.258-2.372-8.6a4.532,4.532,0,0,0-6.38-1.105c-4.346,2.881-6.116,8.37-10.639,11.055a.436.436,0,0,0,.44.753Z" transform="translate(-402.758 -195.436)" fill="#422038"/>
                </g>
              </g>
              <g id="Grupo_1200992" data-name="Grupo 1200992" transform="translate(22.595 39.281)">
                <g id="Grupo_1200991" data-name="Grupo 1200991">
                  <path id="Trazado_1069790" data-name="Trazado 1069790" d="M406.947,217.517a8.817,8.817,0,0,1,5.226-5.182c.524-.188.3-1.031-.232-.841a9.757,9.757,0,0,0-5.836,5.791c-.194.528.649.755.841.232Z" transform="translate(-406.077 -211.466)" fill="#422038"/>
                </g>
              </g>
            </g>
            <g id="Grupo_1201003" data-name="Grupo 1201003" transform="translate(0 42.809)">
              <g id="Grupo_1200994" data-name="Grupo 1200994">
                <path id="Trazado_1069791" data-name="Trazado 1069791" d="M76.01,229.707q-1.754-16.241-3.719-32.459c-.227-1.877-.529-3.906-1.879-5.229-1.85-1.815-4.81-1.558-7.4-1.434A39.689,39.689,0,0,1,28.584,173a5.25,5.25,0,0,1-1.085-2.776,1.982,1.982,0,0,1,1.767-2.062,2.993,2.993,0,0,1,1.852,1.06,76.866,76.866,0,0,0,14.055,10.6c1.628.956,4.03,1.713,5.131.18a41.937,41.937,0,0,1-21.94-25.464c-.492-1.63-.769-3.681.528-4.784,1.182-1,3.1-.554,4.191.553a11.57,11.57,0,0,1,2.643,4.394,27.118,27.118,0,0,1-2.932-7.969,4.007,4.007,0,0,1-.092-1.468c.3-1.688,2.549-2.386,4.133-1.732s2.549,2.278,3.493,3.71a3.419,3.419,0,0,1,2.714-1.8,4.916,4.916,0,0,1,3.012.937c3.467,2.278,4.878,6.563,7.069,10.086a23.824,23.824,0,0,0,20.25,11.023l-5.5-11.356a7.787,7.787,0,0,1-1.088-3.785,2.678,2.678,0,0,1,2.446-2.637c1.161.046,2.007,1.077,2.69,2.016l8.5,11.683a57.159,57.159,0,0,1,5.618,8.8c4.438,9.284,3.592,20.251,6.935,29.983a191.529,191.529,0,0,1,5.374,20.429c-2.538,1.315-5.869,3.8-8.581,4.7a50.149,50.149,0,0,1-5.459,1.493C82.181,229.275,78.041,230.483,76.01,229.707Z" transform="translate(-27.499 -143.289)" fill="#f2ad97"/>
              </g>
              <g id="Grupo_1200996" data-name="Grupo 1200996" transform="translate(12.151 3.849)">
                <g id="Grupo_1200995" data-name="Grupo 1200995">
                  <path id="Trazado_1069792" data-name="Trazado 1069792" d="M61.194,169.374a33.28,33.28,0,0,1-17.589-20.947.436.436,0,0,0-.841.232,34.129,34.129,0,0,0,17.99,21.469c.5.24.947-.512.44-.754Z" transform="translate(-42.746 -148.119)" fill="#422038"/>
                </g>
              </g>
              <g id="Grupo_1200998" data-name="Grupo 1200998" transform="translate(5.83 8.347)">
                <g id="Grupo_1200997" data-name="Grupo 1200997">
                  <path id="Trazado_1069793" data-name="Trazado 1069793" d="M54.69,176.636c-8.556-5.376-14.116-14.089-19.061-22.661a.436.436,0,0,0-.753.44c5.021,8.7,10.687,17.516,19.374,22.974.477.3.915-.455.44-.753Z" transform="translate(-34.814 -153.764)" fill="#422038"/>
                </g>
              </g>
              <g id="Grupo_1201000" data-name="Grupo 1201000" transform="translate(31.3 26.505)">
                <g id="Grupo_1200999" data-name="Grupo 1200999">
                  <path id="Trazado_1069794" data-name="Trazado 1069794" d="M86.166,188.458c-4.523-2.685-6.295-8.174-10.639-11.055a4.526,4.526,0,0,0-6.346,1.061c-1.819,2.333-2.3,5.778-2.405,8.644-.021.561.851.56.872,0,.1-2.7.54-6.184,2.383-8.313a3.616,3.616,0,0,1,3.714-1.3,7.932,7.932,0,0,1,3.165,2.21c3.06,3.077,4.983,7.234,8.817,9.509a.436.436,0,0,0,.439-.753Z" transform="translate(-66.776 -176.55)" fill="#422038"/>
                </g>
              </g>
              <g id="Grupo_1201002" data-name="Grupo 1201002" transform="translate(41.859 39.281)">
                <g id="Grupo_1201001" data-name="Grupo 1201001">
                  <path id="Trazado_1069795" data-name="Trazado 1069795" d="M86.392,198.4a9.755,9.755,0,0,0-5.836-5.791c-.529-.19-.757.653-.232.841a8.815,8.815,0,0,1,5.226,5.182c.193.522,1.036.3.842-.232Z" transform="translate(-80.026 -192.581)" fill="#422038"/>
                </g>
              </g>
            </g>
            <g id="Grupo_1201004" data-name="Grupo 1201004" transform="translate(96.298 108.659)">
              <path id="Trazado_1069796" data-name="Trazado 1069796" d="M285.7,415.5c-46.448,7.557-93.593,1.506-137.357-15.791q3.057-55.5,6.112-110.992c.835-15.164,1.854-30.971,9.469-44.112s24-22.541,38.192-17.121c4.4,1.682,8.228,4.611,12.56,6.468s9.713,2.467,13.487-.357c8.917-6.672,22.521-4.684,32.862-.547,8.484,3.394,14.93,10.737,18.97,18.932s5.93,17.264,7.512,26.264C295.508,323.8,291.645,369.63,285.7,415.5Z" transform="translate(-148.339 -225.922)" fill="#6cd0d8"/>
            </g>
            <g id="Grupo_1201005" data-name="Grupo 1201005" transform="translate(147.731 109.659)">
              <path id="Trazado_1069797" data-name="Trazado 1069797" d="M224.547,232.616s-7.586-4.69-10.988-5.439c0,0-7.153,26.052,24.965,29.951s14.831-27.514,14.831-27.514-6.775.437-9.01,2.152-6.08.26-6.08.26Z" transform="translate(-212.88 -227.177)" fill="#f2ad97"/>
            </g>
            <g id="Grupo_1201006" data-name="Grupo 1201006" transform="translate(217.587 121.626)">
              <path id="Trazado_1069798" data-name="Trazado 1069798" d="M300.539,242.78a291.97,291.97,0,0,1,41.747,57.074c-1.225-.925-.842-3.431.559-4.055a2.542,2.542,0,0,1,3.367,2.051c.039.441-.014.951.306,1.257s1.028-.17.69-.456a408.9,408.9,0,0,1,15.043-56.456c3.581,2.009,6.416,4.1,10,6.107,5.71,3.2,11.471,6.443,16.342,10.818-7.233,24.172-14.615,66.154-24.735,89.266-2.815,6.427-7.273,13.728-14.29,13.763-3.913.02-7.386-2.346-10.573-4.616-8.89-6.334-22.335-19.19-27-29.061-3.743-7.928.5-27.88-.321-36.608A213.086,213.086,0,0,0,300.539,242.78Z" transform="translate(-300.539 -242.194)" fill="#6cd0d8"/>
            </g>
            <g id="Grupo_1201007" data-name="Grupo 1201007" transform="translate(43.147 105.043)">
              <path id="Trazado_1069799" data-name="Trazado 1069799" d="M168.615,227.433c-18.487,7.313-30.922,33.385-44.066,53.02,1.295-.825,1.114-3.353-.234-4.087a2.542,2.542,0,0,0-3.52,1.776c-.074.436-.063.949-.406,1.228s-1.011-.251-.652-.509a408.832,408.832,0,0,0-10.49-57.477c-3.73,1.717-6.723,3.573-10.451,5.289-5.947,2.737-11.949,5.507-17.153,9.479,5.28,24.671,9.287,67.11,17.531,90.956,2.293,6.631,6.154,14.264,13.146,14.859,3.9.332,7.549-1.749,10.907-3.758,9.368-5.6,23.795-17.346,29.228-26.814,4.364-7.6,1.724-27.832,3.243-36.466C158.576,258.555,161.93,242.657,168.615,227.433Z" transform="translate(-81.642 -221.384)" fill="#6cd0d8"/>
            </g>
            <g id="Grupo_1201009" data-name="Grupo 1201009" transform="translate(276.744 135.637)">
              <g id="Grupo_1201008" data-name="Grupo 1201008">
                <path id="Trazado_1069800" data-name="Trazado 1069800" d="M374.974,260.6q11.933,7.679,23.694,15.618c.466.315.9-.441.44-.753q-11.761-7.94-23.694-15.618c-.473-.3-.911.45-.44.753Z" transform="translate(-374.772 -259.775)" fill="#fff"/>
              </g>
            </g>
            <g id="Grupo_1201011" data-name="Grupo 1201011" transform="translate(47.485 121.851)">
              <g id="Grupo_1201010" data-name="Grupo 1201010">
                <path id="Trazado_1069801" data-name="Trazado 1069801" d="M87.737,254.822a155.525,155.525,0,0,1,24.377-11.477c.522-.193.3-1.036-.232-.841A156.743,156.743,0,0,0,87.3,254.07a.436.436,0,0,0,.44.752Z" transform="translate(-87.086 -242.475)" fill="#fff"/>
              </g>
            </g>
            <g id="Grupo_1201013" data-name="Grupo 1201013" transform="translate(100.946 128.389)">
              <g id="Grupo_1201012" data-name="Grupo 1201012" transform="translate(0)">
                <path id="Trazado_1069802" data-name="Trazado 1069802" d="M155.023,331.187a612.055,612.055,0,0,1,16.347-62.66q2.771-8.7,5.8-17.317c.186-.531-.656-.759-.841-.232a611.855,611.855,0,0,0-18.215,62.143q-2.1,8.888-3.934,17.834c-.112.547.728.782.841.232Z" transform="translate(-154.172 -250.68)" fill="#fff"/>
              </g>
            </g>
            <g id="Grupo_1201015" data-name="Grupo 1201015" transform="translate(222.728 134.862)">
              <g id="Grupo_1201014" data-name="Grupo 1201014">
                <path id="Trazado_1069803" data-name="Trazado 1069803" d="M324.073,345.878a298.386,298.386,0,0,0-10.392-68q-2.6-9.483-5.825-18.778c-.182-.527-1.026-.3-.841.232a297.24,297.24,0,0,1,14.871,67.307q.971,9.6,1.315,19.238c.019.559.891.563.871,0Z" transform="translate(-306.99 -258.802)" fill="#fff"/>
              </g>
            </g>
            <g id="Grupo_1201017" data-name="Grupo 1201017" transform="translate(258.344 179.094)">
              <g id="Grupo_1201016" data-name="Grupo 1201016">
                <path id="Trazado_1069804" data-name="Trazado 1069804" d="M352.583,330.954a55.868,55.868,0,0,1,1.848-16.1.436.436,0,0,0-.841-.232,56.71,56.71,0,0,0-1.879,16.337c.017.56.889.563.872,0Z" transform="translate(-351.684 -314.308)" fill="#fff"/>
              </g>
            </g>
            <g id="Grupo_1201019" data-name="Grupo 1201019" transform="translate(264.012 182.836)">
              <g id="Grupo_1201018" data-name="Grupo 1201018">
                <path id="Trazado_1069805" data-name="Trazado 1069805" d="M360.9,324.928l-1.248-5.613c-.122-.547-.963-.316-.841.232l1.248,5.613c.121.547.963.316.841-.232Z" transform="translate(-358.796 -319.003)" fill="#fff"/>
              </g>
            </g>
            <g id="Grupo_1201021" data-name="Grupo 1201021" transform="translate(79.961 166.596)">
              <g id="Grupo_1201020" data-name="Grupo 1201020">
                <path id="Trazado_1069806" data-name="Trazado 1069806" d="M128.691,307.29q.9-4.061,1.811-8.121c.122-.547-.719-.78-.841-.232q-.9,4.061-1.811,8.121c-.122.547.719.78.841.232Z" transform="translate(-127.838 -298.625)" fill="#fff"/>
              </g>
            </g>
            <g id="Grupo_1201023" data-name="Grupo 1201023" transform="translate(85.659 168.456)">
              <g id="Grupo_1201022" data-name="Grupo 1201022" transform="translate(0)">
                <path id="Trazado_1069807" data-name="Trazado 1069807" d="M135.837,305.286a6.515,6.515,0,0,1,1.709-3.577c.387-.407-.229-1.025-.617-.617A7.287,7.287,0,0,0,135,305.054a.451.451,0,0,0,.3.536.44.44,0,0,0,.537-.3Z" transform="translate(-134.989 -300.958)" fill="#fff"/>
              </g>
            </g>
            <g id="Grupo_1201025" data-name="Grupo 1201025" transform="translate(146.705 110.588)">
              <g id="Grupo_1201024" data-name="Grupo 1201024">
                <path id="Trazado_1069808" data-name="Trazado 1069808" d="M212.054,228.657a23.144,23.144,0,0,0,2.338,15.621,24.911,24.911,0,0,0,12.44,10.749c5.554,2.36,12.068,3.694,18.044,2.359,5.136-1.148,9.765-4.528,11.541-9.6,2.139-6.111.034-12.911-2.486-18.562-.228-.512-.98-.069-.753.44,2.158,4.839,3.961,10.429,2.96,15.776s-5.058,9.2-10.158,10.756c-5.578,1.7-11.748.648-17.122-1.3-5.056-1.834-9.768-4.912-12.758-9.463a22.233,22.233,0,0,1-3.2-16.541c.112-.548-.729-.783-.842-.232Z" transform="translate(-211.592 -228.343)" fill="#fff"/>
              </g>
            </g>
            <g id="Grupo_1201026" data-name="Grupo 1201026" transform="translate(141.241 165.729)">
              <circle id="Elipse_13479" data-name="Elipse 13479" cx="33.853" cy="33.853" r="33.853" fill="#fff"/>
            </g>
            <g id="Grupo_1201028" data-name="Grupo 1201028" transform="translate(147.191 173.569)">
              <g id="Grupo_1201027" data-name="Grupo 1201027">
                <path id="Trazado_1069809" data-name="Trazado 1069809" d="M235.311,359.313a31.1,31.1,0,0,1-15.972-9.008,23.428,23.428,0,0,1-6.216-17.357,20.067,20.067,0,0,1,9.471-15.637,36.311,36.311,0,0,1,8.567-3.92c3.191-1.029,6.653-2.056,10.034-1.933,3.792.138,6.514,2.361,8.7,5.284a49.85,49.85,0,0,1,5.348,9.117c2.579,5.646,4.94,12.627,3.278,18.861a10.865,10.865,0,0,1-5.768,7.046,23.339,23.339,0,0,1-10.231,2.14c-6.617.014-13.458-2.94-16.432-9.16-2.912-6.09-.295-13.28,4.312-17.748a27.17,27.17,0,0,1,8.509-5.4,37.027,37.027,0,0,1,10.077-2.836c7.445-.781,9.867,7.072,10.609,13a37.758,37.758,0,0,1-.108,11.179c-.549,3.072-2.005,6.268-5.462,6.7a13.035,13.035,0,0,1-9.126-2.949,11.058,11.058,0,0,1-4.35-7.757,9.654,9.654,0,0,1,2.916-7.853,8.049,8.049,0,0,1,7.8-1.514c6.9,2.244,5.1,11.4,2.429,16.285a11.835,11.835,0,0,1-6.73,5.929c-3.48,1.044-7.182.084-10.443-1.249a35.324,35.324,0,0,1-8.831-4.959,15.023,15.023,0,0,1-5.32-8.4c-1.579-6.768.078-14.374,3.4-20.372,1.6-2.9,3.722-6.175,6.8-7.649,3.2-1.529,7.016-.861,10.26.168a31.175,31.175,0,0,1,14.407,9.746,26.3,26.3,0,0,1,6.305,16.032,24.448,24.448,0,0,1-5.576,15.736,21.2,21.2,0,0,1-14.606,8.009,35.271,35.271,0,0,1-11.066-1.168,22.732,22.732,0,0,1-8.968-4.11c-5.123-4.17-6.485-11-6.51-17.29-.026-6.48,1.029-13.708,6.389-18.021,9.314-7.5,23.575-3.977,30.762,4.716a20.841,20.841,0,0,1,4.539,16.419c-.92,5.9-4.532,11.309-10.31,13.333-5.3,1.858-11.7.874-15.394-3.613-3.868-4.7-3.9-11.684-1.709-17.124,2.182-5.407,8.106-11.1,14.347-8.465a12.637,12.637,0,0,1,5.915,6.08,22.939,22.939,0,0,1,2.666,9.819c.066,3.251-1.16,6.8-4.166,8.442a6.462,6.462,0,0,1-7.724-1.628c-4.646-5.076,1.352-12.837,7.521-11.059a8.5,8.5,0,0,1,5.849,6.379,9.088,9.088,0,0,1-3,8.228c-5.069,4.6-13.061,1.988-15.993-3.7-2.88-5.587-1.624-12.814,2.038-17.731,3.728-5.005,10.758-7.489,16.436-4.169,4.788,2.8,6.289,10.035,2.111,14.05-.406.39.212,1.006.617.617,4.365-4.195,3.133-11.756-1.688-15.04-5.569-3.793-13.084-1.866-17.315,2.964-4.373,4.993-6.018,12.652-3.375,18.846,2.531,5.931,9.9,9.439,15.854,6.164,5.6-3.079,7.215-10.9,2.334-15.38a8.317,8.317,0,0,0-8.33-1.945,8.576,8.576,0,0,0-5.514,6.413c-1.007,5.924,6.166,10.833,11.223,7.375,6.134-4.195,4.125-13.4,1.279-18.962a13.632,13.632,0,0,0-6.221-6.491,9.623,9.623,0,0,0-8.65.547c-5.817,3.245-8.761,10.377-8.524,16.819.233,6.3,3.809,12.1,10.1,13.8a16.188,16.188,0,0,0,16.55-5.313c4.107-5.075,5.138-12.248,3.353-18.445a23.436,23.436,0,0,0-11.133-13.618,24.043,24.043,0,0,0-17.478-2.645A17.164,17.164,0,0,0,216.6,328.477a40.854,40.854,0,0,0-.549,10.606,25.61,25.61,0,0,0,2.566,10.019c3.473,6.676,10.761,9.209,17.777,10.255a25.785,25.785,0,0,0,11.425-.477,21.931,21.931,0,0,0,7.814-4.4,25.726,25.726,0,0,0,8.59-15.956c1.718-13.159-8.107-25.381-20.069-29.684-3.34-1.2-7.206-2.054-10.693-.971-3.431,1.065-5.752,4.091-7.583,7.018-3.98,6.362-5.982,14.577-4.454,22.012a15.791,15.791,0,0,0,5.41,9.08,35.814,35.814,0,0,0,9.458,5.383c3.4,1.39,7.28,2.337,10.906,1.249a12.605,12.605,0,0,0,7.109-6.075c2.849-4.99,4.8-14.082-1.552-17.3a9.167,9.167,0,0,0-8-.076,9.468,9.468,0,0,0-4.915,6.905c-1.187,6.578,3.651,12.225,9.763,13.962,3.142.893,6.717.814,8.832-2.011,2.062-2.753,2.266-6.637,2.347-9.938a37.257,37.257,0,0,0-1.415-11.843c-.865-2.779-2.331-5.624-4.866-7.218-3.231-2.031-7.147-1.009-10.562-.06a37.947,37.947,0,0,0-10.081,4.253c-5.858,3.683-10.555,10.231-9.8,17.443.728,6.98,6.677,12.093,13.26,13.571a26.091,26.091,0,0,0,11.412-.162c3.353-.759,6.659-2.234,8.743-5.075,4.086-5.57,2.361-13.441.221-19.409a52.611,52.611,0,0,0-5.311-10.768c-1.864-2.888-4.043-6-7.308-7.406-3.553-1.528-7.584-.669-11.17.277a44.255,44.255,0,0,0-9.772,3.711c-6.191,3.341-10.711,8.83-11.7,15.914a24.119,24.119,0,0,0,5.7,18.934,31.678,31.678,0,0,0,16.957,9.91c.546.128.779-.712.231-.838Z" transform="translate(-212.203 -307.375)" fill="#6cd0d8"/>
              </g>
            </g>
          </g>
        </g>
      </g>
    </g>
  </g>
</svg>
