<svg xmlns="http://www.w3.org/2000/svg" xmlns:xlink="http://www.w3.org/1999/xlink" width="93.934" height="93.934" viewBox="0 0 93.934 93.934">
  <defs>
    <filter id="Trazado_982547" x="0" y="0" width="93.934" height="93.934" filterUnits="userSpaceOnUse">
      <feOffset dy="3" input="SourceAlpha"/>
      <feGaussianBlur stdDeviation="3" result="blur"/>
      <feFlood flood-opacity="0.161"/>
      <feComposite operator="in" in2="blur"/>
      <feComposite in="SourceGraphic"/>
    </filter>
  </defs>
  <g id="Grupo_1201761" data-name="Grupo 1201761" transform="translate(-188.854 -907.967)">
    <g id="Grupo_1201325" data-name="Grupo 1201325" transform="translate(-0.146 561.906)">
      <g id="Grupo_1181939" data-name="Grupo 1181939" transform="translate(0 -388.939)">
        <g id="Grupo_1175133" data-name="Grupo 1175133" transform="translate(-0.033 -1251)">
          <g id="Grupo_1167337" data-name="Grupo 1167337" transform="translate(198.033 1992)">
            <g id="Grupo_1166720" data-name="Grupo 1166720">
              <g id="Grupo_1164305" data-name="Grupo 1164305">
                <g id="Grupo_1163948" data-name="Grupo 1163948">
                  <g id="Grupo_1158168" data-name="Grupo 1158168">
                    <g id="Grupo_1152576" data-name="Grupo 1152576">
                      <g id="Grupo_1148633" data-name="Grupo 1148633">
                        <g id="Grupo_1148525" data-name="Grupo 1148525">
                          <g transform="matrix(1, 0, 0, 1, -9, -6)" filter="url(#Trazado_982547)">
                            <g id="Trazado_982547-2" data-name="Trazado 982547" transform="translate(9 6)" fill="#fdfbec">
                              <path d="M 37.966796875 74.43359375 C 33.04315185546875 74.43359375 28.26757431030273 73.46962738037109 23.77274131774902 71.56847381591797 C 19.43047523498535 69.73184967041016 15.53040790557861 67.10224914550781 12.18087482452393 63.75271987915039 C 8.831341743469238 60.4031867980957 6.201741218566895 56.50312042236328 4.365118980407715 52.16086196899414 C 2.463963508605957 47.66601943969727 1.499996900558472 42.89044189453125 1.499996900558472 37.966796875 C 1.499996900558472 33.04315185546875 2.463963508605957 28.26757431030273 4.365118980407715 23.77274131774902 C 6.201741218566895 19.43047523498535 8.831341743469238 15.53040790557861 12.18087482452393 12.18087482452393 C 15.53040790557861 8.831341743469238 19.43047523498535 6.201741218566895 23.77274131774902 4.365118980407715 C 28.26757431030273 2.463963508605957 33.04315185546875 1.499996900558472 37.966796875 1.499996900558472 C 42.89044189453125 1.499996900558472 47.66601943969727 2.463963508605957 52.16086196899414 4.365118980407715 C 56.50312042236328 6.201741218566895 60.4031867980957 8.831341743469238 63.75271987915039 12.18087482452393 C 67.10224914550781 15.53040790557861 69.73184967041016 19.43047523498535 71.56847381591797 23.77274131774902 C 73.46962738037109 28.26757431030273 74.43359375 33.04315185546875 74.43359375 37.966796875 C 74.43359375 42.89044189453125 73.46962738037109 47.66601943969727 71.56847381591797 52.16086196899414 C 69.73184967041016 56.50313186645508 67.10224914550781 60.4031867980957 63.75271987915039 63.75271987915039 C 60.4031867980957 67.10224914550781 56.50313186645508 69.73184967041016 52.16086196899414 71.56847381591797 C 47.66601943969727 73.46962738037109 42.89044189453125 74.43359375 37.966796875 74.43359375 Z" stroke="none"/>
                              <path d="M 37.966796875 3 C 33.2449836730957 3 28.66600799560547 3.924095153808594 24.35705947875977 5.746635437011719 C 20.19359588623047 7.507637023925781 16.45379638671875 10.02928161621094 13.24153518676758 13.24153518676758 C 10.02927398681641 16.45379638671875 7.507621765136719 20.19359588623047 5.746635437011719 24.35705947875977 C 3.924095153808594 28.66600799560547 3 33.2449836730957 3 37.966796875 C 3 42.6886100769043 3.924095153808594 47.26758575439453 5.746635437011719 51.57653427124023 C 7.507621765136719 55.73999786376953 10.02927398681641 59.47979736328125 13.24153518676758 62.69205856323242 C 16.45379638671875 65.90431976318359 20.19359588623047 68.42597198486328 24.35705947875977 70.18695831298828 C 28.66600799560547 72.00949859619141 33.2449836730957 72.93359375 37.966796875 72.93359375 C 42.6886100769043 72.93359375 47.26758575439453 72.00949859619141 51.57653427124023 70.18695831298828 C 55.73999786376953 68.42597198486328 59.47979736328125 65.90431976318359 62.69205856323242 62.69205856323242 C 65.90431976318359 59.47979736328125 68.42597198486328 55.73999786376953 70.18695831298828 51.57653427124023 C 72.00949859619141 47.26758575439453 72.93359375 42.6886100769043 72.93359375 37.966796875 C 72.93359375 33.2449836730957 72.00949859619141 28.66600799560547 70.18695831298828 24.35705947875977 C 68.42597198486328 20.19359588623047 65.90431976318359 16.45379638671875 62.69205856323242 13.24153518676758 C 59.47979736328125 10.02928161621094 55.73999786376953 7.507637023925781 51.57653427124023 5.746635437011719 C 47.26758575439453 3.924095153808594 42.6886100769043 3 37.966796875 3 M 37.966796875 0 C 58.93528366088867 0 75.93359375 16.99832153320312 75.93359375 37.966796875 C 75.93359375 58.93528366088867 58.93528366088867 75.93359375 37.966796875 75.93359375 C 16.99831008911133 75.93359375 0 58.93528366088867 0 37.966796875 C 0 16.99832153320312 16.99831008911133 0 37.966796875 0 Z" stroke="none" fill="#84792b"/>
                            </g>
                          </g>
                        </g>
                      </g>
                    </g>
                  </g>
                </g>
              </g>
            </g>
          </g>
        </g>
      </g>
    </g>
    <g id="cronografo" transform="translate(206.757 884.638)">
      <g id="Grupo_1201759" data-name="Grupo 1201759" transform="translate(0.783 44.143)">
        <path id="Trazado_1070398" data-name="Trazado 1070398" d="M374.763,294.791h-5.048l-5.987,7.329h11.035a3.665,3.665,0,0,0,0-7.329Z" transform="translate(-326.53 -269.321)" fill="#ffddce"/>
        <path id="Trazado_1070399" data-name="Trazado 1070399" d="M378.431,318.967a3.665,3.665,0,0,1-3.665,3.665H363.731l2.08-2.546h8.955a3.667,3.667,0,0,0,3.438-2.391A3.654,3.654,0,0,1,378.431,318.967Z" transform="translate(-326.532 -289.832)" fill="#ffcbbe"/>
        <path id="Trazado_1070400" data-name="Trazado 1070400" d="M369.7,224.6h-5.048l-5.987,7.329H369.7a3.665,3.665,0,0,0,0-7.329Z" transform="translate(-321.996 -206.464)" fill="#ffddce"/>
        <path id="Trazado_1070401" data-name="Trazado 1070401" d="M373.369,248.78a3.665,3.665,0,0,1-3.665,3.665H358.669l2.08-2.546H369.7a3.667,3.667,0,0,0,3.438-2.391A3.654,3.654,0,0,1,373.369,248.78Z" transform="translate(-321.999 -226.975)" fill="#ffcbbe"/>
        <path id="Trazado_1070402" data-name="Trazado 1070402" d="M344.395,154.418h-5.048l-5.987,7.329H344.4a3.665,3.665,0,1,0,0-7.329Z" transform="translate(-299.333 -143.606)" fill="#ffddce"/>
        <path id="Trazado_1070403" data-name="Trazado 1070403" d="M348.062,178.593a3.665,3.665,0,0,1-3.665,3.665H333.362l2.08-2.547H344.4a3.667,3.667,0,0,0,3.438-2.391A3.654,3.654,0,0,1,348.062,178.593Z" transform="translate(-299.335 -164.117)" fill="#ffcbbe"/>
        <path id="Trazado_1070404" data-name="Trazado 1070404" d="M88.521,95.155H71.51l-7.456-6.471-1.731-7.4,3.166-8.729,3.481-8.19a10.531,10.531,0,0,1,5.164-5.39l6.382-3.04A4.185,4.185,0,0,1,86.293,58.4a0,0,0,0,1,0,0,4.187,4.187,0,0,1-.44,3.541L83.225,66.11l3.9,21.408,1.314,7.207Z" transform="translate(-56.599 -55.04)" fill="#ffddce"/>
        <path id="Trazado_1070405" data-name="Trazado 1070405" d="M145.862,354.393c-.079.145-.158.289-.236.43h-16.7l-2.492-9.353c3.376,1.507,11.672,4.572,18.111,1.716a11.75,11.75,0,0,0,1.392-.732c5.414-3.332,2.576,3.053-.078,7.939Z" transform="translate(-114.018 -314.708)" fill="#ffcbbe"/>
        <path id="Trazado_1070406" data-name="Trazado 1070406" d="M113.441,58.4c-1.019-1.653-5.421.192-8.291,1.713-2.628,1.392-9.677,10.359-10.466,20.123l-2.048-7.688,3.481-8.19a10.532,10.532,0,0,1,5.164-5.39l6.382-3.04a4.185,4.185,0,0,1,5.778,2.472Z" transform="translate(-83.747 -55.04)" fill="#ffcbbe"/>
        <g id="Grupo_1201757" data-name="Grupo 1201757" transform="translate(32.052 0)">
          <path id="Trazado_1070407" data-name="Trazado 1070407" d="M0,0H5.8V6.339H0Z" transform="translate(3.711 3.381) rotate(17.928)" fill="#ffd064"/>
          <path id="Trazado_1070408" data-name="Trazado 1070408" d="M324.746,58.19q-4.41-1.3-8.744-2.828a2.307,2.307,0,0,1-1.445-2.866l.014-.043a2.307,2.307,0,0,1,2.849-1.477q4.41,1.3,8.744,2.828a2.307,2.307,0,0,1,1.445,2.865l-.014.043A2.307,2.307,0,0,1,324.746,58.19Z" transform="translate(-314.449 -50.882)" fill="#f6e266"/>
          <path id="Trazado_1070409" data-name="Trazado 1070409" d="M319.881,56.681q-1.948-.636-3.88-1.319a2.307,2.307,0,0,1-1.445-2.866l.014-.043a2.307,2.307,0,0,1,2.849-1.477q1.967.579,3.918,1.2a2.388,2.388,0,0,0-2.681,1.594l-.014.044A2.388,2.388,0,0,0,319.881,56.681Z" transform="translate(-314.448 -50.881)" fill="#ffd064"/>
        </g>
        <path id="Trazado_1070410" data-name="Trazado 1070410" d="M324.245,364.851H319.2l-5.987,7.329h11.035a3.665,3.665,0,0,0,0-7.329Z" transform="translate(-281.287 -332.065)" fill="#ffddce"/>
        <path id="Trazado_1070411" data-name="Trazado 1070411" d="M327.913,389.026a3.665,3.665,0,0,1-3.665,3.665H313.213l2.08-2.546h8.954a3.667,3.667,0,0,0,3.438-2.391A3.651,3.651,0,0,1,327.913,389.026Z" transform="translate(-281.29 -352.575)" fill="#ffcbbe"/>
        <g id="Grupo_1201758" data-name="Grupo 1201758" transform="translate(15.638 7.545)">
          <circle id="Elipse_13536" data-name="Elipse 13536" cx="16.285" cy="16.285" r="16.285" transform="translate(0 0)" fill="#f6e266"/>
          <path id="Trazado_1070412" data-name="Trazado 1070412" d="M174.588,155.668c-.346.021-.695.033-1.046.033a16.285,16.285,0,1,1,0-32.571c.351,0,.7.012,1.046.033a16.287,16.287,0,0,0,0,32.505Z" transform="translate(-157.257 -123.13)" fill="#ffd064"/>
          <circle id="Elipse_13537" data-name="Elipse 13537" cx="12.447" cy="12.447" r="12.447" transform="translate(3.839 3.839)" fill="#d3effb"/>
          <path id="Trazado_1070413" data-name="Trazado 1070413" d="M209.092,184.6a12.447,12.447,0,1,1,0-24.533,12.449,12.449,0,0,0,0,24.533Z" transform="translate(-190.632 -156.049)" fill="#9dc6fb"/>
          <path id="Trazado_1070414" data-name="Trazado 1070414" d="M299.612,232.348a1.586,1.586,0,0,1-1.586-1.586v-4.049a1.586,1.586,0,1,1,3.171,0v4.049A1.586,1.586,0,0,1,299.612,232.348Z" transform="translate(-283.326 -214.477)" fill="#2b4d66"/>
        </g>
        <path id="Trazado_1070415" data-name="Trazado 1070415" d="M22.415,241.192l-8.891,2.726L9.691,229.526,7.5,221.315l8.89-2.725,2.187,8.21Z" transform="translate(-7.504 -201.077)" fill="#dd636e"/>
        <path id="Trazado_1070416" data-name="Trazado 1070416" d="M18.581,226.8l-8.89,2.726L7.5,221.315l8.89-2.725Z" transform="translate(-7.504 -201.077)" fill="#cb5769"/>
      </g>
      <g id="Grupo_1201760" data-name="Grupo 1201760" transform="translate(0 43.357)">
        <path id="Trazado_1070417" data-name="Trazado 1070417" d="M52.162,70.132a4.478,4.478,0,0,0-.907-.7,4.449,4.449,0,0,0-2.068-7.878,4.448,4.448,0,0,0-3.342-7.384H42.737q-.575-.419-1.185-.792l.467-1.443q.447.134.894.266a3.167,3.167,0,0,0,.895.13,3.062,3.062,0,0,0,2.921-2.117l.015-.045a3.073,3.073,0,0,0-1.93-3.843c-2.889-1.021-5.845-1.976-8.784-2.841a3.073,3.073,0,0,0-3.814,1.983l-.016.049a3.073,3.073,0,0,0,1.93,3.843q.439.155.881.308l-.433,1.338a17.13,17.13,0,0,0-3.609-.015,4.969,4.969,0,0,0-6.6-6.665l-6.381,3.04a11.293,11.293,0,0,0-4.777,4.3.783.783,0,1,0,1.335.819,9.731,9.731,0,0,1,4.116-3.7l6.381-3.04a3.4,3.4,0,0,1,4.34,4.89l-.438.692a17.067,17.067,0,0,0-3.37,32.15H16.3L10.5,61.713l2.762-6.5A.783.783,0,1,0,11.82,54.6L9.1,61.013.554,63.632a.783.783,0,0,0-.527.95l6.021,22.6a.783.783,0,0,0,.986.547l8.779-2.692h27.93a4.447,4.447,0,0,0,3.4-7.316h1.877a4.448,4.448,0,0,0,3.145-7.593Zm-.792-4.184a2.881,2.881,0,0,1-1.605,2.585c.006-.187.01-.373.01-.561a17.014,17.014,0,0,0-.7-4.847,2.881,2.881,0,0,1,2.3,2.822Zm-5.524-10.21a2.883,2.883,0,0,1,2.2,4.748,17.154,17.154,0,0,0-3.448-4.748h1.251ZM33.691,45.993l.011-.035a1.532,1.532,0,0,1,1.884-.969c2.913.856,5.841,1.8,8.7,2.815a1.533,1.533,0,0,1,.959,1.892l-.011.035a1.533,1.533,0,0,1-1.884.969c-2.913-.856-5.841-1.8-8.7-2.815A1.533,1.533,0,0,1,33.691,45.993Zm2.8,4.183q2,.675,4.029,1.3l-.367,1.137a16.933,16.933,0,0,0-4.009-1.364ZM7.352,86,1.734,64.909l7.392-2.267L14.744,83.73Zm36.39-2.522H39.853a16.987,16.987,0,0,0,2.073-1.137.783.783,0,0,0-.848-1.317,15.524,15.524,0,1,1,2.342-1.846A.783.783,0,1,0,44.5,80.307a17.449,17.449,0,0,0,1.447-1.564,2.881,2.881,0,0,1-2.208,4.731Zm5.275-7.316H47.7a16.826,16.826,0,0,0,1.9-5.7,2.881,2.881,0,0,1-.58,5.7Z" transform="translate(0 -43.357)"/>
        <path id="Trazado_1070418" data-name="Trazado 1070418" d="M199.748,152.39a13.23,13.23,0,1,0,13.23,13.23A13.245,13.245,0,0,0,199.748,152.39Zm6.495,22.913-.381-.66a.783.783,0,1,0-1.356.783l.382.662a11.577,11.577,0,0,1-4.356,1.169v-1.823a.783.783,0,1,0-1.566,0v1.823a11.575,11.575,0,0,1-4.356-1.169l.382-.662a.783.783,0,1,0-1.356-.783l-.381.66a11.759,11.759,0,0,1-3.188-3.188l.66-.381a.783.783,0,0,0-.783-1.356l-.662.382a11.576,11.576,0,0,1-1.169-4.356h1.823a.783.783,0,0,0,0-1.566h-1.823a11.576,11.576,0,0,1,1.169-4.356l.662.382a.783.783,0,1,0,.783-1.356l-.66-.381a11.759,11.759,0,0,1,3.188-3.188l.381.66a.783.783,0,0,0,1.356-.783l-.382-.662a11.574,11.574,0,0,1,4.356-1.168v1.823a.783.783,0,1,0,1.566,0v-1.823a11.575,11.575,0,0,1,4.356,1.168l-.382.662a.783.783,0,1,0,1.356.783l.381-.66a11.759,11.759,0,0,1,3.188,3.188l-.66.381a.783.783,0,1,0,.783,1.356l.662-.382a11.576,11.576,0,0,1,1.169,4.356h-1.823a.783.783,0,1,0,0,1.566h1.823a11.574,11.574,0,0,1-1.169,4.356l-.662-.382a.783.783,0,1,0-.783,1.356l.66.381A11.759,11.759,0,0,1,206.243,175.3Z" transform="translate(-167.041 -141.004)"/>
        <path id="Trazado_1070419" data-name="Trazado 1070419" d="M292.895,217.627A2.371,2.371,0,0,0,290.526,220v4.049a2.369,2.369,0,0,0,4.738,0V220A2.372,2.372,0,0,0,292.895,217.627Zm.8,6.418a.8.8,0,0,1-1.6,0V220a.8.8,0,0,1,1.6,0Z" transform="translate(-260.188 -199.429)"/>
      </g>
    </g>
  </g>
</svg>
