<svg xmlns="http://www.w3.org/2000/svg" xmlns:xlink="http://www.w3.org/1999/xlink" width="93.934" height="93.934" viewBox="0 0 93.934 93.934">
  <defs>
    <filter id="Trazado_982547" x="0" y="0" width="93.934" height="93.934" filterUnits="userSpaceOnUse">
      <feOffset dy="3" input="SourceAlpha"/>
      <feGaussianBlur stdDeviation="3" result="blur"/>
      <feFlood flood-opacity="0.161"/>
      <feComposite operator="in" in2="blur"/>
      <feComposite in="SourceGraphic"/>
    </filter>
  </defs>
  <g id="Grupo_1201763" data-name="Grupo 1201763" transform="translate(-818.729 -907.967)">
    <g id="Grupo_1201324" data-name="Grupo 1201324" transform="translate(629.729 561.906)">
      <g id="Grupo_1181939" data-name="Grupo 1181939" transform="translate(0 -388.939)">
        <g id="Grupo_1175133" data-name="Grupo 1175133" transform="translate(-0.033 -1251)">
          <g id="Grupo_1167337" data-name="Grupo 1167337" transform="translate(198.033 1992)">
            <g id="Grupo_1166720" data-name="Grupo 1166720">
              <g id="Grupo_1164305" data-name="Grupo 1164305">
                <g id="Grupo_1163948" data-name="Grupo 1163948">
                  <g id="Grupo_1158168" data-name="Grupo 1158168">
                    <g id="Grupo_1152576" data-name="Grupo 1152576">
                      <g id="Grupo_1148633" data-name="Grupo 1148633">
                        <g id="Grupo_1148525" data-name="Grupo 1148525">
                          <g transform="matrix(1, 0, 0, 1, -9, -6)" filter="url(#Trazado_982547)">
                            <g id="Trazado_982547-2" data-name="Trazado 982547" transform="translate(9 6)" fill="#fdfbec">
                              <path d="M 37.966796875 74.43359375 C 33.04315185546875 74.43359375 28.26757431030273 73.46962738037109 23.77274131774902 71.56847381591797 C 19.43047523498535 69.73184967041016 15.53040790557861 67.10224914550781 12.18087482452393 63.75271987915039 C 8.831341743469238 60.4031867980957 6.201741218566895 56.50312042236328 4.365118980407715 52.16086196899414 C 2.463963508605957 47.66601943969727 1.499996900558472 42.89044189453125 1.499996900558472 37.966796875 C 1.499996900558472 33.04315185546875 2.463963508605957 28.26757431030273 4.365118980407715 23.77274131774902 C 6.201741218566895 19.43047523498535 8.831341743469238 15.53040790557861 12.18087482452393 12.18087482452393 C 15.53040790557861 8.831341743469238 19.43047523498535 6.201741218566895 23.77274131774902 4.365118980407715 C 28.26757431030273 2.463963508605957 33.04315185546875 1.499996900558472 37.966796875 1.499996900558472 C 42.89044189453125 1.499996900558472 47.66601943969727 2.463963508605957 52.16086196899414 4.365118980407715 C 56.50312042236328 6.201741218566895 60.4031867980957 8.831341743469238 63.75271987915039 12.18087482452393 C 67.10224914550781 15.53040790557861 69.73184967041016 19.43047523498535 71.56847381591797 23.77274131774902 C 73.46962738037109 28.26757431030273 74.43359375 33.04315185546875 74.43359375 37.966796875 C 74.43359375 42.89044189453125 73.46962738037109 47.66601943969727 71.56847381591797 52.16086196899414 C 69.73184967041016 56.50313186645508 67.10224914550781 60.4031867980957 63.75271987915039 63.75271987915039 C 60.4031867980957 67.10224914550781 56.50313186645508 69.73184967041016 52.16086196899414 71.56847381591797 C 47.66601943969727 73.46962738037109 42.89044189453125 74.43359375 37.966796875 74.43359375 Z" stroke="none"/>
                              <path d="M 37.966796875 3 C 33.2449836730957 3 28.66600799560547 3.924095153808594 24.35705947875977 5.746635437011719 C 20.19359588623047 7.507637023925781 16.45379638671875 10.02928161621094 13.24153518676758 13.24153518676758 C 10.02927398681641 16.45379638671875 7.507621765136719 20.19359588623047 5.746635437011719 24.35705947875977 C 3.924095153808594 28.66600799560547 3 33.2449836730957 3 37.966796875 C 3 42.6886100769043 3.924095153808594 47.26758575439453 5.746635437011719 51.57653427124023 C 7.507621765136719 55.73999786376953 10.02927398681641 59.47979736328125 13.24153518676758 62.69205856323242 C 16.45379638671875 65.90431976318359 20.19359588623047 68.42597198486328 24.35705947875977 70.18695831298828 C 28.66600799560547 72.00949859619141 33.2449836730957 72.93359375 37.966796875 72.93359375 C 42.6886100769043 72.93359375 47.26758575439453 72.00949859619141 51.57653427124023 70.18695831298828 C 55.73999786376953 68.42597198486328 59.47979736328125 65.90431976318359 62.69205856323242 62.69205856323242 C 65.90431976318359 59.47979736328125 68.42597198486328 55.73999786376953 70.18695831298828 51.57653427124023 C 72.00949859619141 47.26758575439453 72.93359375 42.6886100769043 72.93359375 37.966796875 C 72.93359375 33.2449836730957 72.00949859619141 28.66600799560547 70.18695831298828 24.35705947875977 C 68.42597198486328 20.19359588623047 65.90431976318359 16.45379638671875 62.69205856323242 13.24153518676758 C 59.47979736328125 10.02928161621094 55.73999786376953 7.507637023925781 51.57653427124023 5.746635437011719 C 47.26758575439453 3.924095153808594 42.6886100769043 3 37.966796875 3 M 37.966796875 0 C 58.93528366088867 0 75.93359375 16.99832153320312 75.93359375 37.966796875 C 75.93359375 58.93528366088867 58.93528366088867 75.93359375 37.966796875 75.93359375 C 16.99831008911133 75.93359375 0 58.93528366088867 0 37.966796875 C 0 16.99832153320312 16.99831008911133 0 37.966796875 0 Z" stroke="none" fill="#84792b"/>
                            </g>
                          </g>
                        </g>
                      </g>
                    </g>
                  </g>
                </g>
              </g>
            </g>
          </g>
        </g>
      </g>
    </g>
    <g id="aula" transform="translate(814.674 889.563)">
      <path id="Trazado_1070420" data-name="Trazado 1070420" d="M102.563,101.062h33.381v20.807H102.563Z" transform="translate(-68.231 -58.991)" fill="#eceff1" fill-rule="evenodd"/>
      <path id="Trazado_1070421" data-name="Trazado 1070421" d="M156.622,258.228h21.62v12.108h-21.62Z" transform="translate(-116.41 -199.061)" fill="#c49e6c" fill-rule="evenodd"/>
      <circle id="Elipse_13538" data-name="Elipse 13538" cx="4.031" cy="4.031" r="4.031" transform="translate(33.752 66.497) rotate(-5.163)" fill="#f1cbbc"/>
      <path id="Trazado_1070422" data-name="Trazado 1070422" d="M31,443.1H53.962v3.157H31Z" transform="translate(-4.453 -363.826)" fill="#c49e6c" fill-rule="evenodd"/>
      <path id="Trazado_1070423" data-name="Trazado 1070423" d="M69.777,396.252a8.254,8.254,0,0,1,8.254,8.254H61.523A8.254,8.254,0,0,1,69.777,396.252Z" transform="translate(-31.655 -322.071)" fill="#fd4755" fill-rule="evenodd"/>
      <circle id="Elipse_13539" data-name="Elipse 13539" cx="4.031" cy="4.031" r="4.031" transform="translate(59.336 67.021) rotate(-12.007)" fill="#f1cbbc"/>
      <path id="Trazado_1070424" data-name="Trazado 1070424" d="M269.909,443.1h22.962v3.157H269.909Z" transform="translate(-217.374 -363.826)" fill="#c49e6c" fill-rule="evenodd"/>
      <path id="Trazado_1070425" data-name="Trazado 1070425" d="M308.686,396.252a8.254,8.254,0,0,1,8.254,8.254H300.432A8.254,8.254,0,0,1,308.686,396.252Z" transform="translate(-244.577 -322.071)" fill="#fd4755" fill-rule="evenodd"/>
      <circle id="Elipse_13540" data-name="Elipse 13540" cx="3.241" cy="3.241" r="3.241" transform="translate(46.435 49.291) rotate(-45)" fill="#f1cbbc"/>
      <path id="Trazado_1070426" data-name="Trazado 1070426" d="M201.626,197.218a6.636,6.636,0,0,1,6.636,6.636H194.99A6.636,6.636,0,0,1,201.626,197.218Z" transform="translate(-150.604 -144.688)" fill="#615260" fill-rule="evenodd"/>
      <g id="Grupo_1201762" data-name="Grupo 1201762" transform="translate(26.547 35.415)">
        <path id="Trazado_1070427" data-name="Trazado 1070427" d="M378.149,214.612h7.917a1.735,1.735,0,0,1,1.73,1.73v5.189a1.735,1.735,0,0,1-1.73,1.73H384.4l-3.683,2.672a.775.775,0,0,1-1.23-.627V223.26H378.15a1.735,1.735,0,0,1-1.73-1.73v-5.189A1.734,1.734,0,0,1,378.149,214.612Z" transform="translate(-338.847 -195.604)" fill="#eceff1" fill-rule="evenodd"/>
        <path id="Trazado_1070428" data-name="Trazado 1070428" d="M40.646,214.612H32.73a1.735,1.735,0,0,0-1.73,1.73v5.189a1.735,1.735,0,0,0,1.73,1.73h1.662l3.683,2.672a.775.775,0,0,0,1.23-.627V223.26h1.341a1.735,1.735,0,0,0,1.73-1.73v-5.189A1.735,1.735,0,0,0,40.646,214.612Z" transform="translate(-31 -195.604)" fill="#eceff1" fill-rule="evenodd"/>
        <path id="Trazado_1070429" data-name="Trazado 1070429" d="M277.178,39.871H285.1a1.735,1.735,0,0,1,1.73,1.73v5.189a1.735,1.735,0,0,1-1.73,1.73h-1.662l-3.683,2.672a.775.775,0,0,1-1.23-.627V48.519h-1.341a1.735,1.735,0,0,1-1.73-1.73V41.6A1.734,1.734,0,0,1,277.178,39.871Z" transform="translate(-248.859 -39.871)" fill="#eceff1" fill-rule="evenodd"/>
      </g>
      <path id="Trazado_1070430" data-name="Trazado 1070430" d="M55.771,40.283h.387a.544.544,0,0,0,0-1.088h-.387a.544.544,0,0,0,0,1.088Zm2.86,0h.389a.544.544,0,0,0,0-1.088h-.389a.544.544,0,0,0,0,1.088Zm2.862,0h.389a.544.544,0,0,0,0-1.088h-.389a.544.544,0,0,0,0,1.088ZM35.291,58.2H34.9a.544.544,0,0,0,0,1.088h.387a.544.544,0,1,0,0-1.088Zm-2.861,0h-.388a.544.544,0,1,0,0,1.088h.388a.544.544,0,1,0,0-1.088Zm-2.861,0h-.388a.544.544,0,1,0,0,1.088h.388a.544.544,0,1,0,0-1.088Zm37.623,4.325a.544.544,0,0,1,.544.544v2.044a.23.23,0,0,0,.366.187l3.685-2.671a.536.536,0,0,1,.316-.1h1.665a1.189,1.189,0,0,0,1.187-1.187V56.153a1.189,1.189,0,0,0-1.187-1.187H65.851a1.187,1.187,0,0,0-1.186,1.187V61.34a1.187,1.187,0,0,0,1.186,1.187h1.341Zm-4.815-3.36a.544.544,0,0,0-.544-.544H58.18a7.2,7.2,0,0,0-4.925-6.28,3.784,3.784,0,1,0-4.464,0,7.2,7.2,0,0,0-4.925,6.28H40.212a.544.544,0,0,0-.543.544v3.166H38.236a2.255,2.255,0,0,0,.231-.993V56.153a2.276,2.276,0,0,0-2.273-2.275H34.876V42.615H52.613a2.276,2.276,0,0,0,2.255,1.992h.8v1.5a1.3,1.3,0,0,0,.719,1.175,1.326,1.326,0,0,0,.6.148,1.308,1.308,0,0,0,.77-.255L61.3,44.607h1.486a2.275,2.275,0,0,0,2.253-1.992h2.131V53.879H65.851a2.276,2.276,0,0,0-2.273,2.275V61.34a2.256,2.256,0,0,0,.232.993H62.377V59.167Zm-5.286-.544a6.092,6.092,0,0,0-12.135,0Zm-6.068-6.636a2.7,2.7,0,1,0-2.7-2.7A2.7,2.7,0,0,0,51.023,51.987ZM61.289,66.553V59.711H40.756v6.7A4.57,4.57,0,0,1,42.7,70.15a4.65,4.65,0,0,1-.038.581H59.573a4.471,4.471,0,0,1-.039-.581A4.565,4.565,0,0,1,61.289,66.553Zm2.82.11a3.487,3.487,0,1,1-3.487,3.487A3.491,3.491,0,0,1,64.109,66.663Zm0,8.061a7.72,7.72,0,0,0-7.69,7.166H71.8A7.718,7.718,0,0,0,64.109,74.724Zm8.4,5.1a8.692,8.692,0,0,1,.377,2.07h2.068V79.82ZM53.079,81.89H55.33a8.775,8.775,0,0,1,.377-2.07H53.079ZM41.609,70.15a3.487,3.487,0,1,1-3.487-3.487A3.49,3.49,0,0,1,41.609,70.15Zm-3.487,4.574a7.72,7.72,0,0,0-7.69,7.166H45.812A7.72,7.72,0,0,0,38.122,74.724Zm8.4,5.1a8.775,8.775,0,0,1,.377,2.07h2.064V79.82ZM27.092,81.89h2.251a8.721,8.721,0,0,1,.378-2.07H27.092Zm9.1-19.363H34.853a.543.543,0,0,0-.544.544v2.044a.218.218,0,0,1-.126.207.216.216,0,0,1-.24-.02l-3.683-2.671a.541.541,0,0,0-.32-.1H28.278a1.188,1.188,0,0,1-1.186-1.187V56.153a1.188,1.188,0,0,1,1.186-1.187h7.916a1.187,1.187,0,0,1,1.186,1.187V61.34A1.187,1.187,0,0,1,36.194,62.527ZM53.682,42.333V37.144a1.187,1.187,0,0,1,1.186-1.186h7.917a1.187,1.187,0,0,1,1.186,1.186v5.189a1.187,1.187,0,0,1-1.186,1.186H61.122a.541.541,0,0,0-.319.1l-3.683,2.672a.216.216,0,0,1-.24.02.219.219,0,0,1-.126-.207V44.062a.544.544,0,0,0-.544-.544H54.868a1.187,1.187,0,0,1-1.186-1.186ZM66.648,65.115v-1.5h-.8a2.242,2.242,0,0,1-.913-.194H62.377v2.5a4.572,4.572,0,0,1,4.208,8.076,8.842,8.842,0,0,1,5.5,4.739H75.5a.545.545,0,0,1,.545.544v3.158a.545.545,0,0,1-.545.544H52.536a.544.544,0,0,1-.544-.544V79.276a.544.544,0,0,1,.544-.544h3.6a8.842,8.842,0,0,1,5.5-4.739,4.6,4.6,0,0,1-1.783-2.174H42.381A4.6,4.6,0,0,1,40.6,73.993a8.843,8.843,0,0,1,5.5,4.739H49.51a.544.544,0,0,1,.544.544v3.158a.544.544,0,0,1-.544.544H26.548A.544.544,0,0,1,26,82.434V79.276a.544.544,0,0,1,.544-.544h3.6a8.841,8.841,0,0,1,5.5-4.739,4.573,4.573,0,0,1,4.023-8.148V63.421H37.107a2.243,2.243,0,0,1-.913.194h-.8v1.5a1.3,1.3,0,0,1-.72,1.175,1.3,1.3,0,0,1-1.374-.106l-3.54-2.568H28.278A2.277,2.277,0,0,1,26,61.34V56.153a2.277,2.277,0,0,1,2.274-2.274h5.51V42.071a.544.544,0,0,1,.544-.544H52.595V37.144a2.276,2.276,0,0,1,2.273-2.273h7.917a2.277,2.277,0,0,1,2.273,2.273v4.383h2.655a.544.544,0,0,1,.544.544V53.878h5.512a2.275,2.275,0,0,1,2.271,2.274V61.34a2.275,2.275,0,0,1-2.271,2.275H72.282l-3.539,2.568a1.3,1.3,0,0,1-1.375.106A1.3,1.3,0,0,1,66.648,65.115Zm2.967-5.825a.544.544,0,0,1,0-1.088H70a.544.544,0,1,1,0,1.088Zm-1.931-.544a.543.543,0,0,1-.544.544h-.387a.544.544,0,0,1,0-1.088h.387A.543.543,0,0,1,67.685,58.746Zm4.246,0a.545.545,0,0,1,.545-.544h.387a.544.544,0,1,1,0,1.088h-.387A.544.544,0,0,1,71.93,58.746Z" fill-rule="evenodd"/>
    </g>
  </g>
</svg>
