<svg xmlns="http://www.w3.org/2000/svg" xmlns:xlink="http://www.w3.org/1999/xlink" width="103" height="103" viewBox="0 0 103 103">
  <defs>
    <filter id="Trazado_978624" x="0" y="0" width="103" height="103" filterUnits="userSpaceOnUse">
      <feOffset dy="3" input="SourceAlpha"/>
      <feGaussianBlur stdDeviation="3" result="blur"/>
      <feFlood flood-opacity="0.161"/>
      <feComposite operator="in" in2="blur"/>
      <feComposite in="SourceGraphic"/>
    </filter>
  </defs>
  <g id="Grupo_1201742" data-name="Grupo 1201742" transform="translate(-155 -3102)">
    <g id="Grupo_1201320" data-name="Grupo 1201320" transform="translate(-16 -4704.104)">
      <g id="Grupo_1183567" data-name="Grupo 1183567" transform="translate(180 7812.104)">
        <g id="Grupo_1174730" data-name="Grupo 1174730">
          <g id="Grupo_1173798" data-name="Grupo 1173798">
            <g id="Grupo_1171925" data-name="Grupo 1171925">
              <g id="Grupo_1164524" data-name="Grupo 1164524">
                <g id="Grupo_1144123" data-name="Grupo 1144123">
                  <g transform="matrix(1, 0, 0, 1, -9, -6)" filter="url(#Trazado_978624)">
                    <g id="Trazado_978624-2" data-name="Trazado 978624" transform="translate(9 6)" fill="#effbfe">
                      <path d="M 42.5 83.5 C 36.96437835693359 83.5 31.59512901306152 82.41617584228516 26.54141235351562 80.27863311767578 C 21.65934181213379 78.21369171142578 17.27447128295898 75.25723266601562 13.50862312316895 71.49137878417969 C 9.742764472961426 67.72553253173828 6.786305904388428 63.34066009521484 4.721364498138428 58.45858764648438 C 2.583823442459106 53.40486907958984 1.5 48.03562164306641 1.5 42.5 C 1.5 36.96437835693359 2.583823442459106 31.59512901306152 4.721364498138428 26.54141235351562 C 6.786305904388428 21.65934181213379 9.742764472961426 17.27447128295898 13.50862312316895 13.50862312316895 C 17.27447128295898 9.742764472961426 21.65934181213379 6.786305904388428 26.54141235351562 4.721364498138428 C 31.59512901306152 2.583823442459106 36.96437835693359 1.5 42.5 1.5 C 48.03562164306641 1.5 53.40486907958984 2.583823442459106 58.45858764648438 4.721364498138428 C 63.34066009521484 6.786305904388428 67.72553253173828 9.742764472961426 71.49137878417969 13.50862312316895 C 75.25723266601562 17.27447128295898 78.21369171142578 21.65934181213379 80.27863311767578 26.54141235351562 C 82.41617584228516 31.59512901306152 83.5 36.96437835693359 83.5 42.5 C 83.5 48.03562164306641 82.41617584228516 53.40486907958984 80.27863311767578 58.45858764648438 C 78.21369171142578 63.34066009521484 75.25723266601562 67.72553253173828 71.49137878417969 71.49137878417969 C 67.72553253173828 75.25723266601562 63.34066009521484 78.21369171142578 58.45858764648438 80.27863311767578 C 53.40486907958984 82.41617584228516 48.03562164306641 83.5 42.5 83.5 Z" stroke="none"/>
                      <path d="M 42.5 3 C 37.16621398925781 3 31.99356079101562 4.043960571289062 27.125732421875 6.102882385253906 C 22.42246627807617 8.092185974121094 18.19785308837891 10.94070434570312 14.56928253173828 14.56928253173828 C 10.94070434570312 18.19785308837891 8.092185974121094 22.42246627807617 6.102882385253906 27.125732421875 C 4.043960571289062 31.99356079101562 3 37.16621398925781 3 42.5 C 3 47.83378601074219 4.043960571289062 53.00643920898438 6.102882385253906 57.87425231933594 C 8.092185974121094 62.57753372192383 10.94070434570312 66.80213165283203 14.56928253173828 70.43071746826172 C 18.19786834716797 74.05929565429688 22.42246627807617 76.90781402587891 27.125732421875 78.89711761474609 C 31.99356079101562 80.95603942871094 37.16621398925781 82 42.5 82 C 47.83378601074219 82 53.00642395019531 80.95603942871094 57.87425231933594 78.89711761474609 C 62.57753372192383 76.90781402587891 66.80213165283203 74.05929565429688 70.43071746826172 70.43071746826172 C 74.05929565429688 66.80213165283203 76.90781402587891 62.57753372192383 78.89711761474609 57.87425231933594 C 80.95603942871094 53.00642395019531 82 47.83378601074219 82 42.5 C 82 37.16621398925781 80.95603942871094 31.99356079101562 78.89711761474609 27.125732421875 C 76.90781402587891 22.42246627807617 74.05929565429688 18.19786834716797 70.43071746826172 14.56928253173828 C 66.80213165283203 10.94070434570312 62.57753372192383 8.092185974121094 57.87425231933594 6.102882385253906 C 53.00643920898438 4.043960571289062 47.83378601074219 3 42.5 3 M 42.5 0 C 65.97209167480469 0 85 19.02789306640625 85 42.5 C 85 65.97209167480469 65.97209167480469 85 42.5 85 C 19.02789306640625 85 0 65.97209167480469 0 42.5 C 0 19.02789306640625 19.02789306640625 0 42.5 0 Z" stroke="none" fill="#497f88"/>
                    </g>
                  </g>
                </g>
              </g>
            </g>
          </g>
        </g>
      </g>
    </g>
    <g id="educacion-ambiental" transform="translate(178.571 3122.331)">
      <g id="Grupo_1201739" data-name="Grupo 1201739" transform="translate(0.986 1.087)">
        <circle id="Elipse_13529" data-name="Elipse 13529" cx="20.173" cy="20.173" r="20.173" transform="translate(6.87 0)" fill="#b6e6fa"/>
        <path id="Trazado_1070322" data-name="Trazado 1070322" d="M74.765,27.941A20.174,20.174,0,0,1,93.576,7.815c-.451-.03-.9-.047-1.363-.047a20.173,20.173,0,1,0,0,40.347c.458,0,.912-.017,1.363-.047A20.174,20.174,0,0,1,74.765,27.941Z" transform="translate(-65.169 -7.768)" fill="#54c9f3"/>
        <g id="Grupo_1201737" data-name="Grupo 1201737" transform="translate(6.87 0)">
          <path id="Trazado_1070323" data-name="Trazado 1070323" d="M228.3,13.039l2.484,5.111h4.16l3.526-3.517a20.2,20.2,0,0,0-19.288-6.441l4.128,4.847Z" transform="translate(-203.134 -7.768)" fill="#b6efbb"/>
          <path id="Trazado_1070324" data-name="Trazado 1070324" d="M78.081,83.676l5.309-4.126-1.524-5.173H76.711a20.212,20.212,0,0,0-4.159,17.449l5.529-3.752Z" transform="translate(-72.039 -67.114)" fill="#b6efbb"/>
          <path id="Trazado_1070325" data-name="Trazado 1070325" d="M388.294,129.612l-5.224,1.973v2.363L385.6,136.5l-1.112,4.183,3.639,3.152a20.248,20.248,0,0,0,.169-14.221Z" transform="translate(-349.154 -116.325)" fill="#b6efbb"/>
        </g>
        <path id="Trazado_1070326" data-name="Trazado 1070326" d="M62.926,414.3l-.912-3.818-25.932,6.215L9.951,410.478,9.039,414.3l27.043,6.409Z" transform="translate(-9.039 -366.564)" fill="#ffaa81"/>
        <path id="Trazado_1070327" data-name="Trazado 1070327" d="M69.964,378.862a7.192,7.192,0,0,0-5.552-6.907l-16.3-3.893-1.041,5.357,22.9,5.443,22.888-5.488-1.041-5.357-16.495,3.938A7.013,7.013,0,0,0,69.964,378.862Z" transform="translate(-42.92 -328.733)" fill="#fff"/>
        <g id="Grupo_1201738" data-name="Grupo 1201738" transform="translate(21.591 15.943)">
          <path id="Trazado_1070328" data-name="Trazado 1070328" d="M212.491,157.773a4.451,4.451,0,0,1,1.106-2.695c1.473-1.474,4.29-1.048,4.29-1.048s.426,2.816-1.048,4.29-4.348,1.048-4.348,1.048-2.873.426-4.347-1.048-1.048-4.29-1.048-4.29,2.816-.426,4.29,1.048a4.443,4.443,0,0,1,1.1,2.695" transform="translate(-207.039 -153.973)" fill="#feef8f"/>
        </g>
        <path id="Trazado_1070329" data-name="Trazado 1070329" d="M172.469,221.1s-6.083-.921-9.266,2.263a9.292,9.292,0,0,0-2.311,5.822,9.946,9.946,0,0,0-2.463-5.822c-3.184-3.184-9.266-2.263-9.266-2.263s-.921,6.083,2.263,9.266,9.542,2.263,9.542,2.263,6.054.921,9.238-2.263S172.469,221.1,172.469,221.1Z" transform="translate(-133.772 -197.723)" fill="#feef8f"/>
        <path id="Trazado_1070330" data-name="Trazado 1070330" d="M74.765,87.287a20.091,20.091,0,0,1,4.672-12.91H76.711a20.212,20.212,0,0,0-4.159,17.449l2.42-1.642A20.339,20.339,0,0,1,74.765,87.287Z" transform="translate(-65.169 -67.114)" fill="#54e072"/>
        <path id="Trazado_1070331" data-name="Trazado 1070331" d="M154.152,230.366c-3.184-3.184-2.263-9.266-2.263-9.266s.236-.036.637-.068a16.123,16.123,0,0,0-3.364.068s-.921,6.083,2.263,9.266c2.531,2.531,7.069,2.468,8.823,2.336A9.665,9.665,0,0,1,154.152,230.366Z" transform="translate(-133.773 -197.727)" fill="#f7d700"/>
        <path id="Trazado_1070332" data-name="Trazado 1070332" d="M260.537,232.625l-.076-3.444a9.291,9.291,0,0,1,2.311-5.822,9.406,9.406,0,0,1,5.9-2.332c-1.642-.135-6.071-.226-8.629,2.332a9.292,9.292,0,0,0-2.311,5.822l.076,3.444a15.982,15.982,0,0,0,3.355.068C260.77,232.661,260.537,232.625,260.537,232.625Z" transform="translate(-230.616 -197.723)" fill="#f7d700"/>
        <path id="Trazado_1070333" data-name="Trazado 1070333" d="M50.738,369.063l-2.63-.628-1.04,5.357,2.828.672Z" transform="translate(-42.921 -329.106)" fill="#dededf"/>
        <path id="Trazado_1070334" data-name="Trazado 1070334" d="M12.8,411.155l-2.848-.678L9.039,414.3l2.856.677Z" transform="translate(-9.039 -366.564)" fill="#fe7732"/>
      </g>
      <g id="Grupo_1201740" data-name="Grupo 1201740" transform="translate(25.575 11.532)">
        <path id="Trazado_1070335" data-name="Trazado 1070335" d="M234.539,103.555h1.636v1.636h-1.636Z" transform="translate(-234.539 -103.555)"/>
        <path id="Trazado_1070336" data-name="Trazado 1070336" d="M264.539,103.555h1.636v1.636h-1.636Z" transform="translate(-261.268 -103.555)"/>
      </g>
      <g id="Grupo_1201741" data-name="Grupo 1201741" transform="translate(0 0.269)">
        <path id="Trazado_1070337" data-name="Trazado 1070337" d="M54.567,44.014l-3.009.721-1.041-5.359L33.191,43.513a7.709,7.709,0,0,0-4.345,2.827V42.234a20.991,20.991,0,1,0-1.636,0v4.243a8.114,8.114,0,0,0-4.545-2.964l-10.38-2.478-.38,1.591L22.286,45.1a6.444,6.444,0,0,1,4.83,5.055l-21.031-5,.728-3.746,3.5.836.38-1.591L5.533,39.423l-1.04,5.355-3.2-.761L0,49.426l28.03,6.642,20.844-4.976-.38-1.591-19.647,4.69V51.861l24.509-5.875.532,2.227-3.8.908.38,1.591,5.393-1.288ZM27.211,54.194,1.971,48.213,2.5,45.985l24.708,5.877ZM47.385,21.26a19.281,19.281,0,0,1-.93,5.93L44.11,25.159l1.1-4.142L42.59,18.372V16.911l3.9-1.473A19.288,19.288,0,0,1,47.385,21.26ZM28.029,1.9A19.3,19.3,0,0,1,42.051,7.931l-2.727,2.72h-3.31L33.529,5.54H28.407l-2.95-3.464A19.44,19.44,0,0,1,28.029,1.9ZM8.673,21.26A19.262,19.262,0,0,1,12.927,9.168h4.145l1.193,4.051-5.185,4.03v4.365L8.934,24.427a19.415,19.415,0,0,1-.261-3.167ZM27.211,33.936l-8.956-8.78c1.917-.015,4.957.292,6.809,2.144a8.8,8.8,0,0,1,2.147,4.778v1.858Zm-.954,1.355c-2,.019-5.177-.281-7.04-2.144s-2.164-4.946-2.144-6.859Zm.954-13.627A4.288,4.288,0,0,1,24.26,20.8a4.249,4.249,0,0,1-.866-2.951,4.252,4.252,0,0,1,2.951.866,3.672,3.672,0,0,1,.866,2.167Zm1.345-4.108a3.96,3.96,0,0,0-.528.658,3.9,3.9,0,0,0-.525-.658c-1.746-1.746-4.859-1.3-4.991-1.278l-.6.09-.09.6c-.02.132-.468,3.244,1.278,4.99A5.78,5.78,0,0,0,27.211,23.3v4.068a7.761,7.761,0,0,0-.991-1.223c-3.437-3.436-9.7-2.534-9.967-2.494l-.6.09-.09.6c-.04.265-.943,6.531,2.494,9.967,2.637,2.637,7.1,2.718,9.151,2.6v3.7A19.394,19.394,0,0,1,9.3,26.155l5.415-3.675V18.049l5.434-4.223L18.3,7.532H14.4a19.348,19.348,0,0,1,9.2-5.115l4.053,4.758h4.854l2.484,5.111H40l3.129-3.121a19.374,19.374,0,0,1,2.8,4.736l-4.976,1.879v3.265L43.39,21.5l-1.123,4.224,3.578,3.1a19.391,19.391,0,0,1-17,11.772V36.882c1.831.143,6.392.18,9.151-2.578,3.436-3.437,2.534-9.7,2.494-9.967l-.09-.6-.6-.09c-.265-.04-6.531-.943-9.967,2.494a7.261,7.261,0,0,0-.991,1.245V23.3a5.783,5.783,0,0,0,4.108-1.343c1.746-1.746,1.3-4.859,1.278-4.991l-.09-.6-.6-.09c-.132-.02-3.245-.468-4.99,1.278Zm.291,16.607V33.48l.073-.867A8.6,8.6,0,0,1,30.994,27.3c1.861-1.861,4.923-2.162,6.837-2.144Zm10.14-7.849c.019,1.913-.281,4.968-2.146,6.833s-4.9,2.161-6.809,2.144Zm-10.14-4.65v-.793a3.673,3.673,0,0,1,.866-2.158,4.249,4.249,0,0,1,2.951-.865A4.249,4.249,0,0,1,31.8,20.8a4.288,4.288,0,0,1-2.951.866Zm.086,28.494A6.176,6.176,0,0,1,33.571,45.1l15.665-3.74.729,3.753Z" transform="translate(0 -0.269)"/>
      </g>
    </g>
  </g>
</svg>
