<svg xmlns="http://www.w3.org/2000/svg" xmlns:xlink="http://www.w3.org/1999/xlink" width="108" height="108" viewBox="0 0 108 108">
  <defs>
    <filter id="Trazado_904820" x="0" y="0" width="108" height="108" filterUnits="userSpaceOnUse">
      <feOffset dy="3" input="SourceAlpha"/>
      <feGaussianBlur stdDeviation="3" result="blur"/>
      <feFlood flood-opacity="0.161"/>
      <feComposite operator="in" in2="blur"/>
      <feComposite in="SourceGraphic"/>
    </filter>
  </defs>
  <g id="Grupo_1201420" data-name="Grupo 1201420" transform="translate(-620 -2356)">
    <g id="Grupo_1183266" data-name="Grupo 1183266" transform="translate(629 2362)">
      <g id="Grupo_1173585" data-name="Grupo 1173585" transform="translate(0 0)">
        <g id="Grupo_1173428" data-name="Grupo 1173428">
          <g id="Grupo_1171958" data-name="Grupo 1171958">
            <g id="Grupo_1167341" data-name="Grupo 1167341">
              <g id="Grupo_1166792" data-name="Grupo 1166792">
                <g transform="matrix(1, 0, 0, 1, -9, -6)" filter="url(#Trazado_904820)">
                  <g id="Trazado_904820-2" data-name="Trazado 904820" transform="translate(9 6)" fill="#effbfe">
                    <path d="M 44.99999618530273 88.49999237060547 C 39.12687301635742 88.49999237060547 33.43022155761719 87.35006713867188 28.06829643249512 85.08216857910156 C 22.88852119445801 82.89130401611328 18.23629570007324 79.75457763671875 14.24084663391113 75.75914001464844 C 10.24540901184082 71.76369476318359 7.108683586120605 67.11146545410156 4.917821407318115 61.93169403076172 C 2.649921178817749 56.56976699829102 1.499996185302734 50.87311553955078 1.499996185302734 44.99999237060547 C 1.499996185302734 39.12686920166016 2.649921178817749 33.43021774291992 4.917821407318115 28.06829261779785 C 7.108683586120605 22.88851737976074 10.24540901184082 18.23630523681641 14.24084663391113 14.24085521697998 C 18.23629570007324 10.24540519714355 22.88852119445801 7.108692169189453 28.06829643249512 4.917829990386963 C 33.43022155761719 2.649929761886597 39.12687301635742 1.500004887580872 44.99999618530273 1.500004887580872 C 50.87311935424805 1.500004887580872 56.56977081298828 2.649929761886597 61.93169784545898 4.917829990386963 C 67.11147308349609 7.108692169189453 71.76369476318359 10.24540519714355 75.75914764404297 14.24085521697998 C 79.75458526611328 18.23630523681641 82.89131164550781 22.88851737976074 85.08216857910156 28.06829261779785 C 87.35007476806641 33.43021774291992 88.5 39.12686920166016 88.5 44.99999237060547 C 88.5 50.87311553955078 87.35007476806641 56.56976699829102 85.08216857910156 61.93169403076172 C 82.89131164550781 67.11146545410156 79.75458526611328 71.76369476318359 75.75914764404297 75.75914001464844 C 71.76369476318359 79.75457763671875 67.11147308349609 82.89130401611328 61.93169784545898 85.08216857910156 C 56.56977081298828 87.35006713867188 50.87311935424805 88.49999237060547 44.99999618530273 88.49999237060547 Z" stroke="none"/>
                    <path d="M 44.99999618530273 2.999992370605469 C 39.32870864868164 2.999992370605469 33.82865142822266 4.11004638671875 28.65262603759766 6.299331665039062 C 23.65165710449219 8.414566040039062 19.15968322753906 11.44333648681641 15.301513671875 15.30150604248047 C 11.44333648681641 19.15967559814453 8.414566040039062 23.65164947509766 6.299339294433594 28.65262222290039 C 4.110054016113281 33.82864761352539 2.999992370605469 39.32870483398438 2.999992370605469 44.99999237060547 C 2.999992370605469 50.67127990722656 4.110054016113281 56.17132186889648 6.299339294433594 61.34736633300781 C 8.414566040039062 66.34833526611328 11.44333648681641 70.84029388427734 15.301513671875 74.69846343994141 C 19.15968322753906 78.55663299560547 23.65165710449219 81.58540344238281 28.65262603759766 83.70063781738281 C 33.82865142822266 85.88992309570312 39.32870864868164 86.99997711181641 44.99999618530273 86.99997711181641 C 50.67128372192383 86.99997711181641 56.17134094238281 85.88992309570312 61.34736633300781 83.70063781738281 C 66.34834289550781 81.58540344238281 70.84030914306641 78.55663299560547 74.69847869873047 74.69846343994141 C 78.55665588378906 70.84029388427734 81.58542633056641 66.34833526611328 83.70065307617188 61.34736633300781 C 85.88993835449219 56.17132186889648 87 50.67127990722656 87 44.99999237060547 C 87 39.32870483398438 85.88993835449219 33.82864761352539 83.70065307617188 28.65262222290039 C 81.58542633056641 23.65164947509766 78.55665588378906 19.15967559814453 74.69847869873047 15.30150604248047 C 70.84030914306641 11.44333648681641 66.34834289550781 8.414566040039062 61.34736633300781 6.299331665039062 C 56.17134094238281 4.11004638671875 50.67128372192383 2.999992370605469 44.99999618530273 2.999992370605469 M 44.99999618530273 -7.62939453125e-06 C 69.85281372070312 -7.62939453125e-06 90 20.14717864990234 90 44.99999237060547 C 90 69.85279083251953 69.85281372070312 89.99997711181641 44.99999618530273 89.99997711181641 C 20.14717864990234 89.99997711181641 -7.62939453125e-06 69.85279083251953 -7.62939453125e-06 44.99999237060547 C -7.62939453125e-06 20.14717864990234 20.14717864990234 -7.62939453125e-06 44.99999618530273 -7.62939453125e-06 Z" stroke="none" fill="#497f88"/>
                  </g>
                </g>
              </g>
            </g>
          </g>
        </g>
      </g>
    </g>
    <g id="pensar_1_" data-name="pensar (1)" transform="translate(642.052 2379.413)">
      <g id="Grupo_1201418" data-name="Grupo 1201418" transform="translate(5.695 5.124)">
        <g id="Grupo_1201416" data-name="Grupo 1201416" transform="translate(7.836 12.173)">
          <path id="Trazado_1069810" data-name="Trazado 1069810" d="M120.956,349.81h.021a3.284,3.284,0,0,0,0-6.569H90.766a3.284,3.284,0,0,0,0,6.569h.021" transform="translate(-87.226 -323.55)" fill="#f1b986"/>
          <path id="Trazado_1069811" data-name="Trazado 1069811" d="M147.294,257.916a148.155,148.155,0,0,0-28.659,0,101.587,101.587,0,0,0-.655,17.819,8.406,8.406,0,0,0,8.006,7.969q6.978.329,13.956,0a8.406,8.406,0,0,0,8.006-7.969A101.6,101.6,0,0,0,147.294,257.916Z" transform="translate(-114.318 -246.8)" fill="#f1d0a5"/>
          <path id="Trazado_1069812" data-name="Trazado 1069812" d="M118.641,257.913q7.163-.695,14.33-.694a38.153,38.153,0,0,0-7.255.7q-.564,9-.332,17.989c.1,3.946,1.543,7.164,3.436,7.9q-1.413-.038-2.827-.105a8.407,8.407,0,0,1-8.006-7.969A101.723,101.723,0,0,1,118.641,257.913Z" transform="translate(-114.324 -246.798)" fill="#f1b986"/>
          <path id="Trazado_1069813" data-name="Trazado 1069813" d="M111.709,176.573c-5.491,2.121-13.29,1.186-17.221-2.745,0,0-.933,6.382-5.769,6.382l-2.109.709c-5.632-22.109,6.381-16.2,6.381-16.2a5.714,5.714,0,0,1,4.512-3.327c.152-.019.3-.033.457-.042l.037,0a10.017,10.017,0,0,1,3.541.534c.381.123.746.258,1.087.4a16.647,16.647,0,0,1,2.586,1.328l.041.028c1.236-1.636,2.416-3.116,3.712-3.116a1.352,1.352,0,0,1,1.146.529c.935,1.226.167,4.175.105,4.406l0,.01,0-.01.007-.017c.166-.418,2.024-4.919,5.355-4.919a2.6,2.6,0,0,1,.567.057c2.483.549.539,4.892.326,5.352l-.006.013-.011.023c.106-.135,4.265-5.415,6.113-2.993l0,0C124.431,165.431,117.2,174.453,111.709,176.573Z" transform="translate(-85.107 -160.518)" fill="#f4dd45"/>
          <g id="Grupo_1201415" data-name="Grupo 1201415" transform="translate(0 0)">
            <path id="Trazado_1069814" data-name="Trazado 1069814" d="M382.064,178.026h0c-.934-.933-4.171,3.473-6.115,3l.014-.026-.011.023C376.057,180.884,380.216,175.6,382.064,178.026Z" transform="translate(-344.605 -175.573)" fill="#ecc32e"/>
            <path id="Trazado_1069815" data-name="Trazado 1069815" d="M323.985,160.575c-1.4-.319-2.7,2.353-3.44,4.25a1.571,1.571,0,0,1-2.293.767l-.2-.124,0,0,0-.01h0l.007-.017c.166-.418,2.023-4.919,5.355-4.919A2.61,2.61,0,0,1,323.985,160.575Z" transform="translate(-292.947 -160.518)" fill="#ecc32e"/>
            <path id="Trazado_1069816" data-name="Trazado 1069816" d="M97.5,168.615c-4.017.708-5.535,9.918-3.015,12.438,0,0-.933,6.382-5.769,6.382l-2.109.709c-5.632-22.109,6.381-16.2,6.381-16.2A5.714,5.714,0,0,1,97.5,168.615Z" transform="translate(-85.104 -167.742)" fill="#ecc32e"/>
            <path id="Trazado_1069817" data-name="Trazado 1069817" d="M242.547,161.047c-1.412-1.412-2.353,5.829-5.531,6.988s-3.476-.323-3.476-.323h0c1.565-.579,2.886-2.408,4.147-4.078h0l.115-.153c.048-.065.1-.129.146-.193,1.143-1.493,2.246-2.77,3.45-2.77A1.352,1.352,0,0,1,242.547,161.047Z" transform="translate(-217.544 -160.518)" fill="#ecc32e"/>
          </g>
        </g>
        <circle id="Elipse_13480" data-name="Elipse 13480" cx="4.001" cy="4.001" r="4.001" transform="translate(42.673)" fill="#80b4fb"/>
        <path id="Trazado_1069818" data-name="Trazado 1069818" d="M415.931,56.974a4,4,0,1,1-5.383-5.383,4,4,0,0,0,5.383,5.383Z" transform="translate(-365.69 -51.156)" fill="#5490f9"/>
        <g id="Grupo_1201417" data-name="Grupo 1201417" transform="translate(0 7.237)">
          <circle id="Elipse_13481" data-name="Elipse 13481" cx="4.595" cy="4.595" r="4.595" fill="#f6f1f1"/>
        </g>
      </g>
      <g id="Grupo_1201419" data-name="Grupo 1201419" transform="translate(4.887 -0.001)">
        <path id="Trazado_1069819" data-name="Trazado 1069819" d="M225.995,410.377a4.229,4.229,0,0,0,3.8-2.4.808.808,0,0,0-1.46-.693,2.593,2.593,0,0,1-4.685,0,.808.808,0,0,0-1.46.693A4.229,4.229,0,0,0,225.995,410.377Z" transform="translate(-198.704 -362.976)"/>
        <path id="Trazado_1069820" data-name="Trazado 1069820" d="M183.324,346.213c0-1.12-.611-2.031-1.363-2.031s-1.363.911-1.363,2.031.611,2.031,1.363,2.031S183.324,347.332,183.324,346.213Z" transform="translate(-161.662 -307.091)"/>
        <path id="Trazado_1069821" data-name="Trazado 1069821" d="M313.092,346.213c0-1.12-.611-2.031-1.363-2.031s-1.363.911-1.363,2.031.611,2.031,1.363,2.031S313.092,347.332,313.092,346.213Z" transform="translate(-277.446 -307.091)"/>
        <path id="Trazado_1069822" data-name="Trazado 1069822" d="M114.744,154.842a5.222,5.222,0,0,0-3.179,1.5,3.455,3.455,0,0,0-.38-2.241,2.422,2.422,0,0,0-2.211-1.077,5.638,5.638,0,0,0-4.26,2.311,3.152,3.152,0,0,0-.562-1.461,2.16,2.16,0,0,0-1.791-.849c-1.5,0-2.706,1.3-3.913,2.856a18.155,18.155,0,0,0-2.119-1.036c-.378-.155-.763-.3-1.146-.419a10.74,10.74,0,0,0-3.831-.571h-.043c-.168.01-.339.026-.509.047a6.356,6.356,0,0,0-4.762,3.113c-1.263-.45-3.951-1.1-6,.561-2.76,2.24-3.073,7.753-.934,16.385a4.089,4.089,0,0,0,2.17,6.865q.031.993.081,1.981a9.155,9.155,0,0,0,1.013,3.755.808.808,0,0,0,1.436-.742,7.548,7.548,0,0,1-.834-3.1c-.144-2.794-.168-5.63-.075-8.444a6.141,6.141,0,0,0,4.632-3.573,11.647,11.647,0,0,0,.834-2.075,16.005,16.005,0,0,0,7.429,2.95,19.3,19.3,0,0,0,9.6-.943,18.482,18.482,0,0,0,5.5-3.67,101.078,101.078,0,0,1,.431,15.754,7.578,7.578,0,0,1-7.238,7.2c-4.605.218-9.275.218-13.88,0a7.54,7.54,0,0,1-4.591-1.82.808.808,0,0,0-1.052,1.228,9.142,9.142,0,0,0,5.567,2.207c2.328.11,4.672.165,7.017.165s4.689-.055,7.016-.165a9.189,9.189,0,0,0,8.776-8.735q.051-.989.081-1.981a4.092,4.092,0,0,0-.063-8.05q-.171-3.636-.6-7.254a19.423,19.423,0,0,0,4.514-6.928,3.085,3.085,0,0,0-.27-2.8,2.293,2.293,0,0,0-1.861-.953ZM79.569,176.807a2.481,2.481,0,0,1,1.705-2.353c-.048,1.562-.06,3.13-.036,4.693a2.48,2.48,0,0,1-1.669-2.34Zm35.163,0a2.479,2.479,0,0,1-1.67,2.34q.035-2.344-.037-4.694A2.48,2.48,0,0,1,114.732,176.807Zm.588-18.653c-.937,3.319-6.3,9.354-10.5,10.978a17.912,17.912,0,0,1-8.786.851,13.476,13.476,0,0,1-7.571-3.414.809.809,0,0,0-1.371.453,10.463,10.463,0,0,1-1.006,2.968,4.417,4.417,0,0,1-3.955,2.724h-.081a4.068,4.068,0,0,0-1.508.289c-2.267-9.472-.991-12.937.518-14.167,1.9-1.548,4.949-.094,4.977-.08a.808.808,0,0,0,1.075-.355,4.907,4.907,0,0,1,3.893-2.9c.13-.016.262-.028.393-.037l.053,0a9.159,9.159,0,0,1,3.241.5c.343.111.689.237,1.03.377a16.458,16.458,0,0,1,1.745.839c-1.036,1.362-2.106,2.671-3.242,3.09a.808.808,0,0,0,.56,1.516c1.71-.632,3.04-2.4,4.326-4.1,1.129-1.5,2.3-3.045,3.255-3.045a.556.556,0,0,1,.5.211c.5.657.281,2.568-.035,3.714a.808.808,0,0,0,1.535.5c.017-.044,1.721-4.428,4.61-4.428.64,0,.787.233.842.32.472.75-.123,2.773-.7,3.969a.808.808,0,0,0,1.366.847c.844-1.084,2.99-3.318,4.245-3.318h.005a.68.68,0,0,1,.584.317,1.748,1.748,0,0,1,0,1.38Z" transform="translate(-69.86 -136.532)"/>
        <path id="Trazado_1069823" data-name="Trazado 1069823" d="M59.558,6.8h2.119L63.2,12.465a.808.808,0,0,0,.764.6h.016a.808.808,0,0,0,.771-.567l3.4-10.879h4.829a.808.808,0,1,0,0-1.616H67.563a.808.808,0,0,0-.771.567L64.04,9.362l-.963-3.577a.808.808,0,0,0-.78-.6H59.558a.808.808,0,1,0,0,1.616Z" transform="translate(-52.945 -0.001)"/>
        <path id="Trazado_1069824" data-name="Trazado 1069824" d="M145.214,44.666c-1.355,1.936-2.163,2.995-2.6,3.564-.531.695-.729.955-.588,1.413a.85.85,0,0,0,.553.559,7.361,7.361,0,0,0,1.862.076c.649,0,1.536-.006,2.756-.022a.808.808,0,0,0-.01-1.616h-.01c-.991.012-2.046.019-2.859.02.482-.639,1.2-1.608,2.219-3.067a6.334,6.334,0,0,0,1.033-2.135.8.8,0,0,0,.014-.08l.042-.33a.822.822,0,0,0,.007-.1,2.994,2.994,0,0,0-5.932-.579.808.808,0,1,0,1.586.312,1.378,1.378,0,0,1,2.728.222l-.029.23A4.869,4.869,0,0,1,145.214,44.666Z" transform="translate(-126.945 -35.646)"/>
        <path id="Trazado_1069825" data-name="Trazado 1069825" d="M396.3,29.357c2.387-3.041,2.127-4.02,1.617-4.53s-1.491-.771-4.532,1.616a4.8,4.8,0,0,0-1.924-.27.808.808,0,1,0,.105,1.613,3.184,3.184,0,0,1,2.822,1.358c-.635.752-1.364,1.543-2.133,2.312s-1.56,1.5-2.312,2.133a3.19,3.19,0,0,1-.63-4.657.808.808,0,0,0-1.242-1.034,4.78,4.78,0,0,0-.835,4.7c-2.382,3.036-2.122,4.015-1.612,4.525a1.113,1.113,0,0,0,.836.342c.677,0,1.776-.452,3.7-1.96a4.808,4.808,0,0,0,6.144-6.144Zm.074-2.989a11.854,11.854,0,0,1-.953,1.474c-.08-.093-.162-.184-.25-.272s-.179-.17-.272-.249A11.834,11.834,0,0,1,396.378,26.369Zm-9.208,9.208a11.838,11.838,0,0,1,.953-1.475c.08.092.162.183.25.271s.179.17.272.25A11.856,11.856,0,0,1,387.17,35.577Zm6.862-2.347a3.183,3.183,0,0,1-2.282.933c.549-.491,1.106-1.018,1.652-1.564s1.072-1.1,1.564-1.652a3.184,3.184,0,0,1-.933,2.282Z" transform="translate(-344.292 -21.846)"/>
        <path id="Trazado_1069826" data-name="Trazado 1069826" d="M224.166,18.076a.808.808,0,0,0,1.043-.468l.638-1.674h4.278l.631,1.672a.808.808,0,1,0,1.512-.571l-3.326-8.814-.009-.022A1.007,1.007,0,0,0,228,7.573h0a1.007,1.007,0,0,0-.935.628l-.007.018L223.7,17.033A.808.808,0,0,0,224.166,18.076ZM228,10.293l1.519,4.025h-3.052Z" transform="translate(-200.071 -6.757)"/>
        <path id="Trazado_1069827" data-name="Trazado 1069827" d="M15.149,15.495a.808.808,0,0,0,1.143,0l.389-.389.389.389a.808.808,0,1,0,1.143-1.143l-.389-.389.389-.389a.808.808,0,0,0-1.143-1.143l-.389.389-.389-.389a.808.808,0,0,0-1.143,1.143l.389.389-.389.389a.808.808,0,0,0,0,1.143Z" transform="translate(-13.832 -10.88)"/>
        <path id="Trazado_1069828" data-name="Trazado 1069828" d="M475.476,144.347a.808.808,0,0,0-1.143,0l-.389.389-.389-.389a.808.808,0,1,0-1.143,1.143l.389.389-.389.389a.808.808,0,1,0,1.143,1.143l.389-.389.389.389a.808.808,0,1,0,1.143-1.143l-.389-.389.389-.389A.809.809,0,0,0,475.476,144.347Z" transform="translate(-421.818 -128.58)"/>
        <path id="Trazado_1069829" data-name="Trazado 1069829" d="M319.577,108.706a.808.808,0,0,0,1.143,0l.389-.389.389.389a.808.808,0,1,0,1.143-1.143l-.389-.389.389-.389a.808.808,0,1,0-1.143-1.143l-.389.389-.389-.389a.808.808,0,1,0-1.143,1.143l.389.389-.389.389A.808.808,0,0,0,319.577,108.706Z" transform="translate(-285.453 -94.046)"/>
        <path id="Trazado_1069830" data-name="Trazado 1069830" d="M19,288.111H17.438v-1.558a.808.808,0,0,0-1.616,0v1.558H14.263a.808.808,0,0,0,0,1.616h1.558v1.558a.808.808,0,1,0,1.616,0v-1.558H19a.808.808,0,1,0,0-1.616Z" transform="translate(-12.532 -254.951)"/>
        <path id="Trazado_1069831" data-name="Trazado 1069831" d="M10.29,118.022a5.4,5.4,0,1,0-5.4-5.4A5.409,5.409,0,0,0,10.29,118.022Zm0-9.189A3.786,3.786,0,1,1,6.5,112.619a3.791,3.791,0,0,1,3.787-3.786Z" transform="translate(-4.887 -95.662)"/>
        <path id="Trazado_1069832" data-name="Trazado 1069832" d="M48.331,132.329h1.21a.808.808,0,1,0,0-1.616h-.4v-1.5a.808.808,0,0,0-1.616,0v2.312A.808.808,0,0,0,48.331,132.329Z" transform="translate(-42.928 -114.564)"/>
        <path id="Trazado_1069833" data-name="Trazado 1069833" d="M346.358,5.507h1.677l-1.314,2.732a.808.808,0,1,0,1.457.7l1.871-3.891a.808.808,0,0,0-.729-1.158h-1.677l1.314-2.732a.808.808,0,0,0-1.457-.7l-1.87,3.891a.808.808,0,0,0,.728,1.158Z" transform="translate(-308.838 0.001)"/>
        <path id="Trazado_1069834" data-name="Trazado 1069834" d="M452.3,216.174a2.637,2.637,0,0,0-2.116-4.212h-2.31a.808.808,0,0,0-.808.808v7.951a.808.808,0,0,0,.808.808h0s2.124-.009,2.709-.009a2.947,2.947,0,0,0,1.712-5.347Zm-2.115-2.6a1.021,1.021,0,0,1,0,2.043l-.843,0h-.659v-2.045Zm.4,6.325c-.348,0-1.238,0-1.9.006v-2.667l.664,0h1.241a1.332,1.332,0,1,1,0,2.664Z" transform="translate(-399.419 -189.12)"/>
      </g>
    </g>
  </g>
</svg>
